<?xml version="1.0" standalone="no"?>
<!DOCTYPE svg PUBLIC "-//W3C//DTD SVG 1.1//EN" "http://www.w3.org/Graphics/SVG/1.1/DTD/svg11.dtd" >
<svg xmlns="http://www.w3.org/2000/svg" xmlns:xlink="http://www.w3.org/1999/xlink" version="1.1">
<metadata>
Created by FontForge 20170731 at Wed Nov 19 22:47:05 2014
 By Aleksey,,,
Copyright (c) 2014 Parachute, www.parachute.gr.  All rights reserved.
</metadata>
<defs>
<font id="PFDekkaPro-SemiBold" horiz-adv-x="586" >
  <font-face 
    font-family="PF Dekka Pro SemiBold"
    font-weight="600"
    font-stretch="normal"
    units-per-em="1000"
    panose-1="2 0 5 6 0 0 0 2 0 4"
    ascent="750"
    descent="-250"
    x-height="498"
    cap-height="679"
    bbox="-208 -293 1256 969"
    underline-thickness="65"
    underline-position="-248"
    unicode-range="U+0020-FB05"
  />
<missing-glyph horiz-adv-x="456" 
d="M0 0v700h456v-700h-456zM127 86h203l-102 184zM228 431l102 183h-205zM86 523v-343l94 170zM275 349l95 -171v344z" />
    <glyph glyph-name="fj" unicode="fj" horiz-adv-x="615" 
d="M547 33q0 -108 -55 -157t-162 -49q-11 0 -55 4l6 117q13 -1 31 -1q60 0 83.5 19.5t23.5 75.5v352h-168v-394h-129v394h-120v104h120v28q0 105 57 151t172 46q54 0 145 -14q-6 -78 -10 -112q-80 13 -130 13q-60 0 -82.5 -22t-22.5 -67v-23h296v-465z" />
    <glyph glyph-name="ffj" unicode="ffj" horiz-adv-x="925" 
d="M857 33q0 -108 -55 -157t-162 -49q-11 0 -55 4l6 117q13 -1 31 -1q60 0 83.5 19.5t23.5 75.5v352h-166v-394h-128v394h-179v-394h-128v394h-122v104h122v27q0 106 55 150.5t158 44.5q26 0 55 -3l-6 -116q-1 0 -8.5 0.5t-19 1t-23.5 0.5q-83 0 -83 -79v-26h179v47
q0 105 57 151t171 46q52 0 143 -14q-6 -78 -10 -112q-80 13 -127 13q-61 0 -83.5 -22t-22.5 -67v-42h294v-465z" />
    <glyph glyph-name="ff" unicode="ff" horiz-adv-x="712" 
d="M398 717l-6 -116q-1 0 -8.5 0.5t-19 1t-23.5 0.5q-83 0 -83 -79v-26h176v49q0 105 55.5 150t157.5 45q33 0 62 -3l-6 -117q-1 0 -10 1t-22.5 1.5t-25.5 0.5q-44 0 -63 -19t-19 -61v-47h139v-104h-139v-394h-129v394h-176v-394h-128v394h-122v104h122v27q0 106 55 150.5
t158 44.5q26 0 55 -3z" />
    <glyph glyph-name="fi" unicode="fi" horiz-adv-x="612" 
d="M120 498v28q0 105 57 151t171 46q55 0 146 -14l-10 -112q-80 13 -130 13q-61 0 -83.5 -22t-22.5 -67v-23h297v-498h-129v394h-168v-394h-128v394h-120v104h120z" />
    <glyph glyph-name="fl" unicode="fl" horiz-adv-x="612" 
d="M544 0h-128v608q-41 3 -62 3q-61 0 -83.5 -21.5t-22.5 -67.5v-24h116v-104h-116v-394h-128v394h-120v104h120v28q0 106 56.5 151.5t171.5 45.5q48 0 124 -9h72v-714z" />
    <glyph glyph-name="ffi" unicode="ffi" horiz-adv-x="927" 
d="M437 498v47q0 105 57 151t171 46q52 0 143 -14q-6 -74 -10 -111q-80 13 -127 13q-61 0 -83.5 -22t-22.5 -67v-43h294v-498h-129v394h-165v-394h-128v394h-179v-394h-128v394h-122v104h122v27q0 106 55 150.5t158 44.5q26 0 55 -3l-6 -116q-1 0 -8.5 0.5t-19 1t-23.5 0.5
q-83 0 -83 -79v-26h179z" />
    <glyph glyph-name="ffl" unicode="ffl" horiz-adv-x="920" 
d="M852 0h-128v626q-36 4 -62 4q-61 0 -83.5 -22t-22.5 -67v-43h116v-104h-116v-394h-128v394h-174v-394h-129v394h-121v104h121v27q0 106 55.5 150.5t157.5 44.5q26 0 56 -3l-7 -116l-19 1q-19 1 -32 1q-44 0 -63 -19.5t-19 -59.5v-26h174v47q0 105 57 151t171 46
q54 0 124 -10h72v-732z" />
    <glyph glyph-name="ft" unicode="ft" horiz-adv-x="761" 
d="M450 394h-190v-394h-129v394h-121v104h121v42q0 105 55.5 150t157.5 45q33 0 62 -3l-6 -117q-1 0 -10 0.5t-22.5 1.5t-25.5 1q-82 0 -82 -79v-41h190v144h128v-144h140v-104h-140v-190q0 -52 18.5 -72.5t73.5 -20.5q31 0 74 4l4 -117q-46 -4 -84 -4q-113 0 -163.5 42
t-50.5 149v209z" />
    <glyph glyph-name=".notdef" horiz-adv-x="456" 
d="M0 0v700h456v-700h-456zM127 86h203l-102 184zM228 431l102 183h-205zM86 523v-343l94 170zM275 349l95 -171v344z" />
    <glyph glyph-name=".null" horiz-adv-x="0" 
 />
    <glyph glyph-name="nonmarkingreturn" horiz-adv-x="333" 
 />
    <glyph glyph-name="space" unicode=" " horiz-adv-x="297" 
 />
    <glyph glyph-name="exclam" unicode="!" horiz-adv-x="302" 
d="M209 686l-16 -471h-90l-16 471h122zM71 70q0 32 22.5 54t53.5 22q32 0 54 -22t22 -54t-20.5 -54.5t-54.5 -22.5q-32 0 -54.5 22.5t-22.5 54.5z" />
    <glyph glyph-name="quotedbl" unicode="&#x22;" horiz-adv-x="496" 
d="M112 421v263h102v-263h-102zM282 421v263h102v-263h-102z" />
    <glyph glyph-name="numbersign" unicode="#" horiz-adv-x="596" 
d="M84 0l32 196h-82v95h98q3 19 9 56t8 55h-90v96h106l30 187h109l-31 -187h89l31 187h108l-31 -187h90v-96h-105l-18 -111h98v-95h-113l-32 -196h-108l32 196h-90l-32 -196h-108zM329 291l18 111h-90q-2 -18 -8.5 -55t-8.5 -56h89z" />
    <glyph glyph-name="dollar" unicode="$" 
d="M269 -95v97q-172 12 -227 153l115 50q31 -76 112 -86v170q-35 9 -58 16t-53 21.5t-47 32.5t-29.5 47.5t-12.5 67.5q0 84 52.5 137t147.5 59v87h59v-87q141 -12 205 -124l-107 -70q-38 64 -98 77v-159q38 -10 61.5 -17t56.5 -23t51.5 -35t32.5 -51t14 -73
q0 -91 -61.5 -139t-154.5 -54v-97h-59zM417 194q0 30 -23 48t-66 31v-154q38 5 63.5 23.5t25.5 51.5zM193 479q0 -45 76 -69v144q-76 -11 -76 -75z" />
    <glyph glyph-name="percent" unicode="%" horiz-adv-x="960" 
d="M240 24l394 673h83v-39l-394 -672h-83v38zM212 250q-73 0 -116.5 36.5t-43.5 105.5v141q0 72 42.5 110t117.5 38q78 0 121 -37.5t43 -110.5v-139q0 -70 -45.5 -107t-118.5 -37zM275 526q0 67 -62 67q-59 0 -59 -67v-124q0 -65 59 -65q62 0 62 65v124zM742 -5
q-73 0 -116.5 36.5t-43.5 105.5v141q0 72 42.5 110t117.5 38q78 0 121 -37.5t43 -110.5v-139q0 -70 -45.5 -107t-118.5 -37zM805 271q0 67 -62 67q-59 0 -59 -67v-124q0 -65 59 -65q62 0 62 65v124z" />
    <glyph glyph-name="ampersand" unicode="&#x26;" horiz-adv-x="684" 
d="M665 282q-33 -94 -86 -153l87 -94v-35h-137l-42 44q-88 -49 -209 -49q-99 0 -165.5 51.5t-66.5 150.5q0 63 39 116.5t105 89.5q-39 56 -39 115q0 68 44.5 114.5t118.5 46.5q71 0 117 -43.5t46 -107.5q0 -90 -117 -156q42 -56 135 -155q27 31 51 99q20 -6 59.5 -17
t59.5 -17zM313 574q-20 0 -30.5 -16t-10.5 -34q0 -42 26 -73q59 32 59 80q0 16 -11.5 29.5t-32.5 13.5zM251 311q-75 -45 -75 -107q0 -46 28 -71t73 -25q69 0 119 28q-90 100 -145 175z" />
    <glyph glyph-name="quotesingle" unicode="'" horiz-adv-x="303" 
d="M101 421v263h101v-263h-101z" />
    <glyph glyph-name="parenleft" unicode="(" horiz-adv-x="371" 
d="M203 332q0 -223 129 -379l-84 -58q-65 65 -121.5 181t-56.5 256q0 81 22.5 160t57.5 138t62.5 95.5t52.5 61.5l79 -53q-141 -176 -141 -402z" />
    <glyph glyph-name="parenright" unicode=")" horiz-adv-x="371" 
d="M129 -105q-28 20 -84 58q129 156 129 379q0 226 -141 402l79 53q25 -25 52.5 -61.5t62.5 -95.5t57.5 -138t22.5 -160q0 -140 -56.5 -256t-121.5 -181z" />
    <glyph glyph-name="asterisk" unicode="*" horiz-adv-x="480" 
d="M317 466l83 -110l-75 -54l-82 112l-80 -112l-74 54l79 109l-129 44l29 84l130 -44v135h90v-135l128 44l30 -84z" />
    <glyph glyph-name="plus" unicode="+" 
d="M61 249v112h172v161h119v-161h173v-112h-173v-169h-119v169h-172z" />
    <glyph glyph-name="comma" unicode="," horiz-adv-x="292" 
d="M100 -158l-42 59q62 40 70 96q-30 2 -48 23.5t-18 49.5q0 35 25 59t59 24q41 0 66 -30t25 -79q0 -61 -36.5 -114t-100.5 -88z" />
    <glyph glyph-name="hyphen" unicode="-" horiz-adv-x="394" 
d="M60 257v115h273v-115h-273z" />
    <glyph glyph-name="period" unicode="." horiz-adv-x="290" 
d="M64 76q0 34 24 57.5t57 23.5q34 0 58 -23.5t24 -57.5q0 -35 -22 -59t-58 -24q-35 0 -59 24.5t-24 58.5z" />
    <glyph glyph-name="slash" unicode="/" horiz-adv-x="453" 
d="M14 2l292 730h119v-41l-293 -729h-118v40z" />
    <glyph glyph-name="zero" unicode="0" 
d="M290 -6q-107 0 -171 59t-64 167v235q0 113 62 171.5t173 58.5q114 0 177 -58t63 -172v-235q0 -111 -66 -168.5t-174 -57.5zM400 444q0 122 -108 122q-105 0 -105 -122v-210q0 -121 105 -121q108 0 108 121v210z" />
    <glyph glyph-name="one" unicode="1" 
d="M110 458v121l128 99h126v-678h-130v520q-28 -20 -82 -62h-42z" />
    <glyph glyph-name="two" unicode="2" 
d="M290 683q101 0 165.5 -46t64.5 -147q0 -48 -22 -88.5t-56 -67.5t-74.5 -54t-77 -48.5t-64.5 -51t-35 -61.5h339v-119h-481v65q0 57 16 102.5t51 82t66 59.5t85 56q30 18 43 27t34.5 26t30 33t8.5 35q0 31 -23 54t-76 23q-35 0 -67.5 -17t-47.5 -58l-117 58
q38 76 97 106.5t141 30.5z" />
    <glyph glyph-name="three" unicode="3" 
d="M271 -6q-95 0 -156 30t-96 115q17 9 57.5 28t61.5 30q33 -85 129 -85q62 0 92 28t30 86q0 52 -34.5 81t-90.5 29h-99v93l146 128v1h-246v120h440v-114q-102 -88 -153 -131v-2q85 -12 126.5 -66.5t41.5 -140.5q0 -116 -70.5 -173t-178.5 -57z" />
    <glyph glyph-name="four" unicode="4" 
d="M189 262h141v147h130v-147h85v-120h-85v-142h-130v142h-291v101l213 436h121v-40z" />
    <glyph glyph-name="five" unicode="5" 
d="M540 228q0 -119 -70 -176.5t-180 -57.5q-94 0 -155 30t-96 115l119 58q32 -85 129 -85q122 0 122 115t-132 115q-61 0 -121 -21l-74 58l32 300h406v-122h-287l-11 -105q27 6 62 6q256 0 256 -230z" />
    <glyph glyph-name="six" unicode="6" 
d="M259 440l2 -3q20 11 55 11q107 0 165 -61t58 -161q0 -105 -66.5 -168t-179.5 -63q-119 0 -182 64t-63 176q0 66 21 128.5t62.5 121.5t77 99t90.5 95h140v-41q-116 -107 -180 -198zM291 336q-52 0 -81.5 -32.5t-29.5 -76.5q0 -115 112 -115q117 0 117 114q0 110 -118 110z
" />
    <glyph glyph-name="seven" unicode="7" 
d="M96 52l267 506h-303v121h457v-98q-48 -92 -305 -581h-116v52z" />
    <glyph glyph-name="eight" unicode="8" 
d="M538 196q0 -96 -70 -149t-174 -53q-106 0 -175.5 51.5t-69.5 150.5q0 56 33 100.5t87 67.5v3q-94 42 -94 141q0 81 62 128t157 47q96 0 157.5 -47t61.5 -128q0 -46 -23.5 -83.5t-65.5 -57.5v-3q114 -50 114 -168zM382 510q0 28 -25.5 43.5t-62.5 15.5t-62.5 -15.5
t-25.5 -43.5q0 -26 27.5 -52.5t61.5 -36.5q35 9 61 33.5t26 55.5zM409 195q0 39 -29 63t-87 45q-113 -34 -113 -108q0 -41 32.5 -62.5t81.5 -21.5t82 21.5t33 62.5z" />
    <glyph glyph-name="nine" unicode="9" 
d="M329 236l-2 3q-18 -11 -52 -11q-109 0 -168 60.5t-59 161.5q0 105 66.5 168t180.5 63q118 0 181 -64t63 -176q0 -54 -16 -107.5t-38 -95t-60 -89t-66 -77t-71 -72.5h-139v40q123 115 180 196zM297 340q52 0 81.5 31.5t29.5 75.5q0 117 -112 117q-117 0 -117 -116
q0 -108 118 -108z" />
    <glyph glyph-name="colon" unicode=":" horiz-adv-x="336" 
d="M84 412q0 34 24 57.5t57 23.5t57.5 -23.5t24.5 -57.5t-22 -58.5t-58 -24.5q-35 0 -59 24t-24 59zM84 76q0 34 24 57.5t57 23.5t57.5 -23.5t24.5 -57.5q0 -35 -22 -59t-58 -24q-35 0 -59 24t-24 59z" />
    <glyph glyph-name="semicolon" unicode=";" horiz-adv-x="303" 
d="M155 326q-35 0 -59.5 25t-24.5 59q0 35 24.5 59t57.5 24q34 0 58.5 -24t24.5 -59t-22.5 -59.5t-58.5 -24.5zM100 -158l-42 59q62 40 70 96q-30 2 -48 23.5t-18 49.5q0 35 25 59t59 24q41 0 66 -30t25 -79q0 -61 -36.5 -114t-100.5 -88z" />
    <glyph glyph-name="semicolon" unicode="&#x37e;" horiz-adv-x="303" 
d="M155 326q-35 0 -59.5 25t-24.5 59q0 35 24.5 59t57.5 24q34 0 58.5 -24t24.5 -59t-22.5 -59.5t-58.5 -24.5zM100 -158l-42 59q62 40 70 96q-30 2 -48 23.5t-18 49.5q0 35 25 59t59 24q41 0 66 -30t25 -79q0 -61 -36.5 -114t-100.5 -88z" />
    <glyph glyph-name="less" unicode="&#x3c;" 
d="M468 29l-408 227v103l403 225l52 -108l-297 -168l307 -167z" />
    <glyph glyph-name="equal" unicode="=" 
d="M61 366v112h464v-112h-464zM61 132v112h464v-112h-464z" />
    <glyph glyph-name="greater" unicode="&#x3e;" 
d="M525 256l-408 -227l-57 112l306 167l-297 168l52 108l404 -225v-103z" />
    <glyph glyph-name="question" unicode="?" horiz-adv-x="517" 
d="M340 517q0 26 -21.5 40.5t-57.5 14.5q-77 0 -104 -76l-107 57q19 41 44 69t55 42.5t60.5 20.5t67.5 6q36 0 70.5 -9t65 -27t49 -50.5t18.5 -74.5q0 -34 -15.5 -65.5t-31 -48.5t-42.5 -41q-68 -55 -68 -146v-25h-124v42q0 75 25.5 117.5t77.5 85.5q38 35 38 68zM262 -8
q-31 0 -54 23t-23 55t22.5 54t53.5 22q32 0 54 -22t22 -54q0 -33 -20.5 -55.5t-54.5 -22.5z" />
    <glyph glyph-name="at" unicode="@" horiz-adv-x="924" 
d="M630 388v-124q0 -10 3 -20t16.5 -20t34.5 -10q32 0 56 36.5t24 103.5q0 108 -80 179t-205 71q-68 0 -123.5 -19t-91 -48.5t-59.5 -67.5t-34 -74.5t-10 -71.5q0 -121 83.5 -201.5t211.5 -80.5q80 0 141 33q7 -16 35 -77q-80 -38 -176 -38q-167 0 -276 102t-109 261
t117 263.5t291 104.5q168 0 273.5 -95t105.5 -242q0 -102 -51 -162t-123 -60q-91 0 -129 55q-48 -53 -132 -53q-156 0 -156 129q0 52 37.5 86t104.5 34h115v11q0 32 -18 47.5t-67 15.5q-21 0 -102 -6q-1 14 -3 41.5t-2 41.5q78 7 118 7q88 0 134 -35.5t46 -116.5zM427 305
q-59 0 -59 -44q0 -36 62 -36q40 0 66 21.5t27 58.5h-96z" />
    <glyph glyph-name="A" unicode="A" horiz-adv-x="591" 
d="M438 0q-9 27 -24.5 80.5t-24.5 80.5h-191l-49 -161h-122v38l198 641h139q67 -213 199 -641v-38h-125zM353 279q-5 17 -15.5 57.5t-18.5 68.5l-23 100h-6l-26 -112l-31 -114h120z" />
    <glyph glyph-name="B" unicode="B" horiz-adv-x="626" 
d="M469 361v-2q53 -18 77.5 -63.5t24.5 -93.5q0 -84 -57 -143t-169 -59h-280v679h260q41 0 78 -8.5t72 -27.5t55.5 -57t20.5 -90q0 -36 -20 -74.5t-62 -60.5zM323 300h-126v-181h124q115 0 115 90q0 91 -113 91zM322 557h-125v-142h133q34 0 60.5 16t26.5 55q0 71 -95 71z
" />
    <glyph glyph-name="C" unicode="C" horiz-adv-x="551" 
d="M288 685q82 0 137 -30t86 -109q-95 -45 -115 -55q-23 75 -103 75q-104 0 -104 -117v-221q0 -115 104 -115q83 0 110 87l120 -57q-62 -149 -233 -149q-106 0 -170 52.5t-64 163.5v245q0 114 62 172t170 58z" />
    <glyph glyph-name="D" unicode="D" horiz-adv-x="613" 
d="M556 456v-237q0 -110 -68 -164.5t-171 -54.5h-252v679h254q104 0 170.5 -55t66.5 -168zM424 219v236q0 55 -28.5 79t-84.5 24h-115v-439h115q113 0 113 100z" />
    <glyph glyph-name="E" unicode="E" horiz-adv-x="559" 
d="M516 0h-451v679h439v-121h-307v-139h266v-121h-266v-179h319v-119z" />
    <glyph glyph-name="F" unicode="F" horiz-adv-x="504" 
d="M481 558h-284v-140h238v-121h-238v-297h-132v679h416v-121z" />
    <glyph glyph-name="G" unicode="G" horiz-adv-x="600" 
d="M299 -6q-109 0 -175.5 53.5t-66.5 162.5v250q0 112 64 168.5t174 56.5q176 0 235 -143l-115 -53q-17 42 -45.5 59.5t-71.5 17.5q-110 0 -110 -114v-226q0 -113 109 -113q114 0 114 112v47h-103v113h233v-162q0 -112 -67 -170.5t-175 -58.5z" />
    <glyph glyph-name="H" unicode="H" horiz-adv-x="627" 
d="M562 0h-131v297h-234v-297h-132v679h132v-261h234v261h131v-679z" />
    <glyph glyph-name="I" unicode="I" horiz-adv-x="286" 
d="M208 0h-131v679h131v-679z" />
    <glyph glyph-name="J" unicode="J" horiz-adv-x="554" 
d="M475 211q0 -109 -62.5 -163t-172.5 -54q-162 0 -223 145l112 59q21 -49 47 -67t67 -18q102 0 102 108v458h130v-468z" />
    <glyph glyph-name="K" unicode="K" horiz-adv-x="611" 
d="M196 444l3 -1l254 236h127v-43l-243 -228l264 -370v-38h-127l-228 320l-50 -47v-273h-131v679h131v-235z" />
    <glyph glyph-name="L" unicode="L" horiz-adv-x="545" 
d="M532 0h-467v679h133v-560h334v-119z" />
    <glyph glyph-name="M" unicode="M" horiz-adv-x="722" 
d="M657 0h-132v398l1 52h-4l-67 -159l-33 -67h-122l-34 70l-67 155h-4l1 -61v-388h-131v679h165l103 -227l25 -60h5l25 62l102 225h167v-679z" />
    <glyph glyph-name="N" unicode="N" horiz-adv-x="623" 
d="M558 0h-140l-175 353l-44 98h-4q0 -58 1 -87v-364h-131v679h163l163 -354l33 -78h5q0 15 -0.5 43t-0.5 42v347h130v-679z" />
    <glyph glyph-name="O" unicode="O" horiz-adv-x="597" 
d="M296 -6q-106 0 -173 56.5t-67 166.5v242q0 114 65 169.5t175 55.5q112 0 178.5 -56t66.5 -169v-242q0 -112 -69 -167.5t-176 -55.5zM410 232v219q0 115 -112 115q-109 0 -109 -115v-219q0 -119 109 -119q55 0 83.5 31t28.5 88z" />
    <glyph glyph-name="P" unicode="P" horiz-adv-x="569" 
d="M64 0v679h244q106 0 169.5 -58t63.5 -165q0 -108 -74 -166.5t-170 -58.5h-102v-231h-131zM195 351h107q49 0 77.5 30t28.5 76q0 48 -29 74.5t-75 26.5h-109v-207z" />
    <glyph glyph-name="Q" unicode="Q" horiz-adv-x="598" 
d="M548 -63l-79 -38l-127 98q-22 -3 -46 -3q-108 0 -174 55.5t-66 163.5v245q0 113 64 170t176 57q114 0 179.5 -56.5t65.5 -166.5v-249q0 -61 -22.5 -107.5t-61.5 -70.5l91 -59v-39zM410 229v222q0 58 -27 86.5t-86 28.5q-108 0 -108 -116v-219q0 -118 108 -118
q113 0 113 116z" />
    <glyph glyph-name="R" unicode="R" horiz-adv-x="594" 
d="M64 0v679h242q113 0 175.5 -53t62.5 -162q0 -125 -124 -180l125 -246v-38h-129l-126 260h-95v-260h-131zM195 380h117q46 0 73 22.5t27 63.5q0 46 -28 69t-76 23h-112z" />
    <glyph glyph-name="S" unicode="S" horiz-adv-x="568" 
d="M520 538l-116 -52q-30 80 -117 80q-43 0 -70.5 -19.5t-27.5 -54.5q0 -25 19 -41.5t50 -26.5t68 -19t74 -23.5t68 -35t50 -58.5t19 -90q0 -97 -71.5 -150.5t-167.5 -53.5q-33 0 -58.5 2.5t-61 12.5t-62 28.5t-51.5 53.5t-38 84l125 50q18 -63 53.5 -87.5t90.5 -24.5
q51 0 80.5 22t29.5 59q0 41 -36 64.5t-87.5 35.5t-103 28.5t-87.5 57t-36 106.5q0 91 62.5 145t163.5 54q38 0 68.5 -5.5t63.5 -20t60 -45t46 -76.5z" />
    <glyph glyph-name="T" unicode="T" horiz-adv-x="527" 
d="M329 558v-558h-131v558h-186v121h502v-121h-185z" />
    <glyph glyph-name="U" unicode="U" horiz-adv-x="606" 
d="M192 679v-450q0 -116 109 -116q55 0 84 30t29 86v450h131v-466q0 -109 -68 -164t-177 -55q-108 0 -173.5 55.5t-65.5 163.5v466h131z" />
    <glyph glyph-name="V" unicode="V" horiz-adv-x="595" 
d="M375 0h-157q-26 82 -196 638v41h126l84 -274q2 -9 6.5 -25t19.5 -71l36 -132h6q43 163 62 227l84 275h127v-40z" />
    <glyph glyph-name="W" unicode="W" horiz-adv-x="707" 
d="M653 479q-2 -99 -19 -194l-50 -285h-150l-50 145l-28 84h-5l-27 -83l-50 -146h-150l-49 265q-20 112 -20 214v200h133v-213q0 -47 25 -236l6 -46h6l38 134l30 94h122l31 -99l39 -135h5l7 50q3 27 8 68.5t8 64.5t5 52.5t2 52.5v213h133v-200z" />
    <glyph glyph-name="X" unicode="X" horiz-adv-x="595" 
d="M296 467h4q25 44 56 95l73 117h127v-41q-16 -25 -82 -127.5t-102 -158.5q67 -104 199 -314v-38h-129q-27 44 -83 132l-61 108h-2q-8 -13 -29.5 -52t-34.5 -59l-81 -129h-127v38l200 313l-180 287v41h126l72 -117z" />
    <glyph glyph-name="Y" unicode="Y" horiz-adv-x="581" 
d="M287 398h6l54 117l86 164h133v-40l-209 -385v-254h-131v245l-211 393v41h132l85 -163z" />
    <glyph glyph-name="Z" unicode="Z" horiz-adv-x="552" 
d="M38 0v105l304 453h-284v121h441v-111l-299 -449h316v-119h-478z" />
    <glyph glyph-name="bracketleft" unicode="[" horiz-adv-x="443" 
d="M387 -69h-290v807h270v-121h-141v-566h161v-120z" />
    <glyph glyph-name="backslash" unicode="\" horiz-adv-x="453" 
d="M133 732l292 -730v-40h-118l-293 729v41h119z" />
    <glyph glyph-name="bracketright" unicode="]" horiz-adv-x="443" 
d="M345 -69h-290v120h161v566h-140v121h269v-807z" />
    <glyph glyph-name="asciicircum" unicode="^" horiz-adv-x="569" 
d="M454 400l-175 139l-170 -138l-74 75l219 205h59l220 -202z" />
    <glyph glyph-name="underscore" unicode="_" horiz-adv-x="536" 
d="M1 -137v83h533v-83h-533z" />
    <glyph glyph-name="grave" unicode="`" horiz-adv-x="548" 
d="M351 582l-76 -32l-121 180l114 45z" />
    <glyph glyph-name="a" unicode="a" horiz-adv-x="539" 
d="M368 45l-4 1q-55 -53 -145 -53q-182 0 -182 157q0 68 46 112t129 44h140v8q0 43 -23 62.5t-78 19.5q-50 0 -135 -9l-7 109q76 9 155 9q216 0 216 -192v-159l3 -154h-99q-12 20 -16 45zM234 207q-72 0 -72 -53q0 -47 75 -47q50 0 80.5 27t33.5 73h-117z" />
    <glyph glyph-name="b" unicode="b" horiz-adv-x="546" 
d="M58 163v552h131v-253q1 0 1 -0.5t1 -0.5q51 44 124 44q56 0 94.5 -16.5t58 -47t27.5 -65t8 -79.5v-97q0 -102 -46 -154t-148 -52q-86 0 -138 51l-2 -1q-5 -25 -16 -44h-99zM375 202v93q0 92 -90 92q-98 0 -98 -106v-64q0 -52 22 -79.5t76 -27.5q90 0 90 92z" />
    <glyph glyph-name="c" unicode="c" horiz-adv-x="494" 
d="M468 136q-48 -142 -209 -142q-215 0 -215 198v115q0 103 59 150.5t158 47.5q155 0 199 -137q-78 -34 -117 -50q-14 72 -87 72q-84 0 -84 -95v-95q0 -92 88 -92q70 0 89 74q104 -40 119 -46z" />
    <glyph glyph-name="d" unicode="d" horiz-adv-x="544" 
d="M357 715h131v-538l3 -177h-99q-4 4 -9 24t-9 24q-47 -54 -139 -54t-142 47t-50 142v113q0 94 45.5 151.5t143.5 57.5q77 0 123 -43h2v253zM172 292v-91q0 -43 19.5 -67t69.5 -24q98 0 98 107v68q0 103 -95 103q-92 0 -92 -96z" />
    <glyph glyph-name="e" unicode="e" horiz-adv-x="510" 
d="M425 114l9 -107q-75 -14 -158 -14q-115 0 -174 46.5t-59 151.5v114q0 104 57.5 151.5t157.5 47.5t155.5 -46t55.5 -129q0 -135 -154 -135h-144q0 -50 20.5 -71t93.5 -21q57 0 140 12zM260 392q-51 0 -70 -24t-19 -67v-11h129q43 0 43 38q0 29 -20.5 46.5t-62.5 17.5z" />
    <glyph glyph-name="f" unicode="f" horiz-adv-x="407" 
d="M406 717l-6 -116q-1 0 -10 0.5t-22.5 1t-25.5 0.5q-51 0 -66.5 -24.5t-15.5 -80.5h139v-104h-139v-394h-129v394h-121v104h121v27q0 106 55.5 150.5t157.5 44.5q33 0 62 -3z" />
    <glyph glyph-name="g" unicode="g" horiz-adv-x="543" 
d="M88 -161l10 113q76 -10 155 -10q61 0 84 19.5t23 58.5v29l-1 1h-1q-49 -44 -125 -44q-107 0 -146.5 51.5t-39.5 147.5v93q0 100 45 153.5t147 53.5q87 0 138 -52l2 1q4 23 17 45h98q-3 -150 -3 -164v-313q0 -106 -59.5 -150t-176.5 -44q-88 0 -167 11zM175 294v-82
q0 -44 20 -66t69 -22q99 0 99 106v51q0 52 -22 79.5t-76 27.5q-90 0 -90 -94z" />
    <glyph glyph-name="h" unicode="h" horiz-adv-x="545" 
d="M365 0v296q0 87 -88 87q-97 0 -97 -113v-270h-129v715h129v-256h2q55 46 126 46q105 0 146.5 -51t41.5 -154v-300h-131z" />
    <glyph glyph-name="i" unicode="i" horiz-adv-x="285" 
d="M76 0v498h129v-498h-129zM64 644q0 32 24 54.5t55 22.5t54.5 -22.5t23.5 -54.5q0 -33 -23.5 -55.5t-54.5 -22.5q-32 0 -55.5 22.5t-23.5 55.5z" />
    <glyph glyph-name="j" unicode="j" horiz-adv-x="302" 
d="M239 644q0 -33 -23.5 -55.5t-54.5 -22.5q-32 0 -55.5 22.5t-23.5 55.5q0 32 24 54.5t55 22.5t54.5 -22.5t23.5 -54.5zM224 33q0 -110 -57.5 -157.5t-166.5 -47.5q-33 0 -69 3q3 39 7 115q16 -1 49 -1q59 0 83.5 19t24.5 76v458h129v-465z" />
    <glyph glyph-name="k" unicode="k" horiz-adv-x="530" 
d="M179 349l4 -2l176 151h128v-40l-173 -149l196 -271v-38h-124l-165 228l-42 -37v-191h-128v715h128v-366z" />
    <glyph glyph-name="l" unicode="l" horiz-adv-x="295" 
d="M266 109l5 -112q-30 -5 -57 -5q-84 0 -118.5 36t-34.5 119v568h129v-551q0 -30 10 -44t37 -14q15 0 29 3z" />
    <glyph glyph-name="m" unicode="m" horiz-adv-x="851" 
d="M364 0v296q0 42 -18 65t-65 23q-90 0 -90 -118v-266h-129v344l-3 154h96q3 -4 7.5 -17t8 -23.5t4.5 -10.5q58 58 140 58q106 0 144 -63q30 30 72 46.5t79 16.5q102 0 144 -50t42 -156v-299h-131v296q0 42 -17.5 65t-63.5 23q-90 0 -90 -115v-269h-130z" />
    <glyph glyph-name="n" unicode="n" horiz-adv-x="558" 
d="M372 0v296q0 43 -19 65t-68 22q-97 0 -97 -116v-267h-128v335l-3 163h97q12 -25 16 -51q32 28 74 43t75 15q100 0 142.5 -49.5t42.5 -151.5v-304h-132z" />
    <glyph glyph-name="o" unicode="o" horiz-adv-x="528" 
d="M262 -7q-96 0 -157.5 48t-61.5 148v117q0 102 60 150.5t159 48.5t161.5 -48.5t62.5 -150.5v-117q0 -101 -63.5 -148.5t-160.5 -47.5zM358 202v92q0 97 -96 97q-91 0 -91 -97v-92q0 -95 92 -95q95 0 95 95z" />
    <glyph glyph-name="p" unicode="p" horiz-adv-x="543" 
d="M186 -169h-131v490l-3 177h99q4 -5 10.5 -22t6.5 -26q47 54 139 54t142 -47t50 -142v-117q0 -204 -189 -204q-77 0 -124 42v-205zM371 206v91q0 91 -90 91q-97 0 -97 -107v-70q0 -101 93 -101q94 0 94 96z" />
    <glyph glyph-name="q" unicode="q" horiz-adv-x="544" 
d="M489 335v-504h-131v206h-2q-50 -43 -124 -43q-56 0 -94.5 15.5t-58 45t-27.5 62.5t-8 76v106q0 102 46 154t148 52q85 0 138 -52l2 1q5 25 16 44h99zM172 296v-93q0 -91 90 -91q98 0 98 105v64q0 52 -21.5 80t-75.5 28q-91 0 -91 -93z" />
    <glyph glyph-name="r" unicode="r" horiz-adv-x="396" 
d="M66 0v322q-2 108 -4 176q16 0 48.5 0.5t48.5 0.5q17 -38 18 -69q64 85 201 78l14 -133h-31q-98 0 -132 -25.5t-34 -89.5v-260h-129z" />
    <glyph glyph-name="s" unicode="s" horiz-adv-x="463" 
d="M222 505q163 0 203 -121l-107 -42q-19 56 -87 56q-28 0 -45.5 -11.5t-17.5 -32.5t27.5 -33t67 -20t79.5 -20.5t67.5 -45.5t27.5 -85q0 -74 -59.5 -115t-139.5 -41q-28 0 -50.5 2t-50 10.5t-48 23t-39 41.5t-28.5 64l111 38q21 -72 99 -72q35 0 58 13t23 36q0 19 -20 31.5
t-50.5 18.5t-65.5 16.5t-65.5 23.5t-50.5 42t-20 70q0 70 51.5 111.5t129.5 41.5z" />
    <glyph glyph-name="t" unicode="t" horiz-adv-x="430" 
d="M120 394h-99v104h100v151h127v-151h140v-104h-140v-191q0 -51 18.5 -71.5t73.5 -20.5q36 0 74 4l4 -116q-51 -5 -84 -5q-113 0 -163.5 42t-50.5 149v209z" />
    <glyph glyph-name="u" unicode="u" horiz-adv-x="545" 
d="M182 498v-299q0 -42 18.5 -64t66.5 -22q94 0 94 116v269h129v-378l3 -120h-99q-10 19 -15 50h-3q-59 -56 -140 -56q-100 0 -142.5 48t-42.5 149v307h131z" />
    <glyph glyph-name="v" unicode="v" horiz-adv-x="500" 
d="M316 0h-133l-167 458v40h123q34 -97 75 -228q8 -26 34 -112h5l37 124l69 216h124v-40q-22 -60 -79 -216.5t-88 -241.5z" />
    <glyph glyph-name="w" unicode="w" horiz-adv-x="618" 
d="M307 180h-3l-20 -70l-34 -110h-135q-23 83 -59 229q-15 64 -15 130v139h129v-157q0 -22 5 -53t12.5 -70t10.5 -61h4q15 65 28 110l18 61h116l28 -100l20 -74h4l17 97q10 55 10 90v157h129v-145q0 -65 -19 -137q-8 -27 -27.5 -108t-27.5 -108h-135l-24 75z" />
    <glyph glyph-name="x" unicode="x" horiz-adv-x="498" 
d="M248 343h3l40 64l60 91h124v-41l-149 -203l158 -214v-40h-127l-70 103l-36 57h-5l-35 -56l-71 -104h-124v39l156 214l-149 205v40h125l56 -86z" />
    <glyph glyph-name="y" unicode="y" horiz-adv-x="522" 
d="M141 -172q-43 0 -83 4l7 108q29 -1 64 -1q30 0 52.5 17t30.5 48h-32l-162 455v39h123l58 -168l61 -194h6l57 190l58 172h124v-40l-173 -499q-45 -131 -191 -131z" />
    <glyph glyph-name="z" unicode="z" horiz-adv-x="506" 
d="M33 0v103l243 277q0 1 -1 1h-224v117h402v-106l-239 -273q0 -2 1 -2h261v-117h-443z" />
    <glyph glyph-name="braceleft" unicode="{" horiz-adv-x="453" 
d="M203 339v-5q60 -29 60 -114v-97q0 -45 23.5 -64t70.5 -19h51v-110h-71q-94 0 -148 52.5t-54 148.5v87q0 65 -72 71v90q72 5 72 72v87q0 97 53.5 148.5t148.5 51.5h71v-109h-51q-48 0 -71 -18.5t-23 -64.5v-97q0 -79 -60 -110z" />
    <glyph glyph-name="bar" unicode="|" horiz-adv-x="406" 
d="M269 -127h-128v910h128v-910z" />
    <glyph glyph-name="braceright" unicode="}" horiz-adv-x="453" 
d="M267 334v5q-60 31 -60 110v97q0 46 -23 64.5t-71 18.5h-52v109h72q95 0 148.5 -51.5t53.5 -148.5v-87q0 -67 72 -72v-90q-38 -3 -55 -20.5t-17 -50.5v-87q0 -96 -54 -148.5t-148 -52.5h-72v110h52q47 0 70.5 19t23.5 64v97q0 86 60 114z" />
    <glyph glyph-name="asciitilde" unicode="~" 
d="M187 428q39 0 105.5 -30t102.5 -30q32 0 71 55l86 -68q-35 -46 -71 -72t-86 -26q-40 0 -104.5 31t-100.5 31q-40 0 -76 -57l-81 63q25 33 43 51.5t48 35t63 16.5z" />
    <glyph glyph-name="uni00A0" unicode="&#xa0;" horiz-adv-x="297" 
 />
    <glyph glyph-name="exclamdown" unicode="&#xa1;" horiz-adv-x="302" 
d="M85 -191l16 475h90l16 -475h-122zM221 424q0 -32 -22 -54t-53 -22q-32 0 -54.5 22t-22.5 54t22 55t54 23q33 0 54.5 -23t21.5 -55z" />
    <glyph glyph-name="cent" unicode="&#xa2;" horiz-adv-x="535" 
d="M483 136q-45 -133 -191 -141v-112h-52v113q-181 14 -181 196v115q0 93 48.5 140.5t132.5 55.5v119h52v-118q140 -6 183 -136q-78 -34 -117 -50q-13 58 -66 70v-279q55 9 72 73q104 -40 119 -46zM187 200q0 -72 53 -88v273q-53 -15 -53 -90v-95z" />
    <glyph glyph-name="sterling" unicode="&#xa3;" 
d="M46 292v89h56l-9 45q-5 21 -5 55q0 87 65 144.5t164 57.5q82 0 139 -30t92 -108q-22 -11 -62.5 -30t-53.5 -26q-28 74 -110 74q-48 0 -74 -25t-26 -66q0 -25 17 -91h175v-89h-156q3 -27 3 -56q0 -72 -21 -122h289v-114h-485v114h54q25 52 25 114q0 28 -6 64h-71z" />
    <glyph glyph-name="currency" unicode="&#xa4;" horiz-adv-x="536" 
d="M289 142q-33 0 -59 12l-53 -52l-74 74l52 52q-12 29 -12 57q0 30 13 59l-53 53l74 74l55 -55q29 12 57 12t55 -11l55 54l74 -74l-51 -51q15 -30 15 -61q0 -32 -14 -60l50 -49l-74 -74l-52 51q-28 -11 -58 -11zM289 340q-20 0 -35.5 -17t-15.5 -39t15.5 -38.5t35.5 -16.5
q23 0 39 16.5t16 38.5t-16.5 39t-38.5 17z" />
    <glyph glyph-name="yen" unicode="&#xa5;" 
d="M290 390h7l53 121l87 168h132v-40l-174 -321h129v-70h-163v-59h163v-69h-163v-120h-132v120h-161v69h161v56l-1 3h-160v70h122l-171 320v41h132l84 -167z" />
    <glyph glyph-name="brokenbar" unicode="&#xa6;" horiz-adv-x="406" 
d="M141 285h128v-412h-128v412zM269 381h-128v402h128v-402z" />
    <glyph glyph-name="section" unicode="&#xa7;" horiz-adv-x="486" 
d="M63 2l90 75q36 -52 93 -52q40 0 61 25t21 63q0 9 -0.5 17.5t-2.5 20t-4 20t-6.5 26t-7.5 29.5t-10.5 39t-12.5 46q-32 121 -32 177q0 43 34 86q73 -29 101 -39q-15 -27 -15 -54q0 -32 24 -110q3 -15 17.5 -75t24 -109t9.5 -75q0 -91 -56 -143.5t-139 -52.5
q-118 0 -189 86zM434 678l-90 -76q-36 53 -95 53q-40 0 -60 -26t-20 -63t35 -167q5 -20 8 -31q33 -123 33 -176q0 -40 -34 -86q-46 18 -102 38q16 26 16 56q0 48 -48 214q-27 94 -27 160q0 89 58 139.5t141 50.5q113 0 185 -86z" />
    <glyph glyph-name="dieresis" unicode="&#xa8;" horiz-adv-x="548" 
d="M95 657q0 31 21 51t52 20t52 -20t21 -51q0 -29 -21.5 -50.5t-51.5 -21.5t-51.5 21.5t-21.5 50.5zM303 657q0 30 21.5 50.5t51.5 20.5t52.5 -20.5t22.5 -50.5q0 -29 -22.5 -50.5t-52.5 -21.5t-51.5 21.5t-21.5 50.5z" />
    <glyph glyph-name="copyright" unicode="&#xa9;" horiz-adv-x="841" 
d="M795 354q0 -157 -109 -262.5t-263 -105.5q-170 0 -272.5 103.5t-102.5 264.5q0 157 110 261.5t265 104.5t263.5 -104.5t108.5 -261.5zM711 354q0 123 -83.5 209.5t-204.5 86.5t-206 -86.5t-85 -209.5q0 -124 84 -210.5t207 -86.5q121 0 204.5 86.5t83.5 210.5zM502 447
q-23 56 -78 56q-74 0 -74 -82v-150q0 -84 74 -84q63 0 85 61l81 -40q-48 -103 -166 -103q-70 0 -116.5 41.5t-46.5 117.5v158q0 79 43 120.5t120 41.5q114 0 158 -95z" />
    <glyph glyph-name="ordfeminine" unicode="&#xaa;" horiz-adv-x="371" 
d="M258 255q-10 12 -12 38q-36 -43 -100 -43q-125 0 -125 107q0 46 32.5 74.5t91.5 28.5h88q-2 47 -62 47q-36 0 -97 -7q0 14 -2 41.5t-3 41.5q67 7 112 7q152 0 152 -129v-90q0 -20 0.5 -58.5t0.5 -57.5h-76zM160 390q-43 0 -43 -30q0 -24 45 -24q64 0 71 54h-73z" />
    <glyph glyph-name="guillemotleft" unicode="&#xab;" horiz-adv-x="565" 
d="M234 19l-191 204v37l189 205q71 -57 76 -61l-125 -163l128 -161q-52 -40 -77 -61zM452 19l-191 204v37l189 205l77 -61q-84 -108 -125 -163l127 -161z" />
    <glyph glyph-name="logicalnot" unicode="&#xac;" 
d="M61 247v117h464v-284h-125v167h-339z" />
    <glyph glyph-name="sfthyphen" unicode="&#xad;" horiz-adv-x="394" 
d="M60 257v115h273v-115h-273z" />
    <glyph glyph-name="registered" unicode="&#xae;" horiz-adv-x="596" 
d="M302 221q-113 0 -182 70t-69 176q0 103 74 173.5t177 70.5q104 0 176.5 -70t72.5 -174t-72.5 -175t-176.5 -71zM302 659q-79 0 -134.5 -56.5t-55.5 -135.5q0 -83 50 -137.5t140 -54.5q82 0 135.5 56t53.5 136q0 79 -55.5 135.5t-133.5 56.5zM409 521q0 -56 -49 -75
l50 -98v-20h-58q-36 72 -55 108h-28v-108h-60v279h103q97 0 97 -86zM348 522q0 30 -37 30h-42v-60h43q36 0 36 30z" />
    <glyph glyph-name="macron" unicode="&#xaf;" horiz-adv-x="572" 
d="M156 597v101h288v-101h-288z" />
    <glyph glyph-name="degree" unicode="&#xb0;" horiz-adv-x="480" 
d="M232 432q-54 0 -92.5 36.5t-38.5 88.5t38.5 88.5t92.5 36.5t92.5 -36.5t38.5 -88.5t-38.5 -88.5t-92.5 -36.5zM231 617q-25 0 -43.5 -17.5t-18.5 -42.5q0 -24 18.5 -42t43.5 -18q26 0 44.5 18t18.5 42q0 25 -18.5 42.5t-44.5 17.5z" />
    <glyph glyph-name="plusminus" unicode="&#xb1;" 
d="M60 0v115h465v-115h-465zM60 318v112h172v156h120v-156h172v-112h-172v-162h-120v162h-172z" />
    <glyph glyph-name="twosuperior" unicode="&#xb2;" horiz-adv-x="394" 
d="M199 770q69 0 113 -29.5t44 -94.5q0 -34 -18 -61.5t-45 -46t-55.5 -34t-54 -34t-35.5 -38.5h215v-89h-329v48q0 37 10.5 65.5t34.5 50.5t44.5 36t56.5 34q71 38 71 66q0 15 -13 26.5t-43 11.5q-51 0 -70 -47l-91 42q50 94 165 94z" />
    <glyph glyph-name="threesuperior" unicode="&#xb3;" horiz-adv-x="394" 
d="M185 340q-63 0 -105 20.5t-68 79.5l91 41q22 -54 80 -54q70 0 70 61q0 28 -19.5 42.5t-52.5 14.5h-73v68l80 65h-143v89h299v-81l-88 -71q99 -20 99 -128q0 -76 -48 -111.5t-122 -35.5z" />
    <glyph glyph-name="acute" unicode="&#xb4;" horiz-adv-x="548" 
d="M389 740l-122 -180q-25 10 -75 32l83 193z" />
    <glyph glyph-name="mu" unicode="&#xb5;" horiz-adv-x="544" 
d="M181 498v-299q0 -42 18.5 -64t66.5 -22q94 0 94 116v269h129v-378l3 -120h-99q-10 19 -15 50h-3q-56 -56 -140 -56q-37 0 -54 7v-170h-131v667h131z" />
    <glyph glyph-name="mu" unicode="&#x3bc;" horiz-adv-x="544" 
d="M181 498v-299q0 -42 18.5 -64t66.5 -22q94 0 94 116v269h129v-378l3 -120h-99q-10 19 -15 50h-3q-56 -56 -140 -56q-37 0 -54 7v-170h-131v667h131z" />
    <glyph glyph-name="paragraph" unicode="&#xb6;" horiz-adv-x="534" 
d="M366 658h-58v-740h-81v421q-84 2 -138.5 54t-54.5 135q0 96 55.5 148t160.5 52h256v-71h-61v-739h-79v740z" />
    <glyph glyph-name="periodcentered" unicode="&#xb7;" horiz-adv-x="336" 
d="M84 262q0 35 24 58.5t57 23.5q34 0 58 -23.5t24 -58.5q0 -34 -22 -58.5t-58 -24.5q-35 0 -59 24t-24 59z" />
    <glyph glyph-name="cedilla" unicode="&#xb8;" horiz-adv-x="499" 
d="M250 -47q54 -1 84.5 -27t30.5 -60q0 -37 -31.5 -64t-85.5 -27q-63 0 -109 27l22 53q39 -16 71 -16q48 0 48 34q0 13 -11 20t-25 7q-19 0 -36 -10l-36 24l55 102h57z" />
    <glyph glyph-name="onesuperior" unicode="&#xb9;" horiz-adv-x="327" 
d="M53 618v85l89 64h91v-424h-100v304l-42 -29h-38z" />
    <glyph glyph-name="ordmasculine" unicode="&#xba;" horiz-adv-x="365" 
d="M179 250q-67 0 -111 34.5t-44 102.5v65q0 69 43 103.5t112 34.5t113.5 -34.5t44.5 -103.5v-65q0 -67 -45.5 -102t-112.5 -35zM238 395v49q0 27 -15 43.5t-44 16.5q-55 0 -55 -60v-49q0 -59 56 -59q28 0 43 16.5t15 42.5z" />
    <glyph glyph-name="guillemotright" unicode="&#xbb;" horiz-adv-x="565" 
d="M306 223l-191 -204l-77 61l127 161q-41 55 -125 163l77 61l189 -205v-37zM524 223l-191 -204q-25 21 -77 61l128 161l-125 163q5 4 76 61l189 -205v-37z" />
    <glyph glyph-name="onequarter" unicode="&#xbc;" horiz-adv-x="960" 
d="M204 24l394 673h83v-39l-394 -672h-83v38zM99 528v85l89 64h91v-424h-100v304l-42 -29h-38zM626 172h77v80h96v-80h55v-88h-55v-84h-97v84h-191v71l141 268h87v-34z" />
    <glyph glyph-name="onehalf" unicode="&#xbd;" horiz-adv-x="960" 
d="M190 24l394 673h83v-39l-394 -672h-83v38zM84 528v85l89 64h91v-424h-100v304l-42 -29h-38zM707 426q69 0 113 -29.5t44 -94.5q0 -34 -18 -61.5t-45 -46t-55.5 -34t-54 -34t-35.5 -38.5h215v-88h-329v47q0 68 36.5 107t109.5 79q54 31 65 48q6 9 6 18q0 15 -13 26.5
t-43 11.5q-51 0 -70 -47l-91 42q50 94 165 94z" />
    <glyph glyph-name="threequarters" unicode="&#xbe;" horiz-adv-x="960" 
d="M256 24l394 673h83v-39l-394 -672h-83v38zM225 250q-63 0 -105 20.5t-68 79.5l91 41q22 -54 80 -54q70 0 70 61q0 28 -19.5 42.5t-52.5 14.5h-73v68l80 65h-143v89h299v-81l-88 -71q99 -20 99 -128q0 -76 -48 -111.5t-122 -35.5zM659 172h77v80h96v-80h55v-88h-55v-84
h-97v84h-191v71l141 268h87v-34z" />
    <glyph glyph-name="questiondown" unicode="&#xbf;" horiz-adv-x="517" 
d="M192 -24q0 -26 22 -40.5t57 -14.5q78 0 105 76l107 -57q-36 -78 -93 -108t-134 -30q-80 0 -142 40t-62 121q0 34 15.5 66t31 48.5t42.5 40.5q69 56 69 146v25h124v-42q0 -75 -25.5 -117.5t-77.5 -85.5q-39 -34 -39 -68zM270 501q32 0 54.5 -23t22.5 -55t-22.5 -54
t-53.5 -22t-53.5 22t-22.5 54q0 33 20.5 55.5t54.5 22.5z" />
    <glyph glyph-name="Agrave" unicode="&#xc0;" horiz-adv-x="591" 
d="M438 0q-9 27 -24.5 80.5t-24.5 80.5h-191l-49 -161h-122v38l198 641h139q67 -213 199 -641v-38h-125zM353 279q-5 17 -15.5 57.5t-18.5 68.5l-23 100h-6l-26 -112l-31 -114h120zM375 797l-50 -62l-189 106l71 93z" />
    <glyph glyph-name="Aacute" unicode="&#xc1;" horiz-adv-x="591" 
d="M438 0q-9 27 -24.5 80.5t-24.5 80.5h-191l-49 -161h-122v38l198 641h139q67 -213 199 -641v-38h-125zM353 279q-5 17 -15.5 57.5t-18.5 68.5l-23 100h-6l-26 -112l-31 -114h120zM288 735l-50 62l168 137l71 -93z" />
    <glyph glyph-name="Acircumflex" unicode="&#xc2;" horiz-adv-x="591" 
d="M438 0q-9 27 -24.5 80.5t-24.5 80.5h-191l-49 -161h-122v38l198 641h139q67 -213 199 -641v-38h-125zM353 279q-5 17 -15.5 57.5t-18.5 68.5l-23 100h-6l-26 -112l-31 -114h120zM420 733l-130 94l-127 -94l-50 58l151 139h59l151 -138z" />
    <glyph glyph-name="Atilde" unicode="&#xc3;" horiz-adv-x="591" 
d="M438 0q-9 27 -24.5 80.5t-24.5 80.5h-191l-49 -161h-122v38l198 641h139q67 -213 199 -641v-38h-125zM353 279q-5 17 -15.5 57.5t-18.5 68.5l-23 100h-6l-26 -112l-31 -114h120zM420 899l55 -66q-52 -67 -110 -67q-26 0 -70.5 17.5t-62.5 17.5q-40 0 -69 -38l-51 62
q16 28 45.5 49.5t61.5 21.5q24 0 69 -17.5t68 -17.5q35 0 64 38z" />
    <glyph glyph-name="Adieresis" unicode="&#xc4;" horiz-adv-x="592" 
d="M438 0q-9 27 -24.5 80.5t-24.5 80.5h-191l-49 -161h-122v38l198 641h139q67 -213 199 -641v-38h-125zM353 279q-5 17 -15.5 57.5t-18.5 68.5l-23 100h-6l-26 -112l-31 -114h120zM116 824q0 31 21 51t52 20t52 -20t21 -51q0 -30 -21 -51t-52 -21t-52 21t-21 51zM324 824
q0 30 21.5 50.5t51.5 20.5t52.5 -20.5t22.5 -50.5t-22.5 -51t-52.5 -21t-51.5 21.5t-21.5 50.5z" />
    <glyph glyph-name="Aring" unicode="&#xc5;" horiz-adv-x="592" 
d="M438 0q-9 27 -24.5 80.5t-24.5 80.5h-191l-49 -161h-122v38l198 641h139q67 -213 199 -641v-38h-125zM353 279q-5 17 -15.5 57.5t-18.5 68.5l-23 100h-6l-26 -112l-31 -114h120zM292 702q-48 0 -81.5 33t-33.5 80q0 46 33.5 79.5t81.5 33.5q49 0 83 -33t34 -80
q0 -48 -34 -80.5t-83 -32.5zM292 865q-19 0 -33 -15t-14 -35t14 -34.5t33 -14.5q20 0 34.5 14.5t14.5 34.5q0 19 -15 34.5t-34 15.5z" />
    <glyph glyph-name="AE" unicode="&#xc6;" horiz-adv-x="898" 
d="M861 0h-452v164h-198l-81 -164h-121v38l324 641h515v-121h-306v-139h266v-120h-266v-180h319v-119zM405 554l-135 -275h139v274q-1 0 -2 0.5t-2 0.5z" />
    <glyph glyph-name="Ccedilla" unicode="&#xc7;" horiz-adv-x="551" 
d="M287 -43q54 -1 84.5 -27t30.5 -60q0 -37 -31.5 -64t-85.5 -27q-63 0 -109 27l22 53q39 -16 71 -16q48 0 48 34q0 13 -11 20t-25 7q-19 0 -36 -10l-36 24l42 78q-90 9 -142.5 61.5t-52.5 152.5v245q0 114 62 172t170 58q82 0 137 -30t86 -109q-95 -45 -115 -55
q-23 75 -103 75q-104 0 -104 -117v-221q0 -115 104 -115q83 0 110 87l120 -57q-58 -141 -216 -148z" />
    <glyph glyph-name="Egrave" unicode="&#xc8;" horiz-adv-x="559" 
d="M516 0h-451v679h439v-121h-307v-139h266v-121h-266v-179h319v-119zM375 797l-50 -62l-189 106l71 93z" />
    <glyph glyph-name="Eacute" unicode="&#xc9;" horiz-adv-x="559" 
d="M516 0h-451v679h439v-121h-307v-139h266v-121h-266v-179h319v-119zM248 735l-50 62l168 137l71 -93z" />
    <glyph glyph-name="Ecircumflex" unicode="&#xca;" horiz-adv-x="559" 
d="M516 0h-451v679h439v-121h-307v-139h266v-121h-266v-179h319v-119zM414 733l-130 94l-127 -94l-50 58l151 139h59l151 -138z" />
    <glyph glyph-name="Edieresis" unicode="&#xcb;" horiz-adv-x="559" 
d="M516 0h-451v679h439v-121h-307v-139h266v-121h-266v-179h319v-119zM104 824q0 31 21 51t52 20t52 -20t21 -51q0 -30 -21 -51t-52 -21t-52 21t-21 51zM312 824q0 30 21.5 50.5t51.5 20.5t52.5 -20.5t22.5 -50.5t-22.5 -51t-52.5 -21t-51.5 21.5t-21.5 50.5z" />
    <glyph glyph-name="Igrave" unicode="&#xcc;" horiz-adv-x="286" 
d="M208 0h-131v679h131v-679zM207 797l-50 -62l-189 106l71 93z" />
    <glyph glyph-name="Iacute" unicode="&#xcd;" horiz-adv-x="286" 
d="M208 0h-131v679h131v-679zM121 735l-50 62l168 137l71 -93z" />
    <glyph glyph-name="Icircumflex" unicode="&#xce;" horiz-adv-x="286" 
d="M208 0h-131v679h131v-679zM274 733l-130 94l-127 -94l-50 58l151 139h59l151 -138z" />
    <glyph glyph-name="Idieresis" unicode="&#xcf;" horiz-adv-x="286" 
d="M208 0h-131v679h131v-679zM-38 824q0 31 21 51t52 20t52 -20t21 -51q0 -30 -21 -51t-52 -21t-52 21t-21 51zM170 824q0 30 21.5 50.5t51.5 20.5t52.5 -20.5t22.5 -50.5t-22.5 -51t-52.5 -21t-51.5 21.5t-21.5 50.5z" />
    <glyph glyph-name="Eth" unicode="&#xd0;" horiz-adv-x="613" 
d="M8 303v86h57v290h254q104 0 170.5 -55t66.5 -168v-237q0 -110 -68 -164.5t-171 -54.5h-252v303h-57zM424 219v236q0 55 -28.5 79t-84.5 24h-115v-169h97v-86h-97v-184h115q113 0 113 100z" />
    <glyph glyph-name="Ntilde" unicode="&#xd1;" horiz-adv-x="623" 
d="M558 0h-140l-175 353l-44 98h-4q0 -58 1 -87v-364h-131v679h163l163 -354l33 -78h5q0 15 -0.5 43t-0.5 42v347h130v-679zM442 892l55 -66q-52 -67 -110 -67q-27 0 -71 17.5t-62 17.5q-40 0 -69 -38l-51 62q16 28 45.5 49.5t61.5 21.5q24 0 69 -17.5t68 -17.5q35 0 64 38z
" />
    <glyph glyph-name="Ograve" unicode="&#xd2;" horiz-adv-x="597" 
d="M296 -6q-106 0 -173 56.5t-67 166.5v242q0 114 65 169.5t175 55.5q112 0 178.5 -56t66.5 -169v-242q0 -112 -69 -167.5t-176 -55.5zM410 232v219q0 115 -112 115q-109 0 -109 -115v-219q0 -119 109 -119q55 0 83.5 31t28.5 88zM384 797l-50 -62l-189 106l71 93z" />
    <glyph glyph-name="Oacute" unicode="&#xd3;" horiz-adv-x="597" 
d="M296 -6q-106 0 -173 56.5t-67 166.5v242q0 114 65 169.5t175 55.5q112 0 178.5 -56t66.5 -169v-242q0 -112 -69 -167.5t-176 -55.5zM410 232v219q0 115 -112 115q-109 0 -109 -115v-219q0 -119 109 -119q55 0 83.5 31t28.5 88zM277 735l-50 62l168 137l71 -93z" />
    <glyph glyph-name="Ocircumflex" unicode="&#xd4;" horiz-adv-x="597" 
d="M296 -6q-106 0 -173 56.5t-67 166.5v242q0 114 65 169.5t175 55.5q112 0 178.5 -56t66.5 -169v-242q0 -112 -69 -167.5t-176 -55.5zM410 232v219q0 115 -112 115q-109 0 -109 -115v-219q0 -119 109 -119q55 0 83.5 31t28.5 88zM426 733l-130 94l-127 -94l-50 58l151 139
h59l151 -138z" />
    <glyph glyph-name="Otilde" unicode="&#xd5;" horiz-adv-x="597" 
d="M296 -6q-106 0 -173 56.5t-67 166.5v242q0 114 65 169.5t175 55.5q112 0 178.5 -56t66.5 -169v-242q0 -112 -69 -167.5t-176 -55.5zM410 232v219q0 115 -112 115q-109 0 -109 -115v-219q0 -119 109 -119q55 0 83.5 31t28.5 88zM427 894l55 -66q-52 -67 -110 -67
q-26 0 -71 17.5t-62 17.5q-40 0 -69 -38l-51 62q16 28 45.5 49.5t61.5 21.5q24 0 69 -17.5t68 -17.5q35 0 64 38z" />
    <glyph glyph-name="Odieresis" unicode="&#xd6;" horiz-adv-x="597" 
d="M296 -6q-106 0 -173 56.5t-67 166.5v242q0 114 65 169.5t175 55.5q112 0 178.5 -56t66.5 -169v-242q0 -112 -69 -167.5t-176 -55.5zM410 232v219q0 115 -112 115q-109 0 -109 -115v-219q0 -119 109 -119q55 0 83.5 31t28.5 88zM120 824q0 31 21 51t52 20t52 -20t21 -51
q0 -30 -21 -51t-52 -21t-52 21t-21 51zM328 824q0 30 21.5 50.5t51.5 20.5t52.5 -20.5t22.5 -50.5t-22.5 -51t-52.5 -21t-51.5 21.5t-21.5 50.5z" />
    <glyph glyph-name="multiply" unicode="&#xd7;" 
d="M66 449l83 82l143 -143l140 141l85 -84l-141 -141l143 -143l-82 -83l-143 144l-143 -143l-84 85l142 142z" />
    <glyph glyph-name="Oslash" unicode="&#xd8;" horiz-adv-x="597" 
d="M296 -6q-102 0 -163 48q-18 -28 -28 -42h-45v35l32 49q-36 53 -36 133v242q0 114 65 169.5t175 55.5q102 0 164 -45l26 40h46v-37l-30 -45q39 -55 39 -138v-242q0 -112 -69 -167.5t-176 -55.5zM410 232v226l-202 -304q26 -41 90 -41q55 0 83.5 31t28.5 88zM189 328v-98
q34 50 100 150.5t99 150.5q-27 35 -90 35q-100 0 -106 -93q-3 -47 -3 -145z" />
    <glyph glyph-name="Ugrave" unicode="&#xd9;" horiz-adv-x="606" 
d="M192 679v-450q0 -116 109 -116q55 0 84 30t29 86v450h131v-466q0 -109 -68 -164t-177 -55q-108 0 -173.5 55.5t-65.5 163.5v466h131zM391 797l-50 -62l-189 106l71 93z" />
    <glyph glyph-name="Uacute" unicode="&#xda;" horiz-adv-x="606" 
d="M192 679v-450q0 -116 109 -116q55 0 84 30t29 86v450h131v-466q0 -109 -68 -164t-177 -55q-108 0 -173.5 55.5t-65.5 163.5v466h131zM277 735l-50 62l168 137l71 -93z" />
    <glyph glyph-name="Ucircumflex" unicode="&#xdb;" horiz-adv-x="606" 
d="M192 679v-450q0 -116 109 -116q55 0 84 30t29 86v450h131v-466q0 -109 -68 -164t-177 -55q-108 0 -173.5 55.5t-65.5 163.5v466h131zM433 733l-130 94l-127 -94l-50 58l151 139h59l151 -138z" />
    <glyph glyph-name="Udieresis" unicode="&#xdc;" horiz-adv-x="606" 
d="M192 679v-450q0 -116 109 -116q55 0 84 30t29 86v450h131v-466q0 -109 -68 -164t-177 -55q-108 0 -173.5 55.5t-65.5 163.5v466h131zM127 824q0 31 21 51t52 20t52 -20t21 -51q0 -30 -21.5 -51t-51.5 -21q-31 0 -52 21t-21 51zM335 824q0 30 21.5 50.5t51.5 20.5
t52.5 -20.5t22.5 -50.5t-22.5 -51t-52.5 -21t-51.5 21.5t-21.5 50.5z" />
    <glyph glyph-name="Yacute" unicode="&#xdd;" horiz-adv-x="581" 
d="M287 398h6l54 117l86 164h133v-40l-209 -385v-254h-131v245l-211 393v41h132l85 -163zM271 735l-50 62l168 137l71 -93z" />
    <glyph glyph-name="Thorn" unicode="&#xde;" horiz-adv-x="569" 
d="M64 0l1 679h130v-105h113q106 0 169.5 -58t63.5 -165q0 -108 -74 -166.5t-170 -58.5h-102v-126h-131zM195 246h107q49 0 77.5 30t28.5 76q0 48 -29 74.5t-75 26.5h-109v-207z" />
    <glyph glyph-name="germandbls" unicode="&#xdf;" horiz-adv-x="560" 
d="M419 409v-3q29 -12 48 -31t27.5 -44.5t11 -48.5t2.5 -55q0 -48 -7.5 -85t-28 -74t-64.5 -57.5t-110 -20.5q-9 0 -31 2v112h7q36 0 59 9.5t32 30t11.5 37t2.5 45.5q0 126 -101 126v97q38 0 58.5 22t20.5 55q0 32 -21 53.5t-60 21.5q-29 0 -48.5 -12t-28 -33.5t-11 -40
t-2.5 -43.5v-472h-129v493q0 101 57.5 163t159.5 62q106 0 159.5 -53.5t53.5 -133.5q0 -84 -68 -122z" />
    <glyph glyph-name="agrave" unicode="&#xe0;" horiz-adv-x="539" 
d="M368 45l-4 1q-55 -53 -145 -53q-182 0 -182 157q0 68 46 112t129 44h140v8q0 43 -23 62.5t-78 19.5q-50 0 -135 -9l-7 109q76 9 155 9q216 0 216 -192v-159l3 -154h-99q-12 20 -16 45zM234 207q-72 0 -72 -53q0 -47 75 -47q50 0 80.5 27t33.5 73h-117zM351 582l-76 -32
l-121 180l114 45z" />
    <glyph glyph-name="aacute" unicode="&#xe1;" horiz-adv-x="539" 
d="M368 45l-4 1q-55 -53 -145 -53q-182 0 -182 157q0 68 46 112t129 44h140v8q0 43 -23 62.5t-78 19.5q-50 0 -135 -9l-7 109q76 9 155 9q216 0 216 -192v-159l3 -154h-99q-12 20 -16 45zM234 207q-72 0 -72 -53q0 -47 75 -47q50 0 80.5 27t33.5 73h-117zM417 740l-122 -180
q-25 10 -75 32l83 193z" />
    <glyph glyph-name="acircumflex" unicode="&#xe2;" horiz-adv-x="539" 
d="M368 45l-4 1q-55 -53 -145 -53q-182 0 -182 157q0 68 46 112t129 44h140v8q0 43 -23 62.5t-78 19.5q-50 0 -135 -9l-7 109q76 9 155 9q216 0 216 -192v-159l3 -154h-99q-12 20 -16 45zM234 207q-72 0 -72 -53q0 -47 75 -47q50 0 80.5 27t33.5 73h-117zM407 560l-130 102
l-128 -102l-53 58l154 149h60l154 -148z" />
    <glyph glyph-name="atilde" unicode="&#xe3;" horiz-adv-x="539" 
d="M368 45l-4 1q-55 -53 -145 -53q-182 0 -182 157q0 68 46 112t129 44h140v8q0 43 -23 62.5t-78 19.5q-50 0 -135 -9l-7 109q76 9 155 9q216 0 216 -192v-159l3 -154h-99q-12 20 -16 45zM234 207q-72 0 -72 -53q0 -47 75 -47q50 0 80.5 27t33.5 73h-117zM403 714l55 -66
q-52 -67 -110 -67q-26 0 -71 17.5t-62 17.5q-40 0 -69 -38l-51 62q16 28 45.5 49.5t61.5 21.5q24 0 69 -17.5t68 -17.5q35 0 64 38z" />
    <glyph glyph-name="adieresis" unicode="&#xe4;" horiz-adv-x="539" 
d="M368 45l-4 1q-55 -53 -145 -53q-182 0 -182 157q0 68 46 112t129 44h140v8q0 43 -23 62.5t-78 19.5q-50 0 -135 -9l-7 109q76 9 155 9q216 0 216 -192v-159l3 -154h-99q-12 20 -16 45zM234 207q-72 0 -72 -53q0 -47 75 -47q50 0 80.5 27t33.5 73h-117zM90 657q0 31 21 51
t52 20t52 -20t21 -51q0 -29 -21 -50.5t-52 -21.5t-52 21.5t-21 50.5zM298 657q0 30 21.5 50.5t51.5 20.5t52.5 -20.5t22.5 -50.5q0 -29 -22.5 -50.5t-52.5 -21.5t-51.5 21.5t-21.5 50.5z" />
    <glyph glyph-name="aring" unicode="&#xe5;" horiz-adv-x="539" 
d="M368 45l-4 1q-55 -53 -145 -53q-182 0 -182 157q0 68 46 112t129 44h140v8q0 43 -23 62.5t-78 19.5q-50 0 -135 -9l-7 109q76 9 155 9q216 0 216 -192v-159l3 -154h-99q-12 20 -16 45zM234 207q-72 0 -72 -53q0 -47 75 -47q50 0 80.5 27t33.5 73h-117zM278 561
q-48 0 -81.5 33t-33.5 80q0 46 33.5 79.5t81.5 33.5q49 0 83 -33t34 -80q0 -48 -34 -80.5t-83 -32.5zM278 724q-19 0 -33 -15t-14 -35t14 -34.5t33 -14.5q20 0 34.5 14.5t14.5 34.5q0 19 -15 34.5t-34 15.5z" />
    <glyph glyph-name="ae" unicode="&#xe6;" horiz-adv-x="826" 
d="M744 113l8 -109q-82 -11 -172 -11q-143 0 -189 74q-65 -74 -172 -74q-182 0 -182 157q0 67 46 108.5t129 41.5h140v14q0 43 -23 62t-78 19q-45 0 -135 -7l-7 109q85 8 155 8q107 0 156 -49q48 49 155 49q100 0 157.5 -46t57.5 -131q0 -130 -157 -130h-149q0 -49 22 -72.5
t85 -23.5q69 0 153 11zM575 393q-51 0 -71 -23.5t-20 -67.5v-11h127q50 0 50 33q0 69 -86 69zM234 207q-72 0 -72 -53q0 -47 75 -47q50 0 80.5 27t33.5 73h-117z" />
    <glyph glyph-name="ccedilla" unicode="&#xe7;" horiz-adv-x="494" 
d="M247 -45q54 -1 84.5 -27t30.5 -60q0 -37 -31.5 -64t-85.5 -27q-63 0 -109 27l22 53q39 -16 71 -16q48 0 48 34q0 13 -11 20t-25 7q-19 0 -36 -10l-36 24l43 81q-168 21 -168 195v115q0 103 59 150.5t158 47.5q155 0 199 -137q-78 -34 -117 -50q-14 72 -87 72
q-84 0 -84 -95v-95q0 -92 88 -92q70 0 89 74q104 -40 119 -46q-47 -138 -200 -142z" />
    <glyph glyph-name="egrave" unicode="&#xe8;" horiz-adv-x="510" 
d="M425 114l9 -107q-75 -14 -158 -14q-115 0 -174 46.5t-59 151.5v114q0 104 57.5 151.5t157.5 47.5t155.5 -46t55.5 -129q0 -135 -154 -135h-144q0 -50 20.5 -71t93.5 -21q57 0 140 12zM260 392q-51 0 -70 -24t-19 -67v-11h129q43 0 43 38q0 29 -20.5 46.5t-62.5 17.5z
M326 582l-76 -32l-121 180l114 45z" />
    <glyph glyph-name="eacute" unicode="&#xe9;" horiz-adv-x="510" 
d="M425 114l9 -107q-75 -14 -158 -14q-115 0 -174 46.5t-59 151.5v114q0 104 57.5 151.5t157.5 47.5t155.5 -46t55.5 -129q0 -135 -154 -135h-144q0 -50 20.5 -71t93.5 -21q57 0 140 12zM260 392q-51 0 -70 -24t-19 -67v-11h129q43 0 43 38q0 29 -20.5 46.5t-62.5 17.5z
M396 740l-122 -180q-25 10 -75 32l83 193z" />
    <glyph glyph-name="ecircumflex" unicode="&#xea;" horiz-adv-x="510" 
d="M425 114l9 -107q-75 -14 -158 -14q-115 0 -174 46.5t-59 151.5v114q0 104 57.5 151.5t157.5 47.5t155.5 -46t55.5 -129q0 -135 -154 -135h-144q0 -50 20.5 -71t93.5 -21q57 0 140 12zM260 392q-51 0 -70 -24t-19 -67v-11h129q43 0 43 38q0 29 -20.5 46.5t-62.5 17.5z
M391 560l-130 102l-128 -102l-53 58l154 149h60l154 -148z" />
    <glyph glyph-name="edieresis" unicode="&#xeb;" horiz-adv-x="510" 
d="M425 114l9 -107q-75 -14 -158 -14q-115 0 -174 46.5t-59 151.5v114q0 104 57.5 151.5t157.5 47.5t155.5 -46t55.5 -129q0 -135 -154 -135h-144q0 -50 20.5 -71t93.5 -21q57 0 140 12zM260 392q-51 0 -70 -24t-19 -67v-11h129q43 0 43 38q0 29 -20.5 46.5t-62.5 17.5z
M76 657q0 31 21 51t52 20t52 -20t21 -51q0 -29 -21 -50.5t-52 -21.5t-52 21.5t-21 50.5zM284 657q0 30 21.5 50.5t51.5 20.5t52.5 -20.5t22.5 -50.5q0 -29 -22.5 -50.5t-52.5 -21.5t-51.5 21.5t-21.5 50.5z" />
    <glyph glyph-name="igrave" unicode="&#xec;" horiz-adv-x="285" 
d="M210 582l-76 -32l-121 180l114 45zM76 0v498h129v-498h-129z" />
    <glyph glyph-name="iacute" unicode="&#xed;" horiz-adv-x="280" 
d="M289 740l-122 -180q-25 10 -75 32l83 193zM76 0v498h129v-498h-129z" />
    <glyph glyph-name="icircumflex" unicode="&#xee;" horiz-adv-x="280" 
d="M76 0v498h129v-498h-129zM276 560l-130 102l-128 -102l-53 58l154 149h60l154 -148z" />
    <glyph glyph-name="idieresis" unicode="&#xef;" horiz-adv-x="280" 
d="M-25 657q0 31 21 51t52 20t52 -20t21 -51q0 -29 -21.5 -50.5t-51.5 -21.5t-51.5 21.5t-21.5 50.5zM183 657q0 30 21.5 50.5t51.5 20.5t52.5 -20.5t22.5 -50.5q0 -29 -22.5 -50.5t-52.5 -21.5t-51.5 21.5t-21.5 50.5zM76 0v498h129v-498h-129z" />
    <glyph glyph-name="eth" unicode="&#xf0;" horiz-adv-x="528" 
d="M160 525l-26 47l55 30q-37 44 -68 75v39h128l48 -56l77 41q5 -9 14 -25.5t12 -21.5l-68 -37q47 -59 78 -104q42 -63 59.5 -114.5t17.5 -115.5v-87q0 -71 -32.5 -118t-81.5 -65.5t-112 -18.5q-97 0 -157.5 49t-60.5 153v89q0 106 62.5 155.5t169.5 49.5q-26 39 -51 69z
M359 202v79q0 98 -95 98q-93 0 -93 -98v-79q0 -95 93 -95q47 0 71 25t24 70z" />
    <glyph glyph-name="ntilde" unicode="&#xf1;" horiz-adv-x="558" 
d="M372 0v296q0 43 -19 65t-68 22q-97 0 -97 -116v-267h-128v335l-3 163h97q12 -25 16 -51q32 28 74 43t75 15q100 0 142.5 -49.5t42.5 -151.5v-304h-132zM400 714l55 -66q-52 -67 -110 -67q-27 0 -71 17.5t-62 17.5q-40 0 -69 -38l-51 62q16 28 45.5 49.5t61.5 21.5
q24 0 69 -17.5t68 -17.5q35 0 64 38z" />
    <glyph glyph-name="ograve" unicode="&#xf2;" horiz-adv-x="528" 
d="M262 -7q-96 0 -157.5 48t-61.5 148v117q0 102 60 150.5t159 48.5t161.5 -48.5t62.5 -150.5v-117q0 -101 -63.5 -148.5t-160.5 -47.5zM358 202v92q0 97 -96 97q-91 0 -91 -97v-92q0 -95 92 -95q95 0 95 95zM331 582l-76 -32l-121 180l114 45z" />
    <glyph glyph-name="oacute" unicode="&#xf3;" horiz-adv-x="528" 
d="M262 -7q-96 0 -157.5 48t-61.5 148v117q0 102 60 150.5t159 48.5t161.5 -48.5t62.5 -150.5v-117q0 -101 -63.5 -148.5t-160.5 -47.5zM358 202v92q0 97 -96 97q-91 0 -91 -97v-92q0 -95 92 -95q95 0 95 95zM405 740l-122 -180q-25 10 -75 32l83 193z" />
    <glyph glyph-name="ocircumflex" unicode="&#xf4;" horiz-adv-x="528" 
d="M262 -7q-96 0 -157.5 48t-61.5 148v117q0 102 60 150.5t159 48.5t161.5 -48.5t62.5 -150.5v-117q0 -101 -63.5 -148.5t-160.5 -47.5zM358 202v92q0 97 -96 97q-91 0 -91 -97v-92q0 -95 92 -95q95 0 95 95zM396 560l-130 102l-128 -102l-53 58l154 149h60l154 -148z" />
    <glyph glyph-name="otilde" unicode="&#xf5;" horiz-adv-x="528" 
d="M262 -7q-96 0 -157.5 48t-61.5 148v117q0 102 60 150.5t159 48.5t161.5 -48.5t62.5 -150.5v-117q0 -101 -63.5 -148.5t-160.5 -47.5zM358 202v92q0 97 -96 97q-91 0 -91 -97v-92q0 -95 92 -95q95 0 95 95zM393 714l55 -66q-52 -67 -110 -67q-26 0 -71 17.5t-62 17.5
q-40 0 -69 -38l-51 62q16 28 45.5 49.5t61.5 21.5q24 0 69 -17.5t68 -17.5q35 0 64 38z" />
    <glyph glyph-name="odieresis" unicode="&#xf6;" horiz-adv-x="528" 
d="M262 -7q-96 0 -157.5 48t-61.5 148v117q0 102 60 150.5t159 48.5t161.5 -48.5t62.5 -150.5v-117q0 -101 -63.5 -148.5t-160.5 -47.5zM358 202v92q0 97 -96 97q-91 0 -91 -97v-92q0 -95 92 -95q95 0 95 95zM85 657q0 31 21 51t52 20t52 -20t21 -51q0 -29 -21.5 -50.5
t-51.5 -21.5t-51.5 21.5t-21.5 50.5zM293 657q0 30 21.5 50.5t51.5 20.5t52.5 -20.5t22.5 -50.5q0 -29 -22.5 -50.5t-52.5 -21.5t-51.5 21.5t-21.5 50.5z" />
    <glyph glyph-name="divide" unicode="&#xf7;" 
d="M295 407q-32 0 -54.5 22.5t-22.5 54.5t22.5 54t53.5 22t53.5 -22t22.5 -54t-21 -54.5t-54 -22.5zM295 50q-32 0 -54.5 22.5t-22.5 54.5t22.5 54t53.5 22t53.5 -22t22.5 -54t-21 -54.5t-54 -22.5zM61 249v112h464v-112h-464z" />
    <glyph glyph-name="oslash" unicode="&#xf8;" horiz-adv-x="528" 
d="M262 -6q-93 0 -148 40l-29 -34h-42v35l32 37q-32 46 -32 117v117q0 102 60 150.5t159 48.5q91 0 150 -41l30 34h43v-37l-32 -37q33 -47 33 -118v-117q0 -100 -63 -147.5t-161 -47.5zM358 202v92q0 13 -1 19l-160 -185q23 -21 66 -21q95 0 95 95zM171 184l160 185
q-25 22 -69 22q-91 0 -91 -97v-110z" />
    <glyph glyph-name="ugrave" unicode="&#xf9;" horiz-adv-x="545" 
d="M182 498v-299q0 -42 18.5 -64t66.5 -22q94 0 94 116v269h129v-378l3 -120h-99q-10 19 -15 50h-3q-59 -56 -140 -56q-100 0 -142.5 48t-42.5 149v307h131zM334 582l-76 -32l-121 180l114 45z" />
    <glyph glyph-name="uacute" unicode="&#xfa;" horiz-adv-x="545" 
d="M182 498v-299q0 -42 18.5 -64t66.5 -22q94 0 94 116v269h129v-378l3 -120h-99q-10 19 -15 50h-3q-59 -56 -140 -56q-100 0 -142.5 48t-42.5 149v307h131zM412 740l-122 -180q-25 10 -75 32l83 193z" />
    <glyph glyph-name="ucircumflex" unicode="&#xfb;" horiz-adv-x="545" 
d="M182 498v-299q0 -42 18.5 -64t66.5 -22q94 0 94 116v269h129v-378l3 -120h-99q-10 19 -15 50h-3q-59 -56 -140 -56q-100 0 -142.5 48t-42.5 149v307h131zM402 560l-130 102l-128 -102l-53 58l154 149h60l154 -148z" />
    <glyph glyph-name="udieresis" unicode="&#xfc;" horiz-adv-x="545" 
d="M182 498v-299q0 -42 18.5 -64t66.5 -22q94 0 94 116v269h129v-378l3 -120h-99q-10 19 -15 50h-3q-59 -56 -140 -56q-100 0 -142.5 48t-42.5 149v307h131zM96 657q0 31 21 51t52 20t52 -20t21 -51q0 -29 -21 -50.5t-52 -21.5t-52 21.5t-21 50.5zM304 657q0 30 21.5 50.5
t51.5 20.5t52.5 -20.5t22.5 -50.5q0 -29 -22.5 -50.5t-52.5 -21.5t-51.5 21.5t-21.5 50.5z" />
    <glyph glyph-name="yacute" unicode="&#xfd;" horiz-adv-x="522" 
d="M141 -172q-43 0 -83 4l7 108q29 -1 64 -1q30 0 52.5 17t30.5 48h-32l-162 455v39h123l58 -168l61 -194h6l57 190l58 172h124v-40l-173 -499q-45 -131 -191 -131zM406 740l-122 -180q-25 10 -75 32l83 193z" />
    <glyph glyph-name="thorn" unicode="&#xfe;" horiz-adv-x="543" 
d="M186 -169h-131v884h131v-252l1 -1h1q51 42 125 42q87 0 136.5 -47t49.5 -142v-117q0 -204 -189 -204q-77 0 -124 42v-205zM371 206v91q0 91 -90 91q-97 0 -97 -107v-70q0 -101 93 -101q94 0 94 96z" />
    <glyph glyph-name="ydieresis" unicode="&#xff;" horiz-adv-x="522" 
d="M141 -172q-43 0 -83 4l7 108q29 -1 64 -1q30 0 52.5 17t30.5 48h-32l-162 455v39h123l58 -168l61 -194h6l57 190l58 172h124v-40l-173 -499q-45 -131 -191 -131zM88 657q0 31 21 51t52 20t52 -20t21 -51q0 -29 -21 -50.5t-52 -21.5t-52 21.5t-21 50.5zM296 657
q0 30 21.5 50.5t51.5 20.5t52.5 -20.5t22.5 -50.5q0 -29 -22.5 -50.5t-52.5 -21.5t-51.5 21.5t-21.5 50.5z" />
    <glyph glyph-name="Amacron" unicode="&#x100;" horiz-adv-x="591" 
d="M438 0q-9 27 -24.5 80.5t-24.5 80.5h-191l-49 -161h-122v38l198 641h139q67 -213 199 -641v-38h-125zM353 279q-5 17 -15.5 57.5t-18.5 68.5l-23 100h-6l-26 -112l-31 -114h120zM148 759v101h288v-101h-288z" />
    <glyph glyph-name="amacron" unicode="&#x101;" horiz-adv-x="539" 
d="M368 45l-4 1q-55 -53 -145 -53q-182 0 -182 157q0 68 46 112t129 44h140v8q0 43 -23 62.5t-78 19.5q-50 0 -135 -9l-7 109q76 9 155 9q216 0 216 -192v-159l3 -154h-99q-12 20 -16 45zM234 207q-72 0 -72 -53q0 -47 75 -47q50 0 80.5 27t33.5 73h-117zM131 597v101h288
v-101h-288z" />
    <glyph glyph-name="Abreve" unicode="&#x102;" horiz-adv-x="591" 
d="M438 0q-9 27 -24.5 80.5t-24.5 80.5h-191l-49 -161h-122v38l198 641h139q67 -213 199 -641v-38h-125zM353 279q-5 17 -15.5 57.5t-18.5 68.5l-23 100h-6l-26 -112l-31 -114h120zM290 742q-74 0 -113.5 46t-42.5 107l75 15q2 -33 25.5 -58.5t57.5 -25.5t56 25t25 59
l75 -15q-3 -61 -43 -107t-115 -46z" />
    <glyph glyph-name="abreve" unicode="&#x103;" horiz-adv-x="528" 
d="M368 45l-4 1q-55 -53 -145 -53q-182 0 -182 157q0 68 46 112t129 44h140v8q0 43 -23 62.5t-78 19.5q-50 0 -135 -9l-7 109q76 9 155 9q216 0 216 -192v-159l3 -154h-99q-12 20 -16 45zM234 207q-72 0 -72 -53q0 -47 75 -47q50 0 80.5 27t33.5 73h-117zM284 568
q-75 0 -116 47.5t-43 110.5l75 14q2 -33 26 -60t59 -27q34 0 57 26.5t26 60.5l76 -14q-3 -63 -43.5 -110.5t-116.5 -47.5z" />
    <glyph glyph-name="Aogonek" unicode="&#x104;" horiz-adv-x="594" 
d="M563 0h-83q-16 -21 -29 -45t-19.5 -48.5t4.5 -41t41 -16.5q26 0 62 14l19 -52q-50 -28 -108 -28q-53 0 -81 22.5t-28 60.5q0 32 23 71t70 75q-5 15 -45 149h-191l-49 -161h-122v38l198 641h139q67 -213 199 -641v-38zM353 279q-5 17 -15.5 57.5t-18.5 68.5l-23 100h-6
l-26 -112l-31 -114h120z" />
    <glyph glyph-name="aogonek" unicode="&#x105;" horiz-adv-x="543" 
d="M368 45l-4 1q-55 -53 -145 -53q-182 0 -182 157q0 68 46 112t129 44h140v8q0 43 -23 62.5t-78 19.5q-50 0 -135 -9l-7 109q76 9 155 9q216 0 216 -192v-159l3 -154h-57q-44 -50 -54 -101q-9 -55 45 -56q26 0 62 14l19 -52q-50 -28 -108 -28q-53 0 -81 22.5t-28 60.5
q0 33 24 73t73 77q-7 13 -10 35zM234 207q-72 0 -72 -53q0 -47 75 -47q50 0 80.5 27t33.5 73h-117z" />
    <glyph glyph-name="Cacute" unicode="&#x106;" horiz-adv-x="551" 
d="M288 685q82 0 137 -30t86 -109q-95 -45 -115 -55q-23 75 -103 75q-104 0 -104 -117v-221q0 -115 104 -115q83 0 110 87l120 -57q-62 -149 -233 -149q-106 0 -170 52.5t-64 163.5v245q0 114 62 172t170 58zM256 735l-50 62l168 137l71 -93z" />
    <glyph glyph-name="cacute" unicode="&#x107;" horiz-adv-x="494" 
d="M468 136q-48 -142 -209 -142q-215 0 -215 198v115q0 103 59 150.5t158 47.5q155 0 199 -137q-78 -34 -117 -50q-14 72 -87 72q-84 0 -84 -95v-95q0 -92 88 -92q70 0 89 74q104 -40 119 -46zM390 740l-122 -180q-25 10 -75 32l83 193z" />
    <glyph glyph-name="Ccircumflex" unicode="&#x108;" horiz-adv-x="551" 
d="M288 685q82 0 137 -30t86 -109q-95 -45 -115 -55q-23 75 -103 75q-104 0 -104 -117v-221q0 -115 104 -115q83 0 110 87l120 -57q-62 -149 -233 -149q-106 0 -170 52.5t-64 163.5v245q0 114 62 172t170 58zM413 733l-130 94l-127 -94l-50 58l151 139h59l151 -138z" />
    <glyph glyph-name="ccircumflex" unicode="&#x109;" horiz-adv-x="494" 
d="M468 136q-48 -142 -209 -142q-215 0 -215 198v115q0 103 59 150.5t158 47.5q155 0 199 -137q-78 -34 -117 -50q-14 72 -87 72q-84 0 -84 -95v-95q0 -92 88 -92q70 0 89 74q104 -40 119 -46zM385 560l-130 102l-128 -102l-53 58l154 149h60l154 -148z" />
    <glyph glyph-name="Cdotaccent" unicode="&#x10a;" horiz-adv-x="551" 
d="M288 685q82 0 137 -30t86 -109q-95 -45 -115 -55q-23 75 -103 75q-104 0 -104 -117v-221q0 -115 104 -115q83 0 110 87l120 -57q-62 -149 -233 -149q-106 0 -170 52.5t-64 163.5v245q0 114 62 172t170 58zM288 764q-31 0 -51.5 21t-20.5 51t21 50.5t51 20.5
q31 0 52.5 -20.5t21.5 -50.5t-21.5 -51t-52.5 -21z" />
    <glyph glyph-name="cdotaccent" unicode="&#x10b;" horiz-adv-x="494" 
d="M468 136q-48 -142 -209 -142q-215 0 -215 198v115q0 103 59 150.5t158 47.5q155 0 199 -137q-78 -34 -117 -50q-14 72 -87 72q-84 0 -84 -95v-95q0 -92 88 -92q70 0 89 74q104 -40 119 -46zM254 594q-31 0 -51.5 21t-20.5 51t21 50.5t51 20.5q31 0 52.5 -20.5t21.5 -50.5
t-21.5 -51t-52.5 -21z" />
    <glyph glyph-name="Ccaron" unicode="&#x10c;" horiz-adv-x="551" 
d="M288 685q82 0 137 -30t86 -109q-95 -45 -115 -55q-23 75 -103 75q-104 0 -104 -117v-221q0 -115 104 -115q83 0 110 87l120 -57q-62 -149 -233 -149q-106 0 -170 52.5t-64 163.5v245q0 114 62 172t170 58zM280 839l130 94l54 -59l-151 -139h-59l-151 139l50 59z" />
    <glyph glyph-name="ccaron" unicode="&#x10d;" horiz-adv-x="494" 
d="M468 136q-48 -142 -209 -142q-215 0 -215 198v115q0 103 59 150.5t158 47.5q155 0 199 -137q-78 -34 -117 -50q-14 72 -87 72q-84 0 -84 -95v-95q0 -92 88 -92q70 0 89 74q104 -40 119 -46zM247 666l130 101l57 -59l-154 -148h-59l-154 150l53 57z" />
    <glyph glyph-name="Dcaron" unicode="&#x10e;" horiz-adv-x="613" 
d="M556 456v-237q0 -110 -68 -164.5t-171 -54.5h-252v679h254q104 0 170.5 -55t66.5 -168zM424 219v236q0 55 -28.5 79t-84.5 24h-115v-439h115q113 0 113 100zM277 839l130 94l54 -59l-151 -139h-59l-151 139l50 59z" />
    <glyph glyph-name="dcaron" unicode="&#x10f;" horiz-adv-x="668" 
d="M360 715h131v-538l3 -177h-99q-3 4 -9 24t-9 24q-47 -54 -139 -54t-142 47t-50 142v113q0 94 45.5 151.5t143.5 57.5q77 0 123 -43h2v253zM175 292v-91q0 -43 19.5 -67t69.5 -24q98 0 98 107v68q0 103 -95 103q-92 0 -92 -96zM576 494l-33 45q48 32 54 75q-23 2 -37 18.5
t-14 38.5q0 27 19.5 45t45.5 18q31 0 50.5 -23t19.5 -60q0 -48 -28 -88.5t-77 -68.5z" />
    <glyph glyph-name="Dcroat" unicode="&#x110;" horiz-adv-x="613" 
d="M8 303v86h57v290h254q104 0 170.5 -55t66.5 -168v-237q0 -110 -68 -164.5t-171 -54.5h-252v303h-57zM424 219v236q0 55 -28.5 79t-84.5 24h-115v-169h97v-86h-97v-184h115q113 0 113 100z" />
    <glyph glyph-name="dcroat" unicode="&#x111;" horiz-adv-x="544" 
d="M357 715h131v-73h57v-70h-57v-395l3 -177h-99q-4 4 -9 24t-9 24q-47 -54 -139 -54t-142 47t-50 142v113q0 94 45.5 151.5t143.5 57.5q77 0 123 -43h2v110h-101v70h101v73zM172 292v-91q0 -43 19.5 -67t69.5 -24q98 0 98 107v68q0 103 -95 103q-92 0 -92 -96z" />
    <glyph glyph-name="Emacron" unicode="&#x112;" horiz-adv-x="559" 
d="M516 0h-451v679h439v-121h-307v-139h266v-121h-266v-179h319v-119zM132 776v101h288v-101h-288z" />
    <glyph glyph-name="emacron" unicode="&#x113;" horiz-adv-x="510" 
d="M425 114l9 -107q-75 -14 -158 -14q-115 0 -174 46.5t-59 151.5v114q0 104 57.5 151.5t157.5 47.5t155.5 -46t55.5 -129q0 -135 -154 -135h-144q0 -50 20.5 -71t93.5 -21q57 0 140 12zM260 392q-51 0 -70 -24t-19 -67v-11h129q43 0 43 38q0 29 -20.5 46.5t-62.5 17.5z
M109 597v101h288v-101h-288z" />
    <glyph glyph-name="Ebreve" unicode="&#x114;" horiz-adv-x="559" 
d="M516 0h-451v679h439v-121h-307v-139h266v-121h-266v-179h319v-119zM279 742q-74 0 -113.5 46t-42.5 107l75 15q2 -33 25.5 -58.5t57.5 -25.5q33 0 55.5 25t25.5 59l75 -15q-3 -61 -43 -107t-115 -46z" />
    <glyph glyph-name="ebreve" unicode="&#x115;" horiz-adv-x="510" 
d="M425 114l9 -107q-75 -14 -158 -14q-115 0 -174 46.5t-59 151.5v114q0 104 57.5 151.5t157.5 47.5t155.5 -46t55.5 -129q0 -135 -154 -135h-144q0 -50 20.5 -71t93.5 -21q57 0 140 12zM260 392q-51 0 -70 -24t-19 -67v-11h129q43 0 43 38q0 29 -20.5 46.5t-62.5 17.5z
M259 568q-75 0 -116 47.5t-43 110.5l75 14q2 -33 26 -60t59 -27q34 0 57 26.5t26 60.5l76 -14q-3 -63 -43.5 -110.5t-116.5 -47.5z" />
    <glyph glyph-name="Edotaccent" unicode="&#x116;" horiz-adv-x="559" 
d="M516 0h-451v679h439v-121h-307v-139h266v-121h-266v-179h319v-119zM296 764q-31 0 -51.5 21t-20.5 51t21 50.5t51 20.5q31 0 52.5 -20.5t21.5 -50.5t-21.5 -51t-52.5 -21z" />
    <glyph glyph-name="edotaccent" unicode="&#x117;" horiz-adv-x="510" 
d="M425 114l9 -107q-75 -14 -158 -14q-115 0 -174 46.5t-59 151.5v114q0 104 57.5 151.5t157.5 47.5t155.5 -46t55.5 -129q0 -135 -154 -135h-144q0 -50 20.5 -71t93.5 -21q57 0 140 12zM260 392q-51 0 -70 -24t-19 -67v-11h129q43 0 43 38q0 29 -20.5 46.5t-62.5 17.5z
M257 594q-31 0 -51.5 21t-20.5 51t21 50.5t51 20.5q31 0 52.5 -20.5t21.5 -50.5t-21.5 -51t-52.5 -21z" />
    <glyph glyph-name="Eogonek" unicode="&#x118;" horiz-adv-x="559" 
d="M516 0h-56q-16 -21 -29 -45t-19.5 -48.5t4.5 -41t41 -16.5q26 0 62 14l19 -52q-50 -28 -108 -28q-53 0 -81 22.5t-28 60.5q0 67 77 134h-333v679h439v-121h-307v-139h266v-121h-266v-179h319v-119z" />
    <glyph glyph-name="eogonek" unicode="&#x119;" horiz-adv-x="510" 
d="M425 114l9 -107q-30 -6 -69 -9q-16 -22 -26.5 -44.5t-15 -45t7 -36.5t39.5 -14q26 0 62 14l19 -52q-50 -28 -108 -28q-53 0 -81 22.5t-28 60.5q0 57 60 118h-18q-115 0 -174 46.5t-59 151.5v114q0 104 57.5 151.5t157.5 47.5t155.5 -46t55.5 -129q0 -135 -154 -135h-144
q0 -50 20.5 -71t93.5 -21q57 0 140 12zM260 392q-51 0 -70 -24t-19 -67v-11h129q43 0 43 38q0 29 -20.5 46.5t-62.5 17.5z" />
    <glyph glyph-name="Ecaron" unicode="&#x11a;" horiz-adv-x="559" 
d="M516 0h-451v679h439v-121h-307v-139h266v-121h-266v-179h319v-119zM279 839l130 94l54 -59l-151 -139h-59l-151 139l50 59z" />
    <glyph glyph-name="ecaron" unicode="&#x11b;" horiz-adv-x="510" 
d="M425 114l9 -107q-75 -14 -158 -14q-115 0 -174 46.5t-59 151.5v114q0 104 57.5 151.5t157.5 47.5t155.5 -46t55.5 -129q0 -135 -154 -135h-144q0 -50 20.5 -71t93.5 -21q57 0 140 12zM260 392q-51 0 -70 -24t-19 -67v-11h129q43 0 43 38q0 29 -20.5 46.5t-62.5 17.5z
M254 666l130 101l57 -59l-154 -148h-59l-154 150l53 57z" />
    <glyph glyph-name="Gcircumflex" unicode="&#x11c;" horiz-adv-x="600" 
d="M299 -6q-109 0 -175.5 53.5t-66.5 162.5v250q0 112 64 168.5t174 56.5q176 0 235 -143l-115 -53q-17 42 -45.5 59.5t-71.5 17.5q-110 0 -110 -114v-226q0 -113 109 -113q114 0 114 112v47h-103v113h233v-162q0 -112 -67 -170.5t-175 -58.5zM423 733l-130 94l-127 -94
l-50 58l151 139h59l151 -138z" />
    <glyph glyph-name="gcircumflex" unicode="&#x11d;" horiz-adv-x="551" 
d="M88 -161l10 113q76 -10 155 -10q61 0 84 19.5t23 58.5v29l-1 1h-1q-49 -44 -125 -44q-107 0 -146.5 51.5t-39.5 147.5v93q0 100 45 153.5t147 53.5q87 0 138 -52l2 1q4 23 17 45h98q-3 -150 -3 -164v-313q0 -106 -59.5 -150t-176.5 -44q-88 0 -167 11zM175 294v-82
q0 -44 20 -66t69 -22q99 0 99 106v51q0 52 -22 79.5t-76 27.5q-90 0 -90 -94zM383 560l-130 102l-128 -102l-53 58l154 149h60l154 -148z" />
    <glyph glyph-name="Gbreve" unicode="&#x11e;" horiz-adv-x="600" 
d="M299 -6q-109 0 -175.5 53.5t-66.5 162.5v250q0 112 64 168.5t174 56.5q176 0 235 -143l-115 -53q-17 42 -45.5 59.5t-71.5 17.5q-110 0 -110 -114v-226q0 -113 109 -113q114 0 114 112v47h-103v113h233v-162q0 -112 -67 -170.5t-175 -58.5zM296 742q-74 0 -113.5 46
t-42.5 107l75 15q2 -33 25.5 -58.5t57.5 -25.5t56 25t25 59l75 -15q-3 -61 -43 -107t-115 -46z" />
    <glyph glyph-name="gbreve" unicode="&#x11f;" horiz-adv-x="551" 
d="M88 -161l10 113q76 -10 155 -10q61 0 84 19.5t23 58.5v29l-1 1h-1q-49 -44 -125 -44q-107 0 -146.5 51.5t-39.5 147.5v93q0 100 45 153.5t147 53.5q87 0 138 -52l2 1q4 23 17 45h98q-3 -150 -3 -164v-313q0 -106 -59.5 -150t-176.5 -44q-88 0 -167 11zM175 294v-82
q0 -44 20 -66t69 -22q99 0 99 106v51q0 52 -22 79.5t-76 27.5q-90 0 -90 -94zM254 568q-75 0 -116 47.5t-43 110.5l75 14q2 -33 26 -60t59 -27q34 0 57 26.5t26 60.5l76 -14q-3 -63 -43.5 -110.5t-116.5 -47.5z" />
    <glyph glyph-name="Gdotaccent" unicode="&#x120;" horiz-adv-x="600" 
d="M299 -6q-109 0 -175.5 53.5t-66.5 162.5v250q0 112 64 168.5t174 56.5q176 0 235 -143l-115 -53q-17 42 -45.5 59.5t-71.5 17.5q-110 0 -110 -114v-226q0 -113 109 -113q114 0 114 112v47h-103v113h233v-162q0 -112 -67 -170.5t-175 -58.5zM301 764q-31 0 -51.5 21
t-20.5 51t21 50.5t51 20.5q31 0 52.5 -20.5t21.5 -50.5t-21.5 -51t-52.5 -21z" />
    <glyph glyph-name="gdotaccent" unicode="&#x121;" horiz-adv-x="551" 
d="M88 -161l10 113q76 -10 155 -10q61 0 84 19.5t23 58.5v29l-1 1h-1q-49 -44 -125 -44q-107 0 -146.5 51.5t-39.5 147.5v93q0 100 45 153.5t147 53.5q87 0 138 -52l2 1q4 23 17 45h98q-3 -150 -3 -164v-313q0 -106 -59.5 -150t-176.5 -44q-88 0 -167 11zM175 294v-82
q0 -44 20 -66t69 -22q99 0 99 106v51q0 52 -22 79.5t-76 27.5q-90 0 -90 -94zM257 594q-31 0 -51.5 21t-20.5 51t21 50.5t51 20.5q31 0 52.5 -20.5t21.5 -50.5t-21.5 -51t-52.5 -21z" />
    <glyph glyph-name="Gcommaaccent" unicode="&#x122;" horiz-adv-x="600" 
d="M299 -6q-109 0 -175.5 53.5t-66.5 162.5v250q0 112 64 168.5t174 56.5q176 0 235 -143l-115 -53q-17 42 -45.5 59.5t-71.5 17.5q-110 0 -110 -114v-226q0 -113 109 -113q114 0 114 112v47h-103v113h233v-162q0 -112 -67 -170.5t-175 -58.5zM263 -293l-33 45q48 32 54 75
q-23 2 -37 18.5t-14 38.5q0 27 19.5 45t45.5 18q31 0 50.5 -23t19.5 -60q0 -48 -28 -88.5t-77 -68.5z" />
    <glyph glyph-name="gcommaaccent" unicode="&#x123;" horiz-adv-x="551" 
d="M88 -161l10 113q76 -10 155 -10q61 0 84 19.5t23 58.5v29l-1 1h-1q-49 -44 -125 -44q-107 0 -146.5 51.5t-39.5 147.5v93q0 100 45 153.5t147 53.5q87 0 138 -52l2 1q4 23 17 45h98q-3 -150 -3 -164v-313q0 -106 -59.5 -150t-176.5 -44q-88 0 -167 11zM175 294v-82
q0 -44 20 -66t69 -22q99 0 99 106v51q0 52 -22 79.5t-76 27.5q-90 0 -90 -94zM290 800l33 -45q-48 -32 -54 -75q23 -2 37 -18.5t14 -38.5q0 -27 -19.5 -45t-45.5 -18q-31 0 -50.5 23t-19.5 60q0 48 28 88.5t77 68.5z" />
    <glyph glyph-name="Hcircumflex" unicode="&#x124;" horiz-adv-x="627" 
d="M562 0h-131v297h-234v-297h-132v679h132v-261h234v261h131v-679zM440 733l-130 94l-127 -94l-50 58l151 139h59l151 -138z" />
    <glyph glyph-name="hcircumflex" unicode="&#x125;" horiz-adv-x="545" 
d="M365 0v296q0 87 -88 87q-97 0 -97 -113v-270h-129v715h129v-256h2q55 46 126 46q105 0 146.5 -51t41.5 -154v-300h-131zM244 741l-130 94l-127 -94l-50 58l151 139h59l151 -138z" />
    <glyph glyph-name="Hbar" unicode="&#x126;" horiz-adv-x="627" 
d="M562 0h-131v297h-234v-297h-132v515h-42v70h42v94h132v-94h234v94h131v-94h43v-70h-43v-515zM197 418h234v97h-234v-97z" />
    <glyph glyph-name="hbar" unicode="&#x127;" horiz-adv-x="545" 
d="M365 0v296q0 87 -88 87q-97 0 -97 -113v-270h-129v572h-49v70h49v73h129v-73h129v-70h-129v-113h2q55 46 126 46q105 0 146.5 -51t41.5 -154v-300h-131z" />
    <glyph glyph-name="Itilde" unicode="&#x128;" horiz-adv-x="286" 
d="M208 0h-131v679h131v-679zM269 884l55 -66q-52 -67 -110 -67q-26 0 -71 17.5t-62 17.5q-40 0 -69 -38l-51 62q16 28 45.5 49.5t61.5 21.5q24 0 69 -17.5t68 -17.5q35 0 64 38z" />
    <glyph glyph-name="itilde" unicode="&#x129;" horiz-adv-x="280" 
d="M270 714l55 -66q-52 -67 -110 -67q-27 0 -71 17.5t-62 17.5q-40 0 -69 -38l-51 62q16 28 45.5 49.5t61.5 21.5q24 0 69 -17.5t68 -17.5q35 0 64 38zM76 0v498h129v-498h-129z" />
    <glyph glyph-name="Imacron" unicode="&#x12a;" horiz-adv-x="286" 
d="M208 0h-131v679h131v-679zM0 776v101h288v-101h-288z" />
    <glyph glyph-name="imacron" unicode="&#x12b;" horiz-adv-x="280" 
d="M-4 597v101h288v-101h-288zM76 0v498h129v-498h-129z" />
    <glyph glyph-name="Ibreve" unicode="&#x12c;" horiz-adv-x="286" 
d="M208 0h-131v679h131v-679zM145 742q-74 0 -113.5 46t-42.5 107l75 15q2 -33 25.5 -58.5t57.5 -25.5q33 0 55.5 25t25.5 59l75 -15q-3 -61 -43 -107t-115 -46z" />
    <glyph glyph-name="ibreve" unicode="&#x12d;" horiz-adv-x="280" 
d="M142 574q-75 0 -116 47.5t-43 110.5l75 14q2 -33 26 -60t59 -27q34 0 57 26.5t26 60.5l76 -14q-3 -63 -43.5 -110.5t-116.5 -47.5zM76 0v498h129v-498h-129z" />
    <glyph glyph-name="Iogonek" unicode="&#x12e;" horiz-adv-x="286" 
d="M208 0h-52q-17 -20 -30 -45t-20 -50t3.5 -41.5t41.5 -16.5q26 0 62 14l19 -52q-50 -28 -108 -28q-53 0 -81 22.5t-28 60.5q0 69 80 136h-18v679h131v-679z" />
    <glyph glyph-name="iogonek" unicode="&#x12f;" horiz-adv-x="285" 
d="M76 0v498h129v-498h-51q-16 -21 -29 -45t-19.5 -48.5t4.5 -41t41 -16.5q26 0 62 14l19 -52q-50 -28 -108 -28q-53 0 -81 22.5t-28 60.5q0 67 77 134h-16zM64 644q0 32 24 54.5t55 22.5t54.5 -22.5t23.5 -54.5q0 -33 -23.5 -55.5t-54.5 -22.5q-32 0 -55.5 22.5t-23.5 55.5
z" />
    <glyph glyph-name="Idotaccent" unicode="&#x130;" horiz-adv-x="286" 
d="M208 0h-131v679h131v-679zM144 764q-31 0 -51.5 21t-20.5 51t21 50.5t51 20.5q31 0 52.5 -20.5t21.5 -50.5t-21.5 -51t-52.5 -21z" />
    <glyph glyph-name="dotlessi" unicode="&#x131;" horiz-adv-x="280" 
d="M76 0v498h129v-498h-129z" />
    <glyph glyph-name="IJ" unicode="&#x132;" horiz-adv-x="789" 
d="M208 0h-131v679h131v-679zM711 211q0 -109 -62.5 -163t-172.5 -54q-162 0 -223 145l112 59q21 -49 47 -67t67 -18q102 0 102 108v458h130v-468z" />
    <glyph glyph-name="ij" unicode="&#x133;" horiz-adv-x="557" 
d="M72 0v498h129v-498h-129zM60 644q0 32 24 54.5t55 22.5t54.5 -22.5t23.5 -54.5q0 -33 -23.5 -55.5t-54.5 -22.5q-32 0 -55.5 22.5t-23.5 55.5zM499 644q0 -33 -23.5 -55.5t-54.5 -22.5q-32 0 -55.5 22.5t-23.5 55.5q0 32 24 54.5t55 22.5t54.5 -22.5t23.5 -54.5zM484 33
q0 -110 -57.5 -157.5t-166.5 -47.5q-33 0 -69 3q3 39 7 115q16 -1 49 -1q59 0 83.5 19t24.5 76v458h129v-465z" />
    <glyph glyph-name="Jcircumflex" unicode="&#x134;" horiz-adv-x="554" 
d="M475 212q0 -109 -62.5 -163t-172.5 -54q-162 0 -223 145l112 59q21 -49 47 -67t67 -18q102 0 102 108v458h130v-468zM538 735l-130 94l-127 -94l-50 58l151 139h59l151 -138z" />
    <glyph glyph-name="jcircumflex" unicode="&#x135;" horiz-adv-x="314" 
d="M234 33q0 -110 -57.5 -157.5t-166.5 -47.5q-33 0 -69 3q3 39 7 115q16 -1 49 -1q59 0 83.5 19t24.5 76v458h129v-465zM299 560l-130 102l-128 -102l-53 58l154 149h60l154 -148z" />
    <glyph glyph-name="Kcommaaccent" unicode="&#x136;" horiz-adv-x="611" 
d="M196 444l3 -1l254 236h127v-43l-243 -228l264 -370v-38h-127l-228 320l-50 -47v-273h-131v679h131v-235zM284 -283l-33 45q48 32 54 75q-23 2 -37 18.5t-14 38.5q0 27 19.5 45t45.5 18q31 0 50.5 -23t19.5 -60q0 -48 -28 -88.5t-77 -68.5z" />
    <glyph glyph-name="kcommaaccent" unicode="&#x137;" horiz-adv-x="530" 
d="M179 349l4 -2l176 151h128v-40l-173 -149l196 -271v-38h-124l-165 228l-42 -37v-191h-128v715h128v-366zM230 -293l-33 45q48 32 54 75q-23 2 -37 18.5t-14 38.5q0 27 19.5 45t45.5 18q31 0 50.5 -23t19.5 -60q0 -48 -28 -88.5t-77 -68.5z" />
    <glyph glyph-name="kgreenlandic" unicode="&#x138;" horiz-adv-x="531" 
d="M179 349l4 -2l176 151h127v-40l-173 -149l197 -271v-38h-124l-165 228l-42 -37v-191h-128v498h128v-149z" />
    <glyph glyph-name="Lacute" unicode="&#x139;" horiz-adv-x="545" 
d="M532 0h-467v679h133v-560h334v-119zM125 735l-50 62l168 137l71 -93z" />
    <glyph glyph-name="lacute" unicode="&#x13a;" horiz-adv-x="295" 
d="M266 109l5 -112q-30 -5 -57 -5q-84 0 -118.5 36t-34.5 119v568h129v-551q0 -30 10 -44t37 -14q15 0 29 3zM115 755l-50 62l168 137l71 -93z" />
    <glyph glyph-name="Lcommaaccent" unicode="&#x13b;" horiz-adv-x="545" 
d="M532 0h-467v679h133v-560h334v-119zM267 -293l-33 45q48 32 54 75q-23 2 -37 18.5t-14 38.5q0 27 19.5 45t45.5 18q31 0 50.5 -23t19.5 -60q0 -48 -28 -88.5t-77 -68.5z" />
    <glyph glyph-name="lcommaaccent" unicode="&#x13c;" horiz-adv-x="295" 
d="M266 109l5 -112q-30 -5 -57 -5q-84 0 -118.5 36t-34.5 119v568h129v-551q0 -30 10 -44t37 -14q15 0 29 3zM97 -293l-33 45q48 32 54 75q-23 2 -37 18.5t-14 38.5q0 27 19.5 45t45.5 18q31 0 50.5 -23t19.5 -60q0 -48 -28 -88.5t-77 -68.5z" />
    <glyph glyph-name="Lcaron" unicode="&#x13d;" horiz-adv-x="545" 
d="M532 0h-467v679h133v-560h334v-119zM325 474l-33 45q48 32 54 75q-23 2 -37 18.5t-14 38.5q0 27 19.5 45t45.5 18q31 0 50.5 -23t19.5 -60q0 -48 -28 -88.5t-77 -68.5z" />
    <glyph glyph-name="lcaron" unicode="&#x13e;" horiz-adv-x="363" 
d="M266 109l5 -112q-30 -5 -57 -5q-84 0 -118.5 36t-34.5 119v568h129v-551q0 -30 10 -44t37 -14q15 0 29 3zM270 495l-33 45q48 32 54 75q-23 2 -37 18.5t-14 38.5q0 27 19.5 45t45.5 18q31 0 50.5 -23t19.5 -60q0 -48 -28 -88.5t-77 -68.5z" />
    <glyph glyph-name="Ldot" unicode="&#x13f;" horiz-adv-x="545" 
d="M532 0h-467v679h133v-560h334v-119zM366 298q-31 0 -51.5 21t-20.5 51t21 50.5t51 20.5q31 0 52.5 -20.5t21.5 -50.5t-21.5 -51t-52.5 -21z" />
    <glyph glyph-name="ldot" unicode="&#x140;" horiz-adv-x="372" 
d="M266 109l5 -112q-30 -5 -57 -5q-84 0 -118.5 36t-34.5 119v568h129v-551q0 -30 10 -44t37 -14q15 0 29 3zM303 298q-31 0 -51.5 21t-20.5 51t21 50.5t51 20.5q31 0 52.5 -20.5t21.5 -50.5t-21.5 -51t-52.5 -21z" />
    <glyph glyph-name="Lslash" unicode="&#x141;" horiz-adv-x="545" 
d="M532 0h-467v211l-40 -22l-39 67l79 44v379h133v-306l93 52l35 -67l-128 -72v-167h334v-119z" />
    <glyph glyph-name="lslash" unicode="&#x142;" horiz-adv-x="295" 
d="M266 114l5 -112q-30 -5 -57 -5q-84 0 -118.5 36t-34.5 119v91l-45 -25l-38 67l83 47v388h129v-315l77 44l36 -68l-113 -64v-148q0 -30 10 -44t37 -14q15 0 29 3z" />
    <glyph glyph-name="Nacute" unicode="&#x143;" horiz-adv-x="623" 
d="M558 0h-140l-175 353l-44 98h-4q0 -58 1 -87v-364h-131v679h163l163 -354l33 -78h5q0 15 -0.5 43t-0.5 42v347h130v-679zM288 735l-50 62l168 137l71 -93z" />
    <glyph glyph-name="nacute" unicode="&#x144;" horiz-adv-x="558" 
d="M372 0v296q0 43 -19 65t-68 22q-97 0 -97 -116v-267h-128v335l-3 163h97q12 -25 16 -51q32 28 74 43t75 15q100 0 142.5 -49.5t42.5 -151.5v-304h-132zM410 740l-122 -180q-25 10 -75 32l83 193z" />
    <glyph glyph-name="Ncommaaccent" unicode="&#x145;" horiz-adv-x="623" 
d="M558 0h-140l-175 353l-44 98h-4q0 -58 1 -87v-364h-131v679h163l163 -354l33 -78h5q0 15 -0.5 43t-0.5 42v347h130v-679zM268 -280l-33 45q48 32 54 75q-23 2 -37 18.5t-14 38.5q0 27 19.5 45t45.5 18q31 0 50.5 -23t19.5 -60q0 -48 -28 -88.5t-77 -68.5z" />
    <glyph glyph-name="ncommaaccent" unicode="&#x146;" horiz-adv-x="558" 
d="M372 0v296q0 43 -19 65t-68 22q-97 0 -97 -116v-267h-128v335l-3 163h97q12 -25 16 -51q32 28 74 43t75 15q100 0 142.5 -49.5t42.5 -151.5v-304h-132zM243 -293l-33 45q48 32 54 75q-23 2 -37 18.5t-14 38.5q0 27 19.5 45t45.5 18q31 0 50.5 -23t19.5 -60
q0 -48 -28 -88.5t-77 -68.5z" />
    <glyph glyph-name="Ncaron" unicode="&#x147;" horiz-adv-x="623" 
d="M558 0h-140l-175 353l-44 98h-4q0 -58 1 -87v-364h-131v679h163l163 -354l33 -78h5q0 15 -0.5 43t-0.5 42v347h130v-679zM316 839l130 94l54 -59l-151 -139h-59l-151 139l50 59z" />
    <glyph glyph-name="ncaron" unicode="&#x148;" horiz-adv-x="558" 
d="M372 0v296q0 43 -19 65t-68 22q-97 0 -97 -116v-267h-128v335l-3 163h97q12 -25 16 -51q32 28 74 43t75 15q100 0 142.5 -49.5t42.5 -151.5v-304h-132zM274 666l130 101l57 -59l-154 -148h-59l-154 150l53 57z" />
    <glyph glyph-name="napostrophe" unicode="&#x149;" horiz-adv-x="608" 
d="M436 0v296q0 43 -19 65t-68 22q-97 0 -97 -116v-267h-128v335l-3 163h97q12 -25 16 -51q32 28 74 43t75 15q100 0 142.5 -49.5t42.5 -151.5v-304h-132zM32 498l-33 45q48 32 54 75q-23 2 -37 18.5t-14 38.5q0 27 19.5 45t45.5 18q31 0 50.5 -23t19.5 -60q0 -48 -28 -88.5
t-77 -68.5z" />
    <glyph glyph-name="Eng" unicode="&#x14a;" horiz-adv-x="618" 
d="M423 247h5v431h128v-701q0 -104 -52.5 -149.5t-154.5 -45.5q-17 0 -59 3l7 108q6 0 19.5 -0.5t23.5 -0.5q40 0 61 17t21 60v19l-183 368l-44 95h-3v-451h-130v678h163l150 -320z" />
    <glyph glyph-name="eng" unicode="&#x14b;" horiz-adv-x="558" 
d="M238 -212l6 108q26 -2 44 -2q84 0 84 77v325q0 43 -19 65t-68 22q-97 0 -97 -116v-267h-128v335l-3 163h97q12 -25 16 -51q32 28 74 43t75 15q100 0 142.5 -49.5t42.5 -151.5v-325q0 -104 -52.5 -149t-155.5 -45q-30 0 -58 3z" />
    <glyph glyph-name="Omacron" unicode="&#x14c;" horiz-adv-x="597" 
d="M296 -6q-106 0 -173 56.5t-67 166.5v242q0 114 65 169.5t175 55.5q112 0 178.5 -56t66.5 -169v-242q0 -112 -69 -167.5t-176 -55.5zM410 232v219q0 115 -112 115q-109 0 -109 -115v-219q0 -119 109 -119q55 0 83.5 31t28.5 88zM155 776v101h288v-101h-288z" />
    <glyph glyph-name="omacron" unicode="&#x14d;" horiz-adv-x="528" 
d="M262 -7q-96 0 -157.5 48t-61.5 148v117q0 102 60 150.5t159 48.5t161.5 -48.5t62.5 -150.5v-117q0 -101 -63.5 -148.5t-160.5 -47.5zM358 202v92q0 97 -96 97q-91 0 -91 -97v-92q0 -95 92 -95q95 0 95 95zM120 597v101h288v-101h-288z" />
    <glyph glyph-name="Obreve" unicode="&#x14e;" horiz-adv-x="597" 
d="M296 -6q-106 0 -173 56.5t-67 166.5v242q0 114 65 169.5t175 55.5q112 0 178.5 -56t66.5 -169v-242q0 -112 -69 -167.5t-176 -55.5zM410 232v219q0 115 -112 115q-109 0 -109 -115v-219q0 -119 109 -119q55 0 83.5 31t28.5 88zM298 742q-74 0 -113.5 46t-42.5 107l75 15
q2 -33 25.5 -58.5t57.5 -25.5t56 25t25 59l75 -15q-3 -61 -43 -107t-115 -46z" />
    <glyph glyph-name="obreve" unicode="&#x14f;" horiz-adv-x="528" 
d="M262 -7q-96 0 -157.5 48t-61.5 148v117q0 102 60 150.5t159 48.5t161.5 -48.5t62.5 -150.5v-117q0 -101 -63.5 -148.5t-160.5 -47.5zM358 202v92q0 97 -96 97q-91 0 -91 -97v-92q0 -95 92 -95q95 0 95 95zM266 568q-75 0 -116 47.5t-43 110.5l75 14q2 -33 26 -60t59 -27
q34 0 57 26.5t26 60.5l76 -14q-3 -63 -43.5 -110.5t-116.5 -47.5z" />
    <glyph glyph-name="Ohungarumlaut" unicode="&#x150;" horiz-adv-x="597" 
d="M296 -6q-106 0 -173 56.5t-67 166.5v242q0 114 65 169.5t175 55.5q112 0 178.5 -56t66.5 -169v-242q0 -112 -69 -167.5t-176 -55.5zM410 232v219q0 115 -112 115q-109 0 -109 -115v-219q0 -119 109 -119q55 0 83.5 31t28.5 88zM178 735l-50 62l169 137l71 -93zM387 735
l-50 62l168 137l71 -93z" />
    <glyph glyph-name="ohungarumlaut" unicode="&#x151;" horiz-adv-x="528" 
d="M262 -7q-96 0 -157.5 48t-61.5 148v117q0 102 60 150.5t159 48.5t161.5 -48.5t62.5 -150.5v-117q0 -101 -63.5 -148.5t-160.5 -47.5zM358 202v92q0 97 -96 97q-91 0 -91 -97v-92q0 -95 92 -95q95 0 95 95zM494 740l-121 -181l-75 33l83 193zM336 740l-121 -181l-75 33
l83 193z" />
    <glyph glyph-name="OE" unicode="&#x152;" horiz-adv-x="863" 
d="M820 0h-451q-34 -6 -77 -6q-110 0 -172 53t-62 161v254q0 112 63.5 167.5t175.5 55.5q43 0 79 -6h431v-121h-306v-140h266v-120h-266v-179h319v-119zM299 113q43 0 69 16v422q-26 15 -69 15q-109 0 -109 -117v-220q0 -58 24.5 -87t84.5 -29z" />
    <glyph glyph-name="oe" unicode="&#x153;" horiz-adv-x="827" 
d="M743 114l8 -107q-75 -14 -158 -14q-133 0 -176 63q-54 -63 -162 -63q-91 0 -151.5 48t-60.5 148v117q0 102 60 150.5t159 48.5q107 0 158 -65q54 64 155 64q100 0 155.5 -46t55.5 -129q0 -135 -154 -135h-144q0 -50 20.5 -71t93.5 -21q58 0 141 12zM358 202v92
q0 97 -96 97q-91 0 -91 -97v-92q0 -95 92 -95q95 0 95 95zM577 392q-51 0 -70 -24t-19 -67v-11h129q43 0 43 38q0 29 -20.5 46.5t-62.5 17.5z" />
    <glyph glyph-name="Racute" unicode="&#x154;" horiz-adv-x="594" 
d="M64 0v679h242q113 0 175.5 -53t62.5 -162q0 -125 -124 -180l125 -246v-38h-129l-126 260h-95v-260h-131zM195 380h117q46 0 73 22.5t27 63.5q0 46 -28 69t-76 23h-112zM234 735l-50 62l168 137l71 -93z" />
    <glyph glyph-name="racute" unicode="&#x155;" horiz-adv-x="396" 
d="M66 0v322q-2 108 -4 176q16 0 48.5 0.5t48.5 0.5q17 -38 18 -69q64 85 201 78l14 -133h-31q-98 0 -132 -25.5t-34 -89.5v-260h-129zM309 740l-122 -180q-25 10 -75 32l83 193z" />
    <glyph glyph-name="Rcommaaccent" unicode="&#x156;" horiz-adv-x="594" 
d="M64 0v679h242q113 0 175.5 -53t62.5 -162q0 -125 -124 -180l125 -246v-38h-129l-126 260h-95v-260h-131zM195 380h117q46 0 73 22.5t27 63.5q0 46 -28 69t-76 23h-112zM251 -283l-33 45q48 32 54 75q-23 2 -37 18.5t-14 38.5q0 27 19.5 45t45.5 18q31 0 50.5 -23
t19.5 -60q0 -48 -28 -88.5t-77 -68.5z" />
    <glyph glyph-name="rcommaaccent" unicode="&#x157;" horiz-adv-x="396" 
d="M66 0v322q-2 108 -4 176q16 0 48.5 0.5t48.5 0.5q17 -38 18 -69q64 85 201 78l14 -133h-31q-98 0 -132 -25.5t-34 -89.5v-260h-129zM98 -285l-33 45q48 32 54 75q-23 2 -37 18.5t-14 38.5q0 27 19.5 45t45.5 18q31 0 50.5 -23t19.5 -60q0 -48 -28 -88.5t-77 -68.5z" />
    <glyph glyph-name="Rcaron" unicode="&#x158;" horiz-adv-x="594" 
d="M64 0v679h242q113 0 175.5 -53t62.5 -162q0 -125 -124 -180l125 -246v-38h-129l-126 260h-95v-260h-131zM195 380h117q46 0 73 22.5t27 63.5q0 46 -28 69t-76 23h-112zM270 839l130 94l54 -59l-151 -139h-59l-151 139l50 59z" />
    <glyph glyph-name="rcaron" unicode="&#x159;" horiz-adv-x="396" 
d="M66 0v322q-2 108 -4 176q16 0 48.5 0.5t48.5 0.5q17 -38 18 -69q64 85 201 78l14 -133h-31q-98 0 -132 -25.5t-34 -89.5v-260h-129zM194 666l130 101l57 -59l-154 -148h-59l-154 150l53 57z" />
    <glyph glyph-name="Sacute" unicode="&#x15a;" horiz-adv-x="568" 
d="M520 538l-116 -52q-30 80 -117 80q-43 0 -70.5 -19.5t-27.5 -54.5q0 -25 19 -41.5t50 -26.5t68 -19t74 -23.5t68 -35t50 -58.5t19 -90q0 -97 -71.5 -150.5t-167.5 -53.5q-33 0 -58.5 2.5t-61 12.5t-62 28.5t-51.5 53.5t-38 84l125 50q18 -63 53.5 -87.5t90.5 -24.5
q51 0 80.5 22t29.5 59q0 41 -36 64.5t-87.5 35.5t-103 28.5t-87.5 57t-36 106.5q0 91 62.5 145t163.5 54q38 0 68.5 -5.5t63.5 -20t60 -45t46 -76.5zM272 735l-50 62l168 137l71 -93z" />
    <glyph glyph-name="sacute" unicode="&#x15b;" horiz-adv-x="463" 
d="M222 505q163 0 203 -121l-107 -42q-19 56 -87 56q-28 0 -45.5 -11.5t-17.5 -32.5t27.5 -33t67 -20t79.5 -20.5t67.5 -45.5t27.5 -85q0 -74 -59.5 -115t-139.5 -41q-28 0 -50.5 2t-50 10.5t-48 23t-39 41.5t-28.5 64l111 38q21 -72 99 -72q35 0 58 13t23 36q0 19 -20 31.5
t-50.5 18.5t-65.5 16.5t-65.5 23.5t-50.5 42t-20 70q0 70 51.5 111.5t129.5 41.5zM362 740l-122 -180q-25 10 -75 32l83 193z" />
    <glyph glyph-name="Scircumflex" unicode="&#x15c;" horiz-adv-x="568" 
d="M520 538l-116 -52q-30 80 -117 80q-43 0 -70.5 -19.5t-27.5 -54.5q0 -25 19 -41.5t50 -26.5t68 -19t74 -23.5t68 -35t50 -58.5t19 -90q0 -97 -71.5 -150.5t-167.5 -53.5q-33 0 -58.5 2.5t-61 12.5t-62 28.5t-51.5 53.5t-38 84l125 50q18 -63 53.5 -87.5t90.5 -24.5
q51 0 80.5 22t29.5 59q0 41 -36 64.5t-87.5 35.5t-103 28.5t-87.5 57t-36 106.5q0 91 62.5 145t163.5 54q38 0 68.5 -5.5t63.5 -20t60 -45t46 -76.5zM416 733l-130 94l-127 -94l-50 58l151 139h59l151 -138z" />
    <glyph glyph-name="scircumflex" unicode="&#x15d;" horiz-adv-x="463" 
d="M222 505q163 0 203 -121l-107 -42q-19 56 -87 56q-28 0 -45.5 -11.5t-17.5 -32.5t27.5 -33t67 -20t79.5 -20.5t67.5 -45.5t27.5 -85q0 -74 -59.5 -115t-139.5 -41q-28 0 -50.5 2t-50 10.5t-48 23t-39 41.5t-28.5 64l111 38q21 -72 99 -72q35 0 58 13t23 36q0 19 -20 31.5
t-50.5 18.5t-65.5 16.5t-65.5 23.5t-50.5 42t-20 70q0 70 51.5 111.5t129.5 41.5zM362 560l-130 102l-128 -102l-53 58l154 149h60l154 -148z" />
    <glyph glyph-name="Scedilla" unicode="&#x15e;" horiz-adv-x="568" 
d="M292 -47q54 -1 84.5 -27t30.5 -60q0 -37 -31.5 -64t-85.5 -27q-63 0 -109 27l22 53q39 -16 71 -16q48 0 48 34q0 13 -11 20t-25 7q-19 0 -36 -10l-36 24l43 81q-185 11 -230 180l125 50q18 -63 53.5 -87.5t90.5 -24.5q51 0 80.5 22t29.5 59q0 41 -36 64.5t-87.5 35.5
t-103 28.5t-87.5 57t-36 106.5q0 91 62.5 145t163.5 54q38 0 68.5 -5.5t63.5 -20t60 -45t46 -76.5l-116 -52q-30 80 -117 80q-43 0 -70.5 -19.5t-27.5 -54.5q0 -25 19 -41.5t50 -26.5t68 -19t74 -23.5t68 -35t50 -58.5t19 -90q0 -93 -65.5 -146t-157.5 -57z" />
    <glyph glyph-name="scedilla" unicode="&#x15f;" horiz-adv-x="463" 
d="M231 -47q54 -1 84.5 -27t30.5 -60q0 -37 -31.5 -64t-85.5 -27q-63 0 -109 27l22 53q39 -16 71 -16q48 0 48 34q0 13 -11 20t-25 7q-19 0 -36 -10l-36 24l44 82q-141 10 -175 139l111 38q21 -72 99 -72q35 0 58 13t23 36q0 19 -20 31.5t-50.5 18.5t-65.5 16.5t-65.5 23.5
t-50.5 42t-20 70q0 70 51.5 111.5t129.5 41.5q163 0 203 -121l-107 -42q-19 56 -87 56q-28 0 -45.5 -11.5t-17.5 -32.5t27.5 -33t67 -20t79.5 -20.5t67.5 -45.5t27.5 -85q0 -70 -54 -110.5t-130 -44.5z" />
    <glyph glyph-name="Scaron" unicode="&#x160;" horiz-adv-x="568" 
d="M520 538l-116 -52q-30 80 -117 80q-43 0 -70.5 -19.5t-27.5 -54.5q0 -25 19 -41.5t50 -26.5t68 -19t74 -23.5t68 -35t50 -58.5t19 -90q0 -97 -71.5 -150.5t-167.5 -53.5q-33 0 -58.5 2.5t-61 12.5t-62 28.5t-51.5 53.5t-38 84l125 50q18 -63 53.5 -87.5t90.5 -24.5
q51 0 80.5 22t29.5 59q0 41 -36 64.5t-87.5 35.5t-103 28.5t-87.5 57t-36 106.5q0 91 62.5 145t163.5 54q38 0 68.5 -5.5t63.5 -20t60 -45t46 -76.5zM290 839l130 94l54 -59l-151 -139h-59l-151 139l50 59z" />
    <glyph glyph-name="scaron" unicode="&#x161;" horiz-adv-x="463" 
d="M222 505q163 0 203 -121l-107 -42q-19 56 -87 56q-28 0 -45.5 -11.5t-17.5 -32.5t27.5 -33t67 -20t79.5 -20.5t67.5 -45.5t27.5 -85q0 -74 -59.5 -115t-139.5 -41q-28 0 -50.5 2t-50 10.5t-48 23t-39 41.5t-28.5 64l111 38q21 -72 99 -72q35 0 58 13t23 36q0 19 -20 31.5
t-50.5 18.5t-65.5 16.5t-65.5 23.5t-50.5 42t-20 70q0 70 51.5 111.5t129.5 41.5zM229 666l130 101l57 -59l-154 -148h-59l-154 150l53 57z" />
    <glyph glyph-name="Tcommaaccent" unicode="&#x162;" horiz-adv-x="527" 
d="M266 -47q54 -1 84.5 -27t30.5 -60q0 -37 -31.5 -64t-85.5 -27q-63 0 -109 27l22 53q39 -16 71 -16q48 0 48 34q0 13 -11 20t-25 7q-19 0 -36 -10l-36 24l46 86h-36v558h-186v121h502v-121h-185v-558h-38z" />
    <glyph glyph-name="tcommaaccent" unicode="&#x163;" horiz-adv-x="430" 
d="M204 -31q54 -1 84.5 -27t30.5 -60q0 -37 -31.5 -64t-85.5 -27q-63 0 -109 27l22 53q39 -16 71 -16q48 0 48 34q0 13 -11 20t-25 7q-19 0 -36 -10l-36 24l53 99q-59 43 -59 156v209h-99v104h100v151h127v-151h140v-104h-140v-191q0 -51 18.5 -71.5t73.5 -20.5q36 0 74 4
l4 -116q-51 -5 -84 -5q-67 0 -110 13z" />
    <glyph glyph-name="Tcaron" unicode="&#x164;" horiz-adv-x="527" 
d="M329 558v-558h-131v558h-186v121h502v-121h-185zM262 839l130 94l54 -59l-151 -139h-59l-151 139l50 59z" />
    <glyph glyph-name="tcaron" unicode="&#x165;" horiz-adv-x="453" 
d="M125 394h-99v104h100v151h127v-151h140v-104h-140v-191q0 -51 18.5 -71.5t73.5 -20.5q36 0 74 4l4 -116q-51 -5 -84 -5q-113 0 -163.5 42t-50.5 149v209zM356 542l-33 45q48 32 54 75q-23 2 -37 18.5t-14 38.5q0 27 19.5 45t45.5 18q31 0 50.5 -23t19.5 -60
q0 -48 -28 -88.5t-77 -68.5z" />
    <glyph glyph-name="Tbar" unicode="&#x166;" horiz-adv-x="527" 
d="M329 558v-142h137v-71h-137v-345h-131v345h-124v71h124v142h-186v121h502v-121h-185z" />
    <glyph glyph-name="tbar" unicode="&#x167;" horiz-adv-x="430" 
d="M120 394h-99v104h100v151h127v-151h140v-104h-140v-79h131v-70h-131v-42q0 -51 18.5 -71.5t73.5 -20.5q36 0 74 4l4 -116q-51 -5 -84 -5q-113 0 -163.5 42t-50.5 149v60h-94v70h94v79z" />
    <glyph glyph-name="Utilde" unicode="&#x168;" horiz-adv-x="606" 
d="M192 679v-450q0 -116 109 -116q55 0 84 30t29 86v450h131v-466q0 -109 -68 -164t-177 -55q-108 0 -173.5 55.5t-65.5 163.5v466h131zM432 884l55 -66q-52 -67 -110 -67q-27 0 -71 17.5t-62 17.5q-40 0 -69 -38l-51 62q16 28 45.5 49.5t61.5 21.5q24 0 69 -17.5t68 -17.5
q35 0 64 38z" />
    <glyph glyph-name="utilde" unicode="&#x169;" horiz-adv-x="545" 
d="M182 498v-299q0 -42 18.5 -64t66.5 -22q94 0 94 116v269h129v-378l3 -120h-99q-10 19 -15 50h-3q-59 -56 -140 -56q-100 0 -142.5 48t-42.5 149v307h131zM402 714l55 -66q-52 -67 -110 -67q-27 0 -71.5 17.5t-61.5 17.5q-40 0 -69 -38l-51 62q16 28 45.5 49.5t61.5 21.5
q24 0 69 -17.5t68 -17.5q35 0 64 38z" />
    <glyph glyph-name="Umacron" unicode="&#x16a;" horiz-adv-x="606" 
d="M192 679v-450q0 -116 109 -116q55 0 84 30t29 86v450h131v-466q0 -109 -68 -164t-177 -55q-108 0 -173.5 55.5t-65.5 163.5v466h131zM159 776v101h288v-101h-288z" />
    <glyph glyph-name="umacron" unicode="&#x16b;" horiz-adv-x="545" 
d="M182 498v-299q0 -42 18.5 -64t66.5 -22q94 0 94 116v269h129v-378l3 -120h-99q-10 19 -15 50h-3q-59 -56 -140 -56q-100 0 -142.5 48t-42.5 149v307h131zM128 606v101h288v-101h-288z" />
    <glyph glyph-name="Ubreve" unicode="&#x16c;" horiz-adv-x="606" 
d="M192 679v-450q0 -116 109 -116q55 0 84 30t29 86v450h131v-466q0 -109 -68 -164t-177 -55q-108 0 -173.5 55.5t-65.5 163.5v466h131zM303 742q-74 0 -113.5 46t-42.5 107l75 15q2 -33 25.5 -58.5t57.5 -25.5q33 0 55.5 25t25.5 59l75 -15q-3 -61 -43 -107t-115 -46z" />
    <glyph glyph-name="ubreve" unicode="&#x16d;" horiz-adv-x="545" 
d="M182 498v-299q0 -42 18.5 -64t66.5 -22q94 0 94 116v269h129v-378l3 -120h-99q-10 19 -15 50h-3q-59 -56 -140 -56q-100 0 -142.5 48t-42.5 149v307h131zM271 568q-75 0 -116 47.5t-43 110.5l75 14q2 -33 26 -60t59 -27q34 0 57 26.5t26 60.5l76 -14q-3 -63 -43.5 -110.5
t-116.5 -47.5z" />
    <glyph glyph-name="Uring" unicode="&#x16e;" horiz-adv-x="606" 
d="M192 679v-450q0 -116 109 -116q55 0 84 30t29 86v450h131v-466q0 -109 -68 -164t-177 -55q-108 0 -173.5 55.5t-65.5 163.5v466h131zM307 743q-48 0 -81.5 33t-33.5 80q0 46 33.5 79.5t81.5 33.5q49 0 83 -33t34 -80q0 -48 -34 -80.5t-83 -32.5zM307 906q-19 0 -33 -15
t-14 -35t14 -34.5t33 -14.5q20 0 34.5 14.5t14.5 34.5q0 19 -15 34.5t-34 15.5z" />
    <glyph glyph-name="uring" unicode="&#x16f;" horiz-adv-x="545" 
d="M182 498v-299q0 -42 18.5 -64t66.5 -22q94 0 94 116v269h129v-378l3 -120h-99q-10 19 -15 50h-3q-59 -56 -140 -56q-100 0 -142.5 48t-42.5 149v307h131zM273 561q-48 0 -81.5 33t-33.5 80q0 46 33.5 79.5t81.5 33.5q49 0 83 -33t34 -80q0 -48 -34 -80.5t-83 -32.5z
M273 724q-19 0 -33 -15t-14 -35t14 -34.5t33 -14.5q20 0 34.5 14.5t14.5 34.5q0 19 -15 34.5t-34 15.5z" />
    <glyph glyph-name="Uhungarumlaut" unicode="&#x170;" horiz-adv-x="606" 
d="M192 679v-450q0 -116 109 -116q55 0 84 30t29 86v450h131v-466q0 -109 -68 -164t-177 -55q-108 0 -173.5 55.5t-65.5 163.5v466h131zM162 735l-50 62l169 137l71 -93zM371 735l-50 62l168 137l71 -93z" />
    <glyph glyph-name="uhungarumlaut" unicode="&#x171;" horiz-adv-x="545" 
d="M182 498v-299q0 -42 18.5 -64t66.5 -22q94 0 94 116v269h129v-378l3 -120h-99q-10 19 -15 50h-3q-59 -56 -140 -56q-100 0 -142.5 48t-42.5 149v307h131zM484 740l-121 -181l-75 33l83 193zM326 740l-121 -181l-75 33l83 193z" />
    <glyph glyph-name="Uogonek" unicode="&#x172;" horiz-adv-x="606" 
d="M192 679v-450q0 -116 109 -116q55 0 84 30t29 86v450h131v-466q0 -101 -58 -155.5t-154 -61.5q-45 -53 -55 -103q-10 -55 46 -55q26 0 62 14l19 -52q-50 -28 -108 -28q-53 0 -81 22.5t-28 60.5q0 70 84 140q-96 7 -153.5 62t-57.5 156v466h131z" />
    <glyph glyph-name="uogonek" unicode="&#x173;" horiz-adv-x="545" 
d="M182 498v-299q0 -42 18.5 -64t66.5 -22q94 0 94 116v269h129v-378l3 -120h-45q-16 -21 -28.5 -45t-18.5 -48t5 -39.5t41 -15.5q26 0 62 14l19 -52q-50 -28 -108 -28q-53 0 -81 22.5t-28 60.5q0 69 80 136q-10 23 -12 45h-3q-59 -56 -140 -56q-100 0 -142.5 48t-42.5 149
v307h131z" />
    <glyph glyph-name="Wcircumflex" unicode="&#x174;" horiz-adv-x="707" 
d="M653 479q-2 -99 -19 -194l-50 -285h-150l-50 145l-28 84h-5l-27 -83l-50 -146h-150l-49 265q-20 112 -20 214v200h133v-213q0 -47 25 -236l6 -46h6l38 134l30 94h122l31 -99l39 -135h5l7 50q3 27 8 68.5t8 64.5t5 52.5t2 52.5v213h133v-200zM479 733l-130 94l-127 -94
l-50 58l151 139h59l151 -138z" />
    <glyph glyph-name="wcircumflex" unicode="&#x175;" horiz-adv-x="618" 
d="M307 180h-3l-20 -70l-34 -110h-135q-23 83 -59 229q-15 64 -15 130v139h129v-157q0 -22 5 -53t12.5 -70t10.5 -61h4q15 65 28 110l18 61h116l28 -100l20 -74h4l17 97q10 55 10 90v157h129v-145q0 -65 -19 -137q-8 -27 -27.5 -108t-27.5 -108h-135l-24 75zM434 563
l-130 102l-128 -102l-53 58l154 149h60l154 -148z" />
    <glyph glyph-name="Ycircumflex" unicode="&#x176;" horiz-adv-x="581" 
d="M287 398h6l54 117l86 164h133v-40l-209 -385v-254h-131v245l-211 393v41h132l85 -163zM417 733l-130 94l-127 -94l-50 58l151 139h59l151 -138z" />
    <glyph glyph-name="ycircumflex" unicode="&#x177;" horiz-adv-x="522" 
d="M141 -172q-43 0 -83 4l7 108q29 -1 64 -1q30 0 52.5 17t30.5 48h-32l-162 455v39h123l58 -168l61 -194h6l57 190l58 172h124v-40l-173 -499q-45 -131 -191 -131zM391 560l-130 102l-128 -102l-53 58l154 149h60l154 -148z" />
    <glyph glyph-name="Ydieresis" unicode="&#x178;" horiz-adv-x="581" 
d="M287 398h6l54 117l86 164h133v-40l-209 -385v-254h-131v245l-211 393v41h132l85 -163zM321 824q0 30 21.5 50.5t51.5 20.5t52.5 -20.5t22.5 -50.5t-22.5 -51t-52.5 -21t-51.5 21.5t-21.5 50.5zM113 824q0 31 21 51t52 20t52 -20t21 -51q0 -30 -21.5 -51t-51.5 -21
q-31 0 -52 21t-21 51z" />
    <glyph glyph-name="Zacute" unicode="&#x179;" horiz-adv-x="552" 
d="M38 0v105l304 453h-284v121h441v-111l-299 -449h316v-119h-478zM241 735l-50 62l168 137l71 -93z" />
    <glyph glyph-name="zacute" unicode="&#x17a;" horiz-adv-x="506" 
d="M33 0v103l243 277q0 1 -1 1h-224v117h402v-106l-239 -273q0 -2 1 -2h261v-117h-443zM394 740l-122 -180q-25 10 -75 32l83 193z" />
    <glyph glyph-name="Zdotaccent" unicode="&#x17b;" horiz-adv-x="552" 
d="M38 0v105l304 453h-284v121h441v-111l-299 -449h316v-119h-478zM284 764q-31 0 -51.5 21t-20.5 51t21 50.5t51 20.5q31 0 52.5 -20.5t21.5 -50.5t-21.5 -51t-52.5 -21z" />
    <glyph glyph-name="zdotaccent" unicode="&#x17c;" horiz-adv-x="506" 
d="M33 0v103l243 277q0 1 -1 1h-224v117h402v-106l-239 -273q0 -2 1 -2h261v-117h-443zM262 594q-31 0 -51.5 21t-20.5 51t21 50.5t51 20.5q31 0 52.5 -20.5t21.5 -50.5t-21.5 -51t-52.5 -21z" />
    <glyph glyph-name="Zcaron" unicode="&#x17d;" horiz-adv-x="552" 
d="M38 0v105l304 453h-284v121h441v-111l-299 -449h316v-119h-478zM278 839l130 94l54 -59l-151 -139h-59l-151 139l50 59z" />
    <glyph glyph-name="zcaron" unicode="&#x17e;" horiz-adv-x="506" 
d="M33 0v103l243 277q0 1 -1 1h-224v117h402v-106l-239 -273q0 -2 1 -2h261v-117h-443zM251 666l130 101l57 -59l-154 -148h-59l-154 150l53 57z" />
    <glyph glyph-name="florin" unicode="&#x192;" horiz-adv-x="596" 
d="M34 -117l11 113q5 0 21.5 -1.5t29.5 -1.5q46 0 66.5 16t28.5 55l40 230h-104v108h125q1 7 8.5 46.5t8.5 46.5q19 98 70 143.5t148 45.5q13 0 65 -4l-8 -112q-4 0 -22 1t-32 1q-44 0 -66 -16.5t-29 -55.5l-19 -96h123v-108h-144l-32 -196q-19 -114 -69 -168t-147 -54
q-32 0 -73 7z" />
    <glyph glyph-name="AEacute" unicode="&#x1fc;" horiz-adv-x="898" 
d="M861 0h-452v164h-198l-81 -164h-121v38l324 641h515v-121h-306v-139h266v-120h-266v-180h319v-119zM405 554l-135 -275h139v274q-1 0 -2 0.5t-2 0.5zM526 735l-50 62l168 137l71 -93z" />
    <glyph glyph-name="aeacute" unicode="&#x1fd;" horiz-adv-x="826" 
d="M744 113l8 -109q-82 -11 -172 -11q-143 0 -189 74q-65 -74 -172 -74q-182 0 -182 157q0 67 46 108.5t129 41.5h140v14q0 43 -23 62t-78 19q-45 0 -135 -7l-7 109q85 8 155 8q107 0 156 -49q48 49 155 49q100 0 157.5 -46t57.5 -131q0 -130 -157 -130h-149q0 -49 22 -72.5
t85 -23.5q69 0 153 11zM568 740l-122 -180q-25 10 -75 32l83 193zM575 393q-51 0 -71 -23.5t-20 -67.5v-11h127q50 0 50 33q0 69 -86 69zM234 207q-72 0 -72 -53q0 -47 75 -47q50 0 80.5 27t33.5 73h-117z" />
    <glyph glyph-name="Oslashacute" unicode="&#x1fe;" horiz-adv-x="597" 
d="M296 -6q-102 0 -163 48q-18 -28 -28 -42h-45v35l32 49q-36 53 -36 133v242q0 114 65 169.5t175 55.5q102 0 164 -45l26 40h46v-37l-30 -45q39 -55 39 -138v-242q0 -112 -69 -167.5t-176 -55.5zM410 232v226l-202 -304q26 -41 90 -41q55 0 83.5 31t28.5 88zM189 328v-98
q34 50 100 150.5t99 150.5q-27 35 -90 35q-100 0 -106 -93q-3 -47 -3 -145zM287 735l-50 62l168 137l71 -93z" />
    <glyph glyph-name="oslashacute" unicode="&#x1ff;" horiz-adv-x="528" 
d="M262 -6q-93 0 -148 40l-29 -34h-42v35l32 37q-32 46 -32 117v117q0 102 60 150.5t159 48.5q91 0 150 -41l30 34h43v-37l-32 -37q33 -47 33 -118v-117q0 -100 -63 -147.5t-161 -47.5zM410 740l-122 -180q-25 10 -75 32l83 193zM358 202v92q0 13 -1 19l-160 -185
q23 -21 66 -21q95 0 95 95zM171 184l160 185q-25 22 -69 22q-91 0 -91 -97v-110z" />
    <glyph glyph-name="Scommaaccent" unicode="&#x218;" horiz-adv-x="568" 
d="M520 538l-116 -52q-30 80 -117 80q-43 0 -70.5 -19.5t-27.5 -54.5q0 -25 19 -41.5t50 -26.5t68 -19t74 -23.5t68 -35t50 -58.5t19 -90q0 -97 -71.5 -150.5t-167.5 -53.5q-33 0 -58.5 2.5t-61 12.5t-62 28.5t-51.5 53.5t-38 84l125 50q18 -63 53.5 -87.5t90.5 -24.5
q51 0 80.5 22t29.5 59q0 41 -36 64.5t-87.5 35.5t-103 28.5t-87.5 57t-36 106.5q0 91 62.5 145t163.5 54q38 0 68.5 -5.5t63.5 -20t60 -45t46 -76.5zM252 -293l-33 45q48 32 54 75q-23 2 -37 18.5t-14 38.5q0 27 19.5 45t45.5 18q31 0 50.5 -23t19.5 -60q0 -48 -28 -88.5
t-77 -68.5z" />
    <glyph glyph-name="scommaaccent" unicode="&#x219;" horiz-adv-x="463" 
d="M222 505q163 0 203 -121l-107 -42q-19 56 -87 56q-28 0 -45.5 -11.5t-17.5 -32.5t27.5 -33t67 -20t79.5 -20.5t67.5 -45.5t27.5 -85q0 -74 -59.5 -115t-139.5 -41q-28 0 -50.5 2t-50 10.5t-48 23t-39 41.5t-28.5 64l111 38q21 -72 99 -72q35 0 58 13t23 36q0 19 -20 31.5
t-50.5 18.5t-65.5 16.5t-65.5 23.5t-50.5 42t-20 70q0 70 51.5 111.5t129.5 41.5zM198 -293l-33 45q48 32 54 75q-23 2 -37 18.5t-14 38.5q0 27 19.5 45t45.5 18q31 0 50.5 -23t19.5 -60q0 -48 -28 -88.5t-77 -68.5z" />
    <glyph glyph-name="uni021A" unicode="&#x21a;" horiz-adv-x="527" 
d="M329 558v-558h-131v558h-186v121h502v-121h-185zM231 -293l-33 45q48 32 54 75q-23 2 -37 18.5t-14 38.5q0 27 19.5 45t45.5 18q31 0 50.5 -23t19.5 -60q0 -48 -28 -88.5t-77 -68.5z" />
    <glyph glyph-name="uni021B" unicode="&#x21b;" horiz-adv-x="430" 
d="M120 394h-99v104h100v151h127v-151h140v-104h-140v-191q0 -51 18.5 -71.5t73.5 -20.5q36 0 74 4l4 -116q-51 -5 -84 -5q-113 0 -163.5 42t-50.5 149v209zM164 -293l-33 45q48 32 54 75q-23 2 -37 18.5t-14 38.5q0 27 19.5 45t45.5 18q31 0 50.5 -23t19.5 -60
q0 -48 -28 -88.5t-77 -68.5z" />
    <glyph glyph-name="schwa" unicode="&#x259;" horiz-adv-x="511" 
d="M87 387l-8 107q73 11 171 11q107 0 164 -46.5t57 -151.5v-118q0 -195 -220 -195q-100 0 -157.5 46t-57.5 130q0 134 157 134h149q0 48 -20.5 70.5t-83.5 22.5q-64 0 -151 -10zM251 106q51 0 71 23t20 68v11h-127q-28 0 -39 -8.5t-11 -25.5q0 -68 86 -68z" />
    <glyph glyph-name="primemod" unicode="&#x2b9;" horiz-adv-x="270" 
d="M146 694l96 -24l-138 -266l-57 18z" />
    <glyph glyph-name="circumflex" unicode="&#x2c6;" horiz-adv-x="533" 
d="M396 560l-130 102l-128 -102l-53 58l154 149h60l154 -148z" />
    <glyph glyph-name="caron" unicode="&#x2c7;" horiz-adv-x="543" 
d="M272 666l130 101l57 -59l-154 -148h-59l-154 150l53 57z" />
    <glyph glyph-name="breve" unicode="&#x2d8;" horiz-adv-x="540" 
d="M278 568q-75 0 -116 47.5t-43 110.5l75 14q2 -33 26 -60t59 -27q34 0 57 26.5t26 60.5l76 -14q-3 -63 -43.5 -110.5t-116.5 -47.5z" />
    <glyph glyph-name="dotaccent" unicode="&#x2d9;" horiz-adv-x="543" 
d="M275 594q-31 0 -51.5 21t-20.5 51t21 50.5t51 20.5q31 0 52.5 -20.5t21.5 -50.5t-21.5 -51t-52.5 -21z" />
    <glyph glyph-name="ring" unicode="&#x2da;" horiz-adv-x="543" 
d="M277 561q-48 0 -81.5 33t-33.5 80q0 46 33.5 79.5t81.5 33.5q49 0 83 -33t34 -80q0 -48 -34 -80.5t-83 -32.5zM277 724q-19 0 -33 -15t-14 -35t14 -34.5t33 -14.5q20 0 34.5 14.5t14.5 34.5q0 19 -15 34.5t-34 15.5z" />
    <glyph glyph-name="ogonek" unicode="&#x2db;" horiz-adv-x="543" 
d="M413 34l30 -19q-39 -40 -57 -93q-26 -73 40 -73q26 0 62 14l19 -52q-50 -28 -108 -28q-53 0 -81 22.5t-28 60.5q0 37 30.5 82.5t92.5 85.5z" />
    <glyph glyph-name="tilde" unicode="&#x2dc;" horiz-adv-x="533" 
d="M405 714l55 -66q-52 -67 -110 -67q-26 0 -71 17.5t-62 17.5q-40 0 -69 -38l-51 62q16 28 45.5 49.5t61.5 21.5q24 0 69 -17.5t68 -17.5q35 0 64 38z" />
    <glyph glyph-name="hungarumlaut" unicode="&#x2dd;" horiz-adv-x="543" 
d="M486 740l-121 -181l-75 33l83 193zM328 740l-121 -181l-75 33l83 193z" />
    <glyph glyph-name="tonos" unicode="&#x384;" horiz-adv-x="543" 
d="M409 740l-122 -180q-25 10 -75 32l83 193z" />
    <glyph glyph-name="dieresistonos" unicode="&#x385;" horiz-adv-x="534" 
d="M433 583q-31 0 -52.5 21.5t-21.5 50.5q0 30 21.5 50.5t52.5 20.5q29 0 51.5 -20.5t22.5 -50.5t-22 -51t-52 -21zM116 583q-31 0 -52 21t-21 51t21.5 50.5t51.5 20.5q31 0 52 -20t21 -51q0 -30 -21 -51t-52 -21zM385 746l-121 -181l-75 33l83 193z" />
    <glyph glyph-name="Alphatonos" unicode="&#x386;" horiz-adv-x="591" 
d="M438 0q-9 27 -24.5 80.5t-24.5 80.5h-191l-49 -161h-122v38l198 641h139q67 -213 199 -641v-38h-125zM353 279q-5 17 -15.5 57.5t-18.5 68.5l-23 100h-6l-26 -112l-31 -114h120zM120 670l-122 -180q-25 10 -75 32l83 193z" />
    <glyph glyph-name="anoteleia" unicode="&#x387;" horiz-adv-x="336" 
d="M84 412q0 34 24 57.5t57 23.5t57.5 -23.5t24.5 -57.5t-22 -58.5t-58 -24.5q-35 0 -59 24t-24 59z" />
    <glyph glyph-name="Epsilontonos" unicode="&#x388;" horiz-adv-x="559" 
d="M516 0h-451v679h439v-121h-307v-139h266v-121h-266v-179h319v-119zM10 673l-122 -180q-25 10 -75 32l83 193z" />
    <glyph glyph-name="Etatonos" unicode="&#x389;" horiz-adv-x="627" 
d="M562 0h-131v297h-234v-297h-132v679h132v-261h234v261h131v-679zM22 670l-122 -180q-25 10 -75 32l83 193z" />
    <glyph glyph-name="Iotatonos" unicode="&#x38a;" horiz-adv-x="286" 
d="M208 0h-131v679h131v-679zM27 670l-122 -180q-25 10 -75 32l83 193z" />
    <glyph glyph-name="Omicrontonos" unicode="&#x38c;" horiz-adv-x="597" 
d="M296 -6q-106 0 -173 56.5t-67 166.5v242q0 114 65 169.5t175 55.5q112 0 178.5 -56t66.5 -169v-242q0 -112 -69 -167.5t-176 -55.5zM410 232v219q0 115 -112 115q-109 0 -109 -115v-219q0 -119 109 -119q55 0 83.5 31t28.5 88zM43 670l-122 -180q-25 10 -75 32l83 193z
" />
    <glyph glyph-name="Upsilontonos" unicode="&#x38e;" horiz-adv-x="581" 
d="M287 398h6l54 117l86 164h133v-40l-209 -385v-254h-131v245l-211 393v41h132l85 -163zM-11 670l-122 -180q-25 10 -75 32l83 193z" />
    <glyph glyph-name="Omegatonos" unicode="&#x38f;" horiz-adv-x="621" 
d="M576 0h-229v124q79 28 79 129v190q0 58 -29.5 90t-87.5 32q-57 0 -86 -32t-29 -90v-190q0 -104 75 -129v-124h-224v119h63q-46 39 -46 138v197q0 112 67 171.5t179 59.5q114 0 181 -59t67 -172v-197q0 -93 -45 -138h65v-119zM49 670l-122 -180q-25 10 -75 32l83 193z" />
    <glyph glyph-name="iotadieresistonos" unicode="&#x390;" horiz-adv-x="281" 
d="M76 0v498h129v-498h-129zM314 583q-31 0 -52.5 21.5t-21.5 50.5q0 30 21.5 50.5t52.5 20.5q29 0 51.5 -20.5t22.5 -50.5t-22 -51t-52 -21zM-3 583q-31 0 -52 21t-21 51t21.5 50.5t51.5 20.5q31 0 52 -20t21 -51q0 -30 -21 -51t-52 -21zM266 746l-121 -181l-75 33l83 193z
" />
    <glyph glyph-name="Alpha" unicode="&#x391;" horiz-adv-x="591" 
d="M438 0q-9 27 -24.5 80.5t-24.5 80.5h-191l-49 -161h-122v38l198 641h139q67 -213 199 -641v-38h-125zM353 279q-5 17 -15.5 57.5t-18.5 68.5l-23 100h-6l-26 -112l-31 -114h120z" />
    <glyph glyph-name="Beta" unicode="&#x392;" horiz-adv-x="626" 
d="M469 361v-2q53 -18 77.5 -63.5t24.5 -93.5q0 -84 -57 -143t-169 -59h-280v679h260q41 0 78 -8.5t72 -27.5t55.5 -57t20.5 -90q0 -36 -20 -74.5t-62 -60.5zM323 300h-126v-181h124q115 0 115 90q0 91 -113 91zM322 557h-125v-142h133q34 0 60.5 16t26.5 55q0 71 -95 71z
" />
    <glyph glyph-name="Gamma" unicode="&#x393;" horiz-adv-x="506" 
d="M483 558h-285v-558h-131v679h416v-121z" />
    <glyph glyph-name="Delta" unicode="&#x394;" horiz-adv-x="611" 
d="M25 0v38l204 641h151l204 -640v-39h-559zM414 119l-58 195l-50 180h-6l-50 -181l-57 -194h221z" />
    <glyph glyph-name="Delta" unicode="&#x2206;" horiz-adv-x="611" 
d="M25 0v38l204 641h151l204 -640v-39h-559zM414 119l-58 195l-50 180h-6l-50 -181l-57 -194h221z" />
    <glyph glyph-name="Epsilon" unicode="&#x395;" horiz-adv-x="559" 
d="M516 0h-451v679h439v-121h-307v-139h266v-121h-266v-179h319v-119z" />
    <glyph glyph-name="Zeta" unicode="&#x396;" horiz-adv-x="552" 
d="M38 0v105l304 453h-284v121h441v-111l-299 -449h316v-119h-478z" />
    <glyph glyph-name="Eta" unicode="&#x397;" horiz-adv-x="627" 
d="M562 0h-131v297h-234v-297h-132v679h132v-261h234v261h131v-679z" />
    <glyph glyph-name="Theta" unicode="&#x398;" horiz-adv-x="603" 
d="M376 298h-148v120h148v-120zM298 -7q-106 0 -174 57.5t-68 167.5v240q0 113 66 169.5t176 56.5q112 0 179.5 -56.5t67.5 -169.5v-240q0 -111 -70 -168t-177 -57zM415 230v219q0 117 -114 117q-112 0 -112 -117v-219q0 -57 28.5 -87t83.5 -30q56 0 85 30.5t29 86.5z" />
    <glyph glyph-name="Iota" unicode="&#x399;" horiz-adv-x="286" 
d="M208 0h-131v679h131v-679z" />
    <glyph glyph-name="Kappa" unicode="&#x39a;" horiz-adv-x="611" 
d="M196 444l3 -1l254 236h127v-43l-243 -228l264 -370v-38h-127l-228 320l-50 -47v-273h-131v679h131v-235z" />
    <glyph glyph-name="Lambda" unicode="&#x39b;" horiz-adv-x="600" 
d="M442 0l-90 302l-52 197h-5l-53 -197l-89 -302h-123v38l197 641h143l199 -640v-39h-127z" />
    <glyph glyph-name="Mu" unicode="&#x39c;" horiz-adv-x="722" 
d="M657 0h-132v398l1 52h-4l-67 -159l-33 -67h-122l-34 70l-67 155h-4l1 -61v-388h-131v679h165l103 -227l25 -60h5l25 62l102 225h167v-679z" />
    <glyph glyph-name="Nu" unicode="&#x39d;" horiz-adv-x="623" 
d="M558 0h-140l-175 353l-44 98h-4q0 -58 1 -87v-364h-131v679h163l163 -354l33 -78h5q0 15 -0.5 43t-0.5 42v347h130v-679z" />
    <glyph glyph-name="Xi" unicode="&#x39e;" horiz-adv-x="564" 
d="M29 0v119h186v179h-135v121h135v139h-174v121h481v-121h-173v-139h135v-121h-135v-179h186v-119h-506z" />
    <glyph glyph-name="Omicron" unicode="&#x39f;" horiz-adv-x="597" 
d="M296 -6q-106 0 -173 56.5t-67 166.5v242q0 114 65 169.5t175 55.5q112 0 178.5 -56t66.5 -169v-242q0 -112 -69 -167.5t-176 -55.5zM410 232v219q0 115 -112 115q-109 0 -109 -115v-219q0 -119 109 -119q55 0 83.5 31t28.5 88z" />
    <glyph glyph-name="Pi" unicode="&#x3a0;" horiz-adv-x="627" 
d="M562 0h-131v557h-234v-557h-132v679h497v-679z" />
    <glyph glyph-name="Rho" unicode="&#x3a1;" horiz-adv-x="569" 
d="M64 0v679h244q106 0 169.5 -58t63.5 -165q0 -108 -74 -166.5t-170 -58.5h-102v-231h-131zM195 351h107q49 0 77.5 30t28.5 76q0 48 -29 74.5t-75 26.5h-109v-207z" />
    <glyph glyph-name="Sigma" unicode="&#x3a3;" horiz-adv-x="557" 
d="M342 378v-31l-139 -228h317v-119h-478v105l157 258l-151 206v110h464v-121h-305z" />
    <glyph glyph-name="Tau" unicode="&#x3a4;" horiz-adv-x="527" 
d="M329 558v-558h-131v558h-186v121h502v-121h-185z" />
    <glyph glyph-name="Upsilon" unicode="&#x3a5;" horiz-adv-x="581" 
d="M287 398h6l54 117l86 164h133v-40l-209 -385v-254h-131v245l-211 393v41h132l85 -163z" />
    <glyph glyph-name="Phi" unicode="&#x3a6;" horiz-adv-x="717" 
d="M424 76v-76h-133v76q-105 5 -171.5 66.5t-66.5 165.5v81q0 108 66 170.5t172 67.5v51h133v-51q107 -5 173 -67.5t66 -170.5v-81q0 -103 -68 -165t-171 -67zM180 395v-91q1 -51 28.5 -83t82.5 -36v337q-53 -4 -82 -38.5t-29 -88.5zM538 307v88q0 117 -114 127v-337
q57 4 85.5 35.5t28.5 86.5z" />
    <glyph glyph-name="Chi" unicode="&#x3a7;" horiz-adv-x="595" 
d="M296 467h4q25 44 56 95l73 117h127v-41q-16 -25 -82 -127.5t-102 -158.5q67 -104 199 -314v-38h-129q-27 44 -83 132l-61 108h-2q-8 -13 -29.5 -52t-34.5 -59l-81 -129h-127v38l200 313l-180 287v41h126l72 -117z" />
    <glyph glyph-name="Psi" unicode="&#x3a8;" horiz-adv-x="720" 
d="M665 418q0 -104 -69 -163.5t-172 -67.5v-187h-133v187q-102 9 -169 69t-67 162v260h130v-262q0 -50 27 -80.5t79 -34.5v377h133v-377q53 4 82 35t29 80v262h130v-260z" />
    <glyph glyph-name="Omega" unicode="&#x3a9;" horiz-adv-x="621" 
d="M576 0h-229v124q79 28 79 129v190q0 58 -29.5 90t-87.5 32q-57 0 -86 -32t-29 -90v-190q0 -104 75 -129v-124h-224v119h63q-46 39 -46 138v197q0 112 67 171.5t179 59.5q114 0 181 -59t67 -172v-197q0 -93 -45 -138h65v-119z" />
    <glyph glyph-name="Iotadieresis" unicode="&#x3aa;" horiz-adv-x="286" 
d="M208 0h-131v679h131v-679zM-32 824q0 31 21 51t52 20t52 -20t21 -51q0 -30 -21 -51t-52 -21t-52 21t-21 51zM176 824q0 30 21.5 50.5t51.5 20.5t52.5 -20.5t22.5 -50.5t-22.5 -51t-52.5 -21t-51.5 21.5t-21.5 50.5z" />
    <glyph glyph-name="Upsilondieresis" unicode="&#x3ab;" horiz-adv-x="581" 
d="M287 398h6l54 117l86 164h133v-40l-209 -385v-254h-131v245l-211 393v41h132l85 -163zM321 824q0 30 21.5 50.5t51.5 20.5t52.5 -20.5t22.5 -50.5t-22.5 -51t-52.5 -21t-51.5 21.5t-21.5 50.5zM113 824q0 31 21 51t52 20t52 -20t21 -51q0 -30 -21.5 -51t-51.5 -21
q-31 0 -52 21t-21 51z" />
    <glyph glyph-name="alphatonos" unicode="&#x3ac;" horiz-adv-x="545" 
d="M373 45q-1 0 -3 1q-47 -47 -125 -52q-112 0 -157 52.5t-45 146.5v106q0 102 47.5 154t149.5 52q91 0 135 -53l2 1q5 27 16 45h98l-3 -162v-218q3 -117 3 -118h-102q-11 17 -16 45zM171 297v-93q0 -93 90 -93q98 0 98 107v64q0 52 -21.5 79.5t-75.5 27.5q-91 0 -91 -92z
M398 740l-122 -180q-25 10 -75 32l83 193z" />
    <glyph glyph-name="epsilontonos" unicode="&#x3ad;" horiz-adv-x="470" 
d="M380 740l-122 -180q-25 10 -75 32l83 193zM43 144q0 32 20 65t55 46v3q-32 9 -50.5 36.5t-18.5 56.5q0 74 55.5 114.5t141.5 40.5q137 0 194 -91l-87 -75q-32 54 -96 54q-35 0 -56.5 -13.5t-21.5 -36.5q0 -41 78 -41h43v-95h-48q-77 0 -77 -52q0 -23 20.5 -37t57.5 -14
q74 0 108 60l98 -71q-39 -54 -89.5 -77t-120.5 -23q-90 0 -148 38.5t-58 111.5z" />
    <glyph glyph-name="etatonos" unicode="&#x3ae;" horiz-adv-x="558" 
d="M372 0v296q0 43 -19 65t-68 22q-97 0 -97 -116v-267h-128v335l-3 163h97q4 -9 10 -27.5t8 -23.5q30 30 70.5 44t74.5 14q100 0 143.5 -49.5t43.5 -151.5v-304h-132zM405 740l-122 -180q-25 10 -75 32l83 193z" />
    <glyph glyph-name="iotatonos" unicode="&#x3af;" horiz-adv-x="281" 
d="M76 0v498h129v-498h-129zM290 740l-122 -180q-25 10 -75 32l83 193z" />
    <glyph glyph-name="upsilondieresistonos" unicode="&#x3b0;" horiz-adv-x="529" 
d="M487 498v-307q0 -52 -18.5 -91t-50 -62t-70.5 -34t-85 -11q-96 0 -158 49t-62 149v307h129v-293q0 -97 92 -97q46 0 70.5 25.5t24.5 71.5v293h128zM425 583q-31 0 -52.5 21.5t-21.5 50.5q0 30 21.5 50.5t52.5 20.5q29 0 51.5 -20.5t22.5 -50.5t-22 -51t-52 -21zM108 583
q-31 0 -52 21t-21 51t21.5 50.5t51.5 20.5q31 0 52 -20t21 -51q0 -30 -21 -51t-52 -21zM377 746l-121 -181l-75 33l83 193z" />
    <glyph glyph-name="alpha" unicode="&#x3b1;" horiz-adv-x="545" 
d="M373 45q-1 0 -3 1q-47 -47 -125 -52q-112 0 -157 52.5t-45 146.5v106q0 102 47.5 154t149.5 52q91 0 135 -53l2 1q5 27 16 45h98l-3 -162v-218q3 -117 3 -118h-102q-11 17 -16 45zM171 297v-93q0 -93 90 -93q98 0 98 107v64q0 52 -21.5 79.5t-75.5 27.5q-91 0 -91 -92z
" />
    <glyph glyph-name="beta" unicode="&#x3b2;" horiz-adv-x="548" 
d="M186 487q0 -42 -0.5 -124t-0.5 -123q0 -60 20 -95t78 -35q90 0 90 90v33q0 111 -105 111h-26v98h31q37 0 57.5 26t20.5 55q0 35 -20.5 56.5t-58.5 21.5q-34 0 -54.5 -20.5t-26 -43.5t-5.5 -50zM57 -169v660q0 102 56 164.5t158 62.5q103 0 155.5 -51t52.5 -134
q0 -28 -17.5 -71.5t-56.5 -61.5q97 -41 97 -163v-41q0 -202 -192 -202q-86 0 -123 41v-204h-130z" />
    <glyph glyph-name="gamma" unicode="&#x3b3;" horiz-adv-x="500" 
d="M317 8v-177h-130v173q-36 95 -169 454v40h122l68 -201q32 -97 41 -125h6l39 126l66 200h124v-40q-112 -300 -167 -450z" />
    <glyph glyph-name="delta" unicode="&#x3b4;" horiz-adv-x="528" 
d="M169 461q0 1 1 3q-75 35 -75 109q0 63 49 105t148 42q71 0 150 -13l-12 -107q-80 15 -139 15q-63 0 -63 -40q0 -17 19 -32.5t48 -27t62.5 -30.5t62.5 -41.5t48 -61.5t19 -89v-100q0 -100 -63.5 -149.5t-161.5 -49.5q-97 0 -158 49.5t-61 149.5v82q0 150 126 186zM358 204
v55q0 24 -1 37.5t-5.5 31.5t-14 29t-27.5 22.5t-44 20.5q-95 -17 -95 -123v-73q0 -97 92 -97q45 0 70 25t25 72z" />
    <glyph glyph-name="epsilon" unicode="&#x3b5;" horiz-adv-x="470" 
d="M43 144q0 32 20 65t55 46v3q-32 9 -50.5 36.5t-18.5 56.5q0 74 55.5 114.5t141.5 40.5q137 0 194 -91l-87 -75q-32 54 -96 54q-35 0 -56.5 -13.5t-21.5 -36.5q0 -41 78 -41h43v-95h-48q-77 0 -77 -52q0 -23 20.5 -37t57.5 -14q74 0 108 60l98 -71q-39 -54 -89.5 -77
t-120.5 -23q-90 0 -148 38.5t-58 111.5z" />
    <glyph glyph-name="zeta" unicode="&#x3b6;" horiz-adv-x="422" 
d="M162 221q0 -21 16 -37t34 -24t56 -22q69 -26 103.5 -49t41.5 -39.5t7 -42.5q0 -52 -93 -161l-93 54q46 68 46 89q0 9 -13 16t-47 20q-103 37 -145.5 73.5t-42.5 109.5q0 74 73.5 189.5t181.5 201.5h-221v116h390v-105q-144 -127 -219 -228t-75 -161z" />
    <glyph glyph-name="eta" unicode="&#x3b7;" horiz-adv-x="558" 
d="M372 0v296q0 43 -19 65t-68 22q-97 0 -97 -116v-267h-128v335l-3 163h97q4 -9 10 -27.5t8 -23.5q30 30 70.5 44t74.5 14q100 0 143.5 -49.5t43.5 -151.5v-304h-132z" />
    <glyph glyph-name="theta" unicode="&#x3b8;" horiz-adv-x="529" 
d="M263 -6q-95 0 -157.5 50t-62.5 151v315q0 103 61 155t159 52q97 0 160.5 -52.5t63.5 -154.5v-315q0 -101 -64 -151t-160 -50zM359 316h-187v-106q0 -102 92 -102q46 0 70.5 28t24.5 74v106zM172 420h187v77q0 48 -24 76.5t-72 28.5q-46 0 -68.5 -28.5t-22.5 -76.5v-77z
" />
    <glyph glyph-name="iota" unicode="&#x3b9;" horiz-adv-x="281" 
d="M76 0v498h129v-498h-129z" />
    <glyph glyph-name="kappa" unicode="&#x3ba;" horiz-adv-x="531" 
d="M179 349l4 -2l176 151h127v-40l-173 -149l197 -271v-38h-124l-165 228l-42 -37v-191h-128v498h128v-149z" />
    <glyph glyph-name="lambda" unicode="&#x3bb;" horiz-adv-x="493" 
d="M360 0l-49 149l-58 192h-6l-53 -165l-63 -176h-119v38l161 452h26l-16 55q-9 29 -23 44t-45 15q-37 0 -66 -2l-5 114q40 4 82 4q74 0 112 -31t57 -89l185 -561v-39h-120z" />
    <glyph glyph-name="nu" unicode="&#x3bd;" horiz-adv-x="500" 
d="M316 0h-133l-167 458v40h123q34 -97 75 -228q8 -26 34 -112h5l37 124l69 216h124v-40q-22 -60 -79 -216.5t-88 -241.5z" />
    <glyph glyph-name="xi" unicode="&#x3be;" horiz-adv-x="435" 
d="M30 229q0 55 27 101t68 71q-77 41 -77 134q0 80 56.5 133.5t155.5 53.5q150 0 211 -99l-99 -78q-15 31 -44 46.5t-62 15.5q-45 0 -69.5 -22.5t-24.5 -53.5q0 -79 108 -79h91v-104h-91q-64 0 -93.5 -30t-29.5 -75q0 -42 30.5 -66.5t109.5 -53.5q90 -33 115.5 -58t25.5 -66
q0 -56 -77 -156l-94 54q40 66 40 82q0 2 -0.5 3.5t-2.5 3l-4 3t-5.5 3t-6.5 3t-8 3.5t-9 3.5t-10.5 3.5t-11.5 4q-124 44 -171.5 89.5t-47.5 130.5z" />
    <glyph glyph-name="omicron" unicode="&#x3bf;" horiz-adv-x="528" 
d="M262 -7q-96 0 -157.5 48t-61.5 148v117q0 102 60 150.5t159 48.5t161.5 -48.5t62.5 -150.5v-117q0 -101 -63.5 -148.5t-160.5 -47.5zM358 202v92q0 97 -96 97q-91 0 -91 -97v-92q0 -95 92 -95q95 0 95 95z" />
    <glyph glyph-name="pi" unicode="&#x3c0;" horiz-adv-x="564" 
d="M504 0h-132v392h-183v-392h-129v498h444v-498z" />
    <glyph glyph-name="rho" unicode="&#x3c1;" horiz-adv-x="540" 
d="M181 293v-76q0 -108 98 -108q89 0 89 95v89q0 96 -95 96q-92 0 -92 -96zM53 -169v473q0 101 60.5 151t159.5 50q98 0 161 -49t63 -151v-92q0 -219 -198 -219q-72 0 -114 38q-1 0 -2 -1v-200h-130z" />
    <glyph glyph-name="sigma1" unicode="&#x3c2;" horiz-adv-x="478" 
d="M172 295v-64q0 -47 19.5 -66t82.5 -46q12 -5 18 -8q82 -37 105 -64t23 -61q0 -57 -92 -159l-90 60q33 46 39 65q6 16 -1 24t-43 22q-114 45 -151.5 91t-37.5 139v74q0 101 55.5 152t153.5 51q165 0 210 -138l-117 -50q-17 73 -89 73q-40 0 -62.5 -24t-22.5 -71z" />
    <glyph glyph-name="sigma" unicode="&#x3c3;" horiz-adv-x="547" 
d="M262 -6q-96 0 -158 48t-62 148v108q0 102 60.5 151t158.5 49h269v-105h-79v-3q35 -23 35 -92v-108q0 -101 -63.5 -148.5t-160.5 -47.5zM358 285q0 97 -96 97q-91 0 -91 -97v-83q0 -95 92 -95q47 0 71 25t24 70v83z" />
    <glyph glyph-name="tau" unicode="&#x3c4;" horiz-adv-x="433" 
d="M125 394h-108v104h386v-104h-149v-190q0 -52 18.5 -72.5t73.5 -20.5q31 0 73 4l5 -117q-47 -4 -84 -4q-113 0 -164 42t-51 149v209z" />
    <glyph glyph-name="upsilon" unicode="&#x3c5;" horiz-adv-x="529" 
d="M487 498v-307q0 -52 -18.5 -91t-50 -62t-70.5 -34t-85 -11q-96 0 -158 49t-62 149v307h129v-293q0 -97 92 -97q46 0 70.5 25.5t24.5 71.5v293h128z" />
    <glyph glyph-name="phi" unicode="&#x3c6;" horiz-adv-x="674" 
d="M403 394q0 -48 0.5 -145.5t0.5 -146.5q52 0 78.5 31t26.5 79v72q0 52 -27.5 81t-78.5 29zM274 -6q-102 3 -166.5 56.5t-64.5 153.5v92q0 78 37.5 128.5t104.5 68.5l42 -108q-55 -16 -55 -91v-82q0 -44 23.5 -75.5t78.5 -34.5q0 67 -0.5 201t-0.5 201h125
q105 0 169.5 -56.5t64.5 -161.5v-71q0 -102 -65.5 -160.5t-164.5 -60.5v-163h-128v163z" />
    <glyph glyph-name="chi" unicode="&#x3c7;" horiz-adv-x="498" 
d="M248 343h3l40 64l60 91h124v-41l-149 -203l158 -214v-40h-127l-70 103l-36 57h-5l-35 -56l-71 -104h-124v39l156 214l-149 205v40h125l56 -86z" />
    <glyph glyph-name="psi" unicode="&#x3c8;" horiz-adv-x="679" 
d="M403 -14v-155h-129v155q-106 6 -166.5 68t-60.5 161v283h128v-292q0 -38 25.5 -71t73.5 -34v397h129v-398q101 7 101 105v292h127v-283q0 -100 -60 -161t-168 -67z" />
    <glyph glyph-name="omega" unicode="&#x3c9;" horiz-adv-x="768" 
d="M721 307v-115q0 -92 -53 -144.5t-142 -52.5q-97 0 -140 70h-5q-49 -70 -139 -70q-93 0 -143.5 49.5t-50.5 140.5v124q0 76 39 128t119 64l26 -113q-57 -13 -57 -81v-108q0 -93 74 -93q72 0 72 84v146h126v-145q0 -85 72 -85q74 0 74 90v110q0 66 -57 81q16 66 26 112
q80 -12 119.5 -63.5t39.5 -128.5z" />
    <glyph glyph-name="iotadieresis" unicode="&#x3ca;" horiz-adv-x="281" 
d="M76 0v498h129v-498h-129zM-28 657q0 31 21 51t52 20t52 -20t21 -51q0 -29 -21 -50.5t-52 -21.5t-52 21.5t-21 50.5zM180 657q0 30 21.5 50.5t51.5 20.5t52.5 -20.5t22.5 -50.5q0 -29 -22.5 -50.5t-52.5 -21.5t-51.5 21.5t-21.5 50.5z" />
    <glyph glyph-name="upsilondieresis" unicode="&#x3cb;" horiz-adv-x="529" 
d="M487 498v-307q0 -52 -18.5 -91t-50 -62t-70.5 -34t-85 -11q-96 0 -158 49t-62 149v307h129v-293q0 -97 92 -97q46 0 70.5 25.5t24.5 71.5v293h128zM90 657q0 31 21 51t52 20t52 -20t21 -51q0 -29 -21 -50.5t-52 -21.5t-52 21.5t-21 50.5zM298 657q0 30 21.5 50.5
t51.5 20.5t52.5 -20.5t22.5 -50.5q0 -29 -22.5 -50.5t-52.5 -21.5t-51.5 21.5t-21.5 50.5z" />
    <glyph glyph-name="omicrontonos" unicode="&#x3cc;" horiz-adv-x="528" 
d="M262 -7q-96 0 -157.5 48t-61.5 148v117q0 102 60 150.5t159 48.5t161.5 -48.5t62.5 -150.5v-117q0 -101 -63.5 -148.5t-160.5 -47.5zM358 202v92q0 97 -96 97q-91 0 -91 -97v-92q0 -95 92 -95q95 0 95 95zM402 740l-122 -180q-25 10 -75 32l83 193z" />
    <glyph glyph-name="upsilontonos" unicode="&#x3cd;" horiz-adv-x="529" 
d="M400 740l-122 -180q-25 10 -75 32l83 193zM487 498v-307q0 -52 -18.5 -91t-50 -62t-70.5 -34t-85 -11q-96 0 -158 49t-62 149v307h129v-293q0 -97 92 -97q46 0 70.5 25.5t24.5 71.5v293h128z" />
    <glyph glyph-name="omegatonos" unicode="&#x3ce;" horiz-adv-x="768" 
d="M721 307v-115q0 -92 -53 -144.5t-142 -52.5q-97 0 -140 70h-5q-49 -70 -139 -70q-93 0 -143.5 49.5t-50.5 140.5v124q0 76 39 128t119 64l26 -113q-57 -13 -57 -81v-108q0 -93 74 -93q72 0 72 84v146h126v-145q0 -85 72 -85q74 0 74 90v110q0 66 -57 81q16 66 26 112
q80 -12 119.5 -63.5t39.5 -128.5zM524 740l-122 -180q-25 10 -75 32l83 193z" />
    <glyph glyph-name="uni0400" unicode="&#x400;" horiz-adv-x="559" 
d="M516 0h-451v679h439v-121h-307v-139h266v-121h-266v-179h319v-119zM376 797l-50 -62l-189 106l71 93z" />
    <glyph glyph-name="afii10023" unicode="&#x401;" horiz-adv-x="559" 
d="M516 0h-451v679h439v-121h-307v-139h266v-121h-266v-179h319v-119zM102 824q0 31 21 51t52 20t52 -20t21 -51q0 -30 -21 -51t-52 -21t-52 21t-21 51zM310 824q0 30 21.5 50.5t51.5 20.5t52.5 -20.5t22.5 -50.5t-22.5 -51t-52.5 -21t-51.5 21.5t-21.5 50.5z" />
    <glyph glyph-name="afii10051" unicode="&#x402;" horiz-adv-x="725" 
d="M321 410l3 -3q55 51 140 51q213 0 213 -216v-115q0 -100 -53 -156t-156 -56q-15 0 -33 3l6 112q64 0 84.5 28.5t20.5 93.5v89q0 104 -107 104q-58 0 -88 -39.5t-30 -96.5v-209h-131v558h-185v121h511v-121h-195v-148z" />
    <glyph glyph-name="afii10052" unicode="&#x403;" horiz-adv-x="506" 
d="M230 735l-50 62l168 137l71 -93zM483 558h-285v-558h-131v679h416v-121z" />
    <glyph glyph-name="afii10053" unicode="&#x404;" horiz-adv-x="553" 
d="M288 685q82 0 137 -30t86 -109q-95 -45 -115 -55q-23 75 -103 75q-104 0 -104 -117v-32h186v-119h-186v-70q0 -115 104 -115q83 0 110 87l120 -57q-61 -149 -233 -149q-106 0 -170 52.5t-64 163.5v245q0 114 62 172t170 58z" />
    <glyph glyph-name="afii10054" unicode="&#x405;" horiz-adv-x="568" 
d="M520 538l-116 -52q-30 80 -117 80q-43 0 -70.5 -19.5t-27.5 -54.5q0 -25 19 -41.5t50 -26.5t68 -19t74 -23.5t68 -35t50 -58.5t19 -90q0 -97 -71.5 -150.5t-167.5 -53.5q-33 0 -58.5 2.5t-61 12.5t-62 28.5t-51.5 53.5t-38 84l125 50q18 -63 53.5 -87.5t90.5 -24.5
q51 0 80.5 22t29.5 59q0 41 -36 64.5t-87.5 35.5t-103 28.5t-87.5 57t-36 106.5q0 91 62.5 145t163.5 54q38 0 68.5 -5.5t63.5 -20t60 -45t46 -76.5z" />
    <glyph glyph-name="afii10055" unicode="&#x406;" horiz-adv-x="286" 
d="M208 0h-131v679h131v-679z" />
    <glyph glyph-name="afii10056" unicode="&#x407;" horiz-adv-x="286" 
d="M208 0h-131v679h131v-679zM-35 807q0 30 21 50.5t51 20.5q31 0 52 -20t21 -51q0 -29 -21 -50t-52 -21q-30 0 -51 21t-21 50zM173 807q0 30 21.5 50.5t51.5 20.5t52 -20.5t22 -50.5q0 -29 -22 -50t-52 -21t-51.5 21t-21.5 50z" />
    <glyph glyph-name="afii10057" unicode="&#x408;" horiz-adv-x="554" 
d="M475 211q0 -109 -62.5 -163t-172.5 -54q-162 0 -223 145l112 59q21 -49 47 -67t67 -18q102 0 102 108v458h130v-468z" />
    <glyph glyph-name="afii10058" unicode="&#x409;" horiz-adv-x="931" 
d="M416 0v558h-153l-25 -363q-8 -108 -52 -157t-143 -49q-10 0 -36 2l6 117q29 1 42 3.5t28.5 13t22 34t9.5 62.5l29 458h403v-268h124q99 0 167.5 -51.5t68.5 -149.5q0 -105 -61.5 -157.5t-165.5 -52.5h-264zM671 294h-124v-175h127q99 0 99 91q0 40 -27.5 62t-74.5 22z
" />
    <glyph glyph-name="afii10059" unicode="&#x40a;" horiz-adv-x="918" 
d="M398 411v268h131v-267h127q97 0 166.5 -51t69.5 -151q0 -105 -61.5 -157.5t-165.5 -52.5h-267v293h-201v-293h-132v679h132v-268h201zM656 294h-127v-175h129q100 0 100 91q0 41 -27.5 62.5t-74.5 21.5z" />
    <glyph glyph-name="afii10060" unicode="&#x40b;" horiz-adv-x="725" 
d="M678 0h-132v241q0 104 -107 104q-58 0 -88 -39.5t-30 -96.5v-209h-131v558h-185v121h511v-121h-195v-148l3 -3q55 51 140 51q214 0 214 -216v-242z" />
    <glyph glyph-name="afii10061" unicode="&#x40c;" horiz-adv-x="601" 
d="M264 721l-50 62l168 137l71 -93zM591 39v-39h-134l-255 280h-4v-280h-131v679h131v-242h4l249 242h132v-42l-243 -225l-72 -52l70 -51z" />
    <glyph glyph-name="uni040D" unicode="&#x40d;" horiz-adv-x="611" 
d="M397 797l-50 -62l-189 106l71 93zM198 0h-139v679h130v-439q1 0 2 -0.5t2 -0.5l33 79l168 361h159v-679h-131v455l-2 1h-2l-63 -138z" />
    <glyph glyph-name="afii10062" unicode="&#x40e;" horiz-adv-x="573" 
d="M299 732q-74 0 -113.5 46t-42.5 107l75 15q2 -33 25.5 -58.5t57.5 -25.5q33 0 55.5 25t25.5 59l75 -15q-3 -61 -43 -107t-115 -46zM294 345h6l35 99l89 235h126v-40l-177 -443q-44 -111 -95.5 -157.5t-141.5 -46.5q-34 0 -61 4l5 109q26 -2 39 -2q54 0 81.5 21t51.5 88
h-21l-201 426v41h125q12 -27 42 -101t57 -133q7 -16 20 -50.5t20 -49.5z" />
    <glyph glyph-name="afii10145" unicode="&#x40f;" horiz-adv-x="629" 
d="M432 679h131v-679h-191v-153h-116v153h-190v679h131v-560h235v560z" />
    <glyph glyph-name="afii10017" unicode="&#x410;" horiz-adv-x="591" 
d="M438 0q-9 27 -24.5 80.5t-24.5 80.5h-191l-49 -161h-122v38l198 641h139q67 -213 199 -641v-38h-125zM353 279q-5 17 -15.5 57.5t-18.5 68.5l-23 100h-6l-26 -112l-31 -114h120z" />
    <glyph glyph-name="afii10018" unicode="&#x411;" horiz-adv-x="599" 
d="M64 0v679h416v-121h-285v-146h129q42 0 81.5 -10.5t75.5 -33t57.5 -63.5t21.5 -95q0 -105 -61.5 -157.5t-165.5 -52.5h-269zM324 297h-129v-177h131q100 0 100 90q0 41 -27.5 64t-74.5 23z" />
    <glyph glyph-name="afii10019" unicode="&#x412;" horiz-adv-x="626" 
d="M469 361v-2q53 -18 77.5 -63.5t24.5 -93.5q0 -84 -57 -143t-169 -59h-280v679h260q41 0 78 -8.5t72 -27.5t55.5 -57t20.5 -90q0 -36 -20 -74.5t-62 -60.5zM323 300h-126v-181h124q115 0 115 90q0 91 -113 91zM322 557h-125v-142h133q34 0 60.5 16t26.5 55q0 71 -95 71z
" />
    <glyph glyph-name="afii10020" unicode="&#x413;" horiz-adv-x="506" 
d="M483 558h-285v-558h-131v679h416v-121z" />
    <glyph glyph-name="afii10021" unicode="&#x414;" horiz-adv-x="685" 
d="M674 119v-258h-115v139h-434v-139h-114v258h70q29 52 44 114.5t24 172.5l23 273h413v-560h89zM214 119h240v440h-172l-13 -155q-14 -158 -26 -208q-11 -41 -29 -77z" />
    <glyph glyph-name="afii10022" unicode="&#x415;" horiz-adv-x="559" 
d="M516 0h-451v679h439v-121h-307v-139h266v-121h-266v-179h319v-119z" />
    <glyph glyph-name="afii10024" unicode="&#x416;" horiz-adv-x="911" 
d="M525 283h-4v-283h-131v283h-4l-242 -283h-134v38l239 272l68 50l-69 50l-230 226v43h131l237 -244h4v244h131v-244h4l237 244h131v-43l-230 -226l-70 -50l68 -50l240 -272v-38h-134z" />
    <glyph glyph-name="afii10025" unicode="&#x417;" horiz-adv-x="565" 
d="M411 358v-4q53 -18 79.5 -59.5t26.5 -93.5q0 -101 -69.5 -154t-172.5 -53q-190 0 -254 146l114 58q36 -88 130 -88q56 0 88 25.5t32 70.5t-33 70t-84 25h-78v110h61q25 0 42.5 2.5t36.5 9.5t29.5 23t10.5 41q0 41 -30 60.5t-68 19.5q-84 0 -133 -79q-19 13 -54.5 38
t-43.5 30q77 129 236 129q97 0 161 -46t64 -139q0 -44 -24 -83t-67 -59z" />
    <glyph glyph-name="afii10026" unicode="&#x418;" horiz-adv-x="611" 
d="M198 0h-139v679h130v-439q1 0 2 -0.5t2 -0.5l33 79l168 361h159v-679h-131v455l-2 1h-2l-63 -138z" />
    <glyph glyph-name="afii10027" unicode="&#x419;" horiz-adv-x="611" 
d="M303 742q-74 0 -113.5 46t-42.5 107l75 15q2 -33 25.5 -58.5t57.5 -25.5q33 0 55.5 25t25.5 59l75 -15q-3 -61 -43 -107t-115 -46zM198 0h-139v679h130v-439q1 0 2 -0.5t2 -0.5l33 79l168 361h159v-679h-131v455l-2 1h-2l-63 -138z" />
    <glyph glyph-name="afii10028" unicode="&#x41a;" horiz-adv-x="601" 
d="M591 39v-39h-134l-255 280h-4v-280h-131v679h131v-242h4l249 242h132v-42l-243 -225l-72 -52l70 -51z" />
    <glyph glyph-name="afii10029" unicode="&#x41b;" horiz-adv-x="615" 
d="M146 679h404v-679h-131v558h-154q-9 -121 -25 -363q-8 -108 -52 -157t-142 -49q-10 0 -36 2l6 116q28 1 41.5 3.5t28.5 13t21.5 33.5t9.5 63q5 77 15 230t14 229z" />
    <glyph glyph-name="afii10030" unicode="&#x41c;" horiz-adv-x="722" 
d="M657 0h-132v398l1 52h-4l-67 -159l-33 -67h-122l-34 70l-67 155h-4l1 -61v-388h-131v679h165l103 -227l25 -60h5l25 62l102 225h167v-679z" />
    <glyph glyph-name="afii10031" unicode="&#x41d;" horiz-adv-x="627" 
d="M562 0h-131v297h-234v-297h-132v679h132v-261h234v261h131v-679z" />
    <glyph glyph-name="afii10032" unicode="&#x41e;" horiz-adv-x="597" 
d="M296 -6q-106 0 -173 56.5t-67 166.5v242q0 114 65 169.5t175 55.5q112 0 178.5 -56t66.5 -169v-242q0 -112 -69 -167.5t-176 -55.5zM410 232v219q0 115 -112 115q-109 0 -109 -115v-219q0 -119 109 -119q55 0 83.5 31t28.5 88z" />
    <glyph glyph-name="afii10033" unicode="&#x41f;" horiz-adv-x="627" 
d="M562 0h-131v557h-234v-557h-132v679h497v-679z" />
    <glyph glyph-name="afii10034" unicode="&#x420;" horiz-adv-x="569" 
d="M64 0v679h244q106 0 169.5 -58t63.5 -165q0 -108 -74 -166.5t-170 -58.5h-102v-231h-131zM195 351h107q49 0 77.5 30t28.5 76q0 48 -29 74.5t-75 26.5h-109v-207z" />
    <glyph glyph-name="afii10035" unicode="&#x421;" horiz-adv-x="551" 
d="M288 685q82 0 137 -30t86 -109q-95 -45 -115 -55q-23 75 -103 75q-104 0 -104 -117v-221q0 -115 104 -115q83 0 110 87l120 -57q-62 -149 -233 -149q-106 0 -170 52.5t-64 163.5v245q0 114 62 172t170 58z" />
    <glyph glyph-name="afii10036" unicode="&#x422;" horiz-adv-x="527" 
d="M329 558v-558h-131v558h-186v121h502v-121h-185z" />
    <glyph glyph-name="afii10037" unicode="&#x423;" horiz-adv-x="573" 
d="M294 345h6l35 99l89 235h126v-40l-177 -443q-44 -111 -95.5 -157.5t-141.5 -46.5q-34 0 -61 4l5 109q26 -2 39 -2q54 0 81.5 21t51.5 88h-21l-201 426v41h125q12 -27 42 -101t57 -133q7 -16 20 -50.5t20 -49.5z" />
    <glyph glyph-name="afii10038" unicode="&#x424;" horiz-adv-x="717" 
d="M424 76v-76h-133v76q-105 5 -171.5 66.5t-66.5 165.5v81q0 108 66 170.5t172 67.5v51h133v-51q107 -5 173 -67.5t66 -170.5v-81q0 -103 -68 -165t-171 -67zM180 395v-91q1 -51 28.5 -83t82.5 -36v337q-53 -4 -82 -38.5t-29 -88.5zM538 307v88q0 117 -114 127v-337
q57 4 85.5 35.5t28.5 86.5z" />
    <glyph glyph-name="afii10039" unicode="&#x425;" horiz-adv-x="595" 
d="M296 467h4q25 44 56 95l73 117h127v-41q-16 -25 -82 -127.5t-102 -158.5q67 -104 199 -314v-38h-129q-27 44 -83 132l-61 108h-2q-8 -13 -29.5 -52t-34.5 -59l-81 -129h-127v38l200 313l-180 287v41h126l72 -117z" />
    <glyph glyph-name="afii10040" unicode="&#x426;" horiz-adv-x="670" 
d="M662 -138h-115v138h-481v678h131v-558h235v558h131v-560h99v-256z" />
    <glyph glyph-name="afii10041" unicode="&#x427;" horiz-adv-x="608" 
d="M42 679h132v-169q0 -64 31.5 -92.5t107.5 -28.5q50 0 98 8v282h131v-679h-131v280q-57 -5 -112 -5q-257 0 -257 228v176z" />
    <glyph glyph-name="afii10042" unicode="&#x428;" horiz-adv-x="862" 
d="M666 678h131v-678h-733v678h132v-558h166v558h131v-558h173v558z" />
    <glyph glyph-name="afii10043" unicode="&#x429;" horiz-adv-x="904" 
d="M897 -138h-116v138h-716v678h131v-558h166v558h132v-558h172v558h131v-559h100v-257z" />
    <glyph glyph-name="afii10044" unicode="&#x42a;" horiz-adv-x="722" 
d="M8 558v121h323v-267h129q99 0 167.5 -52t68.5 -150q0 -105 -61.5 -157.5t-165.5 -52.5h-269v558h-192zM460 296h-129v-177h131q100 0 100 91q0 40 -27.5 63t-74.5 23z" />
    <glyph glyph-name="afii10045" unicode="&#x42b;" horiz-adv-x="831" 
d="M766 0h-131v679h131v-679zM64 0v679h131v-267h129q100 0 168 -52t68 -150q0 -105 -61.5 -157.5t-165.5 -52.5h-269zM324 296h-129v-177h131q100 0 100 91q0 40 -27.5 63t-74.5 23z" />
    <glyph glyph-name="afii10046" unicode="&#x42c;" horiz-adv-x="587" 
d="M64 0v679h131v-267h129q99 0 167.5 -51.5t68.5 -150.5q0 -105 -61.5 -157.5t-165.5 -52.5h-269zM324 296h-129v-177h131q100 0 100 91q0 40 -27.5 63t-74.5 23z" />
    <glyph glyph-name="afii10047" unicode="&#x42d;" horiz-adv-x="546" 
d="M268 685q102 0 162 -58.5t60 -171.5v-241q0 -111 -64 -165.5t-166 -54.5q-184 0 -240 151l118 57q14 -47 40.5 -68t72.5 -21q106 0 106 115v70h-187v119h187v41q0 50 -26 79t-78 29q-79 0 -105 -75l-108 62q31 74 88.5 103t139.5 29z" />
    <glyph glyph-name="afii10048" unicode="&#x42e;" horiz-adv-x="860" 
d="M569 -6q-105 0 -167.5 55t-62.5 166v82h-142v-297h-132v679h132v-261h142v36q0 115 61 172.5t169 57.5q110 0 172.5 -57.5t62.5 -172.5v-239q0 -112 -64.5 -166.5t-170.5 -54.5zM673 233v211q0 60 -23.5 91t-78.5 31q-99 0 -99 -122v-211q0 -59 22.5 -89.5t76.5 -30.5
q102 0 102 120z" />
    <glyph glyph-name="afii10049" unicode="&#x42f;" horiz-adv-x="591" 
d="M527 679v-679h-131v260h-95l-126 -260h-129v38l125 246q-124 50 -124 180q0 109 62.5 162t175.5 53h242zM279 380h117l-1 178h-112q-48 0 -76 -23t-28 -69q0 -41 27 -63.5t73 -22.5z" />
    <glyph glyph-name="afii10065" unicode="&#x430;" horiz-adv-x="539" 
d="M368 45l-4 1q-55 -53 -145 -53q-182 0 -182 157q0 68 46 112t129 44h140v8q0 43 -23 62.5t-78 19.5q-50 0 -135 -9l-7 109q76 9 155 9q216 0 216 -192v-159l3 -154h-99q-12 20 -16 45zM234 207q-72 0 -72 -53q0 -47 75 -47q50 0 80.5 27t33.5 73h-117z" />
    <glyph glyph-name="afii10066" unicode="&#x431;" horiz-adv-x="528" 
d="M358 201v59q0 98 -96 98q-91 0 -91 -98v-58q0 -95 92 -95q45 0 70 24t25 70zM196 450l3 -3q41 26 94 26q90 0 142 -49.5t52 -145.5v-91q0 -91 -62.5 -142t-160.5 -51q-101 0 -161 50.5t-60 142.5v109q0 107 18 172.5t63 114.5q33 36 80.5 61.5t118.5 52t93 36.5l49 -112
q-26 -12 -80 -31.5t-83.5 -32.5t-61.5 -41t-44 -66z" />
    <glyph glyph-name="afii10067" unicode="&#x432;" horiz-adv-x="532" 
d="M493 150q0 -66 -44 -108t-124 -42h-269v499h259q77 0 119 -37.5t42 -97.5q0 -32 -19 -60.5t-47 -39.5q35 -16 59 -45.5t24 -68.5zM358 164q0 21 -15 34.5t-42 13.5h-116v-96h115q28 0 43 13t15 35zM344 344q0 19 -13 29.5t-36 10.5h-110v-76h111q22 0 35 10t13 26z" />
    <glyph glyph-name="afii10068" unicode="&#x433;" horiz-adv-x="430" 
d="M417 381h-234v-381h-131v498h365v-117z" />
    <glyph glyph-name="afii10069" unicode="&#x434;" horiz-adv-x="593" 
d="M583 116v-255h-117v139h-338v-139h-118v255h69q37 82 48 220l15 162h372v-382h69zM251 382l-8 -85q-9 -117 -37 -181h179v266h-134z" />
    <glyph glyph-name="afii10070" unicode="&#x435;" horiz-adv-x="510" 
d="M425 114l9 -107q-75 -14 -158 -14q-115 0 -174 46.5t-59 151.5v114q0 104 57.5 151.5t157.5 47.5t155.5 -46t55.5 -129q0 -135 -154 -135h-144q0 -50 20.5 -71t93.5 -21q57 0 140 12zM260 392q-51 0 -70 -24t-19 -67v-11h129q43 0 43 38q0 29 -20.5 46.5t-62.5 17.5z" />
    <glyph glyph-name="afii10072" unicode="&#x436;" horiz-adv-x="758" 
d="M443 184v-184h-128v184h-6l-159 -184h-140v41l178 181l63 38l-63 37l-171 159v42h139l154 -163h5v163h128v-163h6l154 163h139v-42l-171 -159l-64 -37l64 -38l177 -181v-41h-139l-160 184h-6z" />
    <glyph glyph-name="afii10073" unicode="&#x437;" horiz-adv-x="469" 
d="M432 145q0 -73 -57.5 -112t-146.5 -39q-72 0 -122.5 22t-86.5 79l100 66q14 -25 42.5 -40t60.5 -15q42 0 61.5 15t19.5 37q0 21 -17 36t-56 15h-46v92h41q36 0 54.5 12.5t18.5 31.5q0 47 -74 47q-28 0 -56.5 -14.5t-41.5 -40.5l-94 72q61 96 199 96q85 0 140.5 -38
t55.5 -110q0 -30 -19 -58.5t-50 -41.5v-3q74 -29 74 -109z" />
    <glyph glyph-name="afii10074" unicode="&#x438;" horiz-adv-x="537" 
d="M353 287h-3l-21 -43q-20 -36 -66 -120.5t-68 -123.5h-140v499h127v-291h3q8 19 22 47l127 244h148v-499h-129v287z" />
    <glyph glyph-name="afii10075" unicode="&#x439;" horiz-adv-x="537" 
d="M269 554q-75 0 -116 47.5t-43 110.5l75 14q2 -33 26 -60t59 -27q34 0 57 26.5t26 60.5l76 -14q-3 -63 -43.5 -110.5t-116.5 -47.5zM353 287h-3l-21 -43q-20 -36 -66 -120.5t-68 -123.5h-140v499h127v-291h3q8 19 22 47l127 244h148v-499h-129v287z" />
    <glyph glyph-name="afii10076" unicode="&#x43a;" horiz-adv-x="504" 
d="M54 0v498h129v-159h6l160 159h139v-42l-181 -159l-64 -37l66 -39l185 -180v-41h-139l-166 180h-6v-180h-129z" />
    <glyph glyph-name="afii10077" unicode="&#x43b;" horiz-adv-x="520" 
d="M117 498h350v-498h-132v381h-105q-5 -70 -17 -212q-8 -91 -47.5 -133t-125.5 -42q-8 0 -34 2q4 70 5 105q42 3 60.5 18.5t22.5 67.5z" />
    <glyph glyph-name="afii10078" unicode="&#x43c;" horiz-adv-x="638" 
d="M314 287h4l38 78l69 132h155v-497h-131v305h-1l-19 -44l-52 -105h-118l-50 100l-22 47h-1v-303h-129v497h150l71 -135z" />
    <glyph glyph-name="afii10079" unicode="&#x43d;" horiz-adv-x="533" 
d="M481 0h-130v208h-169v-208h-130v498h130v-182h169v182h130v-498z" />
    <glyph glyph-name="afii10080" unicode="&#x43e;" horiz-adv-x="528" 
d="M262 -7q-96 0 -157.5 48t-61.5 148v117q0 102 60 150.5t159 48.5t161.5 -48.5t62.5 -150.5v-117q0 -101 -63.5 -148.5t-160.5 -47.5zM358 202v92q0 97 -96 97q-91 0 -91 -97v-92q0 -95 92 -95q95 0 95 95z" />
    <glyph glyph-name="afii10081" unicode="&#x43f;" horiz-adv-x="564" 
d="M504 0h-132v392h-183v-392h-129v498h444v-498z" />
    <glyph glyph-name="afii10082" unicode="&#x440;" horiz-adv-x="543" 
d="M186 -169h-131v490l-3 177h99q4 -5 10.5 -22t6.5 -26q47 54 139 54t142 -47t50 -142v-117q0 -204 -189 -204q-77 0 -124 42v-205zM371 206v91q0 91 -90 91q-97 0 -97 -107v-70q0 -101 93 -101q94 0 94 96z" />
    <glyph glyph-name="afii10083" unicode="&#x441;" horiz-adv-x="494" 
d="M468 136q-48 -142 -209 -142q-215 0 -215 198v115q0 103 59 150.5t158 47.5q155 0 199 -137q-78 -34 -117 -50q-14 72 -87 72q-84 0 -84 -95v-95q0 -92 88 -92q70 0 89 74q104 -40 119 -46z" />
    <glyph glyph-name="afii10084" unicode="&#x442;" horiz-adv-x="475" 
d="M302 381v-381h-129v381h-153v117h436v-117h-154z" />
    <glyph glyph-name="afii10085" unicode="&#x443;" horiz-adv-x="522" 
d="M141 -172q-43 0 -83 4l7 108q29 -1 64 -1q30 0 52.5 17t30.5 48h-32l-162 455v39h123l58 -168l61 -194h6l57 190l58 172h124v-40l-173 -499q-45 -131 -191 -131z" />
    <glyph glyph-name="afii10086" unicode="&#x444;" horiz-adv-x="671" 
d="M271 -11q-100 4 -164 61.5t-64 157.5v88q0 99 66 159t162 60v182h128v-182q97 0 163.5 -61.5t66.5 -163.5v-76q0 -102 -65.5 -161t-164.5 -64v-158h-128v158zM505 216v73q0 108 -104 115v-305q53 2 78.5 35t25.5 82zM270 99v305q-55 -3 -79 -36t-24 -79v-73
q0 -111 103 -117z" />
    <glyph glyph-name="afii10087" unicode="&#x445;" horiz-adv-x="498" 
d="M248 343h3l40 64l60 91h124v-41l-149 -203l158 -214v-40h-127l-70 103l-36 57h-5l-35 -56l-71 -104h-124v39l156 214l-149 205v40h125l56 -86z" />
    <glyph glyph-name="afii10088" unicode="&#x446;" horiz-adv-x="582" 
d="M572 -138h-115v138h-404v498h131v-382h169v382h130v-382h89v-254z" />
    <glyph glyph-name="afii10089" unicode="&#x447;" horiz-adv-x="525" 
d="M32 498h129v-105q0 -54 23 -76.5t85 -22.5q31 0 74 5v199h130v-498h-130v189q-56 -4 -86 -4q-225 0 -225 199v114z" />
    <glyph glyph-name="afii10090" unicode="&#x448;" horiz-adv-x="743" 
d="M557 498h130v-498h-633v498h131v-381h120v381h130v-381h122v381z" />
    <glyph glyph-name="afii10091" unicode="&#x449;" horiz-adv-x="786" 
d="M435 498v-381h122v381h130v-381h89v-255h-115v138h-607v498h131v-381h120v381h130z" />
    <glyph glyph-name="afii10092" unicode="&#x44a;" horiz-adv-x="623" 
d="M292 498v-178h113q82 0 137.5 -38t55.5 -121q0 -79 -52 -120t-136 -41h-248v389h-157v109h287zM411 208h-119v-93h121q57 0 57 49q0 21 -16 32.5t-43 11.5z" />
    <glyph glyph-name="afii10093" unicode="&#x44b;" horiz-adv-x="729" 
d="M305 208h-119v-93h121q57 0 57 49q0 21 -16 32.5t-43 11.5zM186 498v-178h113q82 0 137.5 -38t55.5 -121q0 -79 -52 -120t-136 -41h-248v498h130zM673 0h-129v498h129v-498z" />
    <glyph glyph-name="afii10094" unicode="&#x44c;" horiz-adv-x="519" 
d="M304 208h-118v-93h120q58 0 58 49q0 44 -60 44zM186 498v-178h113q82 0 137 -38t55 -121q0 -79 -51.5 -120t-135.5 -41h-249v498h131z" />
    <glyph glyph-name="afii10095" unicode="&#x44d;" horiz-adv-x="485" 
d="M27 121l111 54q21 -67 89 -67q86 0 86 91v8h-127v94h127v9q-1 80 -81 80q-68 0 -86 -59l-104 60q50 114 192 114q207 0 207 -201v-112q0 -101 -57 -149.5t-153 -48.5q-153 0 -204 127z" />
    <glyph glyph-name="afii10096" unicode="&#x44e;" horiz-adv-x="757" 
d="M500 -5q-94 0 -153 48t-59 139v26h-103v-208h-131v498h131v-182h103q-1 90 57 139.5t155 49.5q96 0 155 -49.5t59 -141.5v-131q0 -93 -59.5 -140.5t-154.5 -47.5zM587 194v95q0 107 -86 107q-48 0 -66 -28.5t-18 -78.5v-79q0 -51 18.5 -79t65.5 -28q86 0 86 91z" />
    <glyph glyph-name="afii10097" unicode="&#x44f;" horiz-adv-x="512" 
d="M41 340q0 82 52 120.5t140 38.5h227v-499h-131v189h-56q-105 -181 -110 -189h-123v41l99 167q-52 15 -75 51.5t-23 80.5zM328 384h-98q-61 0 -61 -46q0 -45 59 -45h100v91z" />
    <glyph glyph-name="afii10071" unicode="&#x451;" horiz-adv-x="510" 
d="M425 114l9 -107q-75 -14 -158 -14q-115 0 -174 46.5t-59 151.5v114q0 104 57.5 151.5t157.5 47.5t155.5 -46t55.5 -129q0 -135 -154 -135h-144q0 -50 20.5 -71t93.5 -21q57 0 140 12zM260 392q-51 0 -70 -24t-19 -67v-11h129q43 0 43 38q0 29 -20.5 46.5t-62.5 17.5z
M72 664q0 31 21 51t52 20t52 -20t21 -51q0 -30 -21 -51t-52 -21t-52 21t-21 51zM280 664q0 30 21.5 50.5t51.5 20.5t52.5 -20.5t22.5 -50.5q0 -29 -22.5 -50.5t-52.5 -21.5t-51.5 21.5t-21.5 50.5z" />
    <glyph glyph-name="afii10099" unicode="&#x452;" horiz-adv-x="545" 
d="M2 642h49v73h129v-73h109v-70h-109v-113h2q55 46 130 46q101 0 142.5 -51t41.5 -154v-190q0 -191 -181 -191q-6 0 -36 2l6 104q50 0 65 22t15 81v168q0 87 -88 87q-97 0 -97 -113v-270h-129v572h-49v70z" />
    <glyph glyph-name="afii10100" unicode="&#x453;" horiz-adv-x="430" 
d="M348 753l-122 -180q-25 10 -75 32l83 193zM417 381h-234v-381h-131v498h365v-117z" />
    <glyph glyph-name="afii10101" unicode="&#x454;" horiz-adv-x="494" 
d="M461 121q-51 -127 -202 -127q-98 0 -156.5 47.5t-58.5 150.5v115q0 103 58.5 150.5t154.5 47.5q143 0 192 -118l-110 -56q-18 59 -83 59q-82 0 -84 -89h127v-94h-127v-8q0 -47 21.5 -69t66.5 -22q66 0 87 67z" />
    <glyph glyph-name="afii10102" unicode="&#x455;" horiz-adv-x="463" 
d="M222 505q163 0 203 -121l-107 -42q-19 56 -87 56q-28 0 -45.5 -11.5t-17.5 -32.5t27.5 -33t67 -20t79.5 -20.5t67.5 -45.5t27.5 -85q0 -74 -59.5 -115t-139.5 -41q-28 0 -50.5 2t-50 10.5t-48 23t-39 41.5t-28.5 64l111 38q21 -72 99 -72q35 0 58 13t23 36q0 19 -20 31.5
t-50.5 18.5t-65.5 16.5t-65.5 23.5t-50.5 42t-20 70q0 70 51.5 111.5t129.5 41.5z" />
    <glyph glyph-name="afii10103" unicode="&#x456;" horiz-adv-x="285" 
d="M76 0v498h129v-498h-129zM64 644q0 32 24 54.5t55 22.5t54.5 -22.5t23.5 -54.5q0 -33 -23.5 -55.5t-54.5 -22.5q-32 0 -55.5 22.5t-23.5 55.5z" />
    <glyph glyph-name="afii10104" unicode="&#x457;" horiz-adv-x="280" 
d="M-37 657q0 31 21 51t52 20t52 -20t21 -51q0 -29 -21.5 -50.5t-51.5 -21.5t-51.5 21.5t-21.5 50.5zM171 657q0 30 21.5 50.5t51.5 20.5t52.5 -20.5t22.5 -50.5q0 -29 -22.5 -50.5t-52.5 -21.5t-51.5 21.5t-21.5 50.5zM76 0v498h129v-498h-129z" />
    <glyph glyph-name="afii10105" unicode="&#x458;" horiz-adv-x="302" 
d="M239 644q0 -33 -23.5 -55.5t-54.5 -22.5q-32 0 -55.5 22.5t-23.5 55.5q0 32 24 54.5t55 22.5t54.5 -22.5t23.5 -54.5zM224 33q0 -110 -57.5 -157.5t-166.5 -47.5q-33 0 -69 3q3 39 7 115q16 -1 49 -1q59 0 83.5 19t24.5 76v458h129v-465z" />
    <glyph glyph-name="afii10106" unicode="&#x459;" horiz-adv-x="787" 
d="M334 0v381h-103q-5 -71 -17 -213q-8 -91 -47.5 -133t-125.5 -42q-8 0 -34 2q4 70 5 105q41 3 59.5 18.5t22.5 67.5l24 312h346v-178h103q82 0 137.5 -38t55.5 -121q0 -79 -52 -120t-136 -41h-238zM573 208h-109v-93h111q57 0 57 49q0 21 -16 32.5t-43 11.5z" />
    <glyph glyph-name="afii10107" unicode="&#x45a;" horiz-adv-x="781" 
d="M458 498v-178h103q82 0 137 -38t55 -121q0 -79 -51.5 -120t-135.5 -41h-239v212h-143v-212h-131v498h131v-177h143v177h131zM566 211h-108v-96h110q58 0 58 50q0 22 -16 34t-44 12z" />
    <glyph glyph-name="afii10108" unicode="&#x45b;" horiz-adv-x="545" 
d="M365 0v296q0 87 -88 87q-97 0 -97 -113v-270h-129v572h-49v70h49v73h129v-73h129v-70h-129v-113h2q55 46 126 46q105 0 146.5 -51t41.5 -154v-300h-131z" />
    <glyph glyph-name="afii10109" unicode="&#x45c;" horiz-adv-x="504" 
d="M389 740l-122 -180q-25 10 -75 32l83 193zM54 0v498h129v-159h6l160 159h139v-42l-181 -159l-64 -37l66 -39l185 -180v-41h-139l-166 180h-6v-180h-129z" />
    <glyph glyph-name="uni045D" unicode="&#x45d;" horiz-adv-x="532" 
d="M333 582l-76 -32l-121 180l114 45zM351 287h-3l-21 -43q-20 -36 -66 -120.5t-68 -123.5h-140v499h127v-291h3q8 19 22 47l127 244h148v-499h-129v287z" />
    <glyph glyph-name="afii10110" unicode="&#x45e;" horiz-adv-x="522" 
d="M141 -172q-43 0 -83 4l7 108q29 -1 64 -1q30 0 52.5 17t30.5 48h-32l-162 455v39h123l58 -168l61 -194h6l57 190l58 172h124v-40l-173 -499q-45 -131 -191 -131zM265 570q-74 0 -114 46.5t-42 107.5l75 14q2 -33 25 -58.5t57 -25.5t56.5 25t25.5 59l75 -14
q-3 -62 -42.5 -108t-115.5 -46z" />
    <glyph glyph-name="afii10193" unicode="&#x45f;" horiz-adv-x="536" 
d="M324 -142h-114v142h-157v498h131v-382h169v382h130v-498h-159v-142z" />
    <glyph glyph-name="afii10146" unicode="&#x462;" horiz-adv-x="594" 
d="M71 0v499h-65v88h65v92h131v-92h157v-88h-157v-87h129q99 0 167.5 -51.5t68.5 -150.5q0 -105 -61.5 -157.5t-165.5 -52.5h-269zM331 296h-129v-177h131q100 0 100 91q0 40 -27.5 63t-74.5 23z" />
    <glyph glyph-name="afii10194" unicode="&#x463;" horiz-adv-x="521" 
d="M188 715v-157h157v-88h-157v-150h113q82 0 137.5 -38t55.5 -121q0 -79 -52 -120t-136 -41h-248v470h-52v88h52v157h130zM307 208h-119v-93h121q57 0 57 49q0 21 -16 32.5t-43 11.5z" />
    <glyph glyph-name="afii10147" unicode="&#x472;" horiz-adv-x="603" 
d="M376 298h-148v120h148v-120zM298 -7q-106 0 -174 57.5t-68 167.5v240q0 113 66 169.5t176 56.5q112 0 179.5 -56.5t67.5 -169.5v-240q0 -111 -70 -168t-177 -57zM415 230v219q0 117 -114 117q-112 0 -112 -117v-219q0 -57 28.5 -87t83.5 -30q56 0 85 30.5t29 86.5z" />
    <glyph glyph-name="afii10195" unicode="&#x473;" horiz-adv-x="528" 
d="M262 -7q-96 0 -157.5 48t-61.5 148v117q0 102 60 150.5t159 48.5t161.5 -48.5t62.5 -150.5v-117q0 -101 -63.5 -148.5t-160.5 -47.5zM358 202v3h-187v-3q0 -95 92 -95q95 0 95 95zM262 391q-89 0 -91 -92h187q-3 92 -96 92z" />
    <glyph glyph-name="uni048C" unicode="&#x48c;" horiz-adv-x="594" 
d="M71 0v499h-65v88h65v92h131v-92h157v-88h-157v-87h129q99 0 167.5 -51.5t68.5 -150.5q0 -105 -61.5 -157.5t-165.5 -52.5h-269zM331 296h-129v-177h131q100 0 100 91q0 40 -27.5 63t-74.5 23z" />
    <glyph glyph-name="uni048D" unicode="&#x48d;" horiz-adv-x="521" 
d="M188 715v-157h157v-88h-157v-150h113q82 0 137.5 -38t55.5 -121q0 -79 -52 -120t-136 -41h-248v470h-52v88h52v157h130zM307 208h-119v-93h121q57 0 57 49q0 21 -16 32.5t-43 11.5z" />
    <glyph glyph-name="afii10050" unicode="&#x490;" horiz-adv-x="507" 
d="M369 679v139h114v-260h-285v-558h-131v679h302z" />
    <glyph glyph-name="afii10098" unicode="&#x491;" horiz-adv-x="429" 
d="M304 498v136h113v-253h-234v-381h-131v498h252z" />
    <glyph glyph-name="uni0492" unicode="&#x492;" horiz-adv-x="504" 
d="M481 558h-284v-140h238v-121h-238v-297h-132v297h-65v121h65v261h416v-121z" />
    <glyph glyph-name="uni0493" unicode="&#x493;" horiz-adv-x="431" 
d="M0 182v99h52v217h365v-117h-234v-100h157v-99h-157v-182h-131v182h-52z" />
    <glyph glyph-name="uni0496" unicode="&#x496;" horiz-adv-x="930" 
d="M525 283h-4v-283h-131v283h-4l-242 -283h-134v38l239 272l68 50l-69 50l-230 226v43h131l237 -244h4v244h131v-244h4l237 244h131v-43l-230 -226l-70 -50l68 -50l169 -192h90v-258h-114v140h-39z" />
    <glyph glyph-name="uni0497" unicode="&#x497;" horiz-adv-x="773" 
d="M443 184v-184h-128v184h-6l-159 -184h-140v41l178 181l63 38l-63 37l-171 159v42h139l154 -163h5v163h128v-163h6l154 163h139v-42l-171 -159l-64 -37l64 -38l102 -105h90v-257h-113v140h-41l-160 184h-6z" />
    <glyph glyph-name="uni049A" unicode="&#x49a;" horiz-adv-x="613" 
d="M603 -140h-113v140h-33l-255 280h-4v-280h-131v679h131v-242h4l249 242h132v-42l-243 -225l-72 -52l70 -51l179 -191h86v-258z" />
    <glyph glyph-name="uni049B" unicode="&#x49b;" horiz-adv-x="515" 
d="M54 0v498h129v-159h6l160 159h139v-42l-181 -159l-64 -37l66 -39l107 -104h89v-257h-113v140h-37l-166 180h-6v-180h-129z" />
    <glyph glyph-name="uni049C" unicode="&#x49c;" horiz-adv-x="652" 
d="M306 297h-4v-96h-67v96h-37v-297h-131v679h131v-261h37v80h67v-80h4l207 261h121v-42l-182 -221l-65 -57l63 -56l192 -264v-39h-125z" />
    <glyph glyph-name="uni049D" unicode="&#x49d;" horiz-adv-x="530" 
d="M212 127v79h-32v-206h-129v498h129v-183h32v69h67v-69h5l111 183h116v-42l-99 -142l-52 -52l51 -53l106 -168v-41h-120l-113 206h-5v-79h-67z" />
    <glyph glyph-name="uni04A0" unicode="&#x4a0;" horiz-adv-x="638" 
d="M628 39v-39h-134l-240 280h-3v-280h-131v558h-119v121h250v-242h3l234 242h132v-42l-227 -225l-73 -52l71 -51z" />
    <glyph glyph-name="uni04A1" unicode="&#x4a1;" horiz-adv-x="537" 
d="M96 0v393h-95v105h224v-159h6l150 159h139v-42l-171 -159l-63 -37l63 -38l178 -181v-41h-140l-156 180h-6v-180h-129z" />
    <glyph glyph-name="uni04A2" unicode="&#x4a2;" horiz-adv-x="642" 
d="M632 -140h-114v140h-87v297h-234v-297h-132v679h132v-261h234v261h131v-561h70v-258z" />
    <glyph glyph-name="uni04A3" unicode="&#x4a3;" horiz-adv-x="560" 
d="M437 -140v140h-86v208h-169v-208h-130v498h130v-182h169v182h130v-381h69v-257h-113z" />
    <glyph glyph-name="uni04B0" unicode="&#x4b0;" horiz-adv-x="581" 
d="M287 398h6l54 117l86 164h133v-40l-196 -360h125v-98h-138v-181h-131v181h-137v98h118l-192 359v41h132l85 -163z" />
    <glyph glyph-name="uni04B1" unicode="&#x4b1;" horiz-adv-x="500" 
d="M318 6h135v-98h-138v-77h-131v77h-137v98h133l-164 452v40h123l75 -226l34 -114h5l38 126l68 214h124v-40z" />
    <glyph glyph-name="uni04B2" unicode="&#x4b2;" horiz-adv-x="608" 
d="M296 467h4q25 44 56 95l73 117h127v-41q-16 -25 -82 -127.5t-102 -158.5l149 -234h77v-258h-114v140h-42q-27 44 -83 132l-61 108h-2q-8 -13 -29.5 -52t-34.5 -59l-81 -129h-127v38l200 313l-180 287v41h126l72 -117z" />
    <glyph glyph-name="uni04B3" unicode="&#x4b3;" horiz-adv-x="524" 
d="M248 343h3l40 64l60 91h124v-41l-149 -203l101 -137h87v-257h-114v140h-43l-70 103l-36 57h-5l-35 -56l-71 -104h-124v39l156 214l-149 205v40h125l56 -86z" />
    <glyph glyph-name="uni04B6" unicode="&#x4b6;" horiz-adv-x="620" 
d="M42 679h132v-169q0 -64 31.5 -92.5t107.5 -28.5q50 0 98 8v282h131v-561h68v-258h-113v140h-86v280q-57 -5 -112 -5q-257 0 -257 228v176z" />
    <glyph glyph-name="uni04B7" unicode="&#x4b7;" horiz-adv-x="551" 
d="M32 498h129v-105q0 -54 23 -76.5t85 -22.5q31 0 74 5v199h130v-381h68v-257h-113v140h-85v189q-56 -4 -86 -4q-225 0 -225 199v114z" />
    <glyph glyph-name="uni04B8" unicode="&#x4b8;" horiz-adv-x="608" 
d="M42 679h132v-169q0 -51 19 -78.5t62 -37.5v106h67v-111q46 0 89 8v282h131v-679h-131v280q-45 -5 -89 -5v-112h-67v114q-213 19 -213 226v176z" />
    <glyph glyph-name="uni04B9" unicode="&#x4b9;" horiz-adv-x="525" 
d="M32 498h129v-105q0 -42 12.5 -64t44.5 -30v89h67v-94q25 0 58 5v199h130v-498h-130v189q-18 -2 -58 -4v-94h-67v96q-186 16 -186 197v114z" />
    <glyph glyph-name="uni04D8" unicode="&#x4d8;" horiz-adv-x="597" 
d="M56 229q0 87 48.5 132t137.5 45h168q0 86 -23.5 123t-103.5 37q-77 0 -170 -18l-7 118q85 18 180 18q123 0 189 -58t66 -169v-240q0 -107 -66 -165t-180 -58t-176.5 61.5t-62.5 173.5zM189 226q0 -50 27 -81.5t80 -31.5q108 0 114 108v65h-142q-46 0 -62.5 -14t-16.5 -46
z" />
    <glyph glyph-name="schwacyrillic" unicode="&#x4d9;" horiz-adv-x="511" 
d="M87 387l-8 107q73 11 171 11q107 0 164 -46.5t57 -151.5v-118q0 -195 -220 -195q-100 0 -157.5 46t-57.5 130q0 134 157 134h149q0 48 -20.5 70.5t-83.5 22.5q-64 0 -151 -10zM251 106q51 0 71 23t20 68v11h-127q-28 0 -39 -8.5t-11 -25.5q0 -68 86 -68z" />
    <glyph glyph-name="Wgrave" unicode="&#x1e80;" horiz-adv-x="707" 
d="M653 479q-2 -99 -19 -194l-50 -285h-150l-50 145l-28 84h-5l-27 -83l-50 -146h-150l-49 265q-20 112 -20 214v200h133v-213q0 -47 25 -236l6 -46h6l38 134l30 94h122l31 -99l39 -135h5l7 50q3 27 8 68.5t8 64.5t5 52.5t2 52.5v213h133v-200zM430 797l-50 -62l-189 106
l71 93z" />
    <glyph glyph-name="wgrave" unicode="&#x1e81;" horiz-adv-x="618" 
d="M307 180h-3l-20 -70l-34 -110h-135q-23 83 -59 229q-15 64 -15 130v139h129v-157q0 -22 5 -53t12.5 -70t10.5 -61h4q15 65 28 110l18 61h116l28 -100l20 -74h4l17 97q10 55 10 90v157h129v-145q0 -65 -19 -137q-8 -27 -27.5 -108t-27.5 -108h-135l-24 75zM364 582
l-76 -32l-121 180l114 45z" />
    <glyph glyph-name="Wacute" unicode="&#x1e82;" horiz-adv-x="707" 
d="M653 479q-2 -99 -19 -194l-50 -285h-150l-50 145l-28 84h-5l-27 -83l-50 -146h-150l-49 265q-20 112 -20 214v200h133v-213q0 -47 25 -236l6 -46h6l38 134l30 94h122l31 -99l39 -135h5l7 50q3 27 8 68.5t8 64.5t5 52.5t2 52.5v213h133v-200zM331 735l-50 62l168 137
l71 -93z" />
    <glyph glyph-name="wacute" unicode="&#x1e83;" horiz-adv-x="618" 
d="M307 180h-3l-20 -70l-34 -110h-135q-23 83 -59 229q-15 64 -15 130v139h129v-157q0 -22 5 -53t12.5 -70t10.5 -61h4q15 65 28 110l18 61h116l28 -100l20 -74h4l17 97q10 55 10 90v157h129v-145q0 -65 -19 -137q-8 -27 -27.5 -108t-27.5 -108h-135l-24 75zM443 740
l-122 -180q-25 10 -75 32l83 193z" />
    <glyph glyph-name="Wdieresis" unicode="&#x1e84;" horiz-adv-x="707" 
d="M653 479q-2 -99 -19 -194l-50 -285h-150l-50 145l-28 84h-5l-27 -83l-50 -146h-150l-49 265q-20 112 -20 214v200h133v-213q0 -47 25 -236l6 -46h6l38 134l30 94h122l31 -99l39 -135h5l7 50q3 27 8 68.5t8 64.5t5 52.5t2 52.5v213h133v-200zM175 820q0 31 21 51t52 20
t52 -20t21 -51q0 -30 -21.5 -51t-51.5 -21q-31 0 -52 21t-21 51zM383 820q0 30 21.5 50.5t51.5 20.5t52.5 -20.5t22.5 -50.5t-22.5 -51t-52.5 -21t-51.5 21.5t-21.5 50.5z" />
    <glyph glyph-name="wdieresis" unicode="&#x1e85;" horiz-adv-x="618" 
d="M307 180h-3l-20 -70l-34 -110h-135q-23 83 -59 229q-15 64 -15 130v139h129v-157q0 -22 5 -53t12.5 -70t10.5 -61h4q15 65 28 110l18 61h116l28 -100l20 -74h4l17 97q10 55 10 90v157h129v-145q0 -65 -19 -137q-8 -27 -27.5 -108t-27.5 -108h-135l-24 75zM128 655
q0 31 21 51t52 20t52 -20t21 -51q0 -29 -21 -50.5t-52 -21.5t-52 21.5t-21 50.5zM336 655q0 30 21.5 50.5t51.5 20.5t52.5 -20.5t22.5 -50.5q0 -29 -22.5 -50.5t-52.5 -21.5t-51.5 21.5t-21.5 50.5z" />
    <glyph glyph-name="uni1E9E" unicode="&#x1e9e;" horiz-adv-x="623" 
d="M569 211q0 -96 -61.5 -157t-169.5 -61q-49 0 -101 12l23 117q33 -10 64 -10q56 0 83.5 27.5t27.5 71.5q0 42 -29 66t-80 24h-59v98l120 139q-30 28 -82 28q-109 0 -109 -117v-449h-131v458q0 111 63 168.5t176 57.5q173 0 225 -124l-134 -152q78 -14 126 -66.5t48 -130.5
z" />
    <glyph glyph-name="Ygrave" unicode="&#x1ef2;" horiz-adv-x="581" 
d="M287 398h6l54 117l86 164h133v-40l-209 -385v-254h-131v245l-211 393v41h132l85 -163zM378 797l-50 -62l-189 106l71 93z" />
    <glyph glyph-name="ygrave" unicode="&#x1ef3;" horiz-adv-x="522" 
d="M141 -172q-43 0 -83 4l7 108q29 -1 64 -1q30 0 52.5 17t30.5 48h-32l-162 455v39h123l58 -168l61 -194h6l57 190l58 172h124v-40l-173 -499q-45 -131 -191 -131zM325 582l-76 -32l-121 180l114 45z" />
    <glyph glyph-name="endash" unicode="&#x2013;" horiz-adv-x="540" 
d="M47 211v95h446v-95h-446z" />
    <glyph glyph-name="emdash" unicode="&#x2014;" horiz-adv-x="875" 
d="M59 210v95h755v-95h-755z" />
    <glyph glyph-name="afii00208" unicode="&#x2015;" horiz-adv-x="875" 
d="M59 210v95h755v-95h-755z" />
    <glyph glyph-name="quoteleft" unicode="&#x2018;" horiz-adv-x="317" 
d="M208 743l43 -58q-62 -40 -70 -96q30 -3 48 -24.5t18 -49.5q0 -35 -25.5 -58.5t-59.5 -23.5q-41 0 -66 29.5t-25 78.5q0 62 36.5 115t100.5 87z" />
    <glyph glyph-name="quoteright" unicode="&#x2019;" horiz-adv-x="317" 
d="M115 432l-43 59q62 40 70 96q-30 2 -48 23.5t-18 49.5q0 35 25.5 59t59.5 24q41 0 66 -30t25 -79q0 -61 -36.5 -114t-100.5 -88z" />
    <glyph glyph-name="quotesinglbase" unicode="&#x201a;" horiz-adv-x="292" 
d="M100 -158l-42 59q62 40 70 96q-30 2 -48 23.5t-18 49.5q0 35 25 59t59 24q41 0 66 -30t25 -79q0 -61 -36.5 -114t-100.5 -88z" />
    <glyph glyph-name="quotedblleft" unicode="&#x201c;" horiz-adv-x="516" 
d="M204 744l43 -58q-62 -40 -70 -96q30 -3 48 -24.5t18 -49.5q0 -35 -25.5 -58.5t-59.5 -23.5q-41 0 -66 29.5t-25 78.5q0 62 36.5 115t100.5 87zM411 744l42 -58q-62 -40 -70 -96q30 -3 48 -24.5t18 -49.5q0 -35 -25 -58.5t-59 -23.5q-41 0 -66 29.5t-25 78.5
q0 62 36.5 115t100.5 87z" />
    <glyph glyph-name="quotedblright" unicode="&#x201d;" horiz-adv-x="519" 
d="M317 434l-43 58q62 40 70 96q-30 3 -48 24.5t-18 49.5q0 35 25.5 58.5t59.5 23.5q41 0 66 -29.5t25 -78.5q0 -62 -36.5 -115t-100.5 -87zM110 434l-42 58q62 40 70 96q-30 3 -48 24.5t-18 49.5q0 35 25 58.5t59 23.5q41 0 66 -29.5t25 -78.5q0 -62 -36.5 -115t-100.5 -87
z" />
    <glyph glyph-name="quotedblbase" unicode="&#x201e;" horiz-adv-x="487" 
d="M100 -158l-42 59q62 40 70 96q-30 2 -48 23.5t-18 49.5q0 35 25 59t59 24q41 0 66 -30t25 -79q0 -61 -36.5 -114t-100.5 -88zM298 -158l-43 59q62 40 70 96q-30 2 -48 23.5t-18 49.5q0 35 25.5 59t59.5 24q41 0 66 -30t25 -79q0 -61 -36.5 -114t-100.5 -88z" />
    <glyph glyph-name="dagger" unicode="&#x2020;" horiz-adv-x="567" 
d="M524 406h-180v-444h-135v444h-166v121h166v171h135v-171h180v-121z" />
    <glyph glyph-name="daggerdbl" unicode="&#x2021;" horiz-adv-x="567" 
d="M43 304h166v116h-166v121h166v157h135v-157h180v-121h-180v-116h180v-121h-180v-221h-135v221h-166v121z" />
    <glyph glyph-name="bullet" unicode="&#x2022;" horiz-adv-x="479" 
d="M240 106q-62 0 -106.5 44t-44.5 105q0 62 44.5 106t106.5 44q61 0 105 -44t44 -106q0 -61 -44 -105t-105 -44z" />
    <glyph glyph-name="trianglebullet" unicode="&#x2023;" horiz-adv-x="506" 
d="M81 477l393 -200l-393 -211v411z" />
    <glyph glyph-name="ellipsis" unicode="&#x2026;" horiz-adv-x="834" 
d="M64 76q0 34 24 57.5t57 23.5q34 0 58 -23.5t24 -57.5q0 -35 -22 -59t-58 -24q-35 0 -59 24.5t-24 58.5zM340 76q0 34 23.5 57.5t56.5 23.5q34 0 58.5 -23.5t24.5 -57.5q0 -35 -22.5 -59t-58.5 -24q-34 0 -58 24t-24 59zM613 76q0 34 24 57.5t57 23.5q34 0 58 -23.5
t24 -57.5q0 -35 -22 -59t-58 -24q-34 0 -58.5 24.5t-24.5 58.5z" />
    <glyph glyph-name="perthousand" unicode="&#x2030;" horiz-adv-x="1303" 
d="M231 24l394 673h83v-39l-394 -672h-83v38zM206 250q-73 0 -116.5 36.5t-43.5 105.5v141q0 72 42.5 110t117.5 38q78 0 121 -37.5t43 -110.5v-139q0 -70 -45.5 -107t-118.5 -37zM269 526q0 67 -62 67q-59 0 -59 -67v-124q0 -65 59 -65q62 0 62 65v124zM723 -5
q-73 0 -116.5 36.5t-43.5 105.5v141q0 72 42.5 110t117.5 38q78 0 121 -37.5t43 -110.5v-139q0 -70 -45.5 -107t-118.5 -37zM786 271q0 67 -62 67q-59 0 -59 -67v-124q0 -65 59 -65q62 0 62 65v124zM1092 -5q-73 0 -116.5 36.5t-43.5 105.5v141q0 72 42.5 110t117.5 38
q78 0 121 -37.5t43 -110.5v-139q0 -70 -45.5 -107t-118.5 -37zM1155 271q0 67 -62 67q-59 0 -59 -67v-124q0 -65 59 -65q62 0 62 65v124z" />
    <glyph glyph-name="guilsinglleft" unicode="&#x2039;" horiz-adv-x="352" 
d="M233 19l-191 204v37l189 205l77 -61q-84 -108 -125 -163l127 -161z" />
    <glyph glyph-name="guilsinglright" unicode="&#x203a;" horiz-adv-x="352" 
d="M310 223l-191 -204q-25 21 -77 61l128 161l-125 163q5 4 76 61l189 -205v-37z" />
    <glyph glyph-name="fraction" unicode="&#x2044;" horiz-adv-x="167" 
d="M-160 24l394 673h83v-39l-394 -672h-83v38z" />
    <glyph glyph-name="zerosuperior" unicode="&#x2070;" horiz-adv-x="394" 
d="M194 340q-73 0 -116.5 36.5t-43.5 105.5v141q0 72 42.5 110t117.5 38q78 0 121 -37.5t43 -110.5v-139q0 -70 -45.5 -107t-118.5 -37zM257 616q0 67 -62 67q-59 0 -59 -67v-124q0 -65 59 -65q62 0 62 65v124z" />
    <glyph glyph-name="foursuperior" unicode="&#x2074;" horiz-adv-x="394" 
d="M139 517h77v80h96v-80h55v-88h-55v-84h-97v84h-191v71l141 267h87v-34z" />
    <glyph glyph-name="fivesuperior" unicode="&#x2075;" horiz-adv-x="394" 
d="M364 489q0 -76 -47.5 -112.5t-122.5 -36.5q-63 0 -105 20.5t-68 79.5l92 41q21 -54 79 -54q70 0 70 62q0 59 -76 59q-41 0 -79 -13l-56 40l22 192h279v-89h-187l-5 -45q10 2 30 2q174 0 174 -146z" />
    <glyph glyph-name="sixsuperior" unicode="&#x2076;" horiz-adv-x="394" 
d="M299 731q-69 -59 -106 -105q3 0 10 0.5t11 0.5q71 0 110.5 -38.5t39.5 -100.5q0 -68 -45.5 -108t-122.5 -40q-82 0 -124.5 41t-42.5 112q0 76 44 139t124 135h102v-36zM194 545q-29 0 -45.5 -16.5t-16.5 -40.5q0 -61 63 -61q68 0 68 61q0 57 -69 57z" />
    <glyph glyph-name="sevensuperior" unicode="&#x2077;" horiz-adv-x="386" 
d="M68 386l168 292h-190v89h312v-69l-201 -355h-89v43z" />
    <glyph glyph-name="eightsuperior" unicode="&#x2078;" horiz-adv-x="394" 
d="M363 470q0 -62 -48 -96.5t-119 -34.5q-72 0 -119 33.5t-47 97.5q0 63 67 102q-49 29 -49 85q0 52 42 82.5t106 30.5q66 0 108.5 -30.5t42.5 -82.5t-49 -86q65 -33 65 -101zM245 658q0 13 -14.5 21.5t-34.5 8.5q-19 0 -33.5 -8t-14.5 -22q0 -13 15 -25.5t34 -18.5
q48 13 48 44zM263 469q0 33 -67 56q-64 -20 -64 -56q0 -21 18.5 -31.5t45.5 -10.5q29 0 48 10.5t19 31.5z" />
    <glyph glyph-name="ninesuperior" unicode="&#x2079;" horiz-adv-x="394" 
d="M203 482q-3 0 -8.5 -0.5t-7.5 -0.5q-73 0 -113.5 38.5t-40.5 101.5q0 68 45.5 107.5t122.5 39.5q81 0 123.5 -40.5t42.5 -111.5q0 -77 -44.5 -140t-123.5 -134h-101v37q61 51 105 103zM202 564q30 0 46.5 16t16.5 40q0 61 -64 61q-67 0 -67 -61q0 -56 68 -56z" />
    <glyph glyph-name="plussuperior" unicode="&#x207a;" horiz-adv-x="364" 
d="M28 506v83h109v96h91v-96h109v-83h-109v-101h-91v101h-109z" />
    <glyph glyph-name="hyphensuperior" unicode="&#x207b;" horiz-adv-x="254" 
d="M32 511v84h189v-84h-189z" />
    <glyph glyph-name="equalsuperior" unicode="&#x207c;" horiz-adv-x="425" 
d="M56 455v78h312v-78h-312zM56 580v77h312v-77h-312z" />
    <glyph glyph-name="parenleftsuperior" unicode="&#x207d;" horiz-adv-x="245" 
d="M142 554q0 -136 83 -231l-63 -43q-45 42 -84 115t-39 159q0 50 15 99t39.5 86t43 60t35.5 39l62 -40q-92 -107 -92 -244z" />
    <glyph glyph-name="parenrightsuperior" unicode="&#x207e;" horiz-adv-x="245" 
d="M94 280q-57 38 -64 43q83 94 83 231q0 134 -92 244l63 41q25 -25 50.5 -57.5t53.5 -97.5t28 -130q0 -86 -38.5 -158.5t-83.5 -115.5z" />
    <glyph glyph-name="nsuperior" unicode="&#x207f;" horiz-adv-x="385" 
d="M248 255v189q0 55 -53 55q-59 0 -59 -74v-170h-100v220l-2 110h77q7 -14 10 -34q37 39 98 39q70 0 100 -35t30 -104v-196h-101z" />
    <glyph glyph-name="zeroinferior" unicode="&#x2080;" horiz-adv-x="394" 
d="M194 -95q-73 0 -116.5 36.5t-43.5 105.5v141q0 72 42.5 110t117.5 38q78 0 121 -37.5t43 -110.5v-139q0 -70 -45.5 -107t-118.5 -37zM257 181q0 67 -62 67q-59 0 -59 -67v-124q0 -65 59 -65q62 0 62 65v124z" />
    <glyph glyph-name="oneinferior" unicode="&#x2081;" horiz-adv-x="327" 
d="M59 184v85l89 64h92v-423h-101v303l-42 -29h-38z" />
    <glyph glyph-name="twoinferior" unicode="&#x2082;" horiz-adv-x="394" 
d="M199 336q69 0 113 -29.5t44 -94.5q0 -34 -18 -61.5t-45 -46t-55.5 -34t-54 -34t-35.5 -38.5h215v-88h-329v47q0 68 36.5 107t109.5 79q54 31 65 48q6 9 6 18q0 15 -13 26.5t-43 11.5q-51 0 -70 -47l-91 42q50 94 165 94z" />
    <glyph glyph-name="threeinferior" unicode="&#x2083;" horiz-adv-x="394" 
d="M191 -94q-63 0 -105 20.5t-68 78.5l91 42q22 -54 80 -54q70 0 70 61q0 28 -19.5 42.5t-52.5 14.5h-73v68l80 65h-143v89h299v-82l-88 -70q99 -20 99 -128q0 -76 -48 -111.5t-122 -35.5z" />
    <glyph glyph-name="fourinferior" unicode="&#x2084;" horiz-adv-x="394" 
d="M139 82h77v80h96v-80h55v-88h-55v-84h-97v84h-191v71l141 268h87v-34z" />
    <glyph glyph-name="fiveinferior" unicode="&#x2085;" horiz-adv-x="394" 
d="M364 55q0 -76 -47.5 -112.5t-122.5 -36.5q-63 0 -105 20.5t-68 78.5l92 42q21 -54 79 -54q70 0 70 62q0 59 -76 59q-41 0 -79 -13l-56 40l22 192h279v-90h-187l-5 -44q10 2 30 2q174 0 174 -146z" />
    <glyph glyph-name="sixinferior" unicode="&#x2086;" horiz-adv-x="394" 
d="M299 297q-69 -59 -106 -105q3 0 10 0.5t11 0.5q71 0 110.5 -38.5t39.5 -100.5q0 -68 -45.5 -107.5t-122.5 -39.5q-82 0 -124.5 40.5t-42.5 111.5q0 75 44.5 138.5t123.5 135.5h102v-36zM194 111q-29 0 -45.5 -17t-16.5 -40q0 -61 63 -61q68 0 68 61q0 57 -69 57z" />
    <glyph glyph-name="seveninferior" unicode="&#x2087;" horiz-adv-x="386" 
d="M56 -48l168 292h-190v89h312v-69l-201 -354h-89v42z" />
    <glyph glyph-name="eightinferior" unicode="&#x2088;" horiz-adv-x="394" 
d="M363 35q0 -62 -47.5 -95.5t-119.5 -33.5t-119 33t-47 96q0 64 67 103q-49 29 -49 84q0 53 42 83.5t106 30.5q66 0 108.5 -30.5t42.5 -83.5q0 -51 -49 -85q65 -33 65 -102zM245 224q0 13 -14.5 21t-34.5 8q-19 0 -33.5 -8t-14.5 -21t15 -25.5t34 -18.5q48 13 48 44z
M263 35q0 33 -67 56q-64 -20 -64 -56q0 -21 18.5 -31.5t45.5 -10.5q29 0 48 10.5t19 31.5z" />
    <glyph glyph-name="nineinferior" unicode="&#x2089;" horiz-adv-x="394" 
d="M200 48q-3 0 -8.5 -0.5t-8.5 -0.5q-73 0 -113.5 38.5t-40.5 101.5q0 68 45.5 107.5t122.5 39.5q81 0 124 -40.5t43 -111.5q0 -54 -27.5 -107.5t-59 -87t-81.5 -78.5h-101v36q56 47 105 103zM198 130q30 0 47 16t17 40q0 61 -64 61q-67 0 -67 -61q0 -56 67 -56z" />
    <glyph glyph-name="plusinferior" unicode="&#x208a;" horiz-adv-x="367" 
d="M28 60v82h109v97h91v-97h110v-82h-110v-101h-91v101h-109z" />
    <glyph glyph-name="hypheninferior" unicode="&#x208b;" horiz-adv-x="254" 
d="M32 63v84h189v-84h-189z" />
    <glyph glyph-name="equalinferior" unicode="&#x208c;" horiz-adv-x="444" 
d="M66 10v79h311v-79h-311zM66 136v77h311v-77h-311z" />
    <glyph glyph-name="parenleftinferior" unicode="&#x208d;" horiz-adv-x="245" 
d="M142 125q0 -136 83 -231l-63 -43q-45 42 -84 115t-39 159q0 50 15 99t39.5 86t43 60t35.5 39l62 -40q-92 -107 -92 -244z" />
    <glyph glyph-name="parenrightinferior" unicode="&#x208e;" horiz-adv-x="245" 
d="M94 -149q-57 38 -64 43q83 94 83 231q0 134 -92 244l63 41q25 -25 50.5 -57.5t53.5 -97.5t28 -130q0 -86 -38.5 -158.5t-83.5 -115.5z" />
    <glyph glyph-name="Euro" unicode="&#x20ac;" 
d="M45 325h47v44h-47v69h47v21q0 113 62.5 169.5t171.5 56.5q74 0 125 -21t87 -79l-103 -71q-32 52 -102 52q-109 0 -109 -114v-14h190v-69h-190v-44h190v-69h-190v-31q0 -112 107 -112q75 0 110 56l104 -75q-65 -100 -219 -100q-106 0 -170 53.5t-64 162.5v46h-47v69z" />
    <glyph glyph-name="uni20B4" unicode="&#x20b4;" 
d="M516 366h-98q-21 -17 -64 -39h162v-64h-273q-44 -28 -44 -72q0 -32 25 -52t65 -20q88 0 119 91l111 -53q-53 -155 -236 -155q-99 0 -154.5 51.5t-55.5 125.5q0 49 22 84h-39v64h103l69 39h-172v64h285q31 22 31 59q0 30 -20 49t-55 19q-69 0 -111 -80l-105 69
q65 126 215 126q99 0 149 -51t50 -113q0 -41 -20 -78h41v-64z" />
    <glyph glyph-name="uni20BD" unicode="&#x20bd;" 
d="M355 126h-138v-126h-129v126h-58v88h58v37h-58v100h58v319h221q104 0 167.5 -54.5t63.5 -155.5q0 -99 -68.5 -154t-159.5 -55h-95v-37h138v-88zM217 351h84q49 0 79 29t30 74q0 46 -30.5 71t-76.5 25h-86v-199z" />
    <glyph glyph-name="centigrade" unicode="&#x2103;" horiz-adv-x="844" 
d="M581 685q82 0 137 -30t86 -109q-95 -45 -115 -55q-23 75 -103 75q-104 0 -104 -117v-221q0 -115 104 -115q83 0 110 87l120 -57q-62 -149 -233 -149q-106 0 -170 52.5t-64 163.5v245q0 114 62 172t170 58zM166 432q-54 0 -92.5 36.5t-38.5 88.5t38.5 88.5t92.5 36.5
t92.5 -36.5t38.5 -88.5t-38.5 -88.5t-92.5 -36.5zM165 617q-25 0 -43.5 -17.5t-18.5 -42.5q0 -24 18.5 -42t43.5 -18q26 0 44.5 18t18.5 42q0 25 -18.5 42.5t-44.5 17.5z" />
    <glyph glyph-name="fahrenheit" unicode="&#x2109;" horiz-adv-x="800" 
d="M775 558h-284v-140h238v-121h-238v-297h-132v679h416v-121zM168 432q-54 0 -92.5 36.5t-38.5 88.5t38.5 88.5t92.5 36.5t92.5 -36.5t38.5 -88.5t-38.5 -88.5t-92.5 -36.5zM167 617q-25 0 -43.5 -17.5t-18.5 -42.5q0 -24 18.5 -42t43.5 -18q26 0 44.5 18t18.5 42
q0 25 -18.5 42.5t-44.5 17.5z" />
    <glyph glyph-name="afii61289" unicode="&#x2113;" horiz-adv-x="434" 
d="M12 224l71 61v208q0 116 44 172t115 56q61 0 105.5 -37.5t44.5 -118.5q0 -107 -158 -261q-37 -37 -56 -54v-77q0 -34 7 -56t19.5 -30.5t20.5 -10.5t19 -2q62 0 91 104l82 -36q-27 -76 -69 -116t-107 -40q-74 0 -114.5 40t-40.5 113v33l-33 -27zM175 506v-142l38 41
q84 88 84 165q0 26 -15.5 47t-39.5 21q-29 0 -48 -31t-19 -101z" />
    <glyph glyph-name="afii61352" unicode="&#x2116;" horiz-adv-x="921" 
d="M394 262h5v416h128v-678h-143l-140 336l-43 95h-3v-431h-130v678h163l120 -305zM607 251v75h262v-75h-262zM736 381q-60 0 -97.5 30.5t-37.5 91.5v60q0 63 37 94t98 31t99 -31.5t38 -93.5v-60q0 -61 -38.5 -91.5t-98.5 -30.5zM789 558q0 25 -14 39t-39 14q-51 0 -51 -53
v-49q0 -52 52 -52t52 52v49z" />
    <glyph glyph-name="Pcircle" unicode="&#x2117;" horiz-adv-x="841" 
d="M795 354q0 -157 -109 -262.5t-263 -105.5q-170 0 -272.5 103.5t-102.5 264.5q0 157 110 261.5t265 104.5t263.5 -104.5t108.5 -261.5zM711 354q0 123 -83.5 209.5t-204.5 86.5t-206 -86.5t-85 -209.5q0 -124 84 -210.5t207 -86.5q121 0 204.5 86.5t83.5 210.5zM290 107
v472h176q72 0 115 -36.5t43 -110.5q0 -72 -50 -106t-118 -34h-79v-185h-87zM377 374h85q30 0 49.5 16.5t19.5 42.5q0 31 -18 47.5t-49 16.5h-87v-123z" />
    <glyph glyph-name="trademark" unicode="&#x2122;" horiz-adv-x="727" 
d="M580 567q-42 -82 -50 -98h-63l-54 98h-3v-192h-72v311h88l69 -124h2l69 124h90v-311h-74v192h-2zM213 618v-243h-74v243h-97v67h268v-67h-97z" />
    <glyph glyph-name="Ohm" unicode="&#x2126;" horiz-adv-x="621" 
d="M576 0h-229v124q79 28 79 129v190q0 58 -29.5 90t-87.5 32q-57 0 -86 -32t-29 -90v-190q0 -104 75 -129v-124h-224v119h63q-46 39 -46 138v197q0 112 67 171.5t179 59.5q114 0 181 -59t67 -172v-197q0 -93 -45 -138h65v-119z" />
    <glyph glyph-name="angstrom" unicode="&#x212b;" horiz-adv-x="591" 
d="M438 0q-9 27 -24.5 80.5t-24.5 80.5h-191l-49 -161h-122v38l198 641h139q67 -213 199 -641v-38h-125zM353 279q-5 17 -15.5 57.5t-18.5 68.5l-23 100h-6l-26 -112l-31 -114h120zM293 711q-48 0 -81.5 33t-33.5 80q0 46 33.5 79.5t81.5 33.5q49 0 83 -33t34 -80
q0 -48 -34 -80.5t-83 -32.5zM293 874q-19 0 -33 -15t-14 -35t14 -34.5t33 -14.5q20 0 34.5 14.5t14.5 34.5q0 19 -15 34.5t-34 15.5z" />
    <glyph glyph-name="estimated" unicode="&#x212e;" horiz-adv-x="817" 
d="M747 305h-543v-156q29 -46 82 -75t110 -29q59 0 113.5 27.5t90.5 75.5h99q-62 -75 -141 -117t-162 -42q-144 0 -247.5 100.5t-103.5 239.5t103 237t248 98q148 0 249.5 -102t101.5 -257zM588 356v160q-24 41 -78.5 65.5t-113.5 24.5q-49 0 -101 -23.5t-92 -66.5v-160h385
z" />
    <glyph glyph-name="onethird" unicode="&#x2153;" horiz-adv-x="960" 
d="M185 24l394 673h83v-39l-394 -672h-83v38zM84 528v85l89 64h91v-424h-100v304l-42 -29h-38zM705 -4q-63 0 -105 20.5t-68 78.5l91 42q22 -54 80 -54q70 0 70 61q0 28 -19.5 42.5t-52.5 14.5h-73v68l80 65h-143v89h299v-82l-88 -70q99 -20 99 -128q0 -76 -48 -111.5
t-122 -35.5z" />
    <glyph glyph-name="twothirds" unicode="&#x2154;" horiz-adv-x="960" 
d="M254 24l394 673h83v-39l-394 -672h-83v38zM196 680q69 0 113 -29.5t44 -94.5q0 -34 -18 -61.5t-45 -46t-55.5 -34t-54 -34t-35.5 -38.5h215v-89h-329v48q0 37 10.5 65.5t34.5 50.5t44.5 36t56.5 34q71 38 71 66q0 15 -13 26.5t-43 11.5q-51 0 -70 -47l-91 42
q50 94 165 94zM766 -4q-63 0 -105 20.5t-68 78.5l91 42q22 -54 80 -54q70 0 70 61q0 28 -19.5 42.5t-52.5 14.5h-73v68l80 65h-143v89h299v-82l-88 -70q99 -20 99 -128q0 -76 -48 -111.5t-122 -35.5z" />
    <glyph glyph-name="onefifth" unicode="&#x2155;" horiz-adv-x="960" 
d="M191 24l394 673h83v-39l-394 -672h-83v38zM83 528v85l89 64h91v-424h-100v304l-42 -29h-38zM876 145q0 -76 -47.5 -112.5t-122.5 -36.5q-63 0 -105 20.5t-68 78.5l92 42q21 -54 79 -54q70 0 70 62q0 59 -76 59q-41 0 -79 -13l-56 40l22 192h279v-90h-187l-5 -44
q10 2 30 2q174 0 174 -146z" />
    <glyph glyph-name="twofifths" unicode="&#x2156;" horiz-adv-x="960" 
d="M267 24l394 673h83v-39l-394 -672h-83v38zM204 680q69 0 113 -29.5t44 -94.5q0 -34 -18 -61.5t-45 -46t-55.5 -34t-54 -34t-35.5 -38.5h215v-89h-329v48q0 37 10.5 65.5t34.5 50.5t44.5 36t56.5 34q71 38 71 66q0 15 -13 26.5t-43 11.5q-51 0 -70 -47l-91 42
q50 94 165 94zM933 145q0 -76 -47.5 -112.5t-122.5 -36.5q-63 0 -105 20.5t-68 78.5l92 42q21 -54 79 -54q70 0 70 62q0 59 -76 59q-41 0 -79 -13l-56 40l22 192h279v-90h-187l-5 -44q10 2 30 2q174 0 174 -146z" />
    <glyph glyph-name="threefifths" unicode="&#x2157;" horiz-adv-x="960" 
d="M249 24l394 673h83v-39l-394 -672h-83v38zM213 250q-63 0 -105 20.5t-68 79.5l91 41q22 -54 80 -54q70 0 70 61q0 28 -19.5 42.5t-52.5 14.5h-73v68l80 65h-143v89h299v-81l-88 -71q99 -20 99 -128q0 -76 -48 -111.5t-122 -35.5zM926 145q0 -76 -47.5 -112.5
t-122.5 -36.5q-63 0 -105 20.5t-68 78.5l92 42q21 -54 79 -54q70 0 70 62q0 59 -76 59q-41 0 -79 -13l-56 40l22 192h279v-90h-187l-5 -44q10 2 30 2q174 0 174 -146z" />
    <glyph glyph-name="fourfifths" unicode="&#x2158;" horiz-adv-x="960" 
d="M252 24l394 673h83v-39l-394 -672h-83v38zM156 427h77v80h96v-80h55v-88h-55v-84h-97v84h-191v71l141 267h87v-34zM923 145q0 -76 -47.5 -112.5t-122.5 -36.5q-63 0 -105 20.5t-68 78.5l92 42q21 -54 79 -54q70 0 70 62q0 59 -76 59q-41 0 -79 -13l-56 40l22 192h279v-90
h-187l-5 -44q10 2 30 2q174 0 174 -146z" />
    <glyph glyph-name="onesixth" unicode="&#x2159;" horiz-adv-x="960" 
d="M213 24l394 673h83v-39l-394 -672h-83v38zM91 528v85l89 64h91v-424h-100v304l-42 -29h-38zM812 387q-69 -59 -106 -105q4 0 11 0.5t10 0.5q71 0 110.5 -38.5t39.5 -100.5q0 -68 -45.5 -107.5t-122.5 -39.5q-82 0 -124.5 40.5t-42.5 111.5q0 75 44.5 138.5t123.5 135.5
h102v-36zM707 201q-29 0 -45.5 -17t-16.5 -40q0 -61 63 -61q68 0 68 61q0 57 -69 57z" />
    <glyph glyph-name="fivesixths" unicode="&#x215a;" horiz-adv-x="960" 
d="M269 24l394 673h83v-39l-394 -672h-83v38zM403 399q0 -76 -47.5 -112.5t-122.5 -36.5q-63 0 -105 20.5t-68 79.5l92 41q21 -54 79 -54q70 0 70 62q0 59 -76 59q-41 0 -79 -13l-56 40l22 192h279v-89h-187l-5 -45q10 2 30 2q174 0 174 -146zM835 387q-69 -59 -106 -105
q3 0 10 0.5t11 0.5q71 0 110.5 -38.5t39.5 -100.5q0 -68 -45.5 -107.5t-122.5 -39.5q-82 0 -124.5 40.5t-42.5 111.5q0 75 44.5 138.5t123.5 135.5h102v-36zM730 201q-29 0 -45.5 -17t-16.5 -40q0 -61 63 -61q68 0 68 61q0 57 -69 57z" />
    <glyph glyph-name="oneeighth" unicode="&#x215b;" horiz-adv-x="960" 
d="M200 24l394 673h83v-39l-394 -672h-83v38zM85 528v85l89 64h91v-424h-100v304l-42 -29h-38zM873 125q0 -62 -47.5 -95.5t-119.5 -33.5t-119 33t-47 96q0 64 67 103q-49 29 -49 84q0 53 42 83.5t106 30.5q66 0 108.5 -30.5t42.5 -83.5q0 -51 -49 -85q65 -33 65 -102z
M755 314q0 13 -14.5 21t-34.5 8q-19 0 -33.5 -8t-14.5 -21t15 -25.5t34 -18.5q48 13 48 44zM773 125q0 33 -67 56q-64 -20 -64 -56q0 -21 18.5 -31.5t45.5 -10.5q29 0 48 10.5t19 31.5z" />
    <glyph glyph-name="threeeighths" unicode="&#x215c;" horiz-adv-x="960" 
d="M254 24l394 673h83v-39l-394 -672h-83v38zM218 250q-63 0 -105 20.5t-68 79.5l91 41q22 -54 80 -54q70 0 70 61q0 28 -19.5 42.5t-52.5 14.5h-73v68l80 65h-143v89h299v-81l-88 -71q99 -20 99 -128q0 -76 -48 -111.5t-122 -35.5zM914 125q0 -62 -48 -95.5t-119 -33.5
q-72 0 -119 33t-47 96q0 64 67 103q-49 29 -49 84q0 53 42 83.5t106 30.5q66 0 108.5 -30.5t42.5 -83.5q0 -51 -49 -85q65 -33 65 -102zM796 314q0 13 -14.5 21t-34.5 8q-19 0 -33.5 -8t-14.5 -21t15 -25.5t34 -18.5q48 13 48 44zM814 125q0 33 -67 56q-64 -20 -64 -56
q0 -21 18.5 -31.5t45.5 -10.5q29 0 48 10.5t19 31.5z" />
    <glyph glyph-name="fiveeighths" unicode="&#x215d;" horiz-adv-x="960" 
d="M255 24l394 673h83v-39l-394 -672h-83v38zM391 399q0 -76 -47.5 -112.5t-122.5 -36.5q-63 0 -105 20.5t-68 79.5l92 41q21 -54 79 -54q70 0 70 62q0 59 -76 59q-41 0 -79 -13l-56 40l22 192h279v-89h-187l-5 -45q10 2 30 2q174 0 174 -146zM911 125q0 -62 -47.5 -95.5
t-119.5 -33.5t-119 33t-47 96q0 64 67 103q-49 29 -49 84q0 53 42 83.5t106 30.5q66 0 108.5 -30.5t42.5 -83.5q0 -51 -49 -85q65 -33 65 -102zM793 314q0 13 -14.5 21t-34.5 8q-19 0 -33.5 -8t-14.5 -21t15 -25.5t34 -18.5q48 13 48 44zM811 125q0 33 -67 56
q-64 -20 -64 -56q0 -21 18.5 -31.5t45.5 -10.5q29 0 48 10.5t19 31.5z" />
    <glyph glyph-name="seveneighths" unicode="&#x215e;" horiz-adv-x="960" 
d="M204 24l394 673h83v-39l-394 -672h-83v38zM111 296l168 292h-190v89h312v-69l-201 -355h-89v43zM884 125q0 -62 -48 -95.5t-119 -33.5q-72 0 -119 33t-47 96q0 64 67 103q-49 29 -49 84q0 53 42 83.5t106 30.5q66 0 108.5 -30.5t42.5 -83.5q0 -51 -49 -85q65 -33 65 -102
zM766 314q0 13 -14.5 21t-34.5 8q-19 0 -33.5 -8t-14.5 -21t15 -25.5t34 -18.5q48 13 48 44zM784 125q0 33 -67 56q-64 -20 -64 -56q0 -21 18.5 -31.5t45.5 -10.5q29 0 48 10.5t19 31.5z" />
    <glyph glyph-name="uni215F" unicode="&#x215f;" horiz-adv-x="469" 
d="M144 24l394 673h83v-39l-394 -672h-83v38zM47 528v85l89 64h91v-424h-100v304l-42 -29h-38z" />
    <glyph glyph-name="partialdiff" unicode="&#x2202;" horiz-adv-x="572" 
d="M381 201v68q0 95 -96 95q-92 0 -92 -95v-68q0 -94 93 -94q95 0 95 94zM279 478q62 0 101 -27q-1 81 -37 118.5t-109 37.5q-39 0 -53 -1v109q26 3 60 3q142 0 205 -79t63 -248v-194q0 -103 -63 -153t-161 -50q-97 0 -158 48t-61 148v90q0 103 57 150.5t156 47.5z" />
    <glyph glyph-name="gradient" unicode="&#x2207;" horiz-adv-x="611" 
d="M25 641v38h559v-39l-204 -640h-151zM306 185l34 126l74 248h-221l77 -264l30 -110h6z" />
    <glyph glyph-name="product" unicode="&#x220f;" horiz-adv-x="629" 
d="M563 -124h-131v681h-234v-681h-132v802h497v-802z" />
    <glyph glyph-name="summation" unicode="&#x2211;" horiz-adv-x="557" 
d="M340 307v-34l-137 -273h317v-120h-478v106l157 304l-151 279v110h464v-119h-306z" />
    <glyph glyph-name="minus" unicode="&#x2212;" horiz-adv-x="596" 
d="M66 249v112h464v-112h-464z" />
    <glyph glyph-name="radical" unicode="&#x221a;" horiz-adv-x="644" 
d="M393 -118h-116l-125 396l-93 -30l-32 91l193 64l114 -361l160 660h111z" />
    <glyph glyph-name="infinity" unicode="&#x221e;" horiz-adv-x="731" 
d="M183 347q-28 0 -46.5 -19t-18.5 -49t19.5 -49.5t47.5 -19.5q19 0 51.5 22t57.5 47q-25 27 -57 47.5t-54 20.5zM542 347q-24 0 -58 -21t-58 -47q22 -25 57.5 -47t56.5 -22q29 0 49 19.5t20 49.5t-19 49t-48 19zM543 107q-73 0 -179 104q-49 -49 -91 -76.5t-88 -27.5
q-68 0 -120 48.5t-52 123.5q0 76 49.5 124t120.5 48q48 0 88 -26t90 -77q50 50 93 76.5t92 26.5q70 0 120.5 -48t50.5 -124q0 -75 -52.5 -123.5t-121.5 -48.5z" />
    <glyph glyph-name="logicaland" unicode="&#x2227;" horiz-adv-x="538" 
d="M333 0h-128l-166 457v41h113l98 -283l22 -56l25 79l87 260h114v-41z" />
    <glyph glyph-name="logicalor" unicode="&#x2228;" horiz-adv-x="538" 
d="M205 498h128l165 -457v-41h-114l-57 167l-56 169l-20 -55l-99 -281h-113v41z" />
    <glyph glyph-name="intersection" unicode="&#x2229;" horiz-adv-x="538" 
d="M171 275v-275h-120v305q0 57 19.5 99.5t52.5 66t69.5 34.5t75.5 11q37 0 73.5 -11.5t70.5 -35t54.5 -66t20.5 -98.5v-305h-123v275q0 65 -27 96t-69 31t-69.5 -31t-27.5 -96z" />
    <glyph glyph-name="union" unicode="&#x222a;" horiz-adv-x="538" 
d="M171 516v-275q0 -65 27.5 -96t69.5 -31t69 31t27 96v275h123v-305q0 -56 -20.5 -98.5t-54.5 -66t-70.5 -35t-73.5 -11.5q-86 0 -151.5 51.5t-65.5 159.5v305h120z" />
    <glyph glyph-name="integral" unicode="&#x222b;" horiz-adv-x="425" 
d="M332 758q44 0 76 -8l-17 -99q-21 7 -47 7q-27 0 -40 -22t-18 -68q-9 -98 -14 -260q-6 -225 -23 -325q-26 -154 -174 -154q-35 0 -65 8l11 103q25 -5 51 -5q35 0 50 21.5t21 62.5q5 34 8 59.5t5.5 57t3 47t2.5 63t3 71.5q8 227 17 285q13 75 48 115.5t102 40.5z" />
    <glyph glyph-name="approxequal" unicode="&#x2248;" horiz-adv-x="596" 
d="M192 501q39 0 105.5 -30t102.5 -30q33 0 71 54l86 -67q-35 -46 -71 -72t-85 -26q-41 0 -106.5 31t-101.5 31q-34 0 -74 -57q-14 10 -41 31t-40 31q38 51 72.5 77.5t81.5 26.5zM192 288q39 0 105.5 -30t102.5 -30q32 0 71 55q80 -63 86 -68q-35 -46 -71 -72t-85 -26
q-41 0 -106.5 31t-101.5 31t-74 -57l-81 63q25 33 43 51.5t48 35t63 16.5z" />
    <glyph glyph-name="notequal" unicode="&#x2260;" horiz-adv-x="596" 
d="M66 366v112h305l96 132l68 -51l-60 -81h55v-112h-136l-90 -122h226v-112h-307l-96 -131l-66 52q10 13 29 39.5t29 39.5h-53v112h134q18 23 50.5 68t38.5 54h-223z" />
    <glyph glyph-name="lessequal" unicode="&#x2264;" horiz-adv-x="596" 
d="M478 143l-413 197v103l410 195l46 -108l-297 -138l302 -139zM66 0v117h464v-117h-464z" />
    <glyph glyph-name="greaterequal" unicode="&#x2265;" horiz-adv-x="596" 
d="M530 341l-413 -197l-48 110l302 139l-297 138l46 108l410 -195v-103zM529 117v-117h-464v117h464z" />
    <glyph glyph-name="zero.text" unicode="&#xe000;" horiz-adv-x="556" 
d="M272 -6q-107 0 -171 59t-64 167v235q0 113 62 171.5t173 58.5q114 0 177 -58t63 -172v-235q0 -111 -66 -168.5t-174 -57.5zM382 444q0 122 -108 122q-105 0 -105 -122v-210q0 -121 105 -121q108 0 108 121v210z" />
    <glyph glyph-name="one.text" unicode="&#xe001;" horiz-adv-x="444" 
d="M69 458v121l128 99h126v-678h-130v520q-28 -20 -82 -62h-42z" />
    <glyph glyph-name="two.text" unicode="&#xe002;" horiz-adv-x="592" 
d="M297 683q101 0 165.5 -46t64.5 -147q0 -48 -22 -88.5t-56 -67.5t-74.5 -54t-77 -48.5t-64.5 -51t-35 -61.5h339v-119h-481v65q0 57 16 102.5t51 82t66 59.5t85 56q30 18 43 27t34.5 26t30 33t8.5 35q0 31 -23 54t-76 23q-35 0 -67.5 -17t-47.5 -58l-117 58
q38 76 97 106.5t141 30.5z" />
    <glyph glyph-name="three.text" unicode="&#xe003;" horiz-adv-x="569" 
d="M266 -6q-95 0 -156 30t-96 115q17 9 57.5 28t61.5 30q33 -85 129 -85q62 0 92 28t30 86q0 52 -34.5 81t-90.5 29h-99v93l146 128v1h-246v120h440v-114q-102 -88 -153 -131v-2q85 -12 126.5 -66.5t41.5 -140.5q0 -116 -70.5 -173t-178.5 -57z" />
    <glyph glyph-name="four.text" unicode="&#xe004;" horiz-adv-x="574" 
d="M183 262h141v147h130v-147h85v-120h-85v-142h-130v142h-291v101l213 436h121v-40z" />
    <glyph glyph-name="five.text" unicode="&#xe005;" horiz-adv-x="577" 
d="M533 228q0 -119 -70 -176.5t-180 -57.5q-94 0 -155 30t-96 115l119 58q32 -85 129 -85q122 0 122 115t-132 115q-61 0 -121 -21l-74 58l32 300h406v-122h-287l-11 -105q27 6 62 6q256 0 256 -230z" />
    <glyph glyph-name="six.text" unicode="&#xe006;" horiz-adv-x="562" 
d="M246 440l2 -3q20 11 55 11q107 0 165 -61t58 -161q0 -105 -66.5 -168t-179.5 -63q-119 0 -182 64t-63 176q0 66 21 128.5t62.5 121.5t77 99t90.5 95h140v-41q-116 -107 -180 -198zM278 336q-52 0 -81.5 -32.5t-29.5 -76.5q0 -115 112 -115q117 0 117 114q0 110 -118 110z
" />
    <glyph glyph-name="seven.text" unicode="&#xe007;" horiz-adv-x="525" 
d="M66 52l267 506h-303v121h457v-98q-48 -92 -305 -581h-116v52z" />
    <glyph glyph-name="eight.text" unicode="&#xe008;" horiz-adv-x="570" 
d="M529 196q0 -96 -70 -149t-174 -53q-106 0 -175.5 51.5t-69.5 150.5q0 56 33 100.5t87 67.5v3q-94 42 -94 141q0 81 62 128t157 47q96 0 157.5 -47t61.5 -128q0 -46 -23.5 -83.5t-65.5 -57.5v-3q114 -50 114 -168zM373 510q0 28 -25.5 43.5t-62.5 15.5t-62.5 -15.5
t-25.5 -43.5q0 -26 27.5 -52.5t61.5 -36.5q35 9 61 33.5t26 55.5zM400 195q0 39 -29 63t-87 45q-113 -34 -113 -108q0 -41 32.5 -62.5t81.5 -21.5t82 21.5t33 62.5z" />
    <glyph glyph-name="nine.text" unicode="&#xe009;" horiz-adv-x="562" 
d="M316 236l-2 3q-18 -11 -52 -11q-109 0 -168 60.5t-59 161.5q0 105 66.5 168t180.5 63q118 0 181 -64t63 -176q0 -54 -16 -107.5t-38 -95t-60 -89t-66 -77t-71 -72.5h-139v40q123 115 180 196zM284 340q52 0 81.5 31.5t29.5 75.5q0 117 -112 117q-117 0 -117 -116
q0 -108 118 -108z" />
    <glyph glyph-name="numbersign.text" unicode="&#xe00a;" 
d="M72 0l32 196h-82v95h98q2 19 8 56t9 55h-90v96h106l30 187h109l-31 -187h89l31 187h108l-31 -187h90v-96h-105l-18 -111h98v-95h-113l-32 -196h-108l32 196h-90l-32 -196h-108zM317 291l18 111h-90q-3 -18 -9 -55t-8 -56h89z" />
    <glyph glyph-name="dollar.text" unicode="&#xe00b;" horiz-adv-x="574" 
d="M256 -95v97q-172 12 -227 153l115 50q31 -76 112 -86v170q-35 9 -58 16t-53 21.5t-47 32.5t-29.5 47.5t-12.5 67.5q0 84 52.5 137t147.5 59v87h59v-87q141 -12 205 -124l-107 -70q-38 64 -98 77v-159q38 -10 61.5 -17t56.5 -23t51.5 -35t32.5 -51t14 -73
q0 -91 -61.5 -139t-154.5 -54v-97h-59zM404 194q0 30 -23 48t-66 31v-154q38 5 63.5 23.5t25.5 51.5zM180 479q0 -45 76 -69v144q-76 -11 -76 -75z" />
    <glyph glyph-name="euro.text" unicode="&#xe00c;" horiz-adv-x="553" 
d="M42 325h47v44h-47v69h47v21q0 113 62.5 169.5t171.5 56.5q74 0 125 -21t87 -79l-103 -71q-32 52 -102 52q-109 0 -109 -114v-14h190v-69h-190v-44h190v-69h-190v-31q0 -112 107 -112q75 0 110 56l104 -75q-65 -100 -219 -100q-106 0 -170 53.5t-64 162.5v46h-47v69z" />
    <glyph glyph-name="florin.text" unicode="&#xe00d;" horiz-adv-x="503" 
d="M-12 -117l11 113q5 0 21.5 -1.5t29.5 -1.5q46 0 66.5 16t28.5 55l40 230h-104v108h125q1 7 8.5 46.5t8.5 46.5q19 98 70 143.5t148 45.5q13 0 65 -4l-8 -112q-4 0 -22 1t-32 1q-44 0 -66 -16.5t-29 -55.5l-19 -96h123v-108h-144l-32 -196q-19 -114 -69 -168t-147 -54
q-32 0 -73 7z" />
    <glyph glyph-name="sterling.text" unicode="&#xe00e;" horiz-adv-x="547" 
d="M39 292v89h56l-9 45q-5 21 -5 55q0 87 65 144.5t164 57.5q82 0 139 -30t92 -108q-22 -11 -62.5 -30t-53.5 -26q-28 74 -110 74q-48 0 -74 -25t-26 -66q0 -25 17 -91h175v-89h-156q3 -27 3 -56q0 -72 -21 -122h289v-114h-485v114h54q25 52 25 114q0 28 -6 64h-71z" />
    <glyph glyph-name="cent.text" unicode="&#xe00f;" horiz-adv-x="498" 
d="M472 136q-45 -133 -191 -141v-112h-52v113q-181 14 -181 196v115q0 93 48.5 140.5t132.5 55.5v119h52v-118q140 -6 183 -136q-78 -34 -117 -50q-13 58 -66 70v-279q55 9 72 73q104 -40 119 -46zM176 200q0 -72 53 -88v273q-53 -15 -53 -90v-95z" />
    <glyph glyph-name="yen.text" unicode="&#xe010;" horiz-adv-x="601" 
d="M295 390h7l53 121l87 168h132v-40l-174 -321h129v-70h-163v-59h163v-69h-163v-120h-132v120h-161v69h161v56l-1 3h-160v70h122l-171 320v41h132l84 -167z" />
    <glyph glyph-name="zero.taboldstyle" unicode="&#xe024;" 
d="M290 -6q-107 0 -171 57t-64 163v64q0 109 64.5 168t170.5 59q110 0 175 -58.5t65 -168.5v-64q0 -108 -64.5 -164t-175.5 -56zM400 223v51q0 115 -109 115q-104 0 -104 -115v-53q0 -111 104 -111q109 0 109 113z" />
    <glyph glyph-name="one.taboldstyle" unicode="&#xe025;" 
d="M91 118h140v222l-82 -62h-42v121l128 99h126v-380h134v-118h-404v118z" />
    <glyph glyph-name="two.taboldstyle" unicode="&#xe026;" 
d="M302 504q93 0 155 -40.5t62 -125.5q0 -92 -107 -146q-12 -6 -50.5 -19.5t-70 -27.5t-42.5 -27h282v-118h-475v61q0 69 53.5 112t154.5 78q60 21 90.5 39t30.5 43q0 57 -91 57q-36 0 -70.5 -18t-51.5 -59q-76 40 -112 58q68 133 242 133z" />
    <glyph glyph-name="three.taboldstyle" unicode="&#xe027;" 
d="M266 -148q-91 0 -150.5 29.5t-95.5 110.5l119 57q32 -80 123 -80q117 0 117 103q0 49 -32.5 75.5t-86.5 26.5h-98v89q13 11 62 53t76 65h-234v117h430v-109l-148 -123q82 -12 122 -64t40 -132q0 -108 -69.5 -163t-174.5 -55z" />
    <glyph glyph-name="four.taboldstyle" unicode="&#xe028;" 
d="M193 117h135v138h130v-138h84v-117h-84v-141h-130v141h-285v99l208 399h121v-40q-28 -54 -179 -341z" />
    <glyph glyph-name="five.taboldstyle" unicode="&#xe029;" 
d="M534 73q0 -111 -69 -166.5t-175 -55.5q-90 0 -149 30t-97 110l118 58q32 -80 124 -80q118 0 118 103q0 107 -128 107q-58 0 -116 -20l-74 56l31 283h398v-117h-280l-10 -96q23 5 62 5q247 0 247 -217z" />
    <glyph glyph-name="six.taboldstyle" unicode="&#xe02a;" 
d="M297 641h139v-41q-109 -96 -172 -180l3 -4q13 9 47 9q105 0 161.5 -57.5t56.5 -152.5q0 -100 -65 -160t-175 -60q-117 0 -178 60.5t-61 167.5q0 62 20 121t60 114t75 93t89 90zM290 314q-49 0 -77 -29t-28 -70q0 -104 106 -104q111 0 111 103q0 100 -112 100z" />
    <glyph glyph-name="seven.taboldstyle" unicode="&#xe02b;" 
d="M102 -92l258 473h-291v117h447v-95l-297 -546h-117v51z" />
    <glyph glyph-name="eight.taboldstyle" unicode="&#xe02c;" 
d="M530 187q0 -92 -68 -142t-170 -50q-103 0 -171 49t-68 143q0 51 30.5 93t80.5 67q-85 40 -85 132q0 77 60 122t153 45q94 0 154 -44.5t60 -122.5q0 -42 -22 -77.5t-61 -55.5q107 -51 107 -159zM375 481q0 25 -24.5 39t-58.5 14q-35 0 -59 -14t-24 -39q0 -23 26 -46.5
t58 -33.5q33 9 57.5 31.5t24.5 48.5zM401 186q0 62 -110 98q-107 -31 -107 -98q0 -37 30.5 -56.5t77.5 -19.5q46 0 77.5 19.5t31.5 56.5z" />
    <glyph glyph-name="nine.taboldstyle" unicode="&#xe02d;" 
d="M318 76l-2 2q-24 -4 -42 -4q-105 0 -163 57.5t-58 152.5q0 101 65 161t176 60q116 0 177 -61.5t61 -167.5q0 -50 -15.5 -100.5t-36 -88t-58.5 -84t-63.5 -73.5t-70.5 -71h-138v42q97 84 168 175zM296 184q49 0 77 28.5t28 69.5q0 107 -106 107q-111 0 -111 -107
q0 -98 112 -98z" />
    <glyph glyph-name="numbersign.taboldstyle" unicode="&#xe02e;" 
d="M98 0l30 165h-73v87h87l15 86h-80v88h95l27 157h103l-28 -157h74l27 157h103l-28 -157h80v-88h-94l-15 -86h87v-87h-102l-28 -165h-104l29 165h-73q-18 -110 -28 -165h-104zM318 252l15 86h-73l-15 -86h73z" />
    <glyph glyph-name="dollar.taboldstyle" unicode="&#xe02f;" horiz-adv-x="596" 
d="M277 -82v84q-160 12 -214 139l116 46q16 -36 40 -52.5t58 -21.5v128q-41 9 -67.5 18t-57.5 27t-46.5 47t-15.5 69q0 74 49 121t138 52v81h56v-82q125 -10 187 -111l-102 -69q-37 56 -85 68v-119q34 -8 56.5 -15t52.5 -21t47.5 -30.5t30.5 -44t13 -62.5q0 -79 -57 -121
t-143 -47v-84h-56zM404 169q0 38 -71 58v-113q71 10 71 55zM217 407q0 -31 60 -50v107q-60 -9 -60 -57z" />
    <glyph glyph-name="euro.taboldstyle" unicode="&#xe030;" 
d="M85 278h39v36h-39v60h39v16q0 92 57.5 144t152.5 52q65 0 111 -19.5t81 -73.5l-99 -66q-31 46 -84 46q-43 0 -66 -24.5t-23 -65.5v-9h162v-60h-162v-36h162v-61h-162v-17q0 -41 21.5 -66.5t66.5 -25.5q58 0 91 50q12 -8 103 -67q-66 -97 -202 -97q-93 0 -151.5 49
t-58.5 144v30h-39v61z" />
    <glyph glyph-name="florin.taboldstyle" unicode="&#xe031;" horiz-adv-x="596" 
d="M42 -121l14 113l18 -1q17 -1 34 -1q42 0 59 15.5t23 54.5l27 177h-97v104h113l10 71q14 98 68 143.5t149 45.5q30 0 62 -3q-2 -19 -6 -56.5t-7 -56.5l-18 1q-18 1 -35 1q-24 0 -40.5 -7.5t-26 -19t-15 -30t-8 -35.5t-4.5 -41q0 -4 -0.5 -7t-0.5 -6h113v-104h-129
l-25 -172q-15 -100 -64.5 -145t-139.5 -45q-43 0 -74 4z" />
    <glyph glyph-name="sterling.taboldstyle" unicode="&#xe032;" 
d="M69 245v87h47q-11 46 -11 76q0 78 56.5 128t149.5 50q72 0 122.5 -25t86.5 -94q-18 -10 -53.5 -29.5t-53.5 -29.5q-25 66 -98 66q-38 0 -59 -20t-21 -52q0 -16 13 -70h157v-87h-137q2 -15 2 -46q0 -54 -16 -91h252v-108h-440v108h50q21 40 21 88q0 15 -4 49h-64z" />
    <glyph glyph-name="cent.taboldstyle" unicode="&#xe033;" 
d="M316 -96h-43v115q-77 6 -122.5 49t-45.5 128q0 15 -0.5 44.5t-0.5 43.5q0 85 46.5 128.5t122.5 49.5v104h43v-104q115 -7 159 -108l-107 -54q-16 41 -52 50v-220q41 6 58 56l109 -53q-48 -109 -167 -115v-114zM228 204q0 -59 45 -72v217q-45 -13 -45 -76v-69z" />
    <glyph glyph-name="yen.taboldstyle" unicode="&#xe034;" 
d="M105 266h95l-153 271v40h123l66 -128q10 -22 29.5 -63.5t25.5 -54.5l55 117q39 77 68 129h123v-39l-153 -272h101v-60h-129v-36h129v-60h-129q0 -19 0.5 -55.5t0.5 -54.5h-128v110h-124v60h124v36h-124v60z" />
    <glyph glyph-name="zero.textoldstyle" unicode="&#xe048;" 
d="M290 -6q-107 0 -171 57t-64 163v64q0 109 64.5 168t170.5 59q110 0 175 -58.5t65 -168.5v-64q0 -108 -64.5 -164t-175.5 -56zM400 223v51q0 115 -109 115q-104 0 -104 -115v-53q0 -111 104 -111q109 0 109 113z" />
    <glyph glyph-name="one.textoldstyle" unicode="&#xe049;" horiz-adv-x="492" 
d="M60 118h140v222l-82 -62h-42v121l128 99h126v-380h134v-118h-404v118z" />
    <glyph glyph-name="two.textoldstyle" unicode="&#xe04a;" 
d="M292 504q93 0 155 -40.5t62 -125.5q0 -92 -107 -146q-12 -6 -50.5 -19.5t-70 -27.5t-42.5 -27h282v-118h-475v61q0 69 53.5 112t154.5 78q60 21 90.5 39t30.5 43q0 57 -91 57q-36 0 -70.5 -18t-51.5 -59q-76 40 -112 58q68 133 242 133z" />
    <glyph glyph-name="three.textoldstyle" unicode="&#xe04b;" horiz-adv-x="564" 
d="M251 -148q-91 0 -150.5 29.5t-95.5 110.5l119 57q32 -80 123 -80q117 0 117 103q0 49 -32.5 75.5t-86.5 26.5h-98v89q13 11 62 53t76 65h-234v117h430v-109l-148 -123q82 -12 122 -64t40 -132q0 -108 -69.5 -163t-174.5 -55z" />
    <glyph glyph-name="four.textoldstyle" unicode="&#xe04c;" horiz-adv-x="583" 
d="M193 117h135v138h130v-138h84v-117h-84v-141h-130v141h-285v99l208 399h121v-40q-28 -54 -179 -341z" />
    <glyph glyph-name="five.textoldstyle" unicode="&#xe04d;" 
d="M534 73q0 -111 -69 -166.5t-175 -55.5q-90 0 -149 30t-97 110l118 58q32 -80 124 -80q118 0 118 103q0 107 -128 107q-58 0 -116 -20l-74 56l31 283h398v-117h-280l-10 -96q23 5 62 5q247 0 247 -217z" />
    <glyph glyph-name="six.textoldstyle" unicode="&#xe04e;" 
d="M297 641h139v-41q-109 -96 -172 -180l3 -4q13 9 47 9q105 0 161.5 -57.5t56.5 -152.5q0 -100 -65 -160t-175 -60q-117 0 -178 60.5t-61 167.5q0 62 20 121t60 114t75 93t89 90zM290 314q-49 0 -77 -29t-28 -70q0 -104 106 -104q111 0 111 103q0 100 -112 100z" />
    <glyph glyph-name="seven.textoldstyle" unicode="&#xe04f;" horiz-adv-x="501" 
d="M57 -92l258 473h-291v117h447v-95l-297 -546h-117v51z" />
    <glyph glyph-name="eight.textoldstyle" unicode="&#xe050;" 
d="M530 187q0 -92 -68 -142t-170 -50q-103 0 -171 49t-68 143q0 51 30.5 93t80.5 67q-85 40 -85 132q0 77 60 122t153 45q94 0 154 -44.5t60 -122.5q0 -42 -22 -77.5t-61 -55.5q107 -51 107 -159zM375 481q0 25 -24.5 39t-58.5 14q-35 0 -59 -14t-24 -39q0 -23 26 -46.5
t58 -33.5q33 9 57.5 31.5t24.5 48.5zM401 186q0 62 -110 98q-107 -31 -107 -98q0 -37 30.5 -56.5t77.5 -19.5q46 0 77.5 19.5t31.5 56.5z" />
    <glyph glyph-name="nine.textoldstyle" unicode="&#xe051;" 
d="M318 76l-2 2q-24 -4 -42 -4q-105 0 -163 57.5t-58 152.5q0 101 65 161t176 60q116 0 177 -61.5t61 -167.5q0 -50 -15.5 -100.5t-36 -88t-58.5 -84t-63.5 -73.5t-70.5 -71h-138v42q97 84 168 175zM296 184q49 0 77 28.5t28 69.5q0 107 -106 107q-111 0 -111 -107
q0 -98 112 -98z" />
    <glyph glyph-name="numbersign.textoldstyle" unicode="&#xe052;" 
d="M98 0l30 165h-73v87h87l15 86h-80v88h95l27 157h103l-28 -157h74l27 157h103l-28 -157h80v-88h-94l-15 -86h87v-87h-102l-28 -165h-104l29 165h-73q-18 -110 -28 -165h-104zM318 252l15 86h-73l-15 -86h73z" />
    <glyph glyph-name="dollar.textoldstyle" unicode="&#xe053;" horiz-adv-x="556" 
d="M251 -82v84q-160 12 -214 139l116 46q16 -36 40 -52.5t58 -21.5v128q-41 9 -67.5 18t-57.5 27t-46.5 47t-15.5 69q0 74 49 121t138 52v81h56v-82q125 -10 187 -111l-102 -69q-37 56 -85 68v-119q34 -8 56.5 -15t52.5 -21t47.5 -30.5t30.5 -44t13 -62.5q0 -79 -57 -121
t-143 -47v-84h-56zM378 169q0 38 -71 58v-113q71 10 71 55zM191 407q0 -31 60 -50v107q-60 -9 -60 -57z" />
    <glyph glyph-name="euro.textoldstyle" unicode="&#xe054;" horiz-adv-x="537" 
d="M57 278h39v36h-39v60h39v16q0 92 57.5 144t152.5 52q65 0 111 -19.5t81 -73.5l-99 -66q-31 46 -84 46q-43 0 -66 -24.5t-23 -65.5v-9h162v-60h-162v-36h162v-61h-162v-17q0 -41 21.5 -66.5t66.5 -25.5q58 0 91 50q12 -8 103 -67q-66 -97 -201 -97q-94 0 -152.5 49
t-58.5 144v30h-39v61z" />
    <glyph glyph-name="florin.textoldstyle" unicode="&#xe055;" horiz-adv-x="488" 
d="M-9 -121l13 113l18 -1q17 -1 34 -1q43 0 59.5 15.5t22.5 55.5v-1l27 177h-97v104h113l13 85q11 89 67.5 132t146.5 43q30 0 62 -3q-3 -19 -6.5 -56.5t-6.5 -56.5l-18 1q-18 1 -35 1q-41 0 -59.5 -16.5t-23.5 -53.5l-12 -76h113v-104h-129l-25 -172q-15 -100 -64.5 -145
t-139.5 -45q-43 0 -73 4z" />
    <glyph glyph-name="sterling.textoldstyle" unicode="&#xe056;" horiz-adv-x="520" 
d="M42 245v87h47q-11 46 -11 76q0 77 58 127.5t148 50.5q73 0 124 -25t88 -96l-110 -57q-25 66 -98 66q-38 0 -59 -20t-21 -52q0 -16 13 -70h157v-87h-137q2 -15 2 -46q0 -54 -16 -91h252v-108h-440v108h50q21 40 21 88q0 15 -4 49h-64z" />
    <glyph glyph-name="cent.textoldstyle" unicode="&#xe057;" horiz-adv-x="486" 
d="M269 -96h-43v115q-78 6 -123.5 49t-45.5 128v88q0 85 46.5 128.5t122.5 49.5v104h43v-104q115 -7 159 -108l-108 -54q-15 41 -51 49v-219q42 8 57 56l110 -53q-47 -108 -167 -115v-114zM180 204q0 -59 46 -72v217q-46 -14 -46 -76v-69z" />
    <glyph glyph-name="yen.textoldstyle" unicode="&#xe058;" horiz-adv-x="551" 
d="M85 266h95l-153 271v40h123l66 -128q10 -22 29.5 -63.5t25.5 -54.5l55 117q39 77 68 129h123v-39l-153 -272h101v-60h-129v-36h129v-60h-129q0 -19 0.5 -55.5t0.5 -54.5h-128v110h-124v60h124v36h-124v60z" />
    <glyph glyph-name="percent.text" unicode="&#xe059;" horiz-adv-x="818" 
d="M777 233v-110q0 -60 -40.5 -93t-103.5 -33t-102 33t-39 93v110q0 62 38 95.5t104 33.5t104.5 -33.5t38.5 -95.5zM322 453v-111q0 -60 -40 -93t-104 -33q-63 0 -102 33.5t-39 92.5v111q0 62 38 95.5t104 33.5t104.5 -33.5t38.5 -95.5zM191 27l342 567h85v-40
q-42 -68 -160 -263.5t-183 -301.5h-84v38zM223 347v100q0 48 -44 48q-41 0 -41 -48v-100q0 -45 41 -45q44 0 44 45zM677 127v101q0 47 -43 47q-42 0 -42 -47v-101q0 -44 42 -44q43 0 43 44z" />
    <glyph glyph-name="perthousand.text" unicode="&#xe05a;" horiz-adv-x="1138" 
d="M776 233v-110q0 -60 -40 -93t-104 -33q-63 0 -101.5 33t-38.5 93v110q0 62 37.5 95.5t103.5 33.5q67 0 105 -33.5t38 -95.5zM322 453v-111q0 -60 -40 -93t-104 -33q-63 0 -102 33.5t-39 92.5v111q0 62 38 95.5t104 33.5t104.5 -33.5t38.5 -95.5zM191 27l342 567h84v-40
l-342 -565h-84v38zM223 347v100q0 48 -44 48q-42 0 -42 -48v-100q0 -45 42 -45q44 0 44 45zM677 127v101q0 47 -43 47q-42 0 -42 -47v-101q0 -44 42 -44q43 0 43 44zM1098 233v-110q0 -60 -40.5 -93t-103.5 -33t-102 33t-39 93v110q0 62 38 95.5t104 33.5t104.5 -33.5
t38.5 -95.5zM998 127v101q0 47 -43 47q-42 0 -42 -47v-101q0 -44 42 -44q43 0 43 44z" />
    <glyph glyph-name="asuperior" unicode="&#xe06c;" horiz-adv-x="371" 
d="M258 255q-10 12 -12 38q-36 -43 -100 -43q-125 0 -125 107q0 46 32.5 74.5t91.5 28.5h88q-2 47 -62 47q-36 0 -97 -7q0 14 -2 41.5t-3 41.5q67 7 112 7q152 0 152 -129v-90q0 -20 0.5 -58.5t0.5 -57.5h-76zM160 390q-43 0 -43 -30q0 -24 45 -24q64 0 71 54h-73z" />
    <glyph glyph-name="bsuperior" unicode="&#xe06d;" horiz-adv-x="377" 
d="M35 365v358h102v-163q28 30 80 30q131 0 131 -141v-59q0 -139 -135 -139q-61 0 -91 41q-1 -19 -15 -37h-75zM250 395v49q0 57 -55 57q-60 0 -60 -66v-33q0 -64 60 -64q55 0 55 57z" />
    <glyph glyph-name="dsuperior" unicode="&#xe06f;" horiz-adv-x="375" 
d="M238 723h101v-349l2 -119h-77q-12 15 -14 36q-30 -40 -95 -40q-129 0 -129 127v66q0 146 132 146q51 0 79 -29q0 27 0.5 81t0.5 81zM125 442v-46q0 -58 55 -58q60 0 60 65v35q0 63 -59 63q-56 0 -56 -59z" />
    <glyph glyph-name="esuperior" unicode="&#xe070;" horiz-adv-x="351" 
d="M294 341l9 -80q-58 -11 -114 -11q-165 0 -165 137v64q0 70 41 104t111 34q71 0 110.5 -31.5t39.5 -86.5q0 -89 -111 -89h-91q1 -28 14 -39.5t56 -11.5q41 0 100 10zM178 507q-50 0 -54 -45v-10h79q24 0 24 23q0 32 -49 32z" />
    <glyph glyph-name="hsuperior" unicode="&#xe073;" horiz-adv-x="376" 
d="M243 255v187q0 24 -12.5 40.5t-40.5 16.5q-60 0 -60 -74v-170h-100v468h100v-168q32 35 92 35q68 0 95 -34t27 -103v-198h-101z" />
    <glyph glyph-name="isuperior" unicode="&#xe074;" horiz-adv-x="197" 
d="M46 255v328h100v-328h-100zM38 676q0 23 18 39.5t42 16.5t41.5 -16.5t17.5 -39.5t-17.5 -39t-41.5 -16t-42 16t-18 39z" />
    <glyph glyph-name="lsuperior" unicode="&#xe077;" horiz-adv-x="203" 
d="M188 337l3 -83q-23 -4 -45 -4q-61 0 -85.5 24t-24.5 81v368h100v-357q0 -16 5 -23.5t20 -7.5q13 0 27 2z" />
    <glyph glyph-name="msuperior" unicode="&#xe078;" horiz-adv-x="587" 
d="M242 255v190q0 55 -49 55q-54 0 -54 -75v-170h-100v226q0 18 -1 52.5t-1 51.5h75q5 -9 10 -34q38 39 95 39q66 0 99 -46q37 46 102 46q70 0 100 -35t30 -106v-194h-102v190q0 55 -48 55q-25 0 -38.5 -17t-15.5 -43v-7q-1 -39 -1 -178h-101z" />
    <glyph glyph-name="osuperior" unicode="&#xe079;" horiz-adv-x="365" 
d="M179 250q-67 0 -111 34.5t-44 102.5v65q0 69 43 103.5t112 34.5t113.5 -34.5t44.5 -103.5v-65q0 -67 -45.5 -102t-112.5 -35zM238 395v49q0 27 -15 43.5t-44 16.5q-55 0 -55 -60v-49q0 -59 56 -59q28 0 43 16.5t15 42.5z" />
    <glyph glyph-name="rsuperior" unicode="&#xe07c;" horiz-adv-x="273" 
d="M40 255v212l-3 118q12 0 37.5 0.5t38.5 0.5q13 -27 14 -51q39 56 135 56l12 -98q-5 0 -13.5 0.5t-12.5 0.5q-64 0 -86 -15t-22 -52v-172h-100z" />
    <glyph glyph-name="ssuperior" unicode="&#xe07d;" horiz-adv-x="329" 
d="M210 354q0 13 -28.5 22.5t-62 17t-62 32.5t-28.5 64q0 47 36.5 73.5t94.5 26.5q91 0 137 -63l-67 -50q-19 33 -65 33q-38 0 -38 -21q0 -14 19 -22t45.5 -14t53.5 -15t46 -29.5t19 -51.5q0 -52 -40.5 -79.5t-100.5 -27.5q-58 0 -96.5 18t-58.5 66l78 38q17 -42 77 -42
q41 0 41 24z" />
    <glyph glyph-name="tsuperior" unicode="&#xe07e;" horiz-adv-x="297" 
d="M76 506h-67v79h70v96h97v-96h94v-79h-94v-115q0 -29 11 -41t45 -12q26 0 56 3l3 -87q-32 -3 -63 -3q-80 0 -116 28.5t-36 99.5v127z" />
    <glyph glyph-name="i.dot" unicode="&#xe096;" horiz-adv-x="285" 
d="M76 0v498h129v-498h-129zM64 644q0 32 24 54.5t55 22.5t54.5 -22.5t23.5 -54.5q0 -33 -23.5 -55.5t-54.5 -22.5q-32 0 -55.5 22.5t-23.5 55.5z" />
    <glyph glyph-name="slashedzero" unicode="&#xe23f;" horiz-adv-x="596" 
d="M295 -6q-107 0 -171 59t-64 167v235q0 113 62 171.5t173 58.5q114 0 177 -58t63 -172v-235q0 -111 -66 -168.5t-174 -57.5zM192 234v-2l197 288q-25 46 -92 46q-105 0 -105 -122v-210zM297 113q108 0 108 121v208l-197 -286q25 -43 89 -43z" />
    <glyph glyph-name="zero.numerator" unicode="&#xe2d0;" horiz-adv-x="394" 
d="M194 250q-73 0 -116.5 36.5t-43.5 105.5v141q0 72 42.5 110t117.5 38q78 0 121 -37.5t43 -110.5v-139q0 -70 -45.5 -107t-118.5 -37zM257 526q0 67 -62 67q-59 0 -59 -67v-124q0 -65 59 -65q62 0 62 65v124z" />
    <glyph glyph-name="one.numerator" unicode="&#xe2d1;" horiz-adv-x="327" 
d="M53 528v85l89 64h91v-424h-100v304l-42 -29h-38z" />
    <glyph glyph-name="two.numerator" unicode="&#xe2d2;" horiz-adv-x="394" 
d="M199 680q69 0 113 -29.5t44 -94.5q0 -34 -18 -61.5t-45 -46t-55.5 -34t-54 -34t-35.5 -38.5h215v-89h-329v48q0 37 10.5 65.5t34.5 50.5t44.5 36t56.5 34q71 38 71 66q0 15 -13 26.5t-43 11.5q-51 0 -70 -47l-91 42q50 94 165 94z" />
    <glyph glyph-name="three.numerator" unicode="&#xe2d3;" horiz-adv-x="394" 
d="M190 250q-63 0 -105 20.5t-68 79.5l91 41q22 -54 80 -54q70 0 70 61q0 28 -19.5 42.5t-52.5 14.5h-73v68l80 65h-143v89h299v-81l-88 -71q99 -20 99 -128q0 -76 -48 -111.5t-122 -35.5z" />
    <glyph glyph-name="four.numerator" unicode="&#xe2d4;" horiz-adv-x="394" 
d="M139 427h77v80h96v-80h55v-88h-55v-84h-97v84h-191v71l141 267h87v-34z" />
    <glyph glyph-name="five.numerator" unicode="&#xe2d5;" horiz-adv-x="394" 
d="M364 399q0 -76 -47.5 -112.5t-122.5 -36.5q-63 0 -105 20.5t-68 79.5l92 41q21 -54 79 -54q70 0 70 62q0 59 -76 59q-41 0 -79 -13l-56 40l22 192h279v-89h-187l-5 -45q10 2 30 2q174 0 174 -146z" />
    <glyph glyph-name="six.numerator" unicode="&#xe2d6;" horiz-adv-x="394" 
d="M299 641q-69 -59 -106 -105q3 0 10 0.5t11 0.5q71 0 110.5 -38.5t39.5 -100.5q0 -68 -45.5 -108t-122.5 -40q-82 0 -124.5 41t-42.5 112q0 76 44 139t124 135h102v-36zM194 455q-29 0 -45.5 -16.5t-16.5 -40.5q0 -61 63 -61q68 0 68 61q0 57 -69 57z" />
    <glyph glyph-name="seven.numerator" unicode="&#xe2d7;" horiz-adv-x="386" 
d="M68 296l168 292h-190v89h312v-69l-201 -355h-89v43z" />
    <glyph glyph-name="eight.numerator" unicode="&#xe2d8;" horiz-adv-x="394" 
d="M363 380q0 -62 -48 -96.5t-119 -34.5q-72 0 -119 33.5t-47 97.5q0 63 67 102q-49 29 -49 85q0 52 42 82.5t106 30.5q66 0 108.5 -30.5t42.5 -82.5t-49 -86q65 -33 65 -101zM245 568q0 13 -14.5 21.5t-34.5 8.5q-19 0 -33.5 -8t-14.5 -22q0 -13 15 -25.5t34 -18.5
q48 13 48 44zM263 379q0 33 -67 56q-64 -20 -64 -56q0 -21 18.5 -31.5t45.5 -10.5q29 0 48 10.5t19 31.5z" />
    <glyph glyph-name="nine.numerator" unicode="&#xe2d9;" horiz-adv-x="394" 
d="M203 392q-3 0 -8.5 -0.5t-7.5 -0.5q-73 0 -113.5 38.5t-40.5 101.5q0 68 45.5 107.5t122.5 39.5q81 0 123.5 -40.5t42.5 -111.5q0 -77 -44.5 -140t-123.5 -134h-101v37q61 51 105 103zM202 474q30 0 46.5 16t16.5 40q0 61 -64 61q-67 0 -67 -61q0 -56 68 -56z" />
    <glyph glyph-name="parenleft.numerator" unicode="&#xe2da;" horiz-adv-x="245" 
d="M142 464q0 -136 83 -231l-63 -43q-45 42 -84 115t-39 159q0 50 15 99t39.5 86t43 60t35.5 39l62 -40q-92 -107 -92 -244z" />
    <glyph glyph-name="parenright.numerator" unicode="&#xe2db;" horiz-adv-x="245" 
d="M94 190q-57 38 -64 43q83 94 83 231q0 134 -92 244l63 41q25 -25 50.5 -57.5t53.5 -97.5t28 -130q0 -86 -38.5 -158.5t-83.5 -115.5z" />
    <glyph glyph-name="comma.numerator" unicode="&#xe2dc;" horiz-adv-x="200" 
d="M73 160l-37 40q27 20 41 53q-37 11 -37 53q0 24 19 41t44 17q29 0 47 -20t18 -53q0 -39 -25.5 -73.5t-69.5 -57.5z" />
    <glyph glyph-name="period.numerator" unicode="&#xe2dd;" horiz-adv-x="204" 
d="M41 309q0 24 18.5 40.5t42.5 16.5q25 0 43 -16.5t18 -40.5t-16.5 -41.5t-43.5 -17.5q-26 0 -44 17t-18 42z" />
    <glyph glyph-name="zero.denominator" unicode="&#xe2f4;" horiz-adv-x="394" 
d="M194 -5q-73 0 -116.5 36.5t-43.5 105.5v141q0 72 42.5 110t117.5 38q78 0 121 -37.5t43 -110.5v-139q0 -70 -45.5 -107t-118.5 -37zM257 271q0 67 -62 67q-59 0 -59 -67v-124q0 -65 59 -65q62 0 62 65v124z" />
    <glyph glyph-name="one.denominator" unicode="&#xe2f5;" horiz-adv-x="327" 
d="M59 274v85l89 64h92v-423h-101v303l-42 -29h-38z" />
    <glyph glyph-name="two.denominator" unicode="&#xe2f6;" horiz-adv-x="394" 
d="M199 426q69 0 113 -29.5t44 -94.5q0 -34 -18 -61.5t-45 -46t-55.5 -34t-54 -34t-35.5 -38.5h215v-88h-329v47q0 68 36.5 107t109.5 79q54 31 65 48q6 9 6 18q0 15 -13 26.5t-43 11.5q-51 0 -70 -47l-91 42q50 94 165 94z" />
    <glyph glyph-name="three.denominator" unicode="&#xe2f7;" horiz-adv-x="394" 
d="M191 -4q-63 0 -105 20.5t-68 78.5l91 42q22 -54 80 -54q70 0 70 61q0 28 -19.5 42.5t-52.5 14.5h-73v68l80 65h-143v89h299v-82l-88 -70q99 -20 99 -128q0 -76 -48 -111.5t-122 -35.5z" />
    <glyph glyph-name="four.denominator" unicode="&#xe2f8;" horiz-adv-x="394" 
d="M139 172h77v80h96v-80h55v-88h-55v-84h-97v84h-191v71l141 268h87v-34z" />
    <glyph glyph-name="five.denominator" unicode="&#xe2f9;" horiz-adv-x="394" 
d="M364 145q0 -76 -47.5 -112.5t-122.5 -36.5q-63 0 -105 20.5t-68 78.5l92 42q21 -54 79 -54q70 0 70 62q0 59 -76 59q-41 0 -79 -13l-56 40l22 192h279v-90h-187l-5 -44q10 2 30 2q174 0 174 -146z" />
    <glyph glyph-name="six.denominator" unicode="&#xe2fa;" horiz-adv-x="394" 
d="M299 387q-69 -59 -106 -105q3 0 10 0.5t11 0.5q71 0 110.5 -38.5t39.5 -100.5q0 -68 -45.5 -107.5t-122.5 -39.5q-82 0 -124.5 40.5t-42.5 111.5q0 75 44.5 138.5t123.5 135.5h102v-36zM194 201q-29 0 -45.5 -17t-16.5 -40q0 -61 63 -61q68 0 68 61q0 57 -69 57z" />
    <glyph glyph-name="seven.denominator" unicode="&#xe2fb;" horiz-adv-x="386" 
d="M56 42l168 292h-190v89h312v-69l-201 -354h-89v42z" />
    <glyph glyph-name="eight.denominator" unicode="&#xe2fc;" horiz-adv-x="394" 
d="M363 125q0 -62 -47.5 -95.5t-119.5 -33.5t-119 33t-47 96q0 64 67 103q-49 29 -49 84q0 53 42 83.5t106 30.5q66 0 108.5 -30.5t42.5 -83.5q0 -51 -49 -85q65 -33 65 -102zM245 314q0 13 -14.5 21t-34.5 8q-19 0 -33.5 -8t-14.5 -21t15 -25.5t34 -18.5q48 13 48 44z
M263 125q0 33 -67 56q-64 -20 -64 -56q0 -21 18.5 -31.5t45.5 -10.5q29 0 48 10.5t19 31.5z" />
    <glyph glyph-name="nine.denominator" unicode="&#xe2fd;" horiz-adv-x="394" 
d="M200 138q-3 0 -8.5 -0.5t-8.5 -0.5q-73 0 -113.5 38.5t-40.5 101.5q0 68 45.5 107.5t122.5 39.5q81 0 124 -40.5t43 -111.5q0 -54 -27.5 -107.5t-59 -87t-81.5 -78.5h-101v36q56 47 105 103zM198 220q30 0 47 16t17 40q0 61 -64 61q-67 0 -67 -61q0 -56 67 -56z" />
    <glyph glyph-name="parenleft.denominator" unicode="&#xe2fe;" horiz-adv-x="245" 
d="M142 209q0 -135 83 -230l-63 -44q-46 43 -84.5 116t-38.5 158q0 50 15 99.5t39.5 86.5t43 60t35.5 39l62 -40q-92 -107 -92 -245z" />
    <glyph glyph-name="parenright.denominator" unicode="&#xe2ff;" horiz-adv-x="245" 
d="M86 -64l-64 43q84 95 84 230t-92 245l62 40q25 -23 50.5 -56t53.5 -98.5t28 -130.5q0 -85 -38.5 -158t-83.5 -115z" />
    <glyph glyph-name="comma.denominator" unicode="&#xe300;" horiz-adv-x="200" 
d="M71 -93l-37 40q27 20 41 53q-37 11 -37 53q0 24 19 41t44 17q29 0 47 -20t18 -53q0 -39 -25.5 -73.5t-69.5 -57.5z" />
    <glyph glyph-name="period.denominator" unicode="&#xe301;" horiz-adv-x="204" 
d="M41 55q0 24 18.5 40.5t42.5 16.5q25 0 43 -16.5t18 -40.5t-16.5 -41t-43.5 -17q-26 0 -44 16.5t-18 41.5z" />
    <glyph glyph-name="alpha.superior" unicode="&#xe318;" horiz-adv-x="376" 
d="M262 255q-10 13 -12 34q-37 -39 -91 -39q-134 0 -134 137v60q0 143 139 143q60 0 90 -34q3 14 12 29h74l-2 -109v-155q0 -22 2 -66h-78zM124 448v-54q0 -56 55 -56q60 0 60 65v36q0 64 -60 64q-55 0 -55 -55z" />
    <glyph glyph-name="eta.superior" unicode="&#xe31e;" horiz-adv-x="385" 
d="M248 255v189q0 55 -53 55q-59 0 -59 -74v-170h-100v220l-2 110h77q7 -14 10 -34q37 39 98 39q70 0 100 -35t30 -104v-196h-101z" />
    <glyph glyph-name="nu.superior" unicode="&#xe324;" horiz-adv-x="345" 
d="M220 255h-99q-14 38 -54 140t-61 158v32h95l45 -126l26 -78l24 79l21 59.5t23 65.5h95v-33z" />
    </font>
</defs>
</svg>
