<?xml version="1.0" standalone="no"?>
<!DOCTYPE svg PUBLIC "-//W3C//DTD SVG 1.1//EN" "http://www.w3.org/Graphics/SVG/1.1/DTD/svg11.dtd" >
<svg xmlns="http://www.w3.org/2000/svg" xmlns:xlink="http://www.w3.org/1999/xlink" version="1.1">
<metadata>
Created by FontForge 20170731 at Tue Feb 10 18:13:11 2015
 By Aleksey,,,
Copyright (c) 2015 Parachute, www.parachute.gr.  All rights reserved.
</metadata>
<defs>
<font id="PFDekkaMonoPro-Light" horiz-adv-x="600" >
  <font-face 
    font-family="PF Dekka Mono Pro Light"
    font-weight="300"
    font-stretch="normal"
    units-per-em="1000"
    panose-1="2 0 5 9 0 0 0 2 0 4"
    ascent="750"
    descent="-250"
    x-height="494"
    cap-height="678"
    bbox="-136 -251 608 929"
    underline-thickness="50"
    underline-position="-200"
    unicode-range="U+0020-F6D4"
  />
<missing-glyph 
d="M80 0v703h440v-703h-440zM300 390l148 269h-296zM325 351l151 -273v548zM152 44h296l-148 268zM123 625v-546l151 272z" />
    <glyph glyph-name=".notdef" 
d="M80 0v703h440v-703h-440zM300 390l148 269h-296zM325 351l151 -273v548zM152 44h296l-148 268zM123 625v-546l151 272z" />
    <glyph glyph-name=".null" horiz-adv-x="0" 
 />
    <glyph glyph-name="nonmarkingreturn" 
 />
    <glyph glyph-name="space" unicode=" " 
 />
    <glyph glyph-name="exclam" unicode="!" 
d="M336 686l-13 -510h-46l-12 510h71zM250 43q0 21 14 35.5t34 14.5q22 0 36.5 -14.5t14.5 -35.5t-14 -35.5t-35 -14.5t-35.5 14.5t-14.5 35.5z" />
    <glyph glyph-name="quotedbl" unicode="&#x22;" 
d="M202 444v240h57v-240h-57zM340 444v240h57v-240h-57z" />
    <glyph glyph-name="numbersign" unicode="#" 
d="M206 262h146l24 168h-145zM44 262h109l23 168h-106v47h113l31 208h54l-31 -208h146l30 208h54l-31 -208h104v-47h-110l-25 -168h109v-47h-116l-32 -215h-54l32 215h-145l-32 -215h-54l32 215h-101v47z" />
    <glyph glyph-name="dollar" unicode="$" 
d="M273 -79v87q-161 7 -204 115l52 25q36 -79 152 -85v259q-34 9 -54.5 16t-47.5 21t-42 30.5t-26 43t-11 60.5q0 75 47 122t134 52v85h42v-86q133 -6 183 -91l-47 -35q-43 67 -136 74v-245q48 -14 74 -24t60.5 -31t50.5 -53t16 -77q0 -86 -56.5 -128.5t-143.5 -47.5v-87
h-43zM457 180q0 56 -36.5 83.5t-105.5 47.5v-248q141 10 142 117zM150 493q0 -45 31.5 -69.5t91.5 -42.5v232q-123 -13 -123 -120z" />
    <glyph glyph-name="percent" unicode="%" 
d="M173 360q-61 0 -96 36t-35 94v55q0 62 34.5 97.5t96.5 35.5q65 0 99.5 -35.5t34.5 -97.5v-55q0 -59 -35.5 -94.5t-98.5 -35.5zM259 545q0 89 -86 89q-40 0 -61 -23.5t-21 -65.5v-54q0 -41 21 -65t61 -24q42 0 64 23.5t22 65.5v54zM425 -3q-61 0 -96 36t-35 95v55
q0 61 34.5 97t96.5 36q65 0 99.5 -35.5t34.5 -97.5v-55q0 -60 -35.5 -95.5t-98.5 -35.5zM511 183q0 89 -86 89q-40 0 -61 -23.5t-21 -65.5v-54q0 -41 21 -65t61 -24q42 0 64 23.5t22 65.5v54zM81 1l398 696h42v-17l-396 -694h-44v15z" />
    <glyph glyph-name="ampersand" unicode="&#x26;" 
d="M463 0q-8 10 -22.5 29.5t-20.5 27.5q-78 -58 -178 -58q-86 0 -138 48t-52 131q0 134 135 219q-48 80 -48 146q0 61 34 99.5t90 38.5t89 -34.5t33 -93.5q0 -53 -31 -91.5t-95 -79.5q51 -82 171 -242q48 55 69 122l51 -17q-29 -82 -87 -147q30 -36 65 -83v-15h-65zM263 627
q-33 0 -49 -24.5t-16 -59.5q0 -55 36 -116q94 61 94 126q0 33 -17.5 53.5t-47.5 20.5zM213 352q-102 -67 -102 -168q0 -65 35.5 -100t99.5 -35q74 0 142 51q-121 165 -175 252z" />
    <glyph glyph-name="quotesingle" unicode="'" 
d="M272 444v240h56v-240h-56z" />
    <glyph glyph-name="parenleft" unicode="(" 
d="M280 332q0 -243 128 -402l-38 -27q-54 59 -105.5 174.5t-51.5 254.5q0 80 21 158.5t52.5 136.5t56.5 93.5t46 57.5l35 -22q-144 -189 -144 -424z" />
    <glyph glyph-name="parenright" unicode=")" 
d="M319 339q0 238 -136 415l34 24q21 -23 45.5 -59t54.5 -93t49.5 -133t19.5 -154q0 -100 -33 -198t-66.5 -151.5t-65.5 -86.5l-38 26q136 167 136 410z" />
    <glyph glyph-name="asterisk" unicode="*" 
d="M342 480l84 -114l-41 -32l-85 118l-83 -118l-43 32l83 114l-134 45l16 50l135 -46v142h51v-142l135 46l16 -50z" />
    <glyph glyph-name="plus" unicode="+" 
d="M328 276v-186h-56v186h-186v56h186v186h56v-186h186v-56h-186z" />
    <glyph glyph-name="comma" unicode="," 
d="M357 24q0 -45 -26.5 -90t-68.5 -68l-20 29q24 16 40.5 46t17.5 54q-51 0 -51 47q0 21 15 36t37 15q25 0 40.5 -18.5t15.5 -50.5z" />
    <glyph glyph-name="hyphen" unicode="-" 
d="M194 277v60h211v-60h-211z" />
    <glyph glyph-name="period" unicode="." 
d="M250 43q0 21 14 35.5t34 14.5q22 0 36.5 -14.5t14.5 -35.5t-14 -35.5t-35 -14.5t-35.5 14.5t-14.5 35.5z" />
    <glyph glyph-name="slash" unicode="/" 
d="M127 -11l295 739h51v-23l-296 -735h-50v19z" />
    <glyph glyph-name="zero" unicode="0" 
d="M298 -4q-100 0 -158 58.5t-58 161.5v237q0 109 56 169.5t160 60.5q107 0 163 -60.5t56 -169.5v-237q0 -104 -59 -162t-160 -58zM455 452q0 46 -12 80l-270 -430q39 -52 125 -52q76 0 116.5 41.5t40.5 124.5v236zM144 216q0 -46 9 -72l268 431q-40 52 -123 52
q-77 0 -115.5 -45.5t-38.5 -129.5v-236z" />
    <glyph glyph-name="one" unicode="1" 
d="M145 55h143v550l-128 -87h-14v61l141 99h63v-623h140v-55h-345v55z" />
    <glyph glyph-name="two" unicode="2" 
d="M288 683q96 0 154.5 -42.5t58.5 -133.5q0 -44 -20 -82.5t-51.5 -66.5t-69.5 -54t-76.5 -51t-70 -51t-51.5 -60.5t-20 -73.5v-13h371v-55h-439v34q0 43 10 79t26 63t46.5 55t59.5 48.5t77 51.5q29 18 41 26.5t35.5 27.5t34.5 34t20.5 37.5t9.5 46.5q0 124 -147 124
q-110 0 -149 -74l-55 27q30 57 80.5 80t124.5 23z" />
    <glyph glyph-name="three" unicode="3" 
d="M283 -4q-157 0 -215 104l53 29q40 -79 159 -79q91 0 131 41.5t40 119.5q0 155 -162 155h-85v52l214 203h-316v57h393v-65l-199 -190q216 0 216 -213q0 -108 -62.5 -161t-166.5 -53z" />
    <glyph glyph-name="four" unicode="4" 
d="M131 215h249v162h61v-162h92v-56h-92v-159h-61v159h-312v58l224 461h53v-22z" />
    <glyph glyph-name="five" unicode="5" 
d="M282 -4q-158 0 -215 104l52 29q41 -79 162 -79q170 0 170 167q0 82 -43.5 120t-133.5 38q-69 0 -128 -22l-47 36l32 289h360v-57h-304l-24 -206q52 17 109 17q242 0 242 -215q0 -110 -61.5 -165.5t-170.5 -55.5z" />
    <glyph glyph-name="six" unicode="6" 
d="M171 390l2 -3q54 43 129 43q106 0 163 -58.5t57 -159.5q0 -100 -60.5 -158.5t-165.5 -58.5q-111 0 -168 58.5t-57 164.5q0 141 101 281q54 75 147 179h66v-17q-53 -57 -79.5 -86.5t-66 -82t-68.5 -102.5zM294 375q-74 0 -117.5 -45t-43.5 -115q0 -76 39 -121t123 -45
q85 0 125.5 45t40.5 120q0 78 -42.5 119.5t-124.5 41.5z" />
    <glyph glyph-name="seven" unicode="7" 
d="M130 19l303 603h-348v56h413v-57l-308 -621h-60v19z" />
    <glyph glyph-name="eight" unicode="8" 
d="M298 -6q-101 0 -163 47.5t-62 138.5q0 64 44 112.5t118 72.5v2q-133 50 -133 157q0 71 54 115t142 44q89 0 142.5 -43.5t53.5 -115.5q0 -108 -126 -157v-2q78 -25 116 -73.5t38 -111.5q0 -88 -62.5 -137t-161.5 -49zM298 629q-53 0 -94 -24.5t-41 -78.5q0 -45 39 -79.5
t96 -50.5q55 11 95 46t40 84q0 54 -42 78.5t-93 24.5zM298 334q-34 -11 -60.5 -23t-51.5 -30t-38.5 -44t-13.5 -58q0 -46 26.5 -77t61.5 -42.5t76 -11.5t76 11.5t61.5 42.5t26.5 77q0 60 -43.5 94t-120.5 61z" />
    <glyph glyph-name="nine" unicode="9" 
d="M208 18q53 57 78 84.5t64.5 79.5t71.5 106l-2 2q-47 -42 -130 -42q-106 0 -163 58.5t-57 159.5q0 100 61 158.5t166 58.5q110 0 167.5 -59t57.5 -164q0 -115 -66 -224t-183 -236h-65v18zM299 303q74 0 117.5 45t43.5 115q0 75 -39 120.5t-123 45.5q-85 0 -125 -45
t-40 -120q0 -161 166 -161z" />
    <glyph glyph-name="colon" unicode=":" 
d="M250 419q0 21 14.5 35.5t34.5 14.5q21 0 35.5 -14.5t14.5 -35.5t-13.5 -35.5t-35.5 -14.5q-21 0 -35.5 15t-14.5 35zM250 44q0 21 14.5 35.5t34.5 14.5q21 0 35.5 -14.5t14.5 -35.5t-13.5 -35.5t-35.5 -14.5q-21 0 -35.5 15t-14.5 35z" />
    <glyph glyph-name="semicolon" unicode=";" 
d="M256 419q0 21 14.5 35.5t34.5 14.5q21 0 35.5 -14.5t14.5 -35.5t-13.5 -35.5t-35.5 -14.5q-21 0 -35.5 14.5t-14.5 35.5zM357 24q0 -45 -26.5 -90t-69.5 -68l-19 29q23 16 40 46.5t17 53.5q-25 0 -38 13t-13 34t15 36t38 15q25 0 40.5 -18.5t15.5 -50.5z" />
    <glyph glyph-name="semicolon" unicode="&#x37e;" 
d="M256 419q0 21 14.5 35.5t34.5 14.5q21 0 35.5 -14.5t14.5 -35.5t-13.5 -35.5t-35.5 -14.5q-21 0 -35.5 14.5t-14.5 35.5zM357 24q0 -45 -26.5 -90t-69.5 -68l-19 29q23 16 40 46.5t17 53.5q-25 0 -38 13t-13 34t15 36t38 15q25 0 40.5 -18.5t15.5 -50.5z" />
    <glyph glyph-name="less" unicode="&#x3c;" 
d="M84 267v64l388 224l26 -50l-354 -205l360 -206l-26 -52z" />
    <glyph glyph-name="equal" unicode="=" 
d="M514 180h-428v56h428v-56zM514 374h-428v56h428v-56z" />
    <glyph glyph-name="greater" unicode="&#x3e;" 
d="M515 331v-64l-393 -225l-27 52l360 206l-354 205l27 50z" />
    <glyph glyph-name="question" unicode="?" 
d="M300 691q79 0 131 -35.5t52 -104.5q0 -41 -17.5 -71.5t-43 -52t-51 -44.5t-43 -62t-17.5 -91v-53h-58v51q0 61 17 105.5t41.5 69t49 44t41.5 44t17 56.5q0 47 -35.5 68t-85.5 21q-98 0 -134 -77l-51 26q48 106 187 106zM234 43q0 21 14.5 35t34.5 14q21 0 35.5 -14
t14.5 -35t-13.5 -35.5t-35.5 -14.5q-21 0 -35.5 14.5t-14.5 35.5z" />
    <glyph glyph-name="at" unicode="@" 
d="M409 398v-140q0 -26 14 -40t38 -14q73 0 73 149q0 112 -61.5 182.5t-162.5 70.5q-108 0 -176.5 -80.5t-68.5 -201.5q0 -125 60 -201.5t168 -76.5q54 0 103 23l11 -40q-51 -25 -114 -25q-125 0 -199 88t-74 231q0 140 83 232.5t207 92.5q121 0 195.5 -84t74.5 -212
q0 -91 -33.5 -139t-87.5 -48q-66 0 -85 53q-38 -53 -100 -53q-45 0 -76 25t-31 74q0 44 27 75t75 31h96v28q0 86 -82 86q-29 0 -71 -5l-2 39q43 6 75 6q67 0 95.5 -31.5t28.5 -94.5zM365 331h-91q-30 0 -46.5 -19t-16.5 -47t18 -43t47 -15q89 0 89 111v13z" />
    <glyph glyph-name="A" unicode="A" 
d="M490 0l-66 208h-251l-64 -208h-59v20l206 658h86l206 -658v-20h-58zM296 619l-24 -85l-82 -270h217l-83 272l-24 83h-4z" />
    <glyph glyph-name="B" unicode="B" 
d="M425 360v-3q58 -18 85 -65t27 -101q0 -79 -54 -135t-153 -56h-256v678h241q83 0 142 -41.5t59 -134.5q0 -42 -22 -81.5t-69 -60.5zM475 191q0 36 -13 62.5t-31 41t-42 23.5t-42 11.5t-36 2.5h-176v-277h174q71 0 118.5 32.5t47.5 103.5zM453 502q0 120 -160 120h-158
v-235h160q21 0 35.5 1t40 7t41.5 17t28.5 34.5t12.5 55.5z" />
    <glyph glyph-name="C" unicode="C" 
d="M313 -4q-106 0 -161 54.5t-55 151.5v256q0 108 56 166.5t159 58.5q139 0 191 -101l-54 -28q-39 74 -138 74q-152 0 -152 -171v-240q0 -166 154 -166q109 0 148 88l55 -28q-29 -58 -77.5 -86.5t-125.5 -28.5z" />
    <glyph glyph-name="D" unicode="D" 
d="M305 0h-230v678h233q97 0 157 -52.5t60 -158.5v-259q0 -103 -61.5 -155.5t-158.5 -52.5zM463 209v256q0 81 -43.5 119t-117.5 38h-166v-567h166q69 0 115 37.5t46 116.5z" />
    <glyph glyph-name="E" unicode="E" 
d="M104 0v678h394v-56h-332v-234h290v-57h-290v-276h346v-55h-408z" />
    <glyph glyph-name="F" unicode="F" 
d="M187 622v-234h261v-56h-261v-332h-62v678h373v-56h-311z" />
    <glyph glyph-name="G" unicode="G" 
d="M460 208v104h-164v57h225v-161q0 -104 -59 -158.5t-161 -54.5t-162 56.5t-60 160.5v248q0 108 58 165.5t162 57.5q147 0 202 -107l-54 -28q-22 43 -58 61t-90 18q-158 0 -158 -168v-247q0 -162 160 -162q159 0 159 158z" />
    <glyph glyph-name="H" unicode="H" 
d="M461 0v332h-323v-332h-61v678h61v-289h323v289h62v-678h-62z" />
    <glyph glyph-name="I" unicode="I" 
d="M120 622v56h359v-56h-149v-567h149v-55h-359v55h148v567h-148z" />
    <glyph glyph-name="J" unicode="J" 
d="M142 622v56h357v-471q0 -103 -59 -157t-161 -54q-67 0 -121.5 27.5t-79.5 84.5l51 30q22 -48 58 -68t92 -20q79 0 118.5 38t39.5 119v415h-295z" />
    <glyph glyph-name="K" unicode="K" 
d="M493 0l-256 380l-107 -99v-281h-61v678h61v-320l1 -1l340 321h55v-23l-246 -233l274 -406v-16h-61z" />
    <glyph glyph-name="L" unicode="L" 
d="M528 0h-417v678h61v-623h356v-55z" />
    <glyph glyph-name="M" unicode="M" 
d="M495 0v542l2 80h-3l-32 -79l-125 -293h-73l-116 272l-42 101h-2l2 -72v-551h-62v678h100l122 -284l33 -91h3l34 90l121 285h99v-678h-61z" />
    <glyph glyph-name="N" unicode="N" 
d="M437 0l-258 526l-37 81h-2l2 -96v-511h-62v678h92l245 -505l40 -96q1 0 1 0.5t1 0.5l-1 93v507h61v-678h-82z" />
    <glyph glyph-name="O" unicode="O" 
d="M523 458v-244q0 -103 -61.5 -160.5t-164.5 -57.5q-101 0 -161 57t-60 161v244q0 107 58.5 166t162.5 59q108 0 167 -58.5t59 -166.5zM461 214v243q0 84 -42.5 127t-121.5 43q-78 0 -118.5 -43.5t-40.5 -126.5v-243q0 -164 159 -164q78 0 121 40.5t43 123.5z" />
    <glyph glyph-name="P" unicode="P" 
d="M89 0v679h225q100 0 161 -54.5t61 -153.5q0 -102 -67.5 -157t-160.5 -55h-157v-259h-62zM151 315h162q76 0 117.5 43.5t41.5 113.5q0 72 -43 111t-113 39h-165v-307z" />
    <glyph glyph-name="Q" unicode="Q" 
d="M521 461v-249q0 -67 -27.5 -117.5t-75.5 -73.5l114 -75v-16l-52 -22l-128 92q-36 -4 -57 -4q-101 0 -161 57t-60 159v249q0 107 58.5 164.5t162.5 57.5q108 0 167 -57t59 -165zM459 212v248q0 83 -42.5 125t-121.5 42q-159 0 -159 -167v-248q0 -162 159 -162q78 0 121 40
t43 122z" />
    <glyph glyph-name="R" unicode="R" 
d="M536 475q0 -68 -42 -118t-114 -65l147 -273v-19h-60l-150 283h-170v-283h-63v678h229q100 0 161.5 -51.5t61.5 -151.5zM147 339h165q75 0 118 35.5t43 101.5q0 72 -42.5 109t-116.5 37h-167v-283z" />
    <glyph glyph-name="S" unicode="S" 
d="M506 568l-54 -27q-44 87 -150 87q-63 0 -103.5 -29.5t-40.5 -86.5q0 -43 27 -70.5t67.5 -38.5t88 -25.5t88 -31.5t67.5 -57.5t27 -101.5q0 -87 -61 -139t-157 -52q-29 0 -52.5 2.5t-55 11.5t-55 25t-45.5 46t-33 71l57 23q34 -125 182 -125q71 0 114 36t43 99
q0 42 -20 70.5t-52 42.5t-71 24.5t-77.5 22.5t-70.5 29t-52 50.5t-20 82.5q0 82 55.5 129t141.5 47q46 0 80.5 -7t72 -34t59.5 -74z" />
    <glyph glyph-name="T" unicode="T" 
d="M331 622v-622h-62v622h-202v56h465v-56h-201z" />
    <glyph glyph-name="U" unicode="U" 
d="M523 211q0 -102 -62 -158t-164 -56t-161.5 56t-59.5 158v467h61v-467q0 -160 160 -160q164 0 164 160v467h62v-467z" />
    <glyph glyph-name="V" unicode="V" 
d="M344 0h-91l-201 658v20h58l148 -475l40 -146h3l41 144l148 477h57v-19z" />
    <glyph glyph-name="W" unicode="W" 
d="M298 304l-16 -51l-89 -253h-90l-49 288q-18 105 -18 208v182h61v-196q0 -74 12 -148l28 -173l15 -96h3l34 106l73 208h74l79 -221l29 -94h3l43 270q12 74 12 148v196h61v-182q0 -103 -18 -208l-49 -288h-90l-89 254l-16 50h-3z" />
    <glyph glyph-name="X" unicode="X" 
d="M53 19l209 334l-191 305v20h62l104 -170l60 -99h2l75 124l89 145h64v-19l-194 -306l212 -334v-19h-65l-101 163l-80 133h-2l-72 -118l-109 -178h-63v19z" />
    <glyph glyph-name="Y" unicode="Y" 
d="M539 659l-208 -375v-284h-62v282l-209 374v22h57l149 -269l32 -63h4l33 67l147 265h57v-19z" />
    <glyph glyph-name="Z" unicode="Z" 
d="M84 0v59l344 563h-323v56h388v-62l-340 -561h365v-55h-434z" />
    <glyph glyph-name="bracketleft" unicode="[" 
d="M225 -71v811h212v-56h-150v-699h172v-56h-234z" />
    <glyph glyph-name="backslash" unicode="\" 
d="M177 728l296 -739v-19h-51l-295 735v23h50z" />
    <glyph glyph-name="bracketright" unicode="]" 
d="M374 740v-811h-235v56h173v699h-150v56h212z" />
    <glyph glyph-name="asciicircum" unicode="^" 
d="M458 444l-161 150l-158 -150l-32 32l178 201h30l178 -199z" />
    <glyph glyph-name="underscore" unicode="_" 
d="M50 -118v48h500v-48h-500z" />
    <glyph glyph-name="grave" unicode="`" 
d="M368 575l-39 -18l-97 159l66 28z" />
    <glyph glyph-name="a" unicode="a" 
d="M491 0h-49q-9 21 -12 61h-2q-55 -66 -165 -66q-86 0 -132 32.5t-46 110.5q0 61 40.5 103t116.5 42h184v25q0 78 -32.5 107.5t-113.5 29.5q-49 0 -122 -10l-4 54q70 10 137 10q98 0 147.5 -41t49.5 -137v-180zM426 229h-173q-52 0 -79.5 -24.5t-27.5 -69.5q0 -86 120 -86
q160 0 160 152v28z" />
    <glyph glyph-name="b" unicode="b" 
d="M313 499q190 0 190 -202v-105q0 -88 -47 -142t-145 -54q-102 0 -151 62h-2q-2 -33 -10 -58h-50l3 139v573h60v-283h3q49 70 149 70zM442 193v111q0 66 -32.5 103.5t-100.5 37.5q-78 0 -113 -44t-35 -111v-81q0 -79 31 -119.5t117 -40.5q133 0 133 144z" />
    <glyph glyph-name="c" unicode="c" 
d="M311 -5q-97 0 -146.5 46t-49.5 147v117q0 96 51 145t142 49q132 0 176 -100l-54 -26q-29 73 -122 73q-133 0 -133 -143v-112q0 -76 33.5 -109.5t103.5 -33.5q47 0 78 18t47 63l54 -25q-44 -109 -180 -109z" />
    <glyph glyph-name="d" unicode="d" 
d="M291 499q99 0 144 -65h2v277h62v-572l3 -139h-50q-9 26 -11 61h-2q-51 -65 -156 -65q-188 0 -188 197v103q0 91 46.5 147t149.5 56zM155 302v-111q0 -143 132 -143q83 0 116.5 43t33.5 118v81q0 67 -35 111t-113 44q-68 0 -101 -38.5t-33 -104.5z" />
    <glyph glyph-name="e" unicode="e" 
d="M364 214h-194v-24q0 -76 34 -108.5t114 -32.5q65 0 140 9l4 -54q-68 -9 -149 -9q-104 0 -153.5 43.5t-49.5 141.5v121q0 96 51 147t146 51q96 0 144.5 -40.5t48.5 -115.5q0 -61 -35.5 -95t-100.5 -34zM306 446q-136 0 -136 -143v-34h174q52 0 73 17.5t21 56.5
q0 58 -34.5 80.5t-97.5 22.5z" />
    <glyph glyph-name="f" unicode="f" 
d="M322 494h164v-56h-164v-438h-61v438h-143v56h143v47q0 89 46 133.5t131 44.5q22 0 44 -3l-4 -55q-13 1 -37 1q-64 0 -91.5 -29.5t-27.5 -104.5v-34z" />
    <glyph glyph-name="g" unicode="g" 
d="M284 -4q-189 0 -189 195v110q0 88 47.5 142.5t145.5 54.5q101 0 151 -62h2q2 32 10 58h50l-3 -140v-340q0 -99 -51.5 -143.5t-158.5 -44.5q-76 0 -156 11l5 56q76 -11 139 -11q95 0 128 30.5t33 109.5v41h-3q-50 -67 -150 -67zM156 301v-111q0 -66 32.5 -103.5
t100.5 -37.5q79 0 114 43.5t35 111.5v80q0 80 -31.5 120.5t-117.5 40.5q-133 0 -133 -144z" />
    <glyph glyph-name="h" unicode="h" 
d="M501 306v-306h-60v268q0 43 -4 70.5t-16.5 54.5t-39 39.5t-68.5 12.5q-78 0 -116.5 -49.5t-38.5 -127.5v-268h-60v712h61v-285h2q56 73 161 73q55 0 92.5 -16t55.5 -45.5t24.5 -60.5t6.5 -72z" />
    <glyph glyph-name="i" unicode="i" 
d="M122 494h214v-439h153v-55h-367v55h154v383h-154v56zM259 664q0 19 13 32t32 13q18 0 31 -13t13 -32t-13 -31.5t-31 -12.5q-19 0 -32 13t-13 31z" />
    <glyph glyph-name="j" unicode="j" 
d="M163 494h213v-491q0 -96 -46.5 -137t-136.5 -41q-25 0 -70 5l4 55q25 -3 64 -3q65 0 95.5 28t30.5 106v422h-154v56zM300 664q0 19 12.5 32t31.5 13t32 -13t13 -32t-13 -31.5t-32 -12.5t-31.5 13t-12.5 31z" />
    <glyph glyph-name="k" unicode="k" 
d="M468 0l-209 270l-78 -66v-204h-60v712h60v-431l1 -1l261 214h63v-24l-202 -163l226 -289v-18h-62z" />
    <glyph glyph-name="l" unicode="l" 
d="M119 712h213v-657h154v-55h-367v55h154v601h-154v56z" />
    <glyph glyph-name="m" unicode="m" 
d="M117 431h2q32 69 97 69q77 0 94 -83q34 83 115 83q118 0 118 -149v-351h-60v338q0 107 -69 107q-83 0 -83 -145v-300h-62v324q0 121 -68 121q-42 0 -62.5 -42t-20.5 -111v-292h-60v354l-3 140h52q9 -38 10 -63z" />
    <glyph glyph-name="n" unicode="n" 
d="M501 306v-306h-60v274q0 42 -4 69t-16.5 52.5t-39 37.5t-68.5 12q-78 0 -116.5 -49.5t-38.5 -127.5v-268h-60v354l-2 140h51q11 -38 12 -67h2q57 73 160 73q55 0 92 -14.5t55.5 -43t25.5 -60.5t7 -76z" />
    <glyph glyph-name="o" unicode="o" 
d="M298 -5q-91 0 -145 49t-54 143v117q0 95 53 145t146 50q94 0 148.5 -49t54.5 -146v-117q0 -95 -56 -143.5t-147 -48.5zM441 190v111q0 75 -38.5 110t-104.5 35q-139 0 -139 -145v-111q0 -142 140 -142q65 0 103.5 34.5t38.5 107.5z" />
    <glyph glyph-name="p" unicode="p" 
d="M306 -5q-98 0 -144 64h-2v-231h-62v526l-3 140h50q9 -28 11 -62h2q53 66 156 66q188 0 188 -198v-103q0 -91 -46.5 -146.5t-149.5 -55.5zM442 191v111q0 144 -132 144q-150 0 -150 -162v-80q0 -68 34.5 -112t113.5 -44q68 0 101 38.5t33 104.5z" />
    <glyph glyph-name="q" unicode="q" 
d="M285 -5q-103 0 -145.5 53.5t-42.5 147.5v104q0 88 47.5 142.5t144.5 54.5q103 0 151 -62h2q2 35 11 58h50l-3 -140v-525h-61v236h-2q-49 -69 -152 -69zM158 300v-111q0 -141 132 -141q79 0 114.5 44t35.5 111v80q0 78 -31.5 119.5t-117.5 41.5q-73 0 -103 -41t-30 -103z
" />
    <glyph glyph-name="r" unicode="r" 
d="M249 267v-267h-62v353l-3 141h52q9 -33 11 -83h2q61 91 194 91q37 0 77 -5l8 -63q-43 6 -88 6q-191 0 -191 -173z" />
    <glyph glyph-name="s" unicode="s" 
d="M295 500q63 0 109 -21.5t71 -82.5l-51 -25q-31 75 -122 75q-52 0 -81.5 -21t-29.5 -62q0 -36 29.5 -54t71.5 -25t83.5 -17.5t71 -42t29.5 -87.5q0 -64 -48 -103t-124 -39q-30 0 -54 3.5t-53.5 14.5t-51.5 36.5t-34 63.5l54 22q23 -87 137 -87q54 0 86 24t32 67
q0 37 -29.5 57.5t-71.5 28.5t-84 18t-71.5 38t-29.5 77q0 65 44 103.5t117 38.5z" />
    <glyph glyph-name="t" unicode="t" 
d="M459 438h-170v-252q0 -77 28.5 -105.5t94.5 -28.5q32 0 64 4l3 -55q-46 -4 -69 -4q-89 0 -135.5 39.5t-46.5 135.5v266h-124v56h124v157h61v-157h170v-56z" />
    <glyph glyph-name="u" unicode="u" 
d="M98 178v316h60v-277q0 -88 23.5 -128.5t101.5 -40.5q79 0 118.5 49.5t39.5 127.5v269h60v-355l3 -139h-52q-9 30 -11 66h-2q-59 -72 -170 -72q-95 0 -133 49.5t-38 134.5z" />
    <glyph glyph-name="v" unicode="v" 
d="M449 494h58v-24l-167 -470h-80l-168 471v23h57l103 -287l49 -149h3l46 145z" />
    <glyph glyph-name="w" unicode="w" 
d="M301 238h-2l-14 -44l-65 -194h-81l-56 219q-22 84 -22 136v139h61v-140q0 -37 15 -100l29 -126l16 -68h3l22 73l58 168h70l51 -151l29 -92h2l14 59l26 114q20 86 20 123v140h61v-139q0 -52 -22 -136l-56 -219h-81l-65 194z" />
    <glyph glyph-name="x" unicode="x" 
d="M452 0l-153 206l-153 -206h-59v20l173 235l-161 218v21h60l140 -190l141 190h59v-22l-162 -217l174 -234v-21h-59z" />
    <glyph glyph-name="y" unicode="y" 
d="M508 473l-182 -545q-34 -103 -164 -103q-34 0 -52 2l4 55q36 -2 45 -2q46 0 70 16.5t36 49.5l20 54h-21l-172 474v20h59l113 -309l41 -127h4l39 128l102 308h58v-21z" />
    <glyph glyph-name="z" unicode="z" 
d="M98 0v58l306 380h-287v56h360v-59l-303 -379h327v-56h-403z" />
    <glyph glyph-name="braceleft" unicode="{" 
d="M303 207v-103q0 -38 11.5 -63t33.5 -36.5t42.5 -15t48.5 -3.5h28v-57h-25q-199 0 -199 171v107q0 101 -91 101v52q91 0 91 100v109q0 171 199 171h25v-56h-28q-23 0 -40 -2t-36 -8.5t-31.5 -19t-20.5 -35t-8 -53.5v-106q0 -100 -72 -126v-2q41 -11 56.5 -41t15.5 -84z
" />
    <glyph glyph-name="bar" unicode="|" 
d="M268 -129v914h62v-914h-62z" />
    <glyph glyph-name="braceright" unicode="}" 
d="M447 308q-91 0 -91 -101v-107q0 -84 -49.5 -127.5t-133.5 -43.5h-41v57h28q28 0 48.5 3.5t42 15t33 36.5t11.5 63v103q0 54 16 83.5t57 41.5v2q-73 26 -73 126v106q0 31 -8 53.5t-20.5 35t-31.5 19t-35.5 8.5t-39.5 2h-28v56h41q84 0 133.5 -43t49.5 -128v-109
q0 -100 91 -100v-52z" />
    <glyph glyph-name="asciitilde" unicode="~" 
d="M406 272q-42 0 -109.5 33.5t-104.5 33.5q-40 0 -85 -56l-47 37q31 40 61 61.5t71 21.5q40 0 109 -32.5t107 -32.5q42 0 83 55l48 -36q-62 -85 -133 -85z" />
    <glyph glyph-name="uni00A0" unicode="&#xa0;" 
 />
    <glyph glyph-name="exclamdown" unicode="&#xa1;" 
d="M324 312l12 -509h-71l12 509h47zM250 445q0 21 13.5 35.5t35.5 14.5q21 0 35.5 -14.5t14.5 -35.5t-14.5 -35.5t-34.5 -14.5q-21 0 -35.5 14.5t-14.5 35.5z" />
    <glyph glyph-name="cent" unicode="&#xa2;" 
d="M325 -118h-41v114q-84 5 -126 51.5t-42 140.5v117q0 90 44 138.5t124 54.5v123h41v-123q118 -3 160 -99l-54 -26q-28 67 -106 73v-398q85 5 112 81l54 -25q-41 -103 -166 -108v-114zM176 191q0 -68 27 -102t81 -39v394q-108 -10 -108 -140v-113z" />
    <glyph glyph-name="sterling" unicode="&#xa3;" 
d="M329 627q-69 0 -106 -39t-37 -101q0 -29 17 -105h193v-56h-179q12 -49 12 -98q0 -101 -50 -174h337v-54h-442v54h40q52 90 52 177q0 43 -13 95h-78v56h66q-19 69 -19 113q0 80 59 134t148 54q74 0 121.5 -23.5t75.5 -77.5l-55 -28q-22 42 -55.5 57.5t-86.5 15.5z" />
    <glyph glyph-name="currency" unicode="&#xa4;" 
d="M443 299q0 -45 -25 -79l58 -57q-19 -21 -40 -40l-59 59q-34 -23 -78 -23q-46 0 -80 23l-59 -61q-19 21 -40 40l58 60q-23 34 -23 78t25 80l-60 60l40 40l62 -62q37 22 77 22q39 0 76 -22l64 64l40 -39l-63 -63q27 -35 27 -80zM391 300q0 37 -27 63t-65 26t-64.5 -26
t-26.5 -63t27 -63.5t64 -26.5q38 0 65 26.5t27 63.5z" />
    <glyph glyph-name="yen" unicode="&#xa5;" 
d="M504 209v-50h-173v-159h-62v159h-163v50h163v67h-163v49h141l-184 330v23h57l121 -218l57 -108h4l57 113l120 213h57v-20l-185 -333h153v-49h-173v-67h173z" />
    <glyph glyph-name="brokenbar" unicode="&#xa6;" 
d="M331 362h-62v423h62v-423zM269 302h62v-431h-62v431z" />
    <glyph glyph-name="section" unicode="&#xa7;" 
d="M466 694l-47 -37q-38 51 -110 51q-113 0 -113 -131q0 -39 11 -87t43 -163q38 -136 38 -189q0 -27 -21 -59l-50 21q12 23 12 49q0 30 -61 252q-31 111 -31 179q0 88 49.5 136.5t126.5 48.5q91 0 153 -71zM462 102q0 -87 -49.5 -135.5t-126.5 -48.5q-93 0 -154 70l47 36
q38 -50 110 -50q60 0 87 37.5t27 94.5q0 34 -9 75t-45 174q-39 141 -39 188q0 28 21 59l50 -21q-12 -24 -12 -49q0 -16 14 -72l17 -68q18 -69 29 -112.5t22 -99.5t11 -78z" />
    <glyph glyph-name="dieresis" unicode="&#xa8;" 
d="M172 642q0 16 12 28t28 12q17 0 29 -11.5t12 -28.5t-12 -29t-29 -12q-16 0 -28 12t-12 29zM347 642q0 17 12 28.5t29 11.5q16 0 28 -12t12 -28q0 -17 -12 -29t-28 -12q-17 0 -29 12t-12 29z" />
    <glyph glyph-name="copyright" unicode="&#xa9;" 
d="M301 -13q-128 0 -196.5 75t-68.5 202v178q0 127 70 202t195 75q120 0 191 -74t71 -196v-186q0 -126 -68 -201t-194 -75zM301 680q-108 0 -165.5 -64.5t-57.5 -173.5v-176q0 -109 56 -175t167 -66q105 0 162.5 64t57.5 175v178q0 106 -56.5 172t-163.5 66zM301 110
q-76 0 -118 42.5t-42 120.5v147q0 80 41 122.5t116 42.5q105 0 148 -82l-47 -26q-17 33 -40 46.5t-61 13.5q-105 0 -105 -118v-146q0 -116 108 -116q76 0 109 63l45 -24q-42 -86 -154 -86z" />
    <glyph glyph-name="ordfeminine" unicode="&#xaa;" 
d="M442 271h-42q-8 16 -8 42q-40 -46 -110 -46q-61 0 -93 21.5t-32 74.5q0 41 28.5 69.5t82.5 28.5h120v14q0 45 -21 62.5t-73 17.5q-40 0 -88 -7l-3 44q53 7 99 7q69 0 103.5 -27t34.5 -92v-113zM388 418h-113q-27 0 -47 -16.5t-20 -40.5q0 -49 76 -49q104 0 104 93v13z
" />
    <glyph glyph-name="guillemotleft" unicode="&#xab;" 
d="M109 245l177 191l37 -27l-135 -171l140 -168l-37 -30l-182 190v15zM253 245l176 191l37 -27l-135 -171l140 -168l-37 -30l-181 190v15z" />
    <glyph glyph-name="logicalnot" unicode="&#xac;" 
d="M514 332v-242h-56v186h-372v56h428z" />
    <glyph glyph-name="sfthyphen" unicode="&#xad;" 
d="M194 277v60h211v-60h-211z" />
    <glyph glyph-name="registered" unicode="&#xae;" 
d="M535 464q0 -97 -69 -166t-166 -69q-105 0 -170 67.5t-65 167.5q0 97 69 166t166 69q101 0 168 -68.5t67 -166.5zM501 464q0 83 -59.5 143.5t-141.5 60.5q-86 0 -144 -60t-58 -144q0 -85 57 -144.5t145 -59.5q82 0 141.5 60.5t59.5 143.5zM345 449l56 -113v-11h-36
l-59 120h-52v-120h-36v281h94q90 0 90 -83q0 -59 -57 -74zM313 573h-59v-95h59q52 0 52 46q0 25 -14.5 37t-37.5 12z" />
    <glyph glyph-name="macron" unicode="&#xaf;" 
d="M172 609v53h256v-53h-256z" />
    <glyph glyph-name="degree" unicode="&#xb0;" 
d="M299 457q-53 0 -85 32t-32 80q0 47 34 79.5t83 32.5t83.5 -32.5t34.5 -79.5q0 -46 -34.5 -79t-83.5 -33zM298 642q-30 0 -53 -21.5t-23 -51.5t22 -52t54 -22q31 0 54.5 22.5t23.5 51.5q0 30 -23 51.5t-55 21.5z" />
    <glyph glyph-name="plusminus" unicode="&#xb1;" 
d="M514 0h-428v56h428v-56zM328 279v-174h-56v174h-186v56h186v174h56v-174h186v-56h-186z" />
    <glyph glyph-name="twosuperior" unicode="&#xb2;" 
d="M151 363v28q0 61 32.5 95.5t111.5 80.5q28 16 42 25t30 28.5t16 39.5q0 64 -87 64q-66 0 -92 -42l-49 23q37 67 141 67q65 0 105 -26.5t40 -82.5q0 -42 -36.5 -77.5t-79.5 -57t-79.5 -52.5t-36.5 -65h240v-48h-298z" />
    <glyph glyph-name="threesuperior" unicode="&#xb3;" 
d="M296 361q-105 0 -149 70l48 23q27 -48 99 -48q105 0 105 88q0 81 -98 81h-64v39l128 107h-193v47h268v-47l-122 -101q70 0 102 -36.5t32 -90.5q0 -61 -45.5 -96.5t-110.5 -35.5z" />
    <glyph glyph-name="acute" unicode="&#xb4;" 
d="M367 716l-96 -159l-39 18l70 169z" />
    <glyph glyph-name="mu" unicode="&#xb5;" 
d="M271 -6q-72 0 -112 32v-198h-61v666h60v-306q0 -30 4 -51.5t16.5 -43.5t38.5 -33.5t66 -11.5q79 0 118.5 49.5t39.5 127.5v269h60v-355l3 -139h-52q-10 32 -11 66h-2q-59 -72 -168 -72z" />
    <glyph glyph-name="mu" unicode="&#x3bc;" 
d="M271 -6q-72 0 -112 32v-198h-61v666h60v-306q0 -30 4 -51.5t16.5 -43.5t38.5 -33.5t66 -11.5q79 0 118.5 49.5t39.5 127.5v269h60v-355l3 -139h-52q-10 32 -11 66h-2q-59 -72 -168 -72z" />
    <glyph glyph-name="paragraph" unicode="&#xb6;" 
d="M316 -81h-50v449q-78 1 -128 50t-50 126q0 78 48.5 131t143.5 53h238v-49h-67v-760h-46v761h-89v-761z" />
    <glyph glyph-name="periodcentered" unicode="&#xb7;" 
d="M249 263q0 21 15 35.5t35 14.5q21 0 36 -14.5t15 -35.5t-14 -36t-36 -15q-21 0 -36 15t-15 36z" />
    <glyph glyph-name="cedilla" unicode="&#xb8;" 
d="M292 -211q-50 0 -92 20l14 33q38 -12 67 -12q23 0 40.5 10t17.5 33q0 18 -15 27t-36 9q-16 0 -31 -5l-22 18l51 98h39l-38 -73h9q54 0 78.5 -23t24.5 -54q0 -32 -29 -56.5t-78 -24.5z" />
    <glyph glyph-name="onesuperior" unicode="&#xb9;" 
d="M186 410h96v297l-77 -44h-19v46l101 60h50v-359h92v-47h-243v47z" />
    <glyph glyph-name="ordmasculine" unicode="&#xba;" 
d="M298 267q-63 0 -101.5 34.5t-38.5 97.5v67q0 64 37.5 98.5t102.5 34.5q66 0 105 -34.5t39 -98.5v-67q0 -63 -40 -97.5t-104 -34.5zM390 400v64q0 45 -25 68t-67 23q-41 0 -65.5 -23t-24.5 -68v-64q0 -44 25 -67t66 -23q40 0 65.5 23t25.5 67z" />
    <glyph glyph-name="guillemotright" unicode="&#xbb;" 
d="M171 436l177 -191v-15l-182 -190l-37 30l140 168l-135 171zM314 436l177 -191v-15l-182 -190l-37 30l141 168l-136 171z" />
    <glyph glyph-name="onequarter" unicode="&#xbc;" 
d="M75 583v40l84 52h44v-313h-48v259l-63 -38h-17zM340 109h119v70h47v-70h52v-42h-52v-67h-47v67h-174v38l127 207h41v-15zM73 1l399 695h42v-17l-397 -693h-44v15z" />
    <glyph glyph-name="onehalf" unicode="&#xbd;" 
d="M74 583v40l85 52h43v-313h-47v259l-63 -38h-18zM55 1l399 695h42v-17l-397 -693h-44v15zM308 0v22q0 46 31 74.5t98 62.5q21 11 32.5 17.5t24.5 20t13 27.5q0 48 -75 48q-53 0 -77 -31l-43 23q31 52 120 52q54 0 89.5 -22.5t35.5 -65.5q0 -30 -30 -57.5t-66 -45
t-67.5 -40t-34.5 -43.5h205v-42h-256z" />
    <glyph glyph-name="threequarters" unicode="&#xbe;" 
d="M344 109h119v70h48v-70h52v-42h-52v-67h-48v67h-173v38l127 207h40v-15zM91 1l399 695h42v-17l-397 -693h-44v15zM150 359q-88 0 -125 54l42 24q23 -36 82 -36q40 0 62 16.5t22 45.5q0 61 -79 61h-53v34l100 75h-154v42h224v-41l-100 -74q110 -12 110 -99
q0 -44 -35.5 -73t-95.5 -29z" />
    <glyph glyph-name="questiondown" unicode="&#xbf;" 
d="M297 -197q-79 0 -131 35.5t-52 104.5q0 34 12.5 61.5t32 45t41.5 38.5t41.5 41.5t32 55t12.5 78.5v53h58v-51q0 -61 -17 -105.5t-41.5 -69t-49 -44t-41.5 -44t-17 -55.5q0 -47 35.5 -68t85.5 -21q98 0 134 77l51 -26q-48 -106 -187 -106zM363 451q0 -21 -14.5 -35.5
t-34.5 -14.5q-21 0 -35.5 14.5t-14.5 35.5t13.5 35.5t35.5 14.5q21 0 35.5 -15t14.5 -35z" />
    <glyph glyph-name="Agrave" unicode="&#xc0;" 
d="M490 0l-66 208h-251l-64 -208h-59v20l206 658h86l206 -658v-20h-58zM296 619l-24 -85l-82 -270h217l-83 272l-24 83h-4zM340 773l-29 -32l-152 106l48 52z" />
    <glyph glyph-name="Aacute" unicode="&#xc1;" 
d="M490 0l-66 208h-251l-64 -208h-59v20l206 658h86l206 -658v-20h-58zM296 619l-24 -85l-82 -270h217l-83 272l-24 83h-4zM289 741l-28 32l133 126l48 -52z" />
    <glyph glyph-name="Acircumflex" unicode="&#xc2;" 
d="M490 0l-66 208h-251l-64 -208h-59v20l206 658h86l206 -658v-20h-58zM296 619l-24 -85l-82 -270h217l-83 272l-24 83h-4zM427 738l-130 97l-131 -99l-30 30l137 127h51l136 -123z" />
    <glyph glyph-name="Atilde" unicode="&#xc3;" 
d="M490 0l-66 208h-251l-64 -208h-59v20l206 658h86l206 -658v-20h-58zM296 619l-24 -85l-82 -270h217l-83 272l-24 83h-4zM416 868l32 -30q-42 -60 -92 -60q-23 0 -61 17t-53 17q-34 0 -60 -38l-31 26q13 26 37.5 45t52.5 19q21 0 60 -16.5t59 -16.5q30 0 56 37z" />
    <glyph glyph-name="Adieresis" unicode="&#xc4;" 
d="M490 0l-66 208h-251l-64 -208h-59v20l206 658h86l206 -658v-20h-58zM296 619l-24 -85l-82 -270h217l-83 272l-24 83h-4zM171 805q0 17 11.5 28.5t28.5 11.5t29 -11.5t12 -28.5t-12 -29t-29 -12q-16 0 -28 12t-12 29zM346 805q0 17 12 28.5t29 11.5t28.5 -11.5t11.5 -28.5
t-12 -29t-28 -12q-17 0 -29 12t-12 29z" />
    <glyph glyph-name="Aring" unicode="&#xc5;" 
d="M490 0l-66 208h-251l-64 -208h-59v20l206 658h86l206 -658v-20h-58zM296 619l-24 -85l-82 -270h217l-83 272l-24 83h-4zM297 707q-41 0 -69.5 28t-28.5 68q0 39 28.5 67.5t69.5 28.5q42 0 71 -28t29 -68t-29.5 -68t-70.5 -28zM297 860q-21 0 -37.5 -17.5t-16.5 -39.5
q0 -23 16 -39.5t38 -16.5q24 0 40 16.5t16 39.5q0 22 -16.5 39.5t-39.5 17.5z" />
    <glyph glyph-name="AE" unicode="&#xc6;" 
d="M309 0v208h-148l-77 -208h-59v20l249 658h280v-56h-183v-234h169v-57h-169v-276h201v-55h-263zM271 504l-90 -240h128v340h-4z" />
    <glyph glyph-name="Ccedilla" unicode="&#xc7;" 
d="M303 -207q-50 0 -92 20l14 33q38 -12 67 -12q23 0 40.5 10t17.5 33q0 18 -15 27t-36 9q-16 0 -31 -5l-22 18l37 72q-92 7 -139 60.5t-47 143.5v256q0 108 56 166.5t159 58.5q139 0 191 -101l-54 -28q-39 74 -138 74q-152 0 -152 -171v-240q0 -166 154 -166q109 0 148 88
l55 -28q-56 -112 -195 -115l-23 -45h9q54 0 78.5 -23t24.5 -54q0 -32 -29 -56.5t-78 -24.5z" />
    <glyph glyph-name="Egrave" unicode="&#xc8;" 
d="M104 0v678h394v-56h-332v-234h290v-57h-290v-276h346v-55h-408zM356 773l-29 -32l-152 106l48 52z" />
    <glyph glyph-name="Eacute" unicode="&#xc9;" 
d="M104 0v678h394v-56h-332v-234h290v-57h-290v-276h346v-55h-408zM273 741l-28 32l133 126l48 -52z" />
    <glyph glyph-name="Ecircumflex" unicode="&#xca;" 
d="M104 0v678h394v-56h-332v-234h290v-57h-290v-276h346v-55h-408zM432 738l-130 97l-131 -99l-30 30l137 127h51l136 -123z" />
    <glyph glyph-name="Edieresis" unicode="&#xcb;" 
d="M104 0v678h394v-56h-332v-234h290v-57h-290v-276h346v-55h-408zM172 805q0 17 12 28.5t28 11.5q17 0 29 -11.5t12 -28.5t-12 -29t-29 -12q-16 0 -28 12t-12 29zM347 805q0 17 12 28.5t29 11.5q16 0 28 -11.5t12 -28.5t-12 -29t-28 -12q-17 0 -29 12t-12 29z" />
    <glyph glyph-name="Igrave" unicode="&#xcc;" 
d="M120 622v56h359v-56h-149v-567h149v-55h-359v55h148v567h-148zM325 773l-29 -32l-152 106l48 52z" />
    <glyph glyph-name="Iacute" unicode="&#xcd;" 
d="M120 622v56h359v-56h-149v-567h149v-55h-359v55h148v567h-148zM272 741l-28 32l133 126l48 -52z" />
    <glyph glyph-name="Icircumflex" unicode="&#xce;" 
d="M120 622v56h359v-56h-149v-567h149v-55h-359v55h148v567h-148zM429 738l-130 97l-131 -99l-30 30l137 127h51l136 -123z" />
    <glyph glyph-name="Idieresis" unicode="&#xcf;" 
d="M120 622v56h359v-56h-149v-567h149v-55h-359v55h148v567h-148zM172 805q0 17 12 28.5t28 11.5q17 0 29 -11.5t12 -28.5t-12 -29t-29 -12q-16 0 -28 12t-12 29zM347 805q0 17 12 28.5t29 11.5q16 0 28 -11.5t12 -28.5t-12 -29t-28 -12q-17 0 -29 12t-12 29z" />
    <glyph glyph-name="Eth" unicode="&#xd0;" 
d="M34 329v51h41v298h233q97 0 157 -52.5t60 -158.5v-259q0 -103 -61.5 -155.5t-158.5 -52.5h-230v329h-41zM463 209v256q0 81 -43.5 119t-117.5 38h-166v-242h155v-51h-155v-274h166q69 0 115 37.5t46 116.5z" />
    <glyph glyph-name="Ntilde" unicode="&#xd1;" 
d="M437 0l-258 526l-37 81h-2l2 -96v-511h-62v678h92l245 -505l40 -96q1 0 1 0.5t1 0.5l-1 93v507h61v-678h-82zM419 862l32 -30q-42 -60 -92 -60q-23 0 -61 17t-53 17q-34 0 -60 -38l-31 26q13 26 37.5 45t52.5 19q21 0 60 -16.5t59 -16.5q30 0 56 37z" />
    <glyph glyph-name="Ograve" unicode="&#xd2;" 
d="M523 458v-244q0 -103 -61.5 -160.5t-164.5 -57.5q-101 0 -161 57t-60 161v244q0 107 58.5 166t162.5 59q108 0 167 -58.5t59 -166.5zM461 214v243q0 84 -42.5 127t-121.5 43q-78 0 -118.5 -43.5t-40.5 -126.5v-243q0 -164 159 -164q78 0 121 40.5t43 123.5zM356 773
l-29 -32l-152 106l48 52z" />
    <glyph glyph-name="Oacute" unicode="&#xd3;" 
d="M523 458v-244q0 -103 -61.5 -160.5t-164.5 -57.5q-101 0 -161 57t-60 161v244q0 107 58.5 166t162.5 59q108 0 167 -58.5t59 -166.5zM461 214v243q0 84 -42.5 127t-121.5 43q-78 0 -118.5 -43.5t-40.5 -126.5v-243q0 -164 159 -164q78 0 121 40.5t43 123.5zM289 741
l-28 32l133 126l48 -52z" />
    <glyph glyph-name="Ocircumflex" unicode="&#xd4;" 
d="M523 458v-244q0 -103 -61.5 -160.5t-164.5 -57.5q-101 0 -161 57t-60 161v244q0 107 58.5 166t162.5 59q108 0 167 -58.5t59 -166.5zM461 214v243q0 84 -42.5 127t-121.5 43q-78 0 -118.5 -43.5t-40.5 -126.5v-243q0 -164 159 -164q78 0 121 40.5t43 123.5zM429 738
l-130 97l-131 -99l-30 30l137 127h51l136 -123z" />
    <glyph glyph-name="Otilde" unicode="&#xd5;" 
d="M523 458v-244q0 -103 -61.5 -160.5t-164.5 -57.5q-101 0 -161 57t-60 161v244q0 107 58.5 166t162.5 59q108 0 167 -58.5t59 -166.5zM461 214v243q0 84 -42.5 127t-121.5 43q-78 0 -118.5 -43.5t-40.5 -126.5v-243q0 -164 159 -164q78 0 121 40.5t43 123.5zM416 863
l32 -30q-42 -60 -92 -60q-23 0 -61 17t-53 17q-34 0 -60 -38l-31 26q13 26 37.5 45t52.5 19q21 0 60 -16.5t59 -16.5q30 0 56 37z" />
    <glyph glyph-name="Odieresis" unicode="&#xd6;" 
d="M523 458v-244q0 -103 -61.5 -160.5t-164.5 -57.5q-101 0 -161 57t-60 161v244q0 107 58.5 166t162.5 59q108 0 167 -58.5t59 -166.5zM461 214v243q0 84 -42.5 127t-121.5 43q-78 0 -118.5 -43.5t-40.5 -126.5v-243q0 -164 159 -164q78 0 121 40.5t43 123.5zM169 805
q0 17 11.5 28.5t28.5 11.5t29 -11.5t12 -28.5t-12 -29t-29 -12q-16 0 -28 12t-12 29zM344 805q0 17 12 28.5t29 11.5t28.5 -11.5t11.5 -28.5t-12 -29t-28 -12q-17 0 -29 12t-12 29z" />
    <glyph glyph-name="multiply" unicode="&#xd7;" 
d="M300 264l-153 -153l-40 40l153 153l-153 152l40 40l153 -153l152 153l40 -40l-153 -152l153 -153l-40 -40z" />
    <glyph glyph-name="Oslash" unicode="&#xd8;" 
d="M523 458v-244q0 -103 -61.5 -160.5t-164.5 -57.5q-99 0 -158 53l-31 -49h-35v16l40 64q-37 52 -37 134v244q0 107 58.5 166t162.5 59q103 0 163 -55l31 51h33v-17l-40 -62q39 -54 39 -142zM461 214v243q0 44 -15 81l-276 -439q40 -49 127 -49q78 0 121 40.5t43 123.5z
M138 214q0 -45 13 -75l275 436q-42 52 -129 52q-78 0 -118.5 -43.5t-40.5 -126.5v-243z" />
    <glyph glyph-name="Ugrave" unicode="&#xd9;" 
d="M523 211q0 -102 -62 -158t-164 -56t-161.5 56t-59.5 158v467h61v-467q0 -160 160 -160q164 0 164 160v467h62v-467zM352 773l-29 -32l-152 106l48 52z" />
    <glyph glyph-name="Uacute" unicode="&#xda;" 
d="M523 211q0 -102 -62 -158t-164 -56t-161.5 56t-59.5 158v467h61v-467q0 -160 160 -160q164 0 164 160v467h62v-467zM270 741l-28 32l133 126l48 -52z" />
    <glyph glyph-name="Ucircumflex" unicode="&#xdb;" 
d="M523 211q0 -102 -62 -158t-164 -56t-161.5 56t-59.5 158v467h61v-467q0 -160 160 -160q164 0 164 160v467h62v-467zM433 738l-130 97l-131 -99l-30 30l137 127h51l136 -123z" />
    <glyph glyph-name="Udieresis" unicode="&#xdc;" 
d="M523 211q0 -102 -62 -158t-164 -56t-161.5 56t-59.5 158v467h61v-467q0 -160 160 -160q164 0 164 160v467h62v-467zM171 805q0 17 11.5 28.5t28.5 11.5t29 -11.5t12 -28.5t-12 -29t-29 -12q-16 0 -28 12t-12 29zM346 805q0 17 12 28.5t29 11.5t28.5 -11.5t11.5 -28.5
t-12 -29t-28 -12q-17 0 -29 12t-12 29z" />
    <glyph glyph-name="Yacute" unicode="&#xdd;" 
d="M539 659l-208 -375v-284h-62v282l-209 374v22h57l149 -269l32 -63h4l33 67l147 265h57v-19zM287 737l-28 32l133 126l48 -52z" />
    <glyph glyph-name="Thorn" unicode="&#xde;" 
d="M89 0v679h62v-119h163q100 0 161 -54.5t61 -153.5q0 -102 -67.5 -156.5t-160.5 -54.5h-157v-141h-62zM151 196h162q76 0 117.5 44t41.5 113q0 72 -43 111.5t-113 39.5h-165v-308z" />
    <glyph glyph-name="germandbls" unicode="&#xdf;" 
d="M308 398v49q49 2 75 35.5t26 76.5q0 57 -32 86t-90 29q-42 0 -69.5 -16.5t-39.5 -46t-15.5 -54t-3.5 -57.5v-500h-60v514q0 97 49.5 154.5t140.5 57.5q90 0 137 -46t47 -120q0 -38 -19 -76t-59 -56v-3q37 -11 60.5 -32.5t33.5 -53t13 -58.5t3 -67q0 -228 -167 -228
q-16 0 -24 1v53h9q74 0 98 45t24 130q0 37 -4.5 65t-18 56.5t-42 44.5t-72.5 17z" />
    <glyph glyph-name="agrave" unicode="&#xe0;" 
d="M491 0h-49q-9 21 -12 61h-2q-55 -66 -165 -66q-86 0 -132 32.5t-46 110.5q0 61 40.5 103t116.5 42h184v25q0 78 -32.5 107.5t-113.5 29.5q-49 0 -122 -10l-4 54q70 10 137 10q98 0 147.5 -41t49.5 -137v-180zM426 229h-173q-52 0 -79.5 -24.5t-27.5 -69.5q0 -86 120 -86
q160 0 160 152v28zM344 575l-39 -18l-97 159l66 28z" />
    <glyph glyph-name="aacute" unicode="&#xe1;" 
d="M491 0h-49q-9 21 -12 61h-2q-55 -66 -165 -66q-86 0 -132 32.5t-46 110.5q0 61 40.5 103t116.5 42h184v25q0 78 -32.5 107.5t-113.5 29.5q-49 0 -122 -10l-4 54q70 10 137 10q98 0 147.5 -41t49.5 -137v-180zM426 229h-173q-52 0 -79.5 -24.5t-27.5 -69.5q0 -86 120 -86
q160 0 160 152v28zM418 716l-96 -159l-39 18l70 169z" />
    <glyph glyph-name="acircumflex" unicode="&#xe2;" 
d="M491 0h-49q-9 21 -12 61h-2q-55 -66 -165 -66q-86 0 -132 32.5t-46 110.5q0 61 40.5 103t116.5 42h184v25q0 78 -32.5 107.5t-113.5 29.5q-49 0 -122 -10l-4 54q70 10 137 10q98 0 147.5 -41t49.5 -137v-180zM426 229h-173q-52 0 -79.5 -24.5t-27.5 -69.5q0 -86 120 -86
q160 0 160 152v28zM438 574l-131 99l-130 -101l-30 29l137 134h51l136 -130z" />
    <glyph glyph-name="atilde" unicode="&#xe3;" 
d="M491 0h-49q-9 21 -12 61h-2q-55 -66 -165 -66q-86 0 -132 32.5t-46 110.5q0 61 40.5 103t116.5 42h184v25q0 78 -32.5 107.5t-113.5 29.5q-49 0 -122 -10l-4 54q70 10 137 10q98 0 147.5 -41t49.5 -137v-180zM426 229h-173q-52 0 -79.5 -24.5t-27.5 -69.5q0 -86 120 -86
q160 0 160 152v28zM418 693l32 -30q-42 -60 -92 -60q-23 0 -61 17t-53 17q-34 0 -60 -38l-31 26q13 26 37.5 45t52.5 19q21 0 60 -16.5t59 -16.5q30 0 56 37z" />
    <glyph glyph-name="adieresis" unicode="&#xe4;" 
d="M491 0h-49q-9 21 -12 61h-2q-55 -66 -165 -66q-86 0 -132 32.5t-46 110.5q0 61 40.5 103t116.5 42h184v25q0 78 -32.5 107.5t-113.5 29.5q-49 0 -122 -10l-4 54q70 10 137 10q98 0 147.5 -41t49.5 -137v-180zM426 229h-173q-52 0 -79.5 -24.5t-27.5 -69.5q0 -86 120 -86
q160 0 160 152v28zM173 642q0 16 11.5 28t28.5 12t29 -11.5t12 -28.5t-12 -29t-29 -12q-16 0 -28 12t-12 29zM348 642q0 17 12 28.5t29 11.5t28.5 -12t11.5 -28q0 -17 -12 -29t-28 -12q-17 0 -29 12t-12 29z" />
    <glyph glyph-name="aring" unicode="&#xe5;" 
d="M491 0h-49q-9 21 -12 61h-2q-55 -66 -165 -66q-86 0 -132 32.5t-46 110.5q0 61 40.5 103t116.5 42h184v25q0 78 -32.5 107.5t-113.5 29.5q-49 0 -122 -10l-4 54q70 10 137 10q98 0 147.5 -41t49.5 -137v-180zM426 229h-173q-52 0 -79.5 -24.5t-27.5 -69.5q0 -86 120 -86
q160 0 160 152v28zM305 565q-41 0 -69.5 28t-28.5 68q0 39 28.5 67.5t69.5 28.5q42 0 71 -28t29 -68t-29.5 -68t-70.5 -28zM305 718q-21 0 -37.5 -17.5t-16.5 -39.5q0 -23 16 -39.5t38 -16.5q24 0 40 16.5t16 39.5q0 22 -16.5 39.5t-39.5 17.5z" />
    <glyph glyph-name="ae" unicode="&#xe6;" 
d="M426 217h-92v-30q0 -74 21 -106t69 -32q43 0 94 9l4 -54q-47 -9 -101 -9q-96 0 -124 82q-37 -82 -121 -82q-55 0 -90 33.5t-35 109.5q0 140 150 140h71v29q0 76 -19.5 106.5t-69.5 30.5q-32 0 -81 -10l-5 55q47 10 94 10q89 0 116 -71q35 71 109 71q66 0 99 -40.5
t33 -115.5q0 -126 -122 -126zM272 223h-78q-44 0 -63.5 -21.5t-19.5 -66.5q0 -44 20.5 -64t49.5 -20q91 0 91 150v22zM413 446q-79 0 -79 -143v-31h62q55 0 72.5 14t17.5 57q0 103 -73 103z" />
    <glyph glyph-name="ccedilla" unicode="&#xe7;" 
d="M300 -209q-50 0 -92 20l14 33q38 -12 67 -12q23 0 40.5 10t17.5 33q0 18 -15 27t-36 9q-16 0 -31 -5l-22 18l37 72q-165 12 -165 192v117q0 96 51 145t142 49q132 0 176 -100l-54 -26q-29 73 -122 73q-133 0 -133 -143v-112q0 -76 33.5 -109.5t103.5 -33.5q47 0 78 18
t47 63l54 -25q-42 -106 -172 -109l-24 -46h9q54 0 78.5 -23t24.5 -54q0 -32 -29 -56.5t-78 -24.5z" />
    <glyph glyph-name="egrave" unicode="&#xe8;" 
d="M364 214h-194v-24q0 -76 34 -108.5t114 -32.5q65 0 140 9l4 -54q-68 -9 -149 -9q-104 0 -153.5 43.5t-49.5 141.5v121q0 96 51 147t146 51q96 0 144.5 -40.5t48.5 -115.5q0 -61 -35.5 -95t-100.5 -34zM306 446q-136 0 -136 -143v-34h174q52 0 73 17.5t21 56.5
q0 58 -34.5 80.5t-97.5 22.5zM335 575l-39 -18l-97 159l66 28z" />
    <glyph glyph-name="eacute" unicode="&#xe9;" 
d="M364 214h-194v-24q0 -76 34 -108.5t114 -32.5q65 0 140 9l4 -54q-68 -9 -149 -9q-104 0 -153.5 43.5t-49.5 141.5v121q0 96 51 147t146 51q96 0 144.5 -40.5t48.5 -115.5q0 -61 -35.5 -95t-100.5 -34zM306 446q-136 0 -136 -143v-34h174q52 0 73 17.5t21 56.5
q0 58 -34.5 80.5t-97.5 22.5zM418 716l-96 -159l-39 18l70 169z" />
    <glyph glyph-name="ecircumflex" unicode="&#xea;" 
d="M364 214h-194v-24q0 -76 34 -108.5t114 -32.5q65 0 140 9l4 -54q-68 -9 -149 -9q-104 0 -153.5 43.5t-49.5 141.5v121q0 96 51 147t146 51q96 0 144.5 -40.5t48.5 -115.5q0 -61 -35.5 -95t-100.5 -34zM306 446q-136 0 -136 -143v-34h174q52 0 73 17.5t21 56.5
q0 58 -34.5 80.5t-97.5 22.5zM440 574l-131 99l-130 -101l-30 29l137 134h51l136 -130z" />
    <glyph glyph-name="edieresis" unicode="&#xeb;" 
d="M364 214h-194v-24q0 -76 34 -108.5t114 -32.5q65 0 140 9l4 -54q-68 -9 -149 -9q-104 0 -153.5 43.5t-49.5 141.5v121q0 96 51 147t146 51q96 0 144.5 -40.5t48.5 -115.5q0 -61 -35.5 -95t-100.5 -34zM306 446q-136 0 -136 -143v-34h174q52 0 73 17.5t21 56.5
q0 58 -34.5 80.5t-97.5 22.5zM171 642q0 16 11.5 28t28.5 12t29 -11.5t12 -28.5t-12 -29t-29 -12q-16 0 -28 12t-12 29zM346 642q0 17 12 28.5t29 11.5t28.5 -12t11.5 -28q0 -17 -12 -29t-28 -12q-17 0 -29 12t-12 29z" />
    <glyph glyph-name="igrave" unicode="&#xec;" 
d="M332 575l-39 -18l-97 159l66 28zM122 494h214v-439h153v-55h-367v55h154v383h-154v56z" />
    <glyph glyph-name="iacute" unicode="&#xed;" 
d="M388 716l-96 -159l-39 18l70 169zM122 494h214v-439h153v-55h-367v55h154v383h-154v56z" />
    <glyph glyph-name="icircumflex" unicode="&#xee;" 
d="M122 494h214v-439h153v-55h-367v55h154v383h-154v56zM421 574l-131 99l-130 -101l-30 29l137 134h51l136 -130z" />
    <glyph glyph-name="idieresis" unicode="&#xef;" 
d="M157 642q0 16 11.5 28t28.5 12t29 -11.5t12 -28.5t-12 -29t-29 -12q-16 0 -28 12t-12 29zM332 642q0 17 12 28.5t29 11.5t28.5 -12t11.5 -28q0 -17 -12 -29t-28 -12q-17 0 -29 12t-12 29zM122 494h214v-439h153v-55h-367v55h154v383h-154v56z" />
    <glyph glyph-name="eth" unicode="&#xf0;" 
d="M222 554l-19 35l79 42q-23 28 -73 82v8h64q31 -33 57 -63l91 49l20 -34l-85 -47q29 -37 67 -96q42 -69 59 -123.5t17 -119.5v-100q0 -96 -58.5 -144t-150.5 -48q-88 0 -141.5 49.5t-53.5 142.5v99q0 203 199 203q61 0 93 -18l2 2q-33 63 -82 127zM438 190v103
q0 145 -142 145q-140 0 -140 -145v-103q0 -142 141 -142q65 0 103 35t38 107z" />
    <glyph glyph-name="ntilde" unicode="&#xf1;" 
d="M501 306v-306h-60v274q0 42 -4 69t-16.5 52.5t-39 37.5t-68.5 12q-78 0 -116.5 -49.5t-38.5 -127.5v-268h-60v354l-2 140h51q11 -38 12 -67h2q57 73 160 73q55 0 92 -14.5t55.5 -43t25.5 -60.5t7 -76zM404 693l32 -30q-42 -60 -92 -60q-23 0 -61 17t-53 17q-34 0 -60 -38
l-31 26q13 26 37.5 45t52.5 19q21 0 60 -16.5t59 -16.5q30 0 56 37z" />
    <glyph glyph-name="ograve" unicode="&#xf2;" 
d="M298 -5q-91 0 -145 49t-54 143v117q0 95 53 145t146 50q94 0 148.5 -49t54.5 -146v-117q0 -95 -56 -143.5t-147 -48.5zM441 190v111q0 75 -38.5 110t-104.5 35q-139 0 -139 -145v-111q0 -142 140 -142q65 0 103.5 34.5t38.5 107.5zM333 575l-39 -18l-97 159l66 28z" />
    <glyph glyph-name="oacute" unicode="&#xf3;" 
d="M298 -5q-91 0 -145 49t-54 143v117q0 95 53 145t146 50q94 0 148.5 -49t54.5 -146v-117q0 -95 -56 -143.5t-147 -48.5zM441 190v111q0 75 -38.5 110t-104.5 35q-139 0 -139 -145v-111q0 -142 140 -142q65 0 103.5 34.5t38.5 107.5zM404 716l-96 -159l-39 18l70 169z" />
    <glyph glyph-name="ocircumflex" unicode="&#xf4;" 
d="M298 -5q-91 0 -145 49t-54 143v117q0 95 53 145t146 50q94 0 148.5 -49t54.5 -146v-117q0 -95 -56 -143.5t-147 -48.5zM441 190v111q0 75 -38.5 110t-104.5 35q-139 0 -139 -145v-111q0 -142 140 -142q65 0 103.5 34.5t38.5 107.5zM430 574l-131 99l-130 -101l-30 29
l137 134h51l136 -130z" />
    <glyph glyph-name="otilde" unicode="&#xf5;" 
d="M298 -5q-91 0 -145 49t-54 143v117q0 95 53 145t146 50q94 0 148.5 -49t54.5 -146v-117q0 -95 -56 -143.5t-147 -48.5zM441 190v111q0 75 -38.5 110t-104.5 35q-139 0 -139 -145v-111q0 -142 140 -142q65 0 103.5 34.5t38.5 107.5zM420 693l32 -30q-42 -60 -92 -60
q-23 0 -61 17t-53 17q-34 0 -60 -38l-31 26q13 26 37.5 45t52.5 19q21 0 60 -16.5t59 -16.5q30 0 56 37z" />
    <glyph glyph-name="odieresis" unicode="&#xf6;" 
d="M298 -5q-91 0 -145 49t-54 143v117q0 95 53 145t146 50q94 0 148.5 -49t54.5 -146v-117q0 -95 -56 -143.5t-147 -48.5zM441 190v111q0 75 -38.5 110t-104.5 35q-139 0 -139 -145v-111q0 -142 140 -142q65 0 103.5 34.5t38.5 107.5zM168 642q0 16 12 28t28 12
q17 0 29 -11.5t12 -28.5t-12 -29t-29 -12q-16 0 -28 12t-12 29zM343 642q0 17 12 28.5t29 11.5q16 0 28 -12t12 -28q0 -17 -12 -29t-28 -12q-17 0 -29 12t-12 29z" />
    <glyph glyph-name="divide" unicode="&#xf7;" 
d="M253 145q0 22 14.5 36.5t35.5 14.5t35 -14t14 -35q0 -22 -14.5 -37t-36.5 -15q-21 0 -34.5 14.5t-13.5 35.5zM251 462q0 22 14.5 36.5t35.5 14.5t35 -14.5t14 -35.5t-14.5 -36t-35.5 -15t-35 14.5t-14 35.5zM514 277h-428v56h428v-56z" />
    <glyph glyph-name="oslash" unicode="&#xf8;" 
d="M298 -5q-86 0 -137 42l-27 -37h-35v16l36 47q-36 49 -36 124v117q0 95 53 145t146 50q90 0 143 -44l30 39h33v-16l-39 -50q36 -49 36 -124v-117q0 -95 -56 -143.5t-147 -48.5zM159 190q0 -47 15 -77l230 295q-35 38 -106 38q-139 0 -139 -145v-111zM441 190v111
q0 44 -16 76l-228 -296q36 -33 102 -33q65 0 103.5 34.5t38.5 107.5z" />
    <glyph glyph-name="ugrave" unicode="&#xf9;" 
d="M98 178v316h60v-277q0 -88 23.5 -128.5t101.5 -40.5q79 0 118.5 49.5t39.5 127.5v269h60v-355l3 -139h-52q-9 30 -11 66h-2q-59 -72 -170 -72q-95 0 -133 49.5t-38 134.5zM334 575l-39 -18l-97 159l66 28z" />
    <glyph glyph-name="uacute" unicode="&#xfa;" 
d="M98 178v316h60v-277q0 -88 23.5 -128.5t101.5 -40.5q79 0 118.5 49.5t39.5 127.5v269h60v-355l3 -139h-52q-9 30 -11 66h-2q-59 -72 -170 -72q-95 0 -133 49.5t-38 134.5zM404 716l-96 -159l-39 18l70 169z" />
    <glyph glyph-name="ucircumflex" unicode="&#xfb;" 
d="M98 178v316h60v-277q0 -88 23.5 -128.5t101.5 -40.5q79 0 118.5 49.5t39.5 127.5v269h60v-355l3 -139h-52q-9 30 -11 66h-2q-59 -72 -170 -72q-95 0 -133 49.5t-38 134.5zM431 574l-131 99l-130 -101l-30 29l137 134h51l136 -130z" />
    <glyph glyph-name="udieresis" unicode="&#xfc;" 
d="M98 178v316h60v-277q0 -88 23.5 -128.5t101.5 -40.5q79 0 118.5 49.5t39.5 127.5v269h60v-355l3 -139h-52q-9 30 -11 66h-2q-59 -72 -170 -72q-95 0 -133 49.5t-38 134.5zM173 642q0 16 11.5 28t28.5 12t29 -11.5t12 -28.5t-12 -29t-29 -12q-16 0 -28 12t-12 29zM348 642
q0 17 12 28.5t29 11.5t28.5 -12t11.5 -28q0 -17 -12 -29t-28 -12q-17 0 -29 12t-12 29z" />
    <glyph glyph-name="yacute" unicode="&#xfd;" 
d="M508 473l-182 -545q-34 -103 -164 -103q-34 0 -52 2l4 55q36 -2 45 -2q46 0 70 16.5t36 49.5l20 54h-21l-172 474v20h59l113 -309l41 -127h4l39 128l102 308h58v-21zM413 716l-96 -159l-39 18l70 169z" />
    <glyph glyph-name="thorn" unicode="&#xfe;" 
d="M310 -5q-102 0 -148 64h-2v-231h-62v884h61v-282h2q51 68 151 68q190 0 190 -198v-105q0 -90 -47.5 -145t-144.5 -55zM442 191v111q0 144 -132 144q-150 0 -150 -162v-80q0 -68 34.5 -112t113.5 -44q68 0 101 38.5t33 104.5z" />
    <glyph glyph-name="ydieresis" unicode="&#xff;" 
d="M508 473l-182 -545q-34 -103 -164 -103q-34 0 -52 2l4 55q36 -2 45 -2q46 0 70 16.5t36 49.5l20 54h-21l-172 474v20h59l113 -309l41 -127h4l39 128l102 308h58v-21zM179 642q0 16 11.5 28t28.5 12t29 -11.5t12 -28.5t-12 -29t-29 -12q-16 0 -28 12t-12 29zM354 642
q0 17 12 28.5t29 11.5t28.5 -12t11.5 -28q0 -17 -12 -29t-28 -12q-17 0 -29 12t-12 29z" />
    <glyph glyph-name="Amacron" unicode="&#x100;" 
d="M490 0l-66 208h-251l-64 -208h-59v20l206 658h86l206 -658v-20h-58zM296 619l-24 -85l-82 -270h217l-83 272l-24 83h-4zM167 770v53h262v-53h-262z" />
    <glyph glyph-name="amacron" unicode="&#x101;" 
d="M491 0h-49q-9 21 -12 61h-2q-55 -66 -165 -66q-86 0 -132 32.5t-46 110.5q0 61 40.5 103t116.5 42h184v25q0 78 -32.5 107.5t-113.5 29.5q-49 0 -122 -10l-4 54q70 10 137 10q98 0 147.5 -41t49.5 -137v-180zM426 229h-173q-52 0 -79.5 -24.5t-27.5 -69.5q0 -86 120 -86
q160 0 160 152v28zM172 609v53h256v-53h-256z" />
    <glyph glyph-name="Abreve" unicode="&#x102;" 
d="M490 0l-66 208h-251l-64 -208h-59v20l206 658h86l206 -658v-20h-58zM296 619l-24 -85l-82 -270h217l-83 272l-24 83h-4zM299 789q37 0 63.5 24.5t34.5 63.5l46 -11q-8 -58 -48 -94t-96 -36q-60 0 -99 36t-46 95l47 11q7 -39 33 -64t65 -25z" />
    <glyph glyph-name="abreve" unicode="&#x103;" 
d="M491 0h-49q-9 21 -12 61h-2q-55 -66 -165 -66q-86 0 -132 32.5t-46 110.5q0 61 40.5 103t116.5 42h184v25q0 78 -32.5 107.5t-113.5 29.5q-49 0 -122 -10l-4 54q70 10 137 10q98 0 147.5 -41t49.5 -137v-180zM426 229h-173q-52 0 -79.5 -24.5t-27.5 -69.5q0 -86 120 -86
q160 0 160 152v28zM305 623q39 0 65.5 26.5t35.5 66.5l47 -11q-8 -60 -48 -98.5t-99 -38.5q-62 0 -102 38.5t-47 98.5l48 11q7 -40 34 -66.5t66 -26.5z" />
    <glyph glyph-name="Aogonek" unicode="&#x104;" 
d="M548 0h-30q-52 -61 -52 -113q0 -43 54 -43q25 0 56 9l10 -31q-39 -20 -87 -20q-45 0 -69 18.5t-24 50.5q0 67 82 135l-64 202h-251l-64 -208h-59v20l206 658h86l206 -658v-20zM296 619l-24 -85l-82 -270h217l-83 272l-24 83h-4z" />
    <glyph glyph-name="aogonek" unicode="&#x105;" 
d="M491 0h-26q-57 -63 -57 -119q0 -43 54 -43q25 0 56 9l10 -31q-39 -20 -87 -20q-45 0 -69 18.5t-24 50.5q0 31 23 69t68 73q-7 23 -9 54h-2q-55 -66 -165 -66q-86 0 -132 32.5t-46 110.5q0 61 40.5 103t116.5 42h184v25q0 78 -32.5 107.5t-113.5 29.5q-49 0 -122 -10
l-4 54q70 10 137 10q98 0 147.5 -41t49.5 -137v-180zM426 229h-173q-52 0 -79.5 -24.5t-27.5 -69.5q0 -86 120 -86q160 0 160 152v28z" />
    <glyph glyph-name="Cacute" unicode="&#x106;" 
d="M313 -4q-106 0 -161 54.5t-55 151.5v256q0 108 56 166.5t159 58.5q139 0 191 -101l-54 -28q-39 74 -138 74q-152 0 -152 -171v-240q0 -166 154 -166q109 0 148 88l55 -28q-29 -58 -77.5 -86.5t-125.5 -28.5zM275 741l-28 32l133 126l48 -52z" />
    <glyph glyph-name="cacute" unicode="&#x107;" 
d="M311 -5q-97 0 -146.5 46t-49.5 147v117q0 96 51 145t142 49q132 0 176 -100l-54 -26q-29 73 -122 73q-133 0 -133 -143v-112q0 -76 33.5 -109.5t103.5 -33.5q47 0 78 18t47 63l54 -25q-44 -109 -180 -109zM406 716l-96 -159l-39 18l70 169z" />
    <glyph glyph-name="Ccircumflex" unicode="&#x108;" 
d="M313 -4q-106 0 -161 54.5t-55 151.5v256q0 108 56 166.5t159 58.5q139 0 191 -101l-54 -28q-39 74 -138 74q-152 0 -152 -171v-240q0 -166 154 -166q109 0 148 88l55 -28q-29 -58 -77.5 -86.5t-125.5 -28.5zM440 738l-130 97l-131 -99l-30 30l137 127h51l136 -123z" />
    <glyph glyph-name="ccircumflex" unicode="&#x109;" 
d="M311 -5q-97 0 -146.5 46t-49.5 147v117q0 96 51 145t142 49q132 0 176 -100l-54 -26q-29 73 -122 73q-133 0 -133 -143v-112q0 -76 33.5 -109.5t103.5 -33.5q47 0 78 18t47 63l54 -25q-44 -109 -180 -109zM436 574l-131 99l-130 -101l-30 29l137 134h51l136 -130z" />
    <glyph glyph-name="Cdotaccent" unicode="&#x10a;" 
d="M313 -4q-106 0 -161 54.5t-55 151.5v256q0 108 56 166.5t159 58.5q139 0 191 -101l-54 -28q-39 74 -138 74q-152 0 -152 -171v-240q0 -166 154 -166q109 0 148 88l55 -28q-29 -58 -77.5 -86.5t-125.5 -28.5zM267 811q0 17 11.5 28.5t28.5 11.5t29 -12t12 -28
q0 -17 -12 -29t-29 -12t-28.5 12t-11.5 29z" />
    <glyph glyph-name="cdotaccent" unicode="&#x10b;" 
d="M311 -5q-97 0 -146.5 46t-49.5 147v117q0 96 51 145t142 49q132 0 176 -100l-54 -26q-29 73 -122 73q-133 0 -133 -143v-112q0 -76 33.5 -109.5t103.5 -33.5q47 0 78 18t47 63l54 -25q-44 -109 -180 -109zM265 648q0 16 11.5 28t28.5 12t29 -12t12 -28q0 -17 -12 -29
t-29 -12t-28.5 12t-11.5 29z" />
    <glyph glyph-name="Ccaron" unicode="&#x10c;" 
d="M313 -4q-106 0 -161 54.5t-55 151.5v256q0 108 56 166.5t159 58.5q139 0 191 -101l-54 -28q-39 74 -138 74q-152 0 -152 -171v-240q0 -166 154 -166q109 0 148 88l55 -28q-29 -58 -77.5 -86.5t-125.5 -28.5zM306 796l131 94l33 -31l-136 -124h-51l-137 128l30 29z" />
    <glyph glyph-name="ccaron" unicode="&#x10d;" 
d="M311 -5q-97 0 -146.5 46t-49.5 147v117q0 96 51 145t142 49q132 0 176 -100l-54 -26q-29 73 -122 73q-133 0 -133 -143v-112q0 -76 33.5 -109.5t103.5 -33.5q47 0 78 18t47 63l54 -25q-44 -109 -180 -109zM300 634l131 99l33 -31l-136 -130h-51l-137 134l30 29z" />
    <glyph glyph-name="Dcaron" unicode="&#x10e;" 
d="M305 0h-230v678h233q97 0 157 -52.5t60 -158.5v-259q0 -103 -61.5 -155.5t-158.5 -52.5zM463 209v256q0 81 -43.5 119t-117.5 38h-166v-567h166q69 0 115 37.5t46 116.5zM276 796l131 94l33 -31l-136 -124h-51l-137 128l30 29z" />
    <glyph glyph-name="dcaron" unicode="&#x10f;" 
d="M252 499q99 0 144 -65h2v277h62v-572l3 -139h-50q-9 26 -11 61h-2q-51 -65 -156 -65q-188 0 -188 197v103q0 91 46.5 147t149.5 56zM116 302v-111q0 -143 132 -143q83 0 116.5 43t33.5 118v81q0 67 -35 111t-113 44q-68 0 -101 -38.5t-33 -104.5zM608 667q0 -40 -22 -75
t-61 -56l-18 25q22 16 34.5 38t12.5 41q-46 0 -46 44q0 16 14 31t34 15q22 0 37 -17t15 -46z" />
    <glyph glyph-name="Dcroat" unicode="&#x110;" 
d="M34 329v51h41v298h233q97 0 157 -52.5t60 -158.5v-259q0 -103 -61.5 -155.5t-158.5 -52.5h-230v329h-41zM463 209v256q0 81 -43.5 119t-117.5 38h-166v-242h155v-51h-155v-274h166q69 0 115 37.5t46 116.5z" />
    <glyph glyph-name="dcroat" unicode="&#x111;" 
d="M305 579v47h132v85h62v-85h59v-47h-59v-440l3 -139h-50q-9 26 -11 61h-2q-51 -65 -156 -65q-188 0 -188 197v103q0 91 46.5 147t149.5 56q99 0 144 -65h2v145h-132zM155 302v-111q0 -143 132 -143q83 0 116.5 43t33.5 118v81q0 67 -35 111t-113 44q-68 0 -101 -38.5
t-33 -104.5z" />
    <glyph glyph-name="Emacron" unicode="&#x112;" 
d="M104 0v678h394v-56h-332v-234h290v-57h-290v-276h346v-55h-408zM168 787v53h262v-53h-262z" />
    <glyph glyph-name="emacron" unicode="&#x113;" 
d="M364 214h-194v-24q0 -76 34 -108.5t114 -32.5q65 0 140 9l4 -54q-68 -9 -149 -9q-104 0 -153.5 43.5t-49.5 141.5v121q0 96 51 147t146 51q96 0 144.5 -40.5t48.5 -115.5q0 -61 -35.5 -95t-100.5 -34zM306 446q-136 0 -136 -143v-34h174q52 0 73 17.5t21 56.5
q0 58 -34.5 80.5t-97.5 22.5zM181 609v53h256v-53h-256z" />
    <glyph glyph-name="Ebreve" unicode="&#x114;" 
d="M104 0v678h394v-56h-332v-234h290v-57h-290v-276h346v-55h-408zM304 789q37 0 63.5 24.5t34.5 63.5l46 -11q-8 -58 -48 -94t-96 -36q-60 0 -99 36t-46 95l47 11q7 -39 33 -64t65 -25z" />
    <glyph glyph-name="ebreve" unicode="&#x115;" 
d="M364 214h-194v-24q0 -76 34 -108.5t114 -32.5q65 0 140 9l4 -54q-68 -9 -149 -9q-104 0 -153.5 43.5t-49.5 141.5v121q0 96 51 147t146 51q96 0 144.5 -40.5t48.5 -115.5q0 -61 -35.5 -95t-100.5 -34zM306 446q-136 0 -136 -143v-34h174q52 0 73 17.5t21 56.5
q0 58 -34.5 80.5t-97.5 22.5zM306 623q39 0 65.5 26.5t35.5 66.5l47 -11q-8 -60 -48 -98.5t-99 -38.5q-62 0 -102 38.5t-47 98.5l48 11q7 -40 33.5 -66.5t66.5 -26.5z" />
    <glyph glyph-name="Edotaccent" unicode="&#x116;" 
d="M104 0v678h394v-56h-332v-234h290v-57h-290v-276h346v-55h-408zM265 818q0 16 11.5 28t28.5 12t29 -12t12 -28q0 -17 -12 -29t-29 -12t-28.5 12t-11.5 29z" />
    <glyph glyph-name="edotaccent" unicode="&#x117;" 
d="M364 214h-194v-24q0 -76 34 -108.5t114 -32.5q65 0 140 9l4 -54q-68 -9 -149 -9q-104 0 -153.5 43.5t-49.5 141.5v121q0 96 51 147t146 51q96 0 144.5 -40.5t48.5 -115.5q0 -61 -35.5 -95t-100.5 -34zM306 446q-136 0 -136 -143v-34h174q52 0 73 17.5t21 56.5
q0 58 -34.5 80.5t-97.5 22.5zM262 648q0 16 12 28t28 12q17 0 29 -12t12 -28q0 -17 -12 -29t-29 -12t-28.5 12t-11.5 29z" />
    <glyph glyph-name="Eogonek" unicode="&#x118;" 
d="M104 0v678h394v-56h-332v-234h290v-57h-290v-276h346v-55h-37q-52 -61 -52 -113q0 -43 54 -43q25 0 56 9l10 -31q-39 -20 -87 -20q-45 0 -69 18.5t-24 50.5q0 64 75 129h-334z" />
    <glyph glyph-name="eogonek" unicode="&#x119;" 
d="M364 214h-194v-24q0 -76 34 -108.5t114 -32.5q65 0 140 9l4 -54q-26 -4 -49 -5q-43 -57 -43 -103q0 -43 54 -43q25 0 56 9l10 -31q-39 -20 -87 -20q-45 0 -69 18.5t-24 50.5q0 56 62 117q-42 -2 -59 -2q-104 0 -153.5 43.5t-49.5 141.5v121q0 96 51 147t146 51
q96 0 144.5 -40.5t48.5 -115.5q0 -61 -35.5 -95t-100.5 -34zM306 446q-136 0 -136 -143v-34h174q52 0 73 17.5t21 56.5q0 58 -34.5 80.5t-97.5 22.5z" />
    <glyph glyph-name="Ecaron" unicode="&#x11a;" 
d="M104 0v678h394v-56h-332v-234h290v-57h-290v-276h346v-55h-408zM304 796l131 94l33 -31l-136 -124h-51l-137 128l30 29z" />
    <glyph glyph-name="ecaron" unicode="&#x11b;" 
d="M364 214h-194v-24q0 -76 34 -108.5t114 -32.5q65 0 140 9l4 -54q-68 -9 -149 -9q-104 0 -153.5 43.5t-49.5 141.5v121q0 96 51 147t146 51q96 0 144.5 -40.5t48.5 -115.5q0 -61 -35.5 -95t-100.5 -34zM306 446q-136 0 -136 -143v-34h174q52 0 73 17.5t21 56.5
q0 58 -34.5 80.5t-97.5 22.5zM305 634l131 99l33 -31l-136 -130h-51l-137 134l30 29z" />
    <glyph glyph-name="Gcircumflex" unicode="&#x11c;" 
d="M460 208v104h-164v57h225v-161q0 -104 -59 -158.5t-161 -54.5t-162 56.5t-60 160.5v248q0 108 58 165.5t162 57.5q147 0 202 -107l-54 -28q-22 43 -58 61t-90 18q-158 0 -158 -168v-247q0 -162 160 -162q159 0 159 158zM432 738l-130 97l-131 -99l-30 30l137 127h51
l136 -123z" />
    <glyph glyph-name="gcircumflex" unicode="&#x11d;" 
d="M284 -4q-189 0 -189 195v110q0 88 47.5 142.5t145.5 54.5q101 0 151 -62h2q2 32 10 58h50l-3 -140v-340q0 -99 -51.5 -143.5t-158.5 -44.5q-76 0 -156 11l5 56q76 -11 139 -11q95 0 128 30.5t33 109.5v41h-3q-50 -67 -150 -67zM156 301v-111q0 -66 32.5 -103.5
t100.5 -37.5q79 0 114 43.5t35 111.5v80q0 80 -31.5 120.5t-117.5 40.5q-133 0 -133 -144zM420 574l-131 99l-130 -101l-30 29l137 134h51l136 -130z" />
    <glyph glyph-name="Gbreve" unicode="&#x11e;" 
d="M460 208v104h-164v57h225v-161q0 -104 -59 -158.5t-161 -54.5t-162 56.5t-60 160.5v248q0 108 58 165.5t162 57.5q147 0 202 -107l-54 -28q-22 43 -58 61t-90 18q-158 0 -158 -168v-247q0 -162 160 -162q159 0 159 158zM305 789q37 0 63.5 24.5t34.5 63.5l46 -11
q-8 -58 -48 -94t-96 -36q-60 0 -99 36t-46 95l47 11q7 -39 33 -64t65 -25z" />
    <glyph glyph-name="gbreve" unicode="&#x11f;" 
d="M284 -4q-189 0 -189 195v110q0 88 47.5 142.5t145.5 54.5q101 0 151 -62h2q2 32 10 58h50l-3 -140v-340q0 -99 -51.5 -143.5t-158.5 -44.5q-76 0 -156 11l5 56q76 -11 139 -11q95 0 128 30.5t33 109.5v41h-3q-50 -67 -150 -67zM156 301v-111q0 -66 32.5 -103.5
t100.5 -37.5q79 0 114 43.5t35 111.5v80q0 80 -31.5 120.5t-117.5 40.5q-133 0 -133 -144zM297 623q39 0 65.5 26.5t35.5 66.5l47 -11q-8 -60 -48 -98.5t-99 -38.5q-62 0 -102 38.5t-47 98.5l48 11q7 -40 34 -66.5t66 -26.5z" />
    <glyph glyph-name="Gdotaccent" unicode="&#x120;" 
d="M460 208v104h-164v57h225v-161q0 -104 -59 -158.5t-161 -54.5t-162 56.5t-60 160.5v248q0 108 58 165.5t162 57.5q147 0 202 -107l-54 -28q-22 43 -58 61t-90 18q-158 0 -158 -168v-247q0 -162 160 -162q159 0 159 158zM260 818q0 16 12 28t28 12q17 0 29 -12t12 -28
q0 -17 -12 -29t-29 -12t-28.5 12t-11.5 29z" />
    <glyph glyph-name="gdotaccent" unicode="&#x121;" 
d="M284 -4q-189 0 -189 195v110q0 88 47.5 142.5t145.5 54.5q101 0 151 -62h2q2 32 10 58h50l-3 -140v-340q0 -99 -51.5 -143.5t-158.5 -44.5q-76 0 -156 11l5 56q76 -11 139 -11q95 0 128 30.5t33 109.5v41h-3q-50 -67 -150 -67zM156 301v-111q0 -66 32.5 -103.5
t100.5 -37.5q79 0 114 43.5t35 111.5v80q0 80 -31.5 120.5t-117.5 40.5q-133 0 -133 -144zM258 648q0 16 12 28t28 12q17 0 29 -12t12 -28q0 -17 -12 -29t-29 -12t-28.5 12t-11.5 29z" />
    <glyph glyph-name="Gcommaaccent" unicode="&#x122;" 
d="M460 208v104h-164v57h225v-161q0 -104 -59 -158.5t-161 -54.5t-162 56.5t-60 160.5v248q0 108 58 165.5t162 57.5q147 0 202 -107l-54 -28q-22 43 -58 61t-90 18q-158 0 -158 -168v-247q0 -162 160 -162q159 0 159 158zM356 -120q0 -40 -22 -75t-61 -56l-18 25
q22 16 34.5 38t12.5 41q-46 0 -46 44q0 16 14 31t34 15q22 0 37 -17t15 -46z" />
    <glyph glyph-name="gcommaaccent" unicode="&#x123;" 
d="M284 -4q-189 0 -189 195v110q0 88 47.5 142.5t145.5 54.5q101 0 151 -62h2q2 32 10 58h50l-3 -140v-340q0 -99 -51.5 -143.5t-158.5 -44.5q-76 0 -156 11l5 56q76 -11 139 -11q95 0 128 30.5t33 109.5v41h-3q-50 -67 -150 -67zM156 301v-111q0 -66 32.5 -103.5
t100.5 -37.5q79 0 114 43.5t35 111.5v80q0 80 -31.5 120.5t-117.5 40.5q-133 0 -133 -144zM246 627q0 40 22 75t61 56l18 -25q-22 -16 -34.5 -38t-12.5 -41q46 0 46 -44q0 -16 -14 -31t-34 -15q-22 0 -37 17t-15 46z" />
    <glyph glyph-name="Hcircumflex" unicode="&#x124;" 
d="M461 0v332h-323v-332h-61v678h61v-289h323v289h62v-678h-62zM429 738l-130 97l-131 -99l-30 30l137 127h51l136 -123z" />
    <glyph glyph-name="hcircumflex" unicode="&#x125;" 
d="M541 306v-306h-60v268q0 43 -4 70.5t-16.5 54.5t-39 39.5t-68.5 12.5q-78 0 -116.5 -49.5t-38.5 -127.5v-268h-60v712h61v-285h2q56 73 161 73q55 0 92.5 -16t55.5 -45.5t24.5 -60.5t6.5 -72zM301 746l-130 97l-131 -99l-30 30l137 127h51l136 -123z" />
    <glyph glyph-name="Hbar" unicode="&#x126;" 
d="M30 545v46h47v87h61v-87h323v87h62v-87h47v-46h-47v-545h-62v332h-323v-332h-61v545h-47zM138 389h323v156h-323v-156z" />
    <glyph glyph-name="hbar" unicode="&#x127;" 
d="M45 579v47h53v86h61v-86h155v-47h-155v-152h2q56 73 161 73q55 0 92.5 -16t55.5 -45.5t24.5 -60.5t6.5 -72v-306h-60v268q0 43 -4 70.5t-16.5 54.5t-39 39.5t-68.5 12.5q-78 0 -116.5 -49.5t-38.5 -127.5v-268h-60v579h-53z" />
    <glyph glyph-name="Itilde" unicode="&#x128;" 
d="M120 622v56h359v-56h-149v-567h149v-55h-359v55h148v567h-148zM417 863l32 -30q-42 -60 -92 -60q-23 0 -61 17t-53 17q-34 0 -60 -38l-31 26q13 26 37.5 45t52.5 19q21 0 60 -16.5t59 -16.5q30 0 56 37z" />
    <glyph glyph-name="itilde" unicode="&#x129;" 
d="M402 693l32 -30q-42 -60 -92 -60q-23 0 -61 17t-53 17q-34 0 -60 -38l-31 26q13 26 37.5 45t52.5 19q21 0 60 -16.5t59 -16.5q30 0 56 37zM122 494h214v-439h153v-55h-367v55h154v383h-154v56z" />
    <glyph glyph-name="Imacron" unicode="&#x12a;" 
d="M120 622v56h359v-56h-149v-567h149v-55h-359v55h148v567h-148zM169 787v53h262v-53h-262z" />
    <glyph glyph-name="imacron" unicode="&#x12b;" 
d="M153 609v53h256v-53h-256zM122 494h214v-439h153v-55h-367v55h154v383h-154v56z" />
    <glyph glyph-name="Ibreve" unicode="&#x12c;" 
d="M120 622v56h359v-56h-149v-567h149v-55h-359v55h148v567h-148zM300 789q37 0 63.5 24.5t34.5 63.5l46 -11q-8 -58 -48 -94t-96 -36q-60 0 -99 36t-46 95l47 11q7 -39 33 -64t65 -25z" />
    <glyph glyph-name="ibreve" unicode="&#x12d;" 
d="M287 629q39 0 65.5 26.5t35.5 66.5l47 -11q-8 -60 -48 -98.5t-99 -38.5q-62 0 -102 38.5t-47 98.5l48 11q7 -40 34 -66.5t66 -26.5zM122 494h214v-439h153v-55h-367v55h154v383h-154v56z" />
    <glyph glyph-name="Iogonek" unicode="&#x12e;" 
d="M120 622v56h359v-56h-149v-567h149v-55h-182q-53 -60 -53 -115q0 -43 54 -43q25 0 56 9l10 -31q-39 -20 -87 -20q-45 0 -69 18.5t-24 50.5q0 65 77 131h-141v55h148v567h-148z" />
    <glyph glyph-name="iogonek" unicode="&#x12f;" 
d="M122 494h214v-439h153v-55h-185q-52 -61 -52 -113q0 -43 54 -43q25 0 56 9l10 -31q-39 -20 -87 -20q-45 0 -69 18.5t-24 50.5q0 64 75 129h-145v55h154v383h-154v56zM259 664q0 19 13 32t32 13q18 0 31 -13t13 -32t-13 -31.5t-31 -12.5q-19 0 -32 13t-13 31z" />
    <glyph glyph-name="Idotaccent" unicode="&#x130;" 
d="M120 622v56h359v-56h-149v-567h149v-55h-359v55h148v567h-148zM259 818q0 16 11.5 28t28.5 12t29 -12t12 -28q0 -17 -12 -29t-29 -12t-28.5 12t-11.5 29z" />
    <glyph glyph-name="dotlessi" unicode="&#x131;" 
d="M122 494h214v-439h153v-55h-367v55h154v383h-154v56z" />
    <glyph glyph-name="IJ" unicode="&#x132;" 
d="M105 0h-61v678h61v-678zM557 678v-471q0 -104 -58.5 -157.5t-161.5 -53.5q-67 0 -121.5 28t-79.5 85l51 30q22 -48 58 -68.5t92 -20.5q159 0 159 157v471h61z" />
    <glyph glyph-name="ij" unicode="&#x133;" 
d="M150 0v494h60v-494h-60zM136 664q0 19 13 32t32 13q18 0 31 -13t13 -32q0 -18 -13 -31t-31 -13q-19 0 -32 13t-13 31zM398 16v478h60v-491q0 -96 -47 -137t-137 -41q-26 0 -69 5l3 55q25 -3 65 -3q64 0 94.5 28t30.5 106zM385 664q0 19 13 32t32 13t31.5 -13t12.5 -32
q0 -18 -12.5 -31t-31.5 -13t-32 13t-13 31z" />
    <glyph glyph-name="Jcircumflex" unicode="&#x134;" 
d="M142 622v56h357v-471q0 -103 -59 -157t-161 -54q-67 0 -121.5 27.5t-79.5 84.5l51 30q22 -48 58 -68t92 -20q79 0 118.5 38t39.5 119v415h-295zM456 740l-130 97l-131 -99l-30 30l137 127h51l136 -123z" />
    <glyph glyph-name="jcircumflex" unicode="&#x135;" 
d="M163 494h213v-491q0 -96 -46.5 -137t-136.5 -41q-25 0 -70 5l4 55q25 -3 64 -3q65 0 95.5 28t30.5 106v422h-154v56zM451 574l-131 99l-130 -101l-30 29l137 134h51l136 -130z" />
    <glyph glyph-name="Kcommaaccent" unicode="&#x136;" 
d="M493 0l-256 380l-107 -99v-281h-61v678h61v-320l1 -1l340 321h55v-23l-246 -233l274 -406v-16h-61zM348 -100q0 -40 -22 -75t-61 -56l-18 25q22 16 34.5 38t12.5 41q-46 0 -46 44q0 16 14 31t34 15q22 0 37 -17t15 -46z" />
    <glyph glyph-name="kcommaaccent" unicode="&#x137;" 
d="M468 0l-209 270l-78 -66v-204h-60v712h60v-431l1 -1l261 214h63v-24l-202 -163l226 -289v-18h-62zM363 -120q0 -40 -22 -75t-61 -56l-18 25q22 16 34.5 38t12.5 41q-46 0 -46 44q0 16 14 31t34 15q22 0 37 -17t15 -46z" />
    <glyph glyph-name="kgreenlandic" unicode="&#x138;" 
d="M468 0l-209 270l-78 -66v-204h-60v494h60v-213l1 -1l261 214h63v-24l-202 -163l226 -289v-18h-62z" />
    <glyph glyph-name="Lacute" unicode="&#x139;" 
d="M528 0h-417v678h61v-623h356v-55zM142 741l-28 32l133 126l48 -52z" />
    <glyph glyph-name="lacute" unicode="&#x13a;" 
d="M119 712h213v-657h154v-55h-367v55h154v601h-154v56zM260 761l-28 32l133 126l48 -52z" />
    <glyph glyph-name="Lcommaaccent" unicode="&#x13b;" 
d="M528 0h-417v678h61v-623h356v-55zM365 -120q0 -40 -22 -75t-61 -56l-18 25q22 16 34.5 38t12.5 41q-46 0 -46 44q0 16 14 31t34 15q22 0 37 -17t15 -46z" />
    <glyph glyph-name="lcommaaccent" unicode="&#x13c;" 
d="M119 712h213v-657h154v-55h-367v55h154v601h-154v56zM355 -120q0 -40 -22 -75t-61 -56l-18 25q22 16 34.5 38t12.5 41q-46 0 -46 44q0 16 14 31t34 15q22 0 37 -17t15 -46z" />
    <glyph glyph-name="Lcaron" unicode="&#x13d;" 
d="M528 0h-417v678h61v-623h356v-55zM419 647q0 -40 -22 -75t-61 -56l-18 25q22 16 34.5 38t12.5 41q-46 0 -46 44q0 16 14 31t34 15q22 0 37 -17t15 -46z" />
    <glyph glyph-name="lcaron" unicode="&#x13e;" 
d="M119 712h213v-657h154v-55h-367v55h154v601h-154v56zM477 668q0 -40 -22 -75t-61 -56l-18 25q22 16 34.5 38t12.5 41q-46 0 -46 44q0 16 14 31t34 15q22 0 37 -17t15 -46z" />
    <glyph glyph-name="Ldot" unicode="&#x13f;" 
d="M528 0h-417v678h61v-623h356v-55zM320 352q0 16 12 28t28 12q17 0 29 -12t12 -28q0 -17 -12 -29t-29 -12t-28.5 12t-11.5 29z" />
    <glyph glyph-name="ldot" unicode="&#x140;" 
d="M119 712h213v-657h154v-55h-367v55h154v601h-154v56zM381 352q0 16 11.5 28t28.5 12t29 -12t12 -28q0 -17 -12 -29t-29 -12t-28.5 12t-11.5 29z" />
    <glyph glyph-name="Lslash" unicode="&#x141;" 
d="M528 0h-417v252l-71 -37l-21 40l92 48v375h61v-342l115 61l22 -41l-137 -72v-229h356v-55z" />
    <glyph glyph-name="lslash" unicode="&#x142;" 
d="M119 712h213v-349l86 47l22 -41l-108 -58v-256h154v-55h-367v55h154v224l-66 -35l-22 40l88 47v325h-154v56z" />
    <glyph glyph-name="Nacute" unicode="&#x143;" 
d="M437 0l-258 526l-37 81h-2l2 -96v-511h-62v678h92l245 -505l40 -96q1 0 1 0.5t1 0.5l-1 93v507h61v-678h-82zM287 741l-28 32l133 126l48 -52z" />
    <glyph glyph-name="nacute" unicode="&#x144;" 
d="M501 306v-306h-60v274q0 42 -4 69t-16.5 52.5t-39 37.5t-68.5 12q-78 0 -116.5 -49.5t-38.5 -127.5v-268h-60v354l-2 140h51q11 -38 12 -67h2q57 73 160 73q55 0 92 -14.5t55.5 -43t25.5 -60.5t7 -76zM395 716l-96 -159l-39 18l70 169z" />
    <glyph glyph-name="Ncommaaccent" unicode="&#x145;" 
d="M437 0l-258 526l-37 81h-2l2 -96v-511h-62v678h92l245 -505l40 -96q1 0 1 0.5t1 0.5l-1 93v507h61v-678h-82zM341 -100q0 -40 -22 -75t-61 -56l-18 25q22 16 34.5 38t12.5 41q-46 0 -46 44q0 16 14 31t34 15q22 0 37 -17t15 -46z" />
    <glyph glyph-name="ncommaaccent" unicode="&#x146;" 
d="M501 306v-306h-60v274q0 42 -4 69t-16.5 52.5t-39 37.5t-68.5 12q-78 0 -116.5 -49.5t-38.5 -127.5v-268h-60v354l-2 140h51q11 -38 12 -67h2q57 73 160 73q55 0 92 -14.5t55.5 -43t25.5 -60.5t7 -76zM350 -120q0 -40 -22 -75t-61 -56l-18 25q22 16 34.5 38t12.5 41
q-46 0 -46 44q0 16 14 31t34 15q22 0 37 -17t15 -46z" />
    <glyph glyph-name="Ncaron" unicode="&#x147;" 
d="M437 0l-258 526l-37 81h-2l2 -96v-511h-62v678h92l245 -505l40 -96q1 0 1 0.5t1 0.5l-1 93v507h61v-678h-82zM307 796l131 94l33 -31l-136 -124h-51l-137 128l30 29z" />
    <glyph glyph-name="ncaron" unicode="&#x148;" 
d="M501 306v-306h-60v274q0 42 -4 69t-16.5 52.5t-39 37.5t-68.5 12q-78 0 -116.5 -49.5t-38.5 -127.5v-268h-60v354l-2 140h51q11 -38 12 -67h2q57 73 160 73q55 0 92 -14.5t55.5 -43t25.5 -60.5t7 -76zM283 634l131 99l33 -31l-136 -130h-51l-137 134l30 29z" />
    <glyph glyph-name="napostrophe" unicode="&#x149;" 
d="M531 306v-306h-60v274q0 42 -4 69t-16.5 52.5t-39 37.5t-68.5 12q-78 0 -116.5 -49.5t-38.5 -127.5v-268h-60v354l-2 140h51q11 -38 12 -67h2q57 73 160 73q55 0 92 -14.5t55.5 -43t25.5 -60.5t7 -76zM125 646q0 -40 -22 -75t-61 -56l-18 25q22 16 34.5 38t12.5 41
q-46 0 -46 44q0 16 14 31t34 15q22 0 37 -17t15 -46z" />
    <glyph glyph-name="Eng" unicode="&#x14a;" 
d="M318 -180q76 0 107.5 27.5t31.5 96.5v15l-278 567l-37 81h-2l2 -93v-514h-62v678h92l246 -507l39 -93h2l-1 91v509h61v-728q0 -100 -50 -141t-148 -41q-16 0 -25 1l4 51h18z" />
    <glyph glyph-name="eng" unicode="&#x14b;" 
d="M501 306v-356q0 -99 -49 -140.5t-144 -41.5q-19 0 -30 1l3 52q7 -1 21 -1q75 0 107 28.5t32 95.5v347q0 78 -28 116t-100 38q-78 0 -116.5 -49.5t-38.5 -127.5v-268h-60v354l-2 140h51q11 -38 12 -67h2q57 73 160 73q55 0 92 -14.5t55.5 -43t25.5 -60.5t7 -76z" />
    <glyph glyph-name="Omacron" unicode="&#x14c;" 
d="M523 458v-244q0 -103 -61.5 -160.5t-164.5 -57.5q-101 0 -161 57t-60 161v244q0 107 58.5 166t162.5 59q108 0 167 -58.5t59 -166.5zM461 214v243q0 84 -42.5 127t-121.5 43q-78 0 -118.5 -43.5t-40.5 -126.5v-243q0 -164 159 -164q78 0 121 40.5t43 123.5zM168 787v53
h262v-53h-262z" />
    <glyph glyph-name="omacron" unicode="&#x14d;" 
d="M298 -5q-91 0 -145 49t-54 143v117q0 95 53 145t146 50q94 0 148.5 -49t54.5 -146v-117q0 -95 -56 -143.5t-147 -48.5zM441 190v111q0 75 -38.5 110t-104.5 35q-139 0 -139 -145v-111q0 -142 140 -142q65 0 103.5 34.5t38.5 107.5zM173 609v53h256v-53h-256z" />
    <glyph glyph-name="Obreve" unicode="&#x14e;" 
d="M523 458v-244q0 -103 -61.5 -160.5t-164.5 -57.5q-101 0 -161 57t-60 161v244q0 107 58.5 166t162.5 59q108 0 167 -58.5t59 -166.5zM461 214v243q0 84 -42.5 127t-121.5 43q-78 0 -118.5 -43.5t-40.5 -126.5v-243q0 -164 159 -164q78 0 121 40.5t43 123.5zM307 789
q37 0 63.5 24.5t34.5 63.5l46 -11q-8 -58 -48 -94t-96 -36q-60 0 -99 36t-46 95l47 11q7 -39 33 -64t65 -25z" />
    <glyph glyph-name="obreve" unicode="&#x14f;" 
d="M298 -5q-91 0 -145 49t-54 143v117q0 95 53 145t146 50q94 0 148.5 -49t54.5 -146v-117q0 -95 -56 -143.5t-147 -48.5zM441 190v111q0 75 -38.5 110t-104.5 35q-139 0 -139 -145v-111q0 -142 140 -142q65 0 103.5 34.5t38.5 107.5zM302 623q39 0 65.5 26.5t35.5 66.5
l47 -11q-8 -60 -48 -98.5t-99 -38.5q-62 0 -102 38.5t-47 98.5l48 11q7 -40 33.5 -66.5t66.5 -26.5z" />
    <glyph glyph-name="Ohungarumlaut" unicode="&#x150;" 
d="M523 458v-244q0 -103 -61.5 -160.5t-164.5 -57.5q-101 0 -161 57t-60 161v244q0 107 58.5 166t162.5 59q108 0 167 -58.5t59 -166.5zM461 214v243q0 84 -42.5 127t-121.5 43q-78 0 -118.5 -43.5t-40.5 -126.5v-243q0 -164 159 -164q78 0 121 40.5t43 123.5zM366 742
l-28 33l132 126l48 -52zM229 741l-28 32l132 126l49 -52z" />
    <glyph glyph-name="ohungarumlaut" unicode="&#x151;" 
d="M298 -5q-91 0 -145 49t-54 143v117q0 95 53 145t146 50q94 0 148.5 -49t54.5 -146v-117q0 -95 -56 -143.5t-147 -48.5zM441 190v111q0 75 -38.5 110t-104.5 35q-139 0 -139 -145v-111q0 -142 140 -142q65 0 103.5 34.5t38.5 107.5zM267 557l-39 18l70 169l66 -28z
M375 557l-39 18l70 169l66 -28z" />
    <glyph glyph-name="OE" unicode="&#x152;" 
d="M268 683q27 0 57 -5h234v-56h-229v-234h208v-57h-208v-276h246v-55h-256q-23 -4 -52 -4q-101 0 -161 57t-60 161v244q0 107 58.5 166t162.5 59zM109 214q0 -164 159 -164v577q-78 0 -118.5 -43.5t-40.5 -126.5v-243z" />
    <glyph glyph-name="oe" unicode="&#x153;" 
d="M425 214h-91v-24q0 -77 22 -109t71 -32q42 0 91 9l4 -55q-45 -8 -100 -8q-46 0 -75.5 16t-46.5 54q-37 -70 -113 -70q-63 0 -99.5 47t-36.5 136v130q0 93 36 142t100 49q79 0 117 -77q34 77 113 77q64 0 97.5 -40.5t33.5 -115.5q0 -129 -123 -129zM273 186v123
q0 69 -22.5 102.5t-60.5 33.5q-79 0 -79 -140v-121q0 -136 80 -136q37 0 59.5 34t22.5 104zM414 446q-80 0 -80 -139v-38h60q56 0 74 15.5t18 58.5q0 103 -72 103z" />
    <glyph glyph-name="Racute" unicode="&#x154;" 
d="M536 475q0 -68 -42 -118t-114 -65l147 -273v-19h-60l-150 283h-170v-283h-63v678h229q100 0 161.5 -51.5t61.5 -151.5zM147 339h165q75 0 118 35.5t43 101.5q0 72 -42.5 109t-116.5 37h-167v-283zM256 741l-28 32l133 126l48 -52z" />
    <glyph glyph-name="racute" unicode="&#x155;" 
d="M249 267v-267h-62v353l-3 141h52q9 -33 11 -83h2q61 91 194 91q37 0 77 -5l8 -63q-43 6 -88 6q-191 0 -191 -173zM401 716l-96 -159l-39 18l70 169z" />
    <glyph glyph-name="Rcommaaccent" unicode="&#x156;" 
d="M537 475q0 -68 -42 -118t-114 -65l147 -273v-19h-60l-150 283h-170v-283h-63v678h229q100 0 161.5 -51.5t61.5 -151.5zM148 339h165q75 0 118 35.5t43 101.5q0 72 -42.5 109t-116.5 37h-167v-283zM329 -100q0 -40 -22 -75t-61 -56l-18 25q22 16 34.5 38t12.5 41
q-46 0 -46 44q0 16 14 31t34 15q22 0 37 -17t15 -46z" />
    <glyph glyph-name="rcommaaccent" unicode="&#x157;" 
d="M254 267v-267h-62v353l-3 141h52q9 -33 11 -83h2q61 91 194 91q37 0 77 -5l8 -63q-43 6 -88 6q-191 0 -191 -173zM264 -112q0 -40 -22 -75t-61 -56l-18 25q22 16 34.5 38t12.5 41q-46 0 -46 44q0 16 14 31t34 15q22 0 37 -17t15 -46z" />
    <glyph glyph-name="Rcaron" unicode="&#x158;" 
d="M536 475q0 -68 -42 -118t-114 -65l147 -273v-19h-60l-150 283h-170v-283h-63v678h229q100 0 161.5 -51.5t61.5 -151.5zM147 339h165q75 0 118 35.5t43 101.5q0 72 -42.5 109t-116.5 37h-167v-283zM274 796l131 94l33 -31l-136 -124h-51l-137 128l30 29z" />
    <glyph glyph-name="rcaron" unicode="&#x159;" 
d="M249 267v-267h-62v353l-3 141h52q9 -33 11 -83h2q61 91 194 91q37 0 77 -5l8 -63q-43 6 -88 6q-191 0 -191 -173zM290 634l131 99l33 -31l-136 -130h-51l-137 134l30 29z" />
    <glyph glyph-name="Sacute" unicode="&#x15a;" 
d="M506 568l-54 -27q-44 87 -150 87q-63 0 -103.5 -29.5t-40.5 -86.5q0 -43 27 -70.5t67.5 -38.5t88 -25.5t88 -31.5t67.5 -57.5t27 -101.5q0 -87 -61 -139t-157 -52q-29 0 -52.5 2.5t-55 11.5t-55 25t-45.5 46t-33 71l57 23q34 -125 182 -125q71 0 114 36t43 99
q0 42 -20 70.5t-52 42.5t-71 24.5t-77.5 22.5t-70.5 29t-52 50.5t-20 82.5q0 82 55.5 129t141.5 47q46 0 80.5 -7t72 -34t59.5 -74zM283 741l-28 32l133 126l48 -52z" />
    <glyph glyph-name="sacute" unicode="&#x15b;" 
d="M295 500q63 0 109 -21.5t71 -82.5l-51 -25q-31 75 -122 75q-52 0 -81.5 -21t-29.5 -62q0 -36 29.5 -54t71.5 -25t83.5 -17.5t71 -42t29.5 -87.5q0 -64 -48 -103t-124 -39q-30 0 -54 3.5t-53.5 14.5t-51.5 36.5t-34 63.5l54 22q23 -87 137 -87q54 0 86 24t32 67
q0 37 -29.5 57.5t-71.5 28.5t-84 18t-71.5 38t-29.5 77q0 65 44 103.5t117 38.5zM397 716l-96 -159l-39 18l70 169z" />
    <glyph glyph-name="Scircumflex" unicode="&#x15c;" 
d="M506 568l-54 -27q-44 87 -150 87q-63 0 -103.5 -29.5t-40.5 -86.5q0 -43 27 -70.5t67.5 -38.5t88 -25.5t88 -31.5t67.5 -57.5t27 -101.5q0 -87 -61 -139t-157 -52q-29 0 -52.5 2.5t-55 11.5t-55 25t-45.5 46t-33 71l57 23q34 -125 182 -125q71 0 114 36t43 99
q0 42 -20 70.5t-52 42.5t-71 24.5t-77.5 22.5t-70.5 29t-52 50.5t-20 82.5q0 82 55.5 129t141.5 47q46 0 80.5 -7t72 -34t59.5 -74zM441 738l-130 97l-131 -99l-30 30l137 127h51l136 -123z" />
    <glyph glyph-name="scircumflex" unicode="&#x15d;" 
d="M295 500q63 0 109 -21.5t71 -82.5l-51 -25q-31 75 -122 75q-52 0 -81.5 -21t-29.5 -62q0 -36 29.5 -54t71.5 -25t83.5 -17.5t71 -42t29.5 -87.5q0 -64 -48 -103t-124 -39q-30 0 -54 3.5t-53.5 14.5t-51.5 36.5t-34 63.5l54 22q23 -87 137 -87q54 0 86 24t32 67
q0 37 -29.5 57.5t-71.5 28.5t-84 18t-71.5 38t-29.5 77q0 65 44 103.5t117 38.5zM430 574l-131 99l-130 -101l-30 29l137 134h51l136 -130z" />
    <glyph glyph-name="Scedilla" unicode="&#x15e;" 
d="M299 -211q-50 0 -92 20l14 33q38 -12 67 -12q23 0 40.5 10t17.5 33q0 18 -15 27t-36 9q-16 0 -31 -5l-22 18l38 75q-175 7 -216 155l57 23q34 -125 182 -125q71 0 114 36t43 99q0 42 -20 70.5t-52 42.5t-71 24.5t-77.5 22.5t-70.5 29t-52 50.5t-20 82.5q0 82 55.5 129
t141.5 47q46 0 80.5 -7t72 -34t59.5 -74l-54 -27q-44 87 -150 87q-63 0 -103.5 -29.5t-40.5 -86.5q0 -43 27 -70.5t67.5 -38.5t88 -25.5t88 -31.5t67.5 -57.5t27 -101.5q0 -83 -56.5 -134.5t-147.5 -55.5l-25 -50h9q54 0 78.5 -23t24.5 -54q0 -32 -29 -56.5t-78 -24.5z" />
    <glyph glyph-name="scedilla" unicode="&#x15f;" 
d="M295 -211q-50 0 -92 20l14 33q38 -12 67 -12q23 0 40.5 10t17.5 33q0 18 -15 27t-36 9q-16 0 -31 -5l-22 18l38 74q-132 6 -165 117l54 22q23 -87 137 -87q54 0 86 24t32 67q0 37 -29.5 57.5t-71.5 28.5t-84 18t-71.5 38t-29.5 77q0 65 44 103.5t117 38.5q63 0 109 -21.5
t71 -82.5l-51 -25q-31 75 -122 75q-52 0 -81.5 -21t-29.5 -62q0 -36 29.5 -54t71.5 -25t83.5 -17.5t71 -42t29.5 -87.5q0 -62 -45 -100.5t-116 -41.5l-25 -48h9q54 0 78.5 -23t24.5 -54q0 -32 -29 -56.5t-78 -24.5z" />
    <glyph glyph-name="Scaron" unicode="&#x160;" 
d="M506 568l-54 -27q-44 87 -150 87q-63 0 -103.5 -29.5t-40.5 -86.5q0 -43 27 -70.5t67.5 -38.5t88 -25.5t88 -31.5t67.5 -57.5t27 -101.5q0 -87 -61 -139t-157 -52q-29 0 -52.5 2.5t-55 11.5t-55 25t-45.5 46t-33 71l57 23q34 -125 182 -125q71 0 114 36t43 99
q0 42 -20 70.5t-52 42.5t-71 24.5t-77.5 22.5t-70.5 29t-52 50.5t-20 82.5q0 82 55.5 129t141.5 47q46 0 80.5 -7t72 -34t59.5 -74zM300 796l131 94l33 -31l-136 -124h-51l-137 128l30 29z" />
    <glyph glyph-name="scaron" unicode="&#x161;" 
d="M295 500q63 0 109 -21.5t71 -82.5l-51 -25q-31 75 -122 75q-52 0 -81.5 -21t-29.5 -62q0 -36 29.5 -54t71.5 -25t83.5 -17.5t71 -42t29.5 -87.5q0 -64 -48 -103t-124 -39q-30 0 -54 3.5t-53.5 14.5t-51.5 36.5t-34 63.5l54 22q23 -87 137 -87q54 0 86 24t32 67
q0 37 -29.5 57.5t-71.5 28.5t-84 18t-71.5 38t-29.5 77q0 65 44 103.5t117 38.5zM294 634l131 99l33 -31l-136 -130h-51l-137 134l30 29z" />
    <glyph glyph-name="Tcommaaccent" unicode="&#x162;" 
d="M292 -211q-50 0 -92 20l14 33q38 -12 67 -12q23 0 40.5 10t17.5 33q0 18 -15 27t-36 9q-16 0 -31 -5l-22 18l40 78h-6v622h-202v56h465v-56h-201v-622h-17l-27 -53h9q54 0 78.5 -23t24.5 -54q0 -32 -29 -56.5t-78 -24.5z" />
    <glyph glyph-name="tcommaaccent" unicode="&#x163;" 
d="M284 -192q-50 0 -92 20l14 33q38 -12 67 -12q23 0 40.5 10t17.5 33q0 18 -15 27t-36 9q-16 0 -31 -5l-22 18l49 94q-48 42 -48 137v266h-124v56h124v157h61v-157h170v-56h-170v-252q0 -77 28.5 -105.5t94.5 -28.5q32 0 64 4l3 -55q-46 -4 -69 -4q-67 0 -105 19l-26 -50h9
q54 0 78.5 -23t24.5 -54q0 -32 -29 -56.5t-78 -24.5z" />
    <glyph glyph-name="Tcaron" unicode="&#x164;" 
d="M331 622v-622h-62v622h-202v56h465v-56h-201zM298 796l131 94l33 -31l-136 -124h-51l-137 128l30 29z" />
    <glyph glyph-name="tcaron" unicode="&#x165;" 
d="M459 438h-170v-252q0 -77 28.5 -105.5t94.5 -28.5q32 0 64 4l3 -55q-46 -4 -69 -4q-89 0 -135.5 39.5t-46.5 135.5v266h-124v56h124v157h61v-157h170v-56zM484 715q0 -40 -22 -75t-61 -56l-18 25q22 16 34.5 38t12.5 41q-46 0 -46 44q0 16 14 31t34 15q22 0 37 -17
t15 -46z" />
    <glyph glyph-name="Tbar" unicode="&#x166;" 
d="M331 622v-214h154v-46h-154v-362h-62v362h-147v46h147v214h-202v56h465v-56h-201z" />
    <glyph glyph-name="tbar" unicode="&#x167;" 
d="M459 438h-170v-116h164v-46h-164v-90q0 -77 28.5 -105.5t94.5 -28.5q32 0 64 4l3 -55q-46 -4 -69 -4q-89 0 -135.5 39.5t-46.5 135.5v104h-122v46h122v116h-124v56h124v157h61v-157h170v-56z" />
    <glyph glyph-name="Utilde" unicode="&#x168;" 
d="M523 211q0 -102 -62 -158t-164 -56t-161.5 56t-59.5 158v467h61v-467q0 -160 160 -160q164 0 164 160v467h62v-467zM421 863l32 -30q-42 -60 -92 -60q-23 0 -61 17t-53 17q-34 0 -60 -38l-31 26q13 26 37.5 45t52.5 19q21 0 60 -16.5t59 -16.5q30 0 56 37z" />
    <glyph glyph-name="utilde" unicode="&#x169;" 
d="M98 178v316h60v-277q0 -88 23.5 -128.5t101.5 -40.5q79 0 118.5 49.5t39.5 127.5v269h60v-355l3 -139h-52q-9 30 -11 66h-2q-59 -72 -170 -72q-95 0 -133 49.5t-38 134.5zM420 693l32 -30q-42 -60 -92 -60q-23 0 -61 17t-53 17q-34 0 -60 -38l-31 26q13 26 37.5 45
t52.5 19q21 0 60 -16.5t59 -16.5q30 0 56 37z" />
    <glyph glyph-name="Umacron" unicode="&#x16a;" 
d="M523 211q0 -102 -62 -158t-164 -56t-161.5 56t-59.5 158v467h61v-467q0 -160 160 -160q164 0 164 160v467h62v-467zM170 787v53h262v-53h-262z" />
    <glyph glyph-name="umacron" unicode="&#x16b;" 
d="M98 178v316h60v-277q0 -88 23.5 -128.5t101.5 -40.5q79 0 118.5 49.5t39.5 127.5v269h60v-355l3 -139h-52q-9 30 -11 66h-2q-59 -72 -170 -72q-95 0 -133 49.5t-38 134.5zM171 618v53h256v-53h-256z" />
    <glyph glyph-name="Ubreve" unicode="&#x16c;" 
d="M523 211q0 -102 -62 -158t-164 -56t-161.5 56t-59.5 158v467h61v-467q0 -160 160 -160q164 0 164 160v467h62v-467zM300 789q37 0 63.5 24.5t34.5 63.5l46 -11q-8 -58 -48 -94t-96 -36q-60 0 -99 36t-46 95l47 11q7 -39 33 -64t65 -25z" />
    <glyph glyph-name="ubreve" unicode="&#x16d;" 
d="M98 178v316h60v-277q0 -88 23.5 -128.5t101.5 -40.5q79 0 118.5 49.5t39.5 127.5v269h60v-355l3 -139h-52q-9 30 -11 66h-2q-59 -72 -170 -72q-95 0 -133 49.5t-38 134.5zM302 623q39 0 65.5 26.5t35.5 66.5l47 -11q-8 -60 -48 -98.5t-99 -38.5q-62 0 -102 38.5t-47 98.5
l48 11q7 -40 33.5 -66.5t66.5 -26.5z" />
    <glyph glyph-name="Uring" unicode="&#x16e;" 
d="M523 211q0 -102 -62 -158t-164 -56t-161.5 56t-59.5 158v467h61v-467q0 -160 160 -160q164 0 164 160v467h62v-467zM297 737q-41 0 -69.5 28t-28.5 68q0 39 28.5 67.5t69.5 28.5q42 0 71 -28t29 -68t-29.5 -68t-70.5 -28zM297 890q-21 0 -37.5 -17.5t-16.5 -39.5
q0 -23 16 -39.5t38 -16.5q24 0 40 16.5t16 39.5q0 22 -16.5 39.5t-39.5 17.5z" />
    <glyph glyph-name="uring" unicode="&#x16f;" 
d="M98 178v316h60v-277q0 -88 23.5 -128.5t101.5 -40.5q79 0 118.5 49.5t39.5 127.5v269h60v-355l3 -139h-52q-9 30 -11 66h-2q-59 -72 -170 -72q-95 0 -133 49.5t-38 134.5zM302 565q-41 0 -69.5 28t-28.5 68q0 39 28.5 67.5t69.5 28.5q42 0 71 -28t29 -68t-29.5 -68
t-70.5 -28zM302 718q-21 0 -37.5 -17.5t-16.5 -39.5q0 -23 16 -39.5t38 -16.5q24 0 40 16.5t16 39.5q0 22 -16.5 39.5t-39.5 17.5z" />
    <glyph glyph-name="Uhungarumlaut" unicode="&#x170;" 
d="M523 211q0 -102 -62 -158t-164 -56t-161.5 56t-59.5 158v467h61v-467q0 -160 160 -160q164 0 164 160v467h62v-467zM348 742l-28 33l132 126l48 -52zM211 741l-28 32l132 126l49 -52z" />
    <glyph glyph-name="uhungarumlaut" unicode="&#x171;" 
d="M98 178v316h60v-277q0 -88 23.5 -128.5t101.5 -40.5q79 0 118.5 49.5t39.5 127.5v269h60v-355l3 -139h-52q-9 30 -11 66h-2q-59 -72 -170 -72q-95 0 -133 49.5t-38 134.5zM253 557l-39 18l70 169l66 -28zM361 557l-39 18l70 169l66 -28z" />
    <glyph glyph-name="Uogonek" unicode="&#x172;" 
d="M523 211q0 -95 -53.5 -150t-143.5 -63q-48 -57 -48 -108q0 -43 54 -43q25 0 56 9l10 -31q-39 -20 -87 -20q-45 0 -69 18.5t-24 50.5q0 60 69 123q-98 2 -154.5 58t-56.5 156v467h61v-467q0 -160 160 -160q164 0 164 160v467h62v-467z" />
    <glyph glyph-name="uogonek" unicode="&#x173;" 
d="M98 178v316h60v-277q0 -88 23.5 -128.5t101.5 -40.5q79 0 118.5 49.5t39.5 127.5v269h60v-355l3 -139h-34q-49 -60 -49 -110q0 -43 54 -43q25 0 56 9l10 -31q-39 -20 -87 -20q-45 0 -69 18.5t-24 50.5q0 30 22 67.5t65 71.5q-5 17 -7 53h-2q-59 -72 -170 -72
q-95 0 -133 49.5t-38 134.5z" />
    <glyph glyph-name="Wcircumflex" unicode="&#x174;" 
d="M298 304l-16 -51l-89 -253h-90l-49 288q-18 105 -18 208v182h61v-196q0 -74 12 -148l28 -173l15 -96h3l34 106l73 208h74l79 -221l29 -94h3l43 270q12 74 12 148v196h61v-182q0 -103 -18 -208l-49 -288h-90l-89 254l-16 50h-3zM429 738l-130 97l-131 -99l-30 30l137 127
h51l136 -123z" />
    <glyph glyph-name="wcircumflex" unicode="&#x175;" 
d="M301 238h-2l-14 -44l-65 -194h-81l-56 219q-22 84 -22 136v139h61v-140q0 -37 15 -100l29 -126l16 -68h3l22 73l58 168h70l51 -151l29 -92h2l14 59l26 114q20 86 20 123v140h61v-139q0 -52 -22 -136l-56 -219h-81l-65 194zM428 574l-131 99l-130 -101l-30 29l137 134h51
l136 -130z" />
    <glyph glyph-name="Ycircumflex" unicode="&#x176;" 
d="M539 659l-208 -375v-284h-62v282l-209 374v22h57l149 -269l32 -63h4l33 67l147 265h57v-19zM429 738l-130 97l-131 -99l-30 30l137 127h51l136 -123z" />
    <glyph glyph-name="ycircumflex" unicode="&#x177;" 
d="M508 473l-182 -545q-34 -103 -164 -103q-34 0 -52 2l4 55q36 -2 45 -2q46 0 70 16.5t36 49.5l20 54h-21l-172 474v20h59l113 -309l41 -127h4l39 128l102 308h58v-21zM439 574l-131 99l-130 -101l-30 29l137 134h51l136 -130z" />
    <glyph glyph-name="Ydieresis" unicode="&#x178;" 
d="M539 659l-208 -375v-284h-62v282l-209 374v22h57l149 -269l32 -63h4l33 67l147 265h57v-19zM172 797q0 17 12 28.5t28 11.5q17 0 29 -11.5t12 -28.5t-12 -29t-29 -12q-16 0 -28 12t-12 29zM347 797q0 17 12 28.5t29 11.5q16 0 28 -11.5t12 -28.5t-12 -29t-28 -12
q-17 0 -29 12t-12 29z" />
    <glyph glyph-name="Zacute" unicode="&#x179;" 
d="M84 0v59l344 563h-323v56h388v-62l-340 -561h365v-55h-434zM268 741l-28 32l133 126l48 -52z" />
    <glyph glyph-name="zacute" unicode="&#x17a;" 
d="M98 0v58l306 380h-287v56h360v-59l-303 -379h327v-56h-403zM397 716l-96 -159l-39 18l70 169z" />
    <glyph glyph-name="Zdotaccent" unicode="&#x17b;" 
d="M84 0v59l344 563h-323v56h388v-62l-340 -561h365v-55h-434zM258 818q0 16 12 28t28 12q17 0 29 -12t12 -28q0 -17 -12 -29t-29 -12t-28.5 12t-11.5 29z" />
    <glyph glyph-name="zdotaccent" unicode="&#x17c;" 
d="M98 0v58l306 380h-287v56h360v-59l-303 -379h327v-56h-403zM258 648q0 16 12 28t28 12q17 0 29 -12t12 -28q0 -17 -12 -29t-29 -12t-28.5 12t-11.5 29z" />
    <glyph glyph-name="Zcaron" unicode="&#x17d;" 
d="M84 0v59l344 563h-323v56h388v-62l-340 -561h365v-55h-434zM305 796l131 94l33 -31l-136 -124h-51l-137 128l30 29z" />
    <glyph glyph-name="zcaron" unicode="&#x17e;" 
d="M98 0v58l306 380h-287v56h360v-59l-303 -379h327v-56h-403zM302 634l131 99l33 -31l-136 -130h-51l-137 134l30 29z" />
    <glyph glyph-name="florin" unicode="&#x192;" 
d="M159 343v52h132l19 107q17 96 63 141t139 45q16 0 30 -1l-4 -54q-5 1 -26 1q-65 0 -96 -27t-43 -89l-23 -123h144v-52h-153l-44 -258q-19 -114 -63 -162t-141 -48q-20 0 -35 2l7 58q9 -1 21 -1q69 0 100.5 28t43.5 94l51 287h-122z" />
    <glyph glyph-name="AEacute" unicode="&#x1fc;" 
d="M309 0v208h-148l-77 -208h-59v20l249 658h280v-56h-183v-234h169v-57h-169v-276h201v-55h-263zM271 504l-90 -240h128v340h-4zM355 741l-28 32l133 126l48 -52z" />
    <glyph glyph-name="aeacute" unicode="&#x1fd;" 
d="M426 217h-92v-30q0 -74 21 -106t69 -32q43 0 94 9l4 -54q-47 -9 -101 -9q-96 0 -124 82q-37 -82 -121 -82q-55 0 -90 33.5t-35 109.5q0 140 150 140h71v29q0 76 -19.5 106.5t-69.5 30.5q-32 0 -81 -10l-5 55q47 10 94 10q89 0 116 -71q35 71 109 71q66 0 99 -40.5
t33 -115.5q0 -126 -122 -126zM272 223h-78q-44 0 -63.5 -21.5t-19.5 -66.5q0 -44 20.5 -64t49.5 -20q91 0 91 150v22zM413 446q-79 0 -79 -143v-31h62q55 0 72.5 14t17.5 57q0 103 -73 103zM415 716l-96 -159l-39 18l70 169z" />
    <glyph glyph-name="Oslashacute" unicode="&#x1fe;" 
d="M286 741l-28 32l133 126l48 -52zM523 458v-244q0 -103 -61.5 -160.5t-164.5 -57.5q-99 0 -158 53l-31 -49h-35v16l40 64q-37 52 -37 134v244q0 107 58.5 166t162.5 59q103 0 163 -55l31 51h33v-17l-40 -62q39 -54 39 -142zM461 214v243q0 44 -15 81l-276 -439
q40 -49 127 -49q78 0 121 40.5t43 123.5zM138 214q0 -45 13 -75l275 436q-42 52 -129 52q-78 0 -118.5 -43.5t-40.5 -126.5v-243z" />
    <glyph glyph-name="oslashacute" unicode="&#x1ff;" 
d="M408 716l-96 -159l-39 18l70 169zM298 -5q-86 0 -137 42l-27 -37h-35v16l36 47q-36 49 -36 124v117q0 95 53 145t146 50q90 0 143 -44l30 39h33v-16l-39 -50q36 -49 36 -124v-117q0 -95 -56 -143.5t-147 -48.5zM159 190q0 -47 15 -77l230 295q-35 38 -106 38
q-139 0 -139 -145v-111zM441 190v111q0 44 -16 76l-228 -296q36 -33 102 -33q65 0 103.5 34.5t38.5 107.5z" />
    <glyph glyph-name="Scommaaccent" unicode="&#x218;" 
d="M506 568l-54 -27q-44 87 -150 87q-63 0 -103.5 -29.5t-40.5 -86.5q0 -43 27 -70.5t67.5 -38.5t88 -25.5t88 -31.5t67.5 -57.5t27 -101.5q0 -87 -61 -139t-157 -52q-29 0 -52.5 2.5t-55 11.5t-55 25t-45.5 46t-33 71l57 23q34 -125 182 -125q71 0 114 36t43 99
q0 42 -20 70.5t-52 42.5t-71 24.5t-77.5 22.5t-70.5 29t-52 50.5t-20 82.5q0 82 55.5 129t141.5 47q46 0 80.5 -7t72 -34t59.5 -74zM357 -120q0 -40 -22 -75t-61 -56l-18 25q22 16 34.5 38t12.5 41q-46 0 -46 44q0 16 14 31t34 15q22 0 37 -17t15 -46z" />
    <glyph glyph-name="scommaaccent" unicode="&#x219;" 
d="M295 500q63 0 109 -21.5t71 -82.5l-51 -25q-31 75 -122 75q-52 0 -81.5 -21t-29.5 -62q0 -36 29.5 -54t71.5 -25t83.5 -17.5t71 -42t29.5 -87.5q0 -64 -48 -103t-124 -39q-30 0 -54 3.5t-53.5 14.5t-51.5 36.5t-34 63.5l54 22q23 -87 137 -87q54 0 86 24t32 67
q0 37 -29.5 57.5t-71.5 28.5t-84 18t-71.5 38t-29.5 77q0 65 44 103.5t117 38.5zM340 -120q0 -40 -22 -75t-61 -56l-18 25q22 16 34.5 38t12.5 41q-46 0 -46 44q0 16 14 31t34 15q22 0 37 -17t15 -46z" />
    <glyph glyph-name="uni021A" unicode="&#x21a;" 
d="M331 622v-622h-62v622h-202v56h465v-56h-201zM349 -120q0 -40 -22 -75t-61 -56l-18 25q22 16 34.5 38t12.5 41q-46 0 -46 44q0 16 14 31t34 15q22 0 37 -17t15 -46z" />
    <glyph glyph-name="uni021B" unicode="&#x21b;" 
d="M459 438h-170v-252q0 -77 28.5 -105.5t94.5 -28.5q32 0 64 4l3 -55q-46 -4 -69 -4q-89 0 -135.5 39.5t-46.5 135.5v266h-124v56h124v157h61v-157h170v-56zM331 -120q0 -40 -22 -75t-61 -56l-18 25q22 16 34.5 38t12.5 41q-46 0 -46 44q0 16 14 31t34 15q22 0 37 -17
t15 -46z" />
    <glyph glyph-name="schwa" unicode="&#x259;" 
d="M233 279h194v24q0 71 -34.5 106t-113.5 35q-62 0 -137 -9l-4 55q70 9 147 9q202 0 202 -186v-121q0 -96 -51 -146.5t-146 -50.5q-96 0 -144.5 40.5t-48.5 115.5q0 60 35.5 94t100.5 34zM291 47q136 0 136 143v34h-174q-52 0 -73 -17t-21 -56q0 -59 34.5 -81.5t97.5 -22.5
z" />
    <glyph glyph-name="primemod" unicode="&#x2b9;" 
d="M254 411l-43 15l101 270l75 -22z" />
    <glyph glyph-name="circumflex" unicode="&#x2c6;" 
d="M429 574l-131 99l-130 -101l-30 29l137 134h51l136 -130z" />
    <glyph glyph-name="caron" unicode="&#x2c7;" 
d="M298 634l131 99l33 -31l-136 -130h-51l-137 134l30 29z" />
    <glyph glyph-name="breve" unicode="&#x2d8;" 
d="M299 623q39 0 65.5 26.5t35.5 66.5l47 -11q-8 -60 -48 -98.5t-99 -38.5q-62 0 -102 38.5t-47 98.5l48 11q7 -40 34 -66.5t66 -26.5z" />
    <glyph glyph-name="dotaccent" unicode="&#x2d9;" 
d="M259 648q0 16 11.5 28t28.5 12t29 -12t12 -28q0 -17 -12 -29t-29 -12t-28.5 12t-11.5 29z" />
    <glyph glyph-name="ring" unicode="&#x2da;" 
d="M299 565q-41 0 -69.5 28t-28.5 68q0 39 28.5 67.5t69.5 28.5q42 0 71 -28t29 -68t-29.5 -68t-70.5 -28zM299 718q-21 0 -37.5 -17.5t-16.5 -39.5q0 -23 16 -39.5t38 -16.5q24 0 40 16.5t16 39.5q0 22 -16.5 39.5t-39.5 17.5z" />
    <glyph glyph-name="ogonek" unicode="&#x2db;" 
d="M322 21l19 -11q-61 -65 -61 -123q0 -43 54 -43q25 0 56 9l10 -31q-39 -20 -87 -20q-45 0 -69 18.5t-24 50.5q0 33 26 73.5t76 76.5z" />
    <glyph glyph-name="tilde" unicode="&#x2dc;" 
d="M416 693l32 -30q-42 -60 -92 -60q-23 0 -61 17t-53 17q-34 0 -60 -38l-31 26q13 26 37.5 45t52.5 19q21 0 60 -16.5t59 -16.5q30 0 56 37z" />
    <glyph glyph-name="hungarumlaut" unicode="&#x2dd;" 
d="M217 557l-39 18l70 169l66 -28zM325 557l-39 18l70 169l66 -28z" />
    <glyph glyph-name="tonos" unicode="&#x384;" 
d="M367 716l-96 -159l-39 18l70 169z" />
    <glyph glyph-name="dieresistonos" unicode="&#x385;" 
d="M146 636q0 16 12 28t29 12t29 -11.5t12 -28.5t-12 -29t-29 -12t-29 12.5t-12 28.5zM370 636q0 16 12 28t29 12t29 -12t12 -28t-12 -28.5t-29 -12.5t-29 12.5t-12 28.5zM276 557l-39 18l70 169l66 -28z" />
    <glyph glyph-name="Alphatonos" unicode="&#x386;" 
d="M490 0l-66 208h-251l-64 -208h-59v20l206 658h86l206 -658v-20h-58zM296 619l-24 -85l-82 -270h217l-83 272l-24 83h-4zM115 660l-96 -159l-39 18l70 169z" />
    <glyph glyph-name="anoteleia" unicode="&#x387;" 
d="M250 419q0 21 14.5 35.5t34.5 14.5q21 0 35.5 -14.5t14.5 -35.5t-13.5 -35.5t-35.5 -14.5q-21 0 -35.5 15t-14.5 35z" />
    <glyph glyph-name="Epsilontonos" unicode="&#x388;" 
d="M104 0v678h394v-56h-332v-234h290v-57h-290v-276h346v-55h-408zM21 660l-96 -159l-39 18l70 169z" />
    <glyph glyph-name="Etatonos" unicode="&#x389;" 
d="M461 0v332h-323v-332h-61v678h61v-289h323v289h62v-678h-62zM-1 660l-96 -159l-39 18l70 169z" />
    <glyph glyph-name="Iotatonos" unicode="&#x38a;" 
d="M120 622v56h359v-56h-149v-567h149v-55h-359v55h148v567h-148zM81 663l-96 -159l-39 18l70 169z" />
    <glyph glyph-name="Omicrontonos" unicode="&#x38c;" 
d="M523 458v-244q0 -103 -61.5 -160.5t-164.5 -57.5q-101 0 -161 57t-60 161v244q0 107 58.5 166t162.5 59q108 0 167 -58.5t59 -166.5zM461 214v243q0 84 -42.5 127t-121.5 43q-78 0 -118.5 -43.5t-40.5 -126.5v-243q0 -164 159 -164q78 0 121 40.5t43 123.5zM26 660
l-96 -159l-39 18l70 169z" />
    <glyph glyph-name="Upsilontonos" unicode="&#x38e;" 
d="M539 659l-208 -375v-284h-62v282l-209 374v22h57l149 -269l32 -63h4l33 67l147 265h57v-19zM22 660l-96 -159l-39 18l70 169z" />
    <glyph glyph-name="Omegatonos" unicode="&#x38f;" 
d="M537 55v-55h-200v60q58 8 91 50t33 114v235q0 84 -42 126t-121 42q-78 0 -119 -43t-41 -125v-235q0 -71 31.5 -113.5t87.5 -50.5v-60h-194v55h86q0 1 1 3q-73 42 -73 163v239q0 107 58 165t163 58q108 0 166.5 -57.5t58.5 -165.5v-239q0 -121 -73 -163v-3h87zM25 660
l-96 -159l-39 18l70 169z" />
    <glyph glyph-name="iotadieresistonos" unicode="&#x390;" 
d="M122 494h214v-439h153v-55h-367v55h154v383h-154v56zM136 636q0 16 12 28t29 12t29 -11.5t12 -28.5t-12 -29t-29 -12t-29 12.5t-12 28.5zM360 636q0 16 12 28t29 12t29 -12t12 -28t-12 -28.5t-29 -12.5t-29 12.5t-12 28.5zM266 557l-39 18l70 169l66 -28z" />
    <glyph glyph-name="Alpha" unicode="&#x391;" 
d="M490 0l-66 208h-251l-64 -208h-59v20l206 658h86l206 -658v-20h-58zM296 619l-24 -85l-82 -270h217l-83 272l-24 83h-4z" />
    <glyph glyph-name="Beta" unicode="&#x392;" 
d="M425 360v-3q58 -18 85 -65t27 -101q0 -79 -54 -135t-153 -56h-256v678h241q83 0 142 -41.5t59 -134.5q0 -42 -22 -81.5t-69 -60.5zM475 191q0 36 -13 62.5t-31 41t-42 23.5t-42 11.5t-36 2.5h-176v-277h174q71 0 118.5 32.5t47.5 103.5zM453 502q0 120 -160 120h-158
v-235h160q21 0 35.5 1t40 7t41.5 17t28.5 34.5t12.5 55.5z" />
    <glyph glyph-name="Gamma" unicode="&#x393;" 
d="M226 622v-622h-62v678h373v-56h-311z" />
    <glyph glyph-name="Delta" unicode="&#x394;" 
d="M127 55h344l-134 441l-37 125h-4l-37 -127zM50 0v21l206 657h86l206 -656v-22h-498z" />
    <glyph glyph-name="Delta" unicode="&#x2206;" 
d="M127 55h344l-134 441l-37 125h-4l-37 -127zM50 0v21l206 657h86l206 -656v-22h-498z" />
    <glyph glyph-name="Epsilon" unicode="&#x395;" 
d="M104 0v678h394v-56h-332v-234h290v-57h-290v-276h346v-55h-408z" />
    <glyph glyph-name="Zeta" unicode="&#x396;" 
d="M84 0v59l344 563h-323v56h388v-62l-340 -561h365v-55h-434z" />
    <glyph glyph-name="Eta" unicode="&#x397;" 
d="M461 0v332h-323v-332h-61v678h61v-289h323v289h62v-678h-62z" />
    <glyph glyph-name="Theta" unicode="&#x398;" 
d="M193 387h211v-56h-211v56zM523 458v-244q0 -103 -61.5 -160.5t-164.5 -57.5q-101 0 -161 57t-60 161v244q0 107 58.5 166t162.5 59q108 0 167 -58.5t59 -166.5zM461 214v243q0 84 -42.5 127t-121.5 43q-78 0 -118.5 -43.5t-40.5 -126.5v-243q0 -164 159 -164
q78 0 121 40.5t43 123.5z" />
    <glyph glyph-name="Iota" unicode="&#x399;" 
d="M120 622v56h359v-56h-149v-567h149v-55h-359v55h148v567h-148z" />
    <glyph glyph-name="Kappa" unicode="&#x39a;" 
d="M493 0l-256 380l-107 -99v-281h-61v678h61v-320l1 -1l340 321h55v-23l-246 -233l274 -406v-16h-61z" />
    <glyph glyph-name="Lambda" unicode="&#x39b;" 
d="M490 0l-155 500l-35 120h-3l-34 -115l-153 -505h-60v19l207 659h84l207 -656v-22h-58z" />
    <glyph glyph-name="Mu" unicode="&#x39c;" 
d="M495 0v542l2 80h-3l-32 -79l-125 -293h-73l-116 272l-42 101h-2l2 -72v-551h-62v678h100l122 -284l33 -91h3l34 90l121 285h99v-678h-61z" />
    <glyph glyph-name="Nu" unicode="&#x39d;" 
d="M437 0l-258 526l-37 81h-2l2 -96v-511h-62v678h92l245 -505l40 -96q1 0 1 0.5t1 0.5l-1 93v507h61v-678h-82z" />
    <glyph glyph-name="Xi" unicode="&#x39e;" 
d="M63 0v55h205v277h-150v56h150v234h-192v56h447v-56h-193v-234h151v-56h-151v-277h206v-55h-473z" />
    <glyph glyph-name="Omicron" unicode="&#x39f;" 
d="M523 458v-244q0 -103 -61.5 -160.5t-164.5 -57.5q-101 0 -161 57t-60 161v244q0 107 58.5 166t162.5 59q108 0 167 -58.5t59 -166.5zM461 214v243q0 84 -42.5 127t-121.5 43q-78 0 -118.5 -43.5t-40.5 -126.5v-243q0 -164 159 -164q78 0 121 40.5t43 123.5z" />
    <glyph glyph-name="Pi" unicode="&#x3a0;" 
d="M461 0v622h-323v-622h-61v678h446v-678h-62z" />
    <glyph glyph-name="Rho" unicode="&#x3a1;" 
d="M89 0v679h225q100 0 161 -54.5t61 -153.5q0 -102 -67.5 -157t-160.5 -55h-157v-259h-62zM151 315h162q76 0 117.5 43.5t41.5 113.5q0 72 -43 111t-113 39h-165v-307z" />
    <glyph glyph-name="Sigma" unicode="&#x3a3;" 
d="M332 372v-14l-179 -303h365v-55h-433v59l180 307l-174 250v62h416v-56h-351z" />
    <glyph glyph-name="Tau" unicode="&#x3a4;" 
d="M331 622v-622h-62v622h-202v56h465v-56h-201z" />
    <glyph glyph-name="Upsilon" unicode="&#x3a5;" 
d="M539 659l-208 -375v-284h-62v282l-209 374v22h57l149 -269l32 -63h4l33 67l147 265h57v-19z" />
    <glyph glyph-name="Phi" unicode="&#x3a6;" 
d="M265 0v73q-102 3 -166 64.5t-64 164.5v93q0 107 61 166.5t169 64.5v52h62v-52q111 -5 174.5 -64t63.5 -167v-93q0 -104 -66.5 -164.5t-171.5 -64.5v-73h-62zM327 572v-446q84 4 131 48t47 127v94q0 85 -46.5 129.5t-131.5 47.5zM94 395v-94q0 -82 45.5 -127.5
t125.5 -47.5v446q-81 -3 -126 -49t-45 -128z" />
    <glyph glyph-name="Chi" unicode="&#x3a7;" 
d="M53 19l209 334l-191 305v20h62l104 -170l60 -99h2l75 124l89 145h64v-19l-194 -306l212 -334v-19h-65l-101 163l-80 133h-2l-72 -118l-109 -178h-63v19z" />
    <glyph glyph-name="Psi" unicode="&#x3a8;" 
d="M565 679v-262q0 -103 -66 -162.5t-172 -63.5v-191h-61v191q-105 3 -168 63.5t-63 162.5v262h60v-264q0 -80 46 -124t125 -47v435h61v-435q83 3 130 46.5t47 124.5v264h61z" />
    <glyph glyph-name="Omega" unicode="&#x3a9;" 
d="M537 55v-55h-200v60q58 8 91 50t33 114v235q0 84 -42 126t-121 42q-78 0 -119 -43t-41 -125v-235q0 -71 31.5 -113.5t87.5 -50.5v-60h-194v55h86q0 1 1 3q-73 42 -73 163v239q0 107 58 165t163 58q108 0 166.5 -57.5t58.5 -165.5v-239q0 -121 -73 -163v-3h87z" />
    <glyph glyph-name="Iotadieresis" unicode="&#x3aa;" 
d="M120 622v56h359v-56h-149v-567h149v-55h-359v55h148v567h-148zM172 805q0 17 12 28.5t28 11.5q17 0 29 -11.5t12 -28.5t-12 -29t-29 -12q-16 0 -28 12t-12 29zM347 805q0 17 12 28.5t29 11.5q16 0 28 -11.5t12 -28.5t-12 -29t-28 -12q-17 0 -29 12t-12 29z" />
    <glyph glyph-name="Upsilondieresis" unicode="&#x3ab;" 
d="M539 659l-208 -375v-284h-62v282l-209 374v22h57l149 -269l32 -63h4l33 67l147 265h57v-19zM172 805q0 17 12 28.5t28 11.5q17 0 29 -11.5t12 -28.5t-12 -29t-29 -12q-16 0 -28 12t-12 29zM347 805q0 17 12 28.5t29 11.5q16 0 28 -11.5t12 -28.5t-12 -29t-28 -12
q-17 0 -29 12t-12 29z" />
    <glyph glyph-name="alphatonos" unicode="&#x3ac;" 
d="M285 498q105 0 155 -64h2q2 35 11 60h49l-3 -150v-195l3 -149h-49q-9 26 -11 64h-3q-52 -69 -157 -69q-186 0 -186 200v106q0 87 47 142t142 55zM439 202v79q0 76 -32 119.5t-117 43.5q-133 0 -133 -139v-117q0 -140 131 -140q80 0 115.5 43.5t35.5 110.5zM391 716
l-96 -159l-39 18l70 169z" />
    <glyph glyph-name="epsilontonos" unicode="&#x3ad;" 
d="M406 716l-96 -159l-39 18l70 169zM310 -5q-84 0 -134 36t-50 102q0 42 22.5 77t65.5 49v3q-78 20 -78 101q0 63 47 99.5t124 36.5q59 0 99 -16t72 -59l-44 -33q-42 55 -124 55q-44 0 -78.5 -19.5t-34.5 -62.5q0 -72 106 -72h64v-54h-67q-53 0 -82.5 -30.5t-29.5 -72.5
q0 -40 32 -63.5t93 -23.5q91 0 135 60l45 -34q-56 -79 -183 -79z" />
    <glyph glyph-name="etatonos" unicode="&#x3ae;" 
d="M501 306v-306h-60v274q0 42 -4 69t-16.5 52.5t-39 37.5t-68.5 12q-78 0 -116.5 -49.5t-38.5 -127.5v-268h-60v354l-2 140h51q11 -38 12 -67h2q57 73 160 73q55 0 92 -14.5t55.5 -43t25.5 -60.5t7 -76zM380 716l-96 -159l-39 18l70 169z" />
    <glyph glyph-name="iotatonos" unicode="&#x3af;" 
d="M122 494h214v-439h153v-55h-367v55h154v383h-154v56zM388 716l-96 -159l-39 18l70 169z" />
    <glyph glyph-name="upsilondieresistonos" unicode="&#x3b0;" 
d="M502 494v-308q0 -94 -56.5 -142.5t-147.5 -48.5t-145.5 48.5t-54.5 142.5v308h60v-305q0 -141 141 -141q65 0 104 34t39 107v305h60zM151 636q0 16 12 28t29 12t29 -11.5t12 -28.5t-12 -29t-29 -12q-16 0 -28.5 12.5t-12.5 28.5zM375 636q0 16 12 28t29 12t29 -12t12 -28
t-12.5 -28.5t-28.5 -12.5t-28.5 12.5t-12.5 28.5zM281 557l-39 18l70 169l66 -28z" />
    <glyph glyph-name="alpha" unicode="&#x3b1;" 
d="M285 498q105 0 155 -64h2q2 35 11 60h49l-3 -150v-195l3 -149h-49q-9 26 -11 64h-3q-52 -69 -157 -69q-186 0 -186 200v106q0 87 47 142t142 55zM439 202v79q0 76 -32 119.5t-117 43.5q-133 0 -133 -139v-117q0 -140 131 -140q80 0 115.5 43.5t35.5 110.5z" />
    <glyph glyph-name="beta" unicode="&#x3b2;" 
d="M503 242v-57q0 -86 -49.5 -137.5t-143.5 -51.5q-57 0 -89 17t-58 50h-2v-235h-61v680q0 96 50.5 152t142.5 56q93 0 141.5 -44t48.5 -123q0 -37 -20.5 -76t-63.5 -54v-3q104 -31 104 -174zM443 178v58q0 76 -31.5 114t-110.5 38h-35v50h44q55 0 82.5 32.5t27.5 76.5
q0 117 -128 117q-35 0 -61 -12t-39 -28.5t-21 -42t-9.5 -44.5t-1.5 -43v-287q0 -67 35 -113t114 -46q64 0 99 33.5t35 96.5z" />
    <glyph glyph-name="gamma" unicode="&#x3b3;" 
d="M447 494h59v-24l-175 -470v-172h-61v171l-176 472v23h57l102 -279l47 -130h3l50 142z" />
    <glyph glyph-name="delta" unicode="&#x3b4;" 
d="M297 -7q-91 0 -145 47t-54 144v90q0 76 40.5 129t110.5 71l3 3q-96 42 -96 117q0 56 39 91.5t128 35.5q75 0 140 -12l-6 -56q-74 13 -126 13q-112 0 -112 -67q0 -30 29 -51.5t70.5 -38.5t83.5 -39t71 -65t29 -104v-115q0 -97 -57.5 -145t-147.5 -48zM441 188v89
q0 71 -25.5 107.5t-95.5 60.5q-87 -15 -124 -61t-37 -121v-75q0 -143 140 -143q64 0 103 35t39 108z" />
    <glyph glyph-name="epsilon" unicode="&#x3b5;" 
d="M310 -5q-84 0 -134 36t-50 102q0 42 22.5 77t65.5 49v3q-78 20 -78 101q0 63 47 99.5t124 36.5q59 0 99 -16t72 -59l-44 -33q-42 55 -124 55q-44 0 -78.5 -19.5t-34.5 -62.5q0 -72 106 -72h64v-54h-67q-53 0 -82.5 -30.5t-29.5 -72.5q0 -40 32 -63.5t93 -23.5
q91 0 135 60l45 -34q-56 -79 -183 -79z" />
    <glyph glyph-name="zeta" unicode="&#x3b6;" 
d="M441 652l-1 5h-279v55h370v-49q-143 -124 -237.5 -247.5t-94.5 -197.5q0 -31 8.5 -51.5t38 -41t60 -34t100.5 -42.5q49 -20 68 -40t19 -47q0 -21 -24 -60.5t-54 -73.5l-41 27q53 78 53 99q0 15 -17.5 25.5t-83.5 36.5q-53 21 -82 36t-56.5 37.5t-38.5 52t-11 71.5
q0 79 84 200t219 239z" />
    <glyph glyph-name="eta" unicode="&#x3b7;" 
d="M501 306v-306h-60v274q0 42 -4 69t-16.5 52.5t-39 37.5t-68.5 12q-78 0 -116.5 -49.5t-38.5 -127.5v-268h-60v354l-2 140h51q11 -38 12 -67h2q57 73 160 73q55 0 92 -14.5t55.5 -43t25.5 -60.5t7 -76z" />
    <glyph glyph-name="theta" unicode="&#x3b8;" 
d="M502 194q0 -94 -57 -146.5t-147 -52.5t-145 52t-55 147v319q0 97 53.5 150.5t146.5 53.5q92 0 148 -53.5t56 -150.5v-319zM158 405h283v105q0 75 -39 114t-104 39t-102.5 -39t-37.5 -114v-105zM441 352h-283v-155q0 -74 38.5 -111.5t102.5 -37.5q63 0 102.5 38t39.5 111
v155z" />
    <glyph glyph-name="iota" unicode="&#x3b9;" 
d="M122 494h214v-439h153v-55h-367v55h154v383h-154v56z" />
    <glyph glyph-name="kappa" unicode="&#x3ba;" 
d="M468 0l-209 270l-78 -66v-204h-60v494h60v-213l1 -1l261 214h63v-24l-202 -163l226 -289v-18h-62z" />
    <glyph glyph-name="lambda" unicode="&#x3bb;" 
d="M286 494l-31 103q-20 63 -90 63q-22 0 -43 -1l-2 56q23 2 51 2q62 0 94 -27.5t49 -79.5l189 -590v-20h-58l-92 284l-47 153h-7l-51 -151l-101 -286h-59v19l170 475h28z" />
    <glyph glyph-name="nu" unicode="&#x3bd;" 
d="M449 494h58v-24l-167 -470h-80l-168 471v23h57l103 -287l49 -149h3l46 145z" />
    <glyph glyph-name="xi" unicode="&#x3be;" 
d="M365 437h83v-54h-88q-80 0 -123 -52.5t-43 -120.5q0 -28 10.5 -49.5t23 -35t40 -27t44.5 -19.5t53 -17q40 -13 58.5 -19.5t41.5 -17.5t32 -23.5t9 -28.5q0 -48 -67 -138l-43 27q44 75 44 96q0 6 -6 11.5t-20 11t-25 9.5t-31.5 10t-29.5 9q-33 10 -51 16.5t-49.5 23.5
t-48 35.5t-30.5 50.5t-14 72q0 66 35 122.5t91 75.5v3q-106 32 -106 143q0 75 48 122t138 47q124 0 176 -79l-48 -35q-42 61 -121 61q-66 0 -99.5 -30t-33.5 -83q0 -61 41.5 -89t108.5 -28z" />
    <glyph glyph-name="omicron" unicode="&#x3bf;" 
d="M298 -5q-91 0 -145 49t-54 143v117q0 95 53 145t146 50q94 0 148.5 -49t54.5 -146v-117q0 -95 -56 -143.5t-147 -48.5zM441 190v111q0 75 -38.5 110t-104.5 35q-139 0 -139 -145v-111q0 -142 140 -142q65 0 103.5 34.5t38.5 107.5z" />
    <glyph glyph-name="pi" unicode="&#x3c0;" 
d="M502 0h-61v438h-282v-438h-61v494h404v-494z" />
    <glyph glyph-name="rho" unicode="&#x3c1;" 
d="M163 60h-2v-232h-62v470q0 94 54.5 147.5t146.5 53.5q94 0 148.5 -49t54.5 -145v-107q0 -91 -47 -146.5t-148 -55.5q-97 0 -145 64zM443 190v112q0 143 -143 143q-65 0 -103 -37t-38 -109v-94q0 -68 35.5 -112.5t114.5 -44.5q67 0 100.5 38.5t33.5 103.5z" />
    <glyph glyph-name="sigma1" unicode="&#x3c2;" 
d="M493 401l-53 -28q-29 73 -123 73q-131 0 -131 -149v-77q0 -23 3.5 -40.5t14 -32.5t19 -24t31 -20.5t37 -17.5t48.5 -20q72 -29 93 -48t21 -46q0 -35 -75 -130l-41 26q50 77 50 96q0 21 -86 53q-44 17 -69 29.5t-53 35.5t-40.5 56.5t-12.5 79.5v85q0 93 49 145t137 52
q134 0 181 -98z" />
    <glyph glyph-name="sigma" unicode="&#x3c3;" 
d="M444 438v-1q-1 -1 -1 -2q45 -35 45 -133v-116q0 -94 -56 -142.5t-148 -48.5q-91 0 -144.5 48.5t-53.5 142.5v116q0 96 52.5 144t144.5 48h251v-56h-90zM428 189v110q0 140 -144 140q-138 0 -138 -140v-110q0 -141 139 -141q65 0 104 34t39 107z" />
    <glyph glyph-name="tau" unicode="&#x3c4;" 
d="M463 438h-175v-252q0 -79 27.5 -106.5t102.5 -27.5q20 0 56 3l3 -55q-41 -3 -62 -3q-97 0 -142.5 39t-45.5 136v266h-132v56h368v-56z" />
    <glyph glyph-name="upsilon" unicode="&#x3c5;" 
d="M502 494v-308q0 -94 -56.5 -142.5t-147.5 -48.5t-145.5 48.5t-54.5 142.5v308h60v-305q0 -141 141 -141q65 0 104 34t39 107v305h60z" />
    <glyph glyph-name="phi" unicode="&#x3c6;" 
d="M327 442v-395q74 4 117.5 42t43.5 111v98q0 74 -40.5 108t-120.5 36zM327 -172h-58v167q-95 3 -157 55t-62 145v118q0 64 29.5 107.5t80.5 61.5l18 -50q-68 -28 -68 -122v-111q0 -72 44.5 -110.5t114.5 -41.5v449h61q102 0 160 -49.5t58 -146.5v-102q0 -95 -62 -147.5
t-159 -55.5v-167z" />
    <glyph glyph-name="chi" unicode="&#x3c7;" 
d="M452 0l-153 206l-153 -206h-59v20l173 235l-161 218v21h60l140 -190l141 190h59v-22l-162 -217l174 -234v-21h-59z" />
    <glyph glyph-name="psi" unicode="&#x3c8;" 
d="M548 494v-285q0 -99 -57.5 -154.5t-161.5 -59.5v-167h-59v167q-104 4 -161.5 60t-57.5 154v285h60v-281q0 -79 42.5 -120.5t116.5 -44.5v446h59v-446q158 9 158 164v282h61z" />
    <glyph glyph-name="omega" unicode="&#x3c9;" 
d="M298 65q-34 -70 -110 -70q-136 0 -136 176v139q0 72 30 121t84 64l18 -51q-72 -24 -72 -142v-128q0 -126 79 -126q78 0 78 123v158h61v-158q0 -56 16 -89.5t62 -33.5q44 0 61.5 32.5t17.5 96.5v128q0 115 -71 139l18 51q53 -15 83.5 -63.5t30.5 -120.5v-139
q0 -177 -137 -177q-77 0 -109 70h-4z" />
    <glyph glyph-name="iotadieresis" unicode="&#x3ca;" 
d="M122 494h214v-439h153v-55h-367v55h154v383h-154v56zM157 642q0 16 11.5 28t28.5 12t29 -11.5t12 -28.5t-12 -29t-29 -12q-16 0 -28 12t-12 29zM332 642q0 17 12 28.5t29 11.5t28.5 -12t11.5 -28q0 -17 -12 -29t-28 -12q-17 0 -29 12t-12 29z" />
    <glyph glyph-name="upsilondieresis" unicode="&#x3cb;" 
d="M502 494v-308q0 -94 -56.5 -142.5t-147.5 -48.5t-145.5 48.5t-54.5 142.5v308h60v-305q0 -141 141 -141q65 0 104 34t39 107v305h60zM172 642q0 16 12 28t28 12q17 0 29 -11.5t12 -28.5t-12 -29t-29 -12q-16 0 -28 12t-12 29zM347 642q0 17 12 28.5t29 11.5q16 0 28 -12
t12 -28q0 -17 -12 -29t-28 -12q-17 0 -29 12t-12 29z" />
    <glyph glyph-name="omicrontonos" unicode="&#x3cc;" 
d="M298 -5q-91 0 -145 49t-54 143v117q0 95 53 145t146 50q94 0 148.5 -49t54.5 -146v-117q0 -95 -56 -143.5t-147 -48.5zM441 190v111q0 75 -38.5 110t-104.5 35q-139 0 -139 -145v-111q0 -142 140 -142q65 0 103.5 34.5t38.5 107.5zM401 716l-96 -159l-39 18l70 169z" />
    <glyph glyph-name="upsilontonos" unicode="&#x3cd;" 
d="M404 716l-96 -159l-39 18l70 169zM502 494v-308q0 -94 -56.5 -142.5t-147.5 -48.5t-145.5 48.5t-54.5 142.5v308h60v-305q0 -141 141 -141q65 0 104 34t39 107v305h60z" />
    <glyph glyph-name="omegatonos" unicode="&#x3ce;" 
d="M298 65q-34 -70 -110 -70q-136 0 -136 176v139q0 72 30 121t84 64l18 -51q-72 -24 -72 -142v-128q0 -126 79 -126q78 0 78 123v158h61v-158q0 -56 16 -89.5t62 -33.5q44 0 61.5 32.5t17.5 96.5v128q0 115 -71 139l18 51q53 -15 83.5 -63.5t30.5 -120.5v-139
q0 -177 -137 -177q-77 0 -109 70h-4zM397 716l-96 -159l-39 18l70 169z" />
    <glyph glyph-name="uni0400" unicode="&#x400;" 
d="M104 0v678h394v-56h-332v-234h290v-57h-290v-276h346v-55h-408zM365 773l-29 -32l-152 106l48 52z" />
    <glyph glyph-name="afii10023" unicode="&#x401;" 
d="M104 0v678h394v-56h-332v-234h290v-57h-290v-276h346v-55h-408zM170 805q0 17 12 28.5t28 11.5q17 0 29 -11.5t12 -28.5t-12 -29t-29 -12q-16 0 -28 12t-12 29zM345 805q0 17 12 28.5t29 11.5q16 0 28 -11.5t12 -28.5t-12 -29t-28 -12q-17 0 -29 12t-12 29z" />
    <glyph glyph-name="afii10051" unicode="&#x402;" 
d="M238 369l1 -1h2q52 81 150 81q85 0 121.5 -49.5t36.5 -142.5v-144q0 -90 -46 -147.5t-135 -57.5q-2 0 -7 0.5t-8 0.5l3 50q76 0 104 44.5t28 123.5v131q0 136 -109 136q-66 0 -103.5 -51t-37.5 -139v-204h-61v622h-153v56h421v-56h-207v-253z" />
    <glyph glyph-name="afii10052" unicode="&#x403;" 
d="M309 741l-28 32l133 126l48 -52zM226 622v-622h-62v678h373v-56h-311z" />
    <glyph glyph-name="afii10053" unicode="&#x404;" 
d="M314 -4q-106 0 -161 54.5t-55 151.5v256q0 108 56 166.5t159 58.5q140 0 192 -101l-55 -28q-39 74 -137 74q-153 0 -153 -171v-69h236v-55h-236v-116q0 -166 154 -166q109 0 148 88l55 -28q-56 -115 -203 -115z" />
    <glyph glyph-name="afii10054" unicode="&#x405;" 
d="M506 568l-54 -27q-44 87 -150 87q-63 0 -103.5 -29.5t-40.5 -86.5q0 -43 27 -70.5t67.5 -38.5t88 -25.5t88 -31.5t67.5 -57.5t27 -101.5q0 -87 -61 -139t-157 -52q-29 0 -52.5 2.5t-55 11.5t-55 25t-45.5 46t-33 71l57 23q34 -125 182 -125q71 0 114 36t43 99
q0 42 -20 70.5t-52 42.5t-71 24.5t-77.5 22.5t-70.5 29t-52 50.5t-20 82.5q0 82 55.5 129t141.5 47q46 0 80.5 -7t72 -34t59.5 -74z" />
    <glyph glyph-name="afii10055" unicode="&#x406;" 
d="M120 622v56h359v-56h-149v-567h149v-55h-359v55h148v567h-148z" />
    <glyph glyph-name="afii10056" unicode="&#x407;" 
d="M120 622v56h359v-56h-149v-567h149v-55h-359v55h148v567h-148zM172 805q0 17 12 28.5t28 11.5q17 0 29 -11.5t12 -28.5t-12 -29t-29 -12q-16 0 -28 12t-12 29zM347 805q0 17 12 28.5t29 11.5q16 0 28 -11.5t12 -28.5t-12 -29t-28 -12q-17 0 -29 12t-12 29z" />
    <glyph glyph-name="afii10057" unicode="&#x408;" 
d="M142 622v56h357v-471q0 -103 -59 -157t-161 -54q-67 0 -121.5 27.5t-79.5 84.5l51 30q22 -48 58 -68t92 -20q79 0 118.5 38t39.5 119v415h-295z" />
    <glyph glyph-name="afii10058" unicode="&#x409;" 
d="M136 678h210v-290h34q93 0 153.5 -47t60.5 -146q0 -97 -58 -146t-154 -49h-97v622h-97l-35 -450q-7 -94 -42.5 -138t-117.5 -44l4 53q55 1 74 35t27 132zM346 55h44q65 0 102.5 36.5t37.5 103.5q0 68 -39.5 102.5t-102.5 34.5h-42v-277z" />
    <glyph glyph-name="afii10059" unicode="&#x40a;" 
d="M329 388h42q95 0 155 -47t60 -146q0 -97 -57.5 -146t-153.5 -49h-107v332h-167v-332h-61v678h61v-290h167v290h61v-290zM329 55h53q64 0 102.5 36t38.5 104q0 70 -40.5 103.5t-101.5 33.5h-52v-277z" />
    <glyph glyph-name="afii10060" unicode="&#x40b;" 
d="M238 369l1 -1h2q54 81 150 81q86 0 122 -50t36 -142v-257h-61v258q0 136 -109 136q-71 0 -106 -54t-35 -133v-207h-61v622h-153v56h421v-56h-207v-253z" />
    <glyph glyph-name="afii10061" unicode="&#x40c;" 
d="M137 330h-2v-330h-62v678h62v-298h2l335 298h59v-21l-296 -258l-57 -43l57 -43l312 -294v-19h-64zM243 727l-28 32l133 126l48 -52z" />
    <glyph glyph-name="uni040D" unicode="&#x40d;" 
d="M350 773l-29 -32l-152 106l48 52zM415 515l-253 -515h-82v678h62v-518l-1 -78h3l38 91l17 32l231 473h89v-678h-62v520l2 82h-1l-2 1q-13 -30 -41 -88z" />
    <glyph glyph-name="afii10062" unicode="&#x40e;" 
d="M310 779q37 0 63.5 24.5t34.5 63.5l46 -11q-8 -58 -48 -94t-96 -36q-60 0 -99 36t-46 95l47 11q7 -39 33 -64t65 -25zM535 659l-210 -517q-29 -71 -67 -107.5t-101 -36.5q-27 0 -44 2l4 52q17 -1 32 -1q45 0 73 26.5t52 86.5l19 48h-23l-200 447v19h55l154 -348l29 -68h6
l27 71l140 345h54v-19z" />
    <glyph glyph-name="afii10145" unicode="&#x40f;" 
d="M461 55v623h62v-678h-195v-142h-56v142h-195v678h61v-623h323z" />
    <glyph glyph-name="afii10017" unicode="&#x410;" 
d="M490 0l-66 208h-251l-64 -208h-59v20l206 658h86l206 -658v-20h-58zM296 619l-24 -85l-82 -270h217l-83 272l-24 83h-4z" />
    <glyph glyph-name="afii10018" unicode="&#x411;" 
d="M138 388h178q93 0 156 -47t63 -143q0 -99 -60 -148.5t-157 -49.5h-242v678h389v-56h-327v-234zM138 55h187q66 0 106.5 37t40.5 106q0 66 -42 100t-106 34h-186v-277z" />
    <glyph glyph-name="afii10019" unicode="&#x412;" 
d="M425 360v-3q58 -18 85 -65t27 -101q0 -79 -54 -135t-153 -56h-256v678h241q83 0 142 -41.5t59 -134.5q0 -42 -22 -81.5t-69 -60.5zM475 191q0 36 -13 62.5t-31 41t-42 23.5t-42 11.5t-36 2.5h-176v-277h174q71 0 118.5 32.5t47.5 103.5zM453 502q0 120 -160 120h-158
v-235h160q21 0 35.5 1t40 7t41.5 17t28.5 34.5t12.5 55.5z" />
    <glyph glyph-name="afii10020" unicode="&#x413;" 
d="M226 622v-622h-62v678h373v-56h-311z" />
    <glyph glyph-name="afii10021" unicode="&#x414;" 
d="M582 55v-191h-57v136h-452v-136h-57v191h52q39 69 59 146.5t31 209.5l22 267h337v-623h65zM131 55h326v567h-226l-20 -244q-17 -205 -80 -323z" />
    <glyph glyph-name="afii10022" unicode="&#x415;" 
d="M104 0v678h394v-56h-332v-234h290v-57h-290v-276h346v-55h-408z" />
    <glyph glyph-name="afii10024" unicode="&#x416;" 
d="M335 310h-5v-310h-61v310h-5l-202 -310h-59v16l189 288l45 51l-47 51l-179 249v23h55l199 -283h4v283h61v-283h4l199 283h55v-23l-179 -249l-47 -51l45 -51l189 -288v-16h-59z" />
    <glyph glyph-name="afii10025" unicode="&#x417;" 
d="M403 369v-2q60 -20 87.5 -67t27.5 -102q0 -90 -64.5 -146t-163.5 -56q-164 0 -222 104l52 29q42 -78 165 -78q86 0 129 41.5t43 105.5t-42.5 101.5t-116.5 37.5h-84v54h83q57 0 99 30t42 83q0 61 -43 92.5t-106 31.5q-99 0 -157 -76l-46 35q73 97 207 97
q87 0 147.5 -44.5t60.5 -131.5q0 -39 -23.5 -80t-74.5 -59z" />
    <glyph glyph-name="afii10026" unicode="&#x418;" 
d="M415 515l-253 -515h-82v678h62v-518l-1 -78h3l38 91l17 32l231 473h89v-678h-62v520l2 82h-1l-2 1q-13 -30 -41 -88z" />
    <glyph glyph-name="afii10027" unicode="&#x419;" 
d="M303 789q37 0 63.5 24.5t34.5 63.5l46 -11q-8 -58 -48 -94t-96 -36q-60 0 -99 36t-46 95l47 11q7 -39 33 -64t65 -25zM415 515l-253 -515h-82v678h62v-518l-1 -78h3l38 91l17 32l231 473h89v-678h-62v520l2 82h-1l-2 1q-13 -30 -41 -88z" />
    <glyph glyph-name="afii10028" unicode="&#x41a;" 
d="M137 330h-2v-330h-62v678h62v-298h2l335 298h59v-21l-296 -258l-57 -43l57 -43l312 -294v-19h-64z" />
    <glyph glyph-name="afii10029" unicode="&#x41b;" 
d="M171 678h359v-678h-61v622h-246l-35 -449q-7 -94 -43 -139.5t-117 -42.5l3 53q56 1 75.5 35t27.5 132z" />
    <glyph glyph-name="afii10030" unicode="&#x41c;" 
d="M495 0v542l2 80h-3l-32 -79l-125 -293h-73l-116 272l-42 101h-2l2 -72v-551h-62v678h100l122 -284l33 -91h3l34 90l121 285h99v-678h-61z" />
    <glyph glyph-name="afii10031" unicode="&#x41d;" 
d="M461 0v332h-323v-332h-61v678h61v-289h323v289h62v-678h-62z" />
    <glyph glyph-name="afii10032" unicode="&#x41e;" 
d="M523 458v-244q0 -103 -61.5 -160.5t-164.5 -57.5q-101 0 -161 57t-60 161v244q0 107 58.5 166t162.5 59q108 0 167 -58.5t59 -166.5zM461 214v243q0 84 -42.5 127t-121.5 43q-78 0 -118.5 -43.5t-40.5 -126.5v-243q0 -164 159 -164q78 0 121 40.5t43 123.5z" />
    <glyph glyph-name="afii10033" unicode="&#x41f;" 
d="M461 0v622h-323v-622h-61v678h446v-678h-62z" />
    <glyph glyph-name="afii10034" unicode="&#x420;" 
d="M89 0v679h225q100 0 161 -54.5t61 -153.5q0 -102 -67.5 -157t-160.5 -55h-157v-259h-62zM151 315h162q76 0 117.5 43.5t41.5 113.5q0 72 -43 111t-113 39h-165v-307z" />
    <glyph glyph-name="afii10035" unicode="&#x421;" 
d="M313 -4q-106 0 -161 54.5t-55 151.5v256q0 108 56 166.5t159 58.5q139 0 191 -101l-54 -28q-39 74 -138 74q-152 0 -152 -171v-240q0 -166 154 -166q109 0 148 88l55 -28q-29 -58 -77.5 -86.5t-125.5 -28.5z" />
    <glyph glyph-name="afii10036" unicode="&#x422;" 
d="M331 622v-622h-62v622h-202v56h465v-56h-201z" />
    <glyph glyph-name="afii10037" unicode="&#x423;" 
d="M535 659l-210 -517q-29 -71 -67 -107.5t-101 -36.5q-27 0 -44 2l4 52q17 -1 32 -1q45 0 73 26.5t52 86.5l19 48h-23l-200 447v19h55l154 -348l29 -68h6l27 71l140 345h54v-19z" />
    <glyph glyph-name="afii10038" unicode="&#x424;" 
d="M265 0v73q-102 3 -166 64.5t-64 164.5v93q0 107 61 166.5t169 64.5v52h62v-52q111 -5 174.5 -64t63.5 -167v-93q0 -104 -66.5 -164.5t-171.5 -64.5v-73h-62zM327 572v-446q84 4 131 48t47 127v94q0 85 -46.5 129.5t-131.5 47.5zM94 395v-94q0 -82 45.5 -127.5
t125.5 -47.5v446q-81 -3 -126 -49t-45 -128z" />
    <glyph glyph-name="afii10039" unicode="&#x425;" 
d="M53 19l209 334l-191 305v20h62l104 -170l60 -99h2l75 124l89 145h64v-19l-194 -306l212 -334v-19h-65l-101 163l-80 133h-2l-72 -118l-109 -178h-63v19z" />
    <glyph glyph-name="afii10040" unicode="&#x426;" 
d="M431 55v623h61v-623h75v-191h-56v136h-434v678h61v-623h293z" />
    <glyph glyph-name="afii10041" unicode="&#x427;" 
d="M67 678h61v-148q0 -91 41.5 -129.5t142.5 -38.5q60 0 135 15v301h61v-678h-61v319q-86 -11 -146 -11q-234 0 -234 214v156z" />
    <glyph glyph-name="afii10042" unicode="&#x428;" 
d="M269 55v623h62v-623h163v623h61v-678h-511v678h62v-623h163z" />
    <glyph glyph-name="afii10043" unicode="&#x429;" 
d="M256 55v623h62v-623h154v623h61v-623h69v-191h-56v136h-505v678h61v-623h154z" />
    <glyph glyph-name="afii10044" unicode="&#x42a;" 
d="M243 388h102q95 0 158.5 -47t63.5 -143q0 -99 -60.5 -148.5t-156.5 -49.5h-168v622h-157v56h218v-290zM243 55h114q66 0 106 37.5t40 106.5q0 66 -41.5 99.5t-106.5 33.5h-112v-277z" />
    <glyph glyph-name="afii10045" unicode="&#x42b;" 
d="M106 388h89q95 0 158.5 -47t63.5 -143q0 -99 -60.5 -148.5t-156.5 -49.5h-155v678h61v-290zM106 55h101q66 0 106 37.5t40 106.5q0 66 -41.5 99.5t-106.5 33.5h-99v-277zM556 0h-62v678h62v-678z" />
    <glyph glyph-name="afii10046" unicode="&#x42c;" 
d="M140 388h176q94 0 158 -47t64 -143q0 -99 -60.5 -148.5t-157.5 -49.5h-241v678h61v-290zM140 55h188q66 0 106 37.5t40 106.5q0 66 -41.5 99.5t-106.5 33.5h-186v-277z" />
    <glyph glyph-name="afii10047" unicode="&#x42d;" 
d="M285 -4q-147 0 -205 115l55 28q39 -88 150 -88q156 0 156 169v114h-236v55h236v71q0 168 -150 168q-102 0 -141 -76l-51 29q52 102 194 102q104 0 157 -56.5t53 -165.5v-256q0 -97 -56 -153t-162 -56z" />
    <glyph glyph-name="afii10048" unicode="&#x42e;" 
d="M556 216q0 -105 -46 -162.5t-136 -57.5t-134 59.5t-44 160.5v115h-89v-331h-62v678h62v-289h89v69q0 113 46 169t132 56q182 0 182 -225v-242zM494 216v241q0 86 -29 128t-91 42q-116 0 -116 -170v-241q0 -166 116 -166q120 0 120 166z" />
    <glyph glyph-name="afii10049" unicode="&#x42f;" 
d="M66 475q0 100 61.5 151.5t161.5 51.5h228v-678h-62v283h-170l-150 -283h-60v19l147 273q-72 14 -114 64t-42 119zM290 339h165v283h-167q-74 0 -116.5 -37t-42.5 -109q0 -66 43 -101.5t118 -35.5z" />
    <glyph glyph-name="afii10065" unicode="&#x430;" 
d="M491 0h-49q-9 21 -12 61h-2q-55 -66 -165 -66q-86 0 -132 32.5t-46 110.5q0 61 40.5 103t116.5 42h184v25q0 78 -32.5 107.5t-113.5 29.5q-49 0 -122 -10l-4 54q70 10 137 10q98 0 147.5 -41t49.5 -137v-180zM426 229h-173q-52 0 -79.5 -24.5t-27.5 -69.5q0 -86 120 -86
q160 0 160 152v28z" />
    <glyph glyph-name="afii10066" unicode="&#x431;" 
d="M307 478q95 0 144.5 -52.5t49.5 -142.5v-106q0 -84 -56 -133t-150 -49q-91 0 -143.5 48.5t-52.5 133.5v155q0 108 24.5 179.5t84.5 115.5q56 41 233 108l20 -49q-144 -58 -175 -75q-79 -42 -105 -108q-13 -34 -17 -82h3q49 57 140 57zM441 190v89q0 147 -142 147
q-140 0 -140 -152v-84q0 -142 142 -142q64 0 102 34.5t38 107.5z" />
    <glyph glyph-name="afii10067" unicode="&#x432;" 
d="M495 366q0 -32 -18 -61t-55 -46q42 -17 62 -49t20 -66q0 -59 -40.5 -101.5t-117.5 -42.5h-234v494h232q72 0 111.5 -37t39.5 -91zM442 144q0 40 -28 64t-69 24h-173v-176h163q107 0 107 88zM434 364q0 38 -28.5 56.5t-68.5 18.5h-165v-152h170q41 0 66.5 20t25.5 57z" />
    <glyph glyph-name="afii10068" unicode="&#x433;" 
d="M226 438v-438h-61v494h328v-56h-267z" />
    <glyph glyph-name="afii10069" unicode="&#x434;" 
d="M546 56v-192h-57v136h-396v-136h-58v192h58q28 52 42 116t23 162l15 160h306v-438h67zM225 438l-11 -129q-7 -85 -19 -142t-41 -111h265v382h-194z" />
    <glyph glyph-name="afii10070" unicode="&#x435;" 
d="M364 214h-194v-24q0 -76 34 -108.5t114 -32.5q65 0 140 9l4 -54q-68 -9 -149 -9q-104 0 -153.5 43.5t-49.5 141.5v121q0 96 51 147t146 51q96 0 144.5 -40.5t48.5 -115.5q0 -61 -35.5 -95t-100.5 -34zM306 446q-136 0 -136 -143v-34h174q52 0 73 17.5t21 56.5
q0 58 -34.5 80.5t-97.5 22.5z" />
    <glyph glyph-name="afii10072" unicode="&#x436;" 
d="M266 286h3v207h61v-207h3l189 207h60v-22l-168 -179l-48 -39l48 -40l183 -195v-18h-62l-201 217h-4v-217h-61v217h-4l-200 -217h-63v18l183 195l48 40l-49 39l-167 179v22h61z" />
    <glyph glyph-name="afii10073" unicode="&#x437;" 
d="M279 -5q-139 0 -189 89l50 31q35 -67 137 -67q60 0 97 26.5t37 71.5q0 41 -29 66.5t-86 25.5h-66v54h64q42 0 75.5 16.5t33.5 55.5q0 80 -124 80q-86 0 -123 -56l-49 32q51 78 179 78q81 0 129.5 -35t48.5 -98q0 -33 -21 -61t-56 -39v-3q43 -14 64.5 -46t21.5 -73
q0 -68 -53.5 -108t-140.5 -40z" />
    <glyph glyph-name="afii10074" unicode="&#x438;" 
d="M396 364l-209 -364h-73v494h59v-412l34 66l197 346h81v-494h-60v418z" />
    <glyph glyph-name="afii10075" unicode="&#x439;" 
d="M301 609q39 0 65.5 26.5t35.5 66.5l47 -11q-8 -60 -48 -98.5t-99 -38.5q-62 0 -102 38.5t-47 98.5l48 11q7 -40 34 -66.5t66 -26.5zM396 364l-209 -364h-73v494h59v-412l34 66l197 346h81v-494h-60v418z" />
    <glyph glyph-name="afii10076" unicode="&#x43a;" 
d="M187 217h-5v-217h-60v494h60v-207h4l258 207h66v-22l-237 -185l-57 -34l58 -33l252 -202v-18h-71z" />
    <glyph glyph-name="afii10077" unicode="&#x43b;" 
d="M169 494h316v-494h-61v438h-199l-20 -279q-13 -165 -133 -165h-18l2 51q46 2 67 30.5t26 106.5z" />
    <glyph glyph-name="afii10078" unicode="&#x43c;" 
d="M460 0v355h-3l-12 -30l-110 -244h-70l-112 247l-12 28h-2v-356h-60v494h63l127 -288l29 -68h3l30 70l126 286h63v-494h-60z" />
    <glyph glyph-name="afii10079" unicode="&#x43d;" 
d="M435 0v235h-272v-235h-60v494h60v-202h272v202h62v-494h-62z" />
    <glyph glyph-name="afii10080" unicode="&#x43e;" 
d="M298 -5q-91 0 -145 49t-54 143v117q0 95 53 145t146 50q94 0 148.5 -49t54.5 -146v-117q0 -95 -56 -143.5t-147 -48.5zM441 190v111q0 75 -38.5 110t-104.5 35q-139 0 -139 -145v-111q0 -142 140 -142q65 0 103.5 34.5t38.5 107.5z" />
    <glyph glyph-name="afii10081" unicode="&#x43f;" 
d="M502 0h-61v438h-282v-438h-61v494h404v-494z" />
    <glyph glyph-name="afii10082" unicode="&#x440;" 
d="M306 -5q-98 0 -144 64h-2v-231h-62v526l-3 140h50q9 -28 11 -62h2q53 66 156 66q188 0 188 -198v-103q0 -91 -46.5 -146.5t-149.5 -55.5zM442 191v111q0 144 -132 144q-150 0 -150 -162v-80q0 -68 34.5 -112t113.5 -44q68 0 101 38.5t33 104.5z" />
    <glyph glyph-name="afii10083" unicode="&#x441;" 
d="M311 -5q-97 0 -146.5 46t-49.5 147v117q0 96 51 145t142 49q132 0 176 -100l-54 -26q-29 73 -122 73q-133 0 -133 -143v-112q0 -76 33.5 -109.5t103.5 -33.5q47 0 78 18t47 63l54 -25q-44 -109 -180 -109z" />
    <glyph glyph-name="afii10084" unicode="&#x442;" 
d="M331 438v-438h-62v438h-184v56h430v-56h-184z" />
    <glyph glyph-name="afii10085" unicode="&#x443;" 
d="M508 473l-182 -545q-34 -103 -164 -103q-34 0 -52 2l4 55q36 -2 45 -2q46 0 70 16.5t36 49.5l20 54h-21l-172 474v20h59l113 -309l41 -127h4l39 128l102 308h58v-21z" />
    <glyph glyph-name="afii10086" unicode="&#x444;" 
d="M328 449v-404q75 5 117.5 45t42.5 114v81q0 75 -42 117.5t-118 46.5zM270 502v154h-154v56h212v-210q102 -4 161 -60.5t59 -155.5v-85q0 -96 -61.5 -150.5t-158.5 -58.5v-164h-58v164q-96 4 -158 58.5t-62 150.5v85q0 101 61 157t159 59zM270 45v404q-76 -5 -118 -47
t-42 -117v-81q0 -73 43.5 -113.5t116.5 -45.5z" />
    <glyph glyph-name="afii10087" unicode="&#x445;" 
d="M452 0l-153 206l-153 -206h-59v20l173 235l-161 218v21h60l140 -190l141 190h59v-22l-162 -217l174 -234v-21h-59z" />
    <glyph glyph-name="afii10088" unicode="&#x446;" 
d="M416 55v439h61v-439h74v-191h-56v136h-402v494h62v-439h261z" />
    <glyph glyph-name="afii10089" unicode="&#x447;" 
d="M90 494h61v-72q0 -88 31 -122t128 -34q47 0 112 11v217h60v-494h-60v224q-66 -11 -126 -11q-104 0 -155 45.5t-51 145.5v90z" />
    <glyph glyph-name="afii10090" unicode="&#x448;" 
d="M270 55v439h60v-439h152v439h60v-494h-484v494h60v-439h152z" />
    <glyph glyph-name="afii10091" unicode="&#x449;" 
d="M258 55v439h60v-439h148v439h60v-439h72v-191h-56v136h-492v494h60v-439h148z" />
    <glyph glyph-name="afii10092" unicode="&#x44a;" 
d="M256 291h140q68 0 116 -36.5t48 -107.5q0 -74 -47 -110.5t-124 -36.5h-193v439h-167v55h227v-203zM256 55h139q50 0 77.5 24t27.5 67q0 42 -28.5 65.5t-69.5 23.5h-146v-180z" />
    <glyph glyph-name="afii10093" unicode="&#x44b;" 
d="M541 0h-60v494h60v-494zM118 55h135q50 0 77.5 23.5t27.5 67.5q0 42 -28.5 65.5t-70.5 23.5h-141v-180zM118 291h137q67 0 115 -36.5t48 -107.5q0 -74 -47 -110.5t-124 -36.5h-189v494h60v-203z" />
    <glyph glyph-name="afii10094" unicode="&#x44c;" 
d="M180 55h167q50 0 77 24.5t27 66.5t-28.5 65.5t-70.5 23.5h-172v-180zM180 291h168q67 0 115 -36.5t48 -107.5q0 -74 -47 -110.5t-124 -36.5h-220v494h60v-203z" />
    <glyph glyph-name="afii10095" unicode="&#x44d;" 
d="M166 383l-50 31q46 85 170 85q185 0 185 -191v-114q0 -199 -195 -199q-136 0 -180 109l54 25q30 -81 124 -81q70 0 103.5 34t33.5 111v39h-196v53h196v29q0 69 -32 100.5t-95 31.5q-88 0 -118 -63z" />
    <glyph glyph-name="afii10096" unicode="&#x44e;" 
d="M375 -5q-81 0 -125.5 49t-44.5 142v49h-87v-235h-60v494h60v-202h87v11q0 96 44.5 146t125.5 50q82 0 127 -50.5t45 -145.5v-117q0 -93 -46 -142t-126 -49zM486 188v114q0 144 -111 144q-110 0 -110 -144v-114q0 -140 111 -140q110 0 110 140z" />
    <glyph glyph-name="afii10097" unicode="&#x44f;" 
d="M413 439h-142q-43 0 -73.5 -22t-30.5 -66q0 -42 30 -62.5t73 -20.5h143v171zM289 213l-124 -213h-56v24l115 195q-56 11 -88 45.5t-32 84.5q0 75 45.5 110t122.5 35h201v-494h-60v213h-124z" />
    <glyph glyph-name="afii10071" unicode="&#x451;" 
d="M364 214h-194v-24q0 -76 34 -108.5t114 -32.5q65 0 140 9l4 -54q-68 -9 -149 -9q-104 0 -153.5 43.5t-49.5 141.5v121q0 96 51 147t146 51q96 0 144.5 -40.5t48.5 -115.5q0 -61 -35.5 -95t-100.5 -34zM306 446q-136 0 -136 -143v-34h174q52 0 73 17.5t21 56.5
q0 58 -34.5 80.5t-97.5 22.5zM182 649q0 17 12 28.5t28 11.5q17 0 29 -11.5t12 -28.5t-12 -29t-29 -12q-16 0 -28 12t-12 29zM357 649q0 17 12 28.5t29 11.5q16 0 28 -11.5t12 -28.5t-12 -29t-28 -12q-17 0 -29 12t-12 29z" />
    <glyph glyph-name="afii10099" unicode="&#x452;" 
d="M507 306v-180q0 -88 -33.5 -136t-116.5 -48q-16 0 -24 1l2 56q67 0 89.5 29t22.5 102v175q0 140 -128 140q-78 0 -116.5 -49.5t-38.5 -127.5v-268h-60v579h-53v47h53v86h60v-86h156v-47h-156v-152h2q59 73 161 73q98 0 139 -49.5t41 -144.5z" />
    <glyph glyph-name="afii10100" unicode="&#x453;" 
d="M413 729l-96 -159l-39 18l70 169zM226 438v-438h-61v494h328v-56h-267z" />
    <glyph glyph-name="afii10101" unicode="&#x454;" 
d="M313 -5q-97 0 -146 46t-49 147v117q0 96 51 145t142 49q126 0 172 -92l-52 -29q-30 68 -120 68q-133 0 -133 -143v-19h196v-53h-196v-40q0 -76 33.5 -109.5t103.5 -33.5q95 0 124 81l54 -25q-44 -109 -180 -109z" />
    <glyph glyph-name="afii10102" unicode="&#x455;" 
d="M295 500q63 0 109 -21.5t71 -82.5l-51 -25q-31 75 -122 75q-52 0 -81.5 -21t-29.5 -62q0 -36 29.5 -54t71.5 -25t83.5 -17.5t71 -42t29.5 -87.5q0 -64 -48 -103t-124 -39q-30 0 -54 3.5t-53.5 14.5t-51.5 36.5t-34 63.5l54 22q23 -87 137 -87q54 0 86 24t32 67
q0 37 -29.5 57.5t-71.5 28.5t-84 18t-71.5 38t-29.5 77q0 65 44 103.5t117 38.5z" />
    <glyph glyph-name="afii10103" unicode="&#x456;" 
d="M122 494h214v-439h153v-55h-367v55h154v383h-154v56zM259 664q0 19 13 32t32 13q18 0 31 -13t13 -32t-13 -31.5t-31 -12.5q-19 0 -32 13t-13 31z" />
    <glyph glyph-name="afii10104" unicode="&#x457;" 
d="M157 642q0 16 11.5 28t28.5 12t29 -11.5t12 -28.5t-12 -29t-29 -12q-16 0 -28 12t-12 29zM332 642q0 17 12 28.5t29 11.5t28.5 -12t11.5 -28q0 -17 -12 -29t-28 -12q-17 0 -29 12t-12 29zM122 494h214v-439h153v-55h-367v55h154v383h-154v56z" />
    <glyph glyph-name="afii10105" unicode="&#x458;" 
d="M163 494h213v-491q0 -96 -46.5 -137t-136.5 -41q-25 0 -70 5l4 55q25 -3 64 -3q65 0 95.5 28t30.5 106v422h-154v56zM300 664q0 19 12.5 32t31.5 13t32 -13t13 -32t-13 -31.5t-32 -12.5t-31.5 13t-12.5 31z" />
    <glyph glyph-name="afii10106" unicode="&#x459;" 
d="M116 494h223v-203h89q66 0 114 -36.5t48 -107.5q0 -74 -47 -110.5t-124 -36.5h-140v438h-107l-20 -279q-6 -82 -37.5 -123.5t-98.5 -41.5h-14l2 51q46 2 66.5 30.5t25.5 106.5zM339 55h87q49 0 76.5 23.5t27.5 67.5q0 42 -28.5 65.5t-70.5 23.5h-92v-180z" />
    <glyph glyph-name="afii10107" unicode="&#x45a;" 
d="M329 291h90q66 0 114 -36.5t48 -107.5q0 -74 -47 -110.5t-124 -36.5h-141v235h-168v-235h-60v494h60v-203h168v203h60v-203zM329 55h88q49 0 76.5 23.5t27.5 67.5q0 42 -28.5 65.5t-70.5 23.5h-93v-180z" />
    <glyph glyph-name="afii10108" unicode="&#x45b;" 
d="M45 579v47h53v86h61v-86h155v-47h-155v-152h2q56 73 161 73q55 0 92.5 -16t55.5 -45.5t24.5 -60.5t6.5 -72v-306h-60v268q0 43 -4 70.5t-16.5 54.5t-39 39.5t-68.5 12.5q-78 0 -116.5 -49.5t-38.5 -127.5v-268h-60v579h-53z" />
    <glyph glyph-name="afii10109" unicode="&#x45c;" 
d="M385 716l-96 -159l-39 18l70 169zM187 217h-5v-217h-60v494h60v-207h4l258 207h66v-22l-237 -185l-57 -34l58 -33l252 -202v-18h-71z" />
    <glyph glyph-name="uni045D" unicode="&#x45d;" 
d="M333 575l-39 -18l-97 159l66 28zM396 364l-209 -364h-73v494h59v-412l34 66l197 346h81v-494h-60v418z" />
    <glyph glyph-name="afii10110" unicode="&#x45e;" 
d="M508 473l-182 -545q-34 -103 -164 -103q-34 0 -52 2l4 55q36 -2 45 -2q46 0 70 16.5t36 49.5l20 54h-21l-172 474v20h59l113 -309l41 -127h4l39 128l102 308h58v-21zM310 618q39 0 65.5 26.5t35.5 66.5l47 -11q-8 -60 -48 -98.5t-99 -38.5q-62 0 -102 38.5t-47 98.5
l48 11q7 -40 33.5 -66.5t66.5 -26.5z" />
    <glyph glyph-name="afii10193" unicode="&#x45f;" 
d="M164 494v-439h271v439h62v-494h-169v-136h-56v136h-169v494h61z" />
    <glyph glyph-name="afii10146" unicode="&#x462;" 
d="M147 388h176q95 0 158.5 -47t63.5 -143q0 -99 -60.5 -148.5t-156.5 -49.5h-242v513h-59v53h59v112h61v-112h193v-53h-193v-125zM147 55h188q66 0 106 37.5t40 106.5q0 66 -41.5 99.5t-106.5 33.5h-186v-277z" />
    <glyph glyph-name="afii10194" unicode="&#x463;" 
d="M186 291h168q67 0 115 -36.5t48 -107.5q0 -74 -47 -110.5t-124 -36.5h-220v467h-58v53h58v192h60v-192h210v-53h-210v-176zM186 55h167q50 0 77 24.5t27 66.5t-28 65.5t-70 23.5h-173v-180z" />
    <glyph glyph-name="afii10147" unicode="&#x472;" 
d="M193 387h211v-56h-211v56zM523 458v-244q0 -103 -61.5 -160.5t-164.5 -57.5q-101 0 -161 57t-60 161v244q0 107 58.5 166t162.5 59q108 0 167 -58.5t59 -166.5zM461 214v243q0 84 -42.5 127t-121.5 43q-78 0 -118.5 -43.5t-40.5 -126.5v-243q0 -164 159 -164
q78 0 121 40.5t43 123.5z" />
    <glyph glyph-name="afii10195" unicode="&#x473;" 
d="M298 -5q-91 0 -145 49t-54 143v117q0 95 53 145t146 50q94 0 148.5 -49t54.5 -146v-117q0 -95 -56 -143.5t-147 -48.5zM441 190v36h-282v-36q0 -142 140 -142q65 0 103.5 34.5t38.5 107.5zM159 301v-20h282v20q0 75 -38.5 110t-104.5 35q-139 0 -139 -145z" />
    <glyph glyph-name="uni048C" unicode="&#x48c;" 
d="M147 388h176q95 0 158.5 -47t63.5 -143q0 -99 -60.5 -148.5t-156.5 -49.5h-242v513h-59v53h59v112h61v-112h193v-53h-193v-125zM147 55h188q66 0 106 37.5t40 106.5q0 66 -41.5 99.5t-106.5 33.5h-186v-277z" />
    <glyph glyph-name="uni048D" unicode="&#x48d;" 
d="M186 291h168q67 0 115 -36.5t48 -107.5q0 -74 -47 -110.5t-124 -36.5h-220v467h-58v53h58v192h60v-192h210v-53h-210v-176zM186 55h167q50 0 77 24.5t27 66.5t-28 65.5t-70 23.5h-173v-180z" />
    <glyph glyph-name="afii10050" unicode="&#x490;" 
d="M188 622v-622h-62v678h329v139h56v-195h-323z" />
    <glyph glyph-name="afii10098" unicode="&#x491;" 
d="M211 438v-438h-60v494h278v139h56v-195h-274z" />
    <glyph glyph-name="uni0492" unicode="&#x492;" 
d="M213 622v-234h261v-56h-261v-332h-61v332h-68v56h68v290h373v-56h-312z" />
    <glyph glyph-name="uni0493" unicode="&#x493;" 
d="M427 274v-54h-197v-220h-60v220h-58v54h58v220h327v-56h-267v-164h197z" />
    <glyph glyph-name="uni0496" unicode="&#x496;" 
d="M332 310h-5v-310h-61v310h-5l-199 -310h-59v16l186 287l45 52l-47 52l-170 248v23h54l191 -283h4v283h61v-283h3l191 283h54v-23l-171 -249l-46 -51l46 -52l160 -248h35v-191h-57v136h-12z" />
    <glyph glyph-name="uni0497" unicode="&#x497;" 
d="M264 286h4v207h60v-207h4l186 207h61v-22l-167 -179l-47 -39l48 -40l147 -158h38v-191h-56v136h-11l-198 217h-5v-217h-60v217h-5l-198 -217h-63v18l181 195l48 40l-48 39l-166 179v22h61z" />
    <glyph glyph-name="uni049A" unicode="&#x49a;" 
d="M135 330h-2v-330h-61v678h61v-298h2l335 298h59v-21l-295 -258l-58 -43l57 -43l275 -258h44v-191h-57v136h-14z" />
    <glyph glyph-name="uni049B" unicode="&#x49b;" 
d="M185 217h-5v-217h-60v494h60v-207h5l257 207h66v-22l-237 -185l-56 -34l57 -33l206 -165h49v-191h-56v136h-18z" />
    <glyph glyph-name="uni049C" unicode="&#x49c;" 
d="M227 332h-3v-121h-52v121h-40v-332h-62v678h62v-288h40v105h52v-105h3l272 288h56v-21l-237 -248l-57 -47l55 -49l253 -294v-19h-61z" />
    <glyph glyph-name="uni049D" unicode="&#x49d;" 
d="M273 382v-90h4l180 202h58v-22l-157 -171l-47 -37l48 -38l171 -208v-18h-61l-192 235h-4v-113h-53v113h-39v-235h-61v494h61v-203h39v91h53z" />
    <glyph glyph-name="uni04A0" unicode="&#x4a0;" 
d="M184 330h-2v-330h-62v622h-115v56h177v-298h2l328 298h60v-21l-289 -258l-59 -44l58 -43l305 -293v-19h-64z" />
    <glyph glyph-name="uni04A1" unicode="&#x4a1;" 
d="M211 217h-6v-217h-60v438h-101v56h161v-207h5l258 207h66v-22l-238 -185l-56 -34l57 -33l253 -202v-18h-72z" />
    <glyph glyph-name="uni04A2" unicode="&#x4a2;" 
d="M457 0v332h-323v-332h-62v678h62v-289h323v289h61v-623h30v-191h-57v136h-34z" />
    <glyph glyph-name="uni04A3" unicode="&#x4a3;" 
d="M432 0v235h-272v-235h-60v494h60v-202h272v202h62v-439h28v-191h-56v136h-34z" />
    <glyph glyph-name="uni04B0" unicode="&#x4b0;" 
d="M539 659l-205 -370h151v-55h-154v-234h-62v234h-153v55h149l-205 367v22h57l149 -269l32 -63h4l33 67l147 265h57v-19z" />
    <glyph glyph-name="uni04B1" unicode="&#x4b1;" 
d="M485 0v-54h-154v-118h-62v118h-153v54h144l-168 471v23h57l97 -272l55 -164h3l51 161l94 275h58v-24l-167 -470h145z" />
    <glyph glyph-name="uni04B2" unicode="&#x4b2;" 
d="M53 19l209 334l-191 305v20h62l99 -162l65 -107h2l75 124l89 145h64v-19l-194 -306l190 -298h30v-191h-56v136h-17l-106 172l-75 124h-2l-75 -123l-106 -173h-63v19z" />
    <glyph glyph-name="uni04B3" unicode="&#x4b3;" 
d="M452 0l-153 206l-153 -206h-59v20l173 235l-161 218v21h60l140 -190l141 190h59v-22l-162 -217l149 -200h34v-191h-56v136h-12z" />
    <glyph glyph-name="uni04B6" unicode="&#x4b6;" 
d="M64 678h62v-140q0 -94 38.5 -135t145.5 -41q58 0 135 15v301h60v-623h30v-191h-57v136h-33v319q-94 -12 -146 -12q-235 0 -235 215v156z" />
    <glyph glyph-name="uni04B7" unicode="&#x4b7;" 
d="M88 494h61v-72q0 -88 31 -122t128 -34q46 0 112 11v217h60v-438h28v-192h-56v136h-32v224q-67 -11 -127 -11q-104 0 -154.5 45.5t-50.5 145.5v90z" />
    <glyph glyph-name="uni04B8" unicode="&#x4b8;" 
d="M66 678h62v-149q0 -78 29.5 -116.5t99.5 -47.5v135h52v-138q65 0 138 14v302h60v-678h-60v319q-81 -12 -138 -12v-135h-52v137q-191 19 -191 213v156z" />
    <glyph glyph-name="uni04B9" unicode="&#x4b9;" 
d="M90 494h61v-72q0 -76 21.5 -110t85.5 -43v117h52v-120q51 0 112 11v217h60v-494h-60v224q-66 -11 -112 -11v-115h-52v116q-85 8 -126.5 53.5t-41.5 136.5v90z" />
    <glyph glyph-name="uni04D8" unicode="&#x4d8;" 
d="M242 374h219v75q0 93 -43 135.5t-136 42.5q-63 0 -156 -13l-4 56q78 13 162 13q239 0 239 -233v-240q0 -97 -60.5 -155.5t-165.5 -58.5t-163 57.5t-58 157.5q0 74 42 118.5t124 44.5zM297 50q82 0 123 43.5t41 120.5v103h-213q-111 0 -111 -112q0 -64 37 -109.5
t123 -45.5z" />
    <glyph glyph-name="schwacyrillic" unicode="&#x4d9;" 
d="M233 279h194v24q0 71 -34.5 106t-113.5 35q-62 0 -137 -9l-4 55q70 9 147 9q202 0 202 -186v-121q0 -96 -51 -146.5t-146 -50.5q-96 0 -144.5 40.5t-48.5 115.5q0 60 35.5 94t100.5 34zM291 47q136 0 136 143v34h-174q-52 0 -73 -17t-21 -56q0 -59 34.5 -81.5t97.5 -22.5
z" />
    <glyph glyph-name="Wgrave" unicode="&#x1e80;" 
d="M298 304l-16 -51l-89 -253h-90l-49 288q-18 105 -18 208v182h61v-196q0 -74 12 -148l28 -173l15 -96h3l34 106l73 208h74l79 -221l29 -94h3l43 270q12 74 12 148v196h61v-182q0 -103 -18 -208l-49 -288h-90l-89 254l-16 50h-3zM346 763l-29 -32l-152 106l48 52z" />
    <glyph glyph-name="wgrave" unicode="&#x1e81;" 
d="M301 238h-2l-14 -44l-65 -194h-81l-56 219q-22 84 -22 136v139h61v-140q0 -37 15 -100l29 -126l16 -68h3l22 73l58 168h70l51 -151l29 -92h2l14 59l26 114q20 86 20 123v140h61v-139q0 -52 -22 -136l-56 -219h-81l-65 194zM329 575l-39 -18l-97 159l66 28z" />
    <glyph glyph-name="Wacute" unicode="&#x1e82;" 
d="M298 304l-16 -51l-89 -253h-90l-49 288q-18 105 -18 208v182h61v-196q0 -74 12 -148l28 -173l15 -96h3l34 106l73 208h74l79 -221l29 -94h3l43 270q12 74 12 148v196h61v-182q0 -103 -18 -208l-49 -288h-90l-89 254l-16 50h-3zM281 741l-28 32l133 126l48 -52z" />
    <glyph glyph-name="wacute" unicode="&#x1e83;" 
d="M301 238h-2l-14 -44l-65 -194h-81l-56 219q-22 84 -22 136v139h61v-140q0 -37 15 -100l29 -126l16 -68h3l22 73l58 168h70l51 -151l29 -92h2l14 59l26 114q20 86 20 123v140h61v-139q0 -52 -22 -136l-56 -219h-81l-65 194zM405 716l-96 -159l-39 18l70 169z" />
    <glyph glyph-name="Wdieresis" unicode="&#x1e84;" 
d="M298 304l-16 -51l-89 -253h-90l-49 288q-18 105 -18 208v182h61v-196q0 -74 12 -148l28 -173l15 -96h3l34 106l73 208h74l79 -221l29 -94h3l43 270q12 74 12 148v196h61v-182q0 -103 -18 -208l-49 -288h-90l-89 254l-16 50h-3zM171 801q0 17 11.5 28.5t28.5 11.5
t29 -11.5t12 -28.5t-12 -29t-29 -12q-16 0 -28 12t-12 29zM346 801q0 17 12 28.5t29 11.5t28.5 -11.5t11.5 -28.5t-12 -29t-28 -12q-17 0 -29 12t-12 29z" />
    <glyph glyph-name="wdieresis" unicode="&#x1e85;" 
d="M301 238h-2l-14 -44l-65 -194h-81l-56 219q-22 84 -22 136v139h61v-140q0 -37 15 -100l29 -126l16 -68h3l22 73l58 168h70l51 -151l29 -92h2l14 59l26 114q20 86 20 123v140h61v-139q0 -52 -22 -136l-56 -219h-81l-65 194zM168 640q0 16 12 28t28 12q17 0 29 -11.5
t12 -28.5t-12 -29t-29 -12q-16 0 -28 12t-12 29zM343 640q0 17 12 28.5t29 11.5q16 0 28 -12t12 -28q0 -17 -12 -29t-28 -12q-17 0 -29 12t-12 29z" />
    <glyph glyph-name="uni1E9E" unicode="&#x1e9e;" 
d="M246 332v52l171 199q-42 44 -123 44q-77 0 -118 -43.5t-41 -126.5v-457h-61v458q0 107 58 166t162 59q139 0 195 -95l-173 -200q90 0 153.5 -47t63.5 -142q0 -94 -63.5 -148.5t-165.5 -54.5q-68 0 -113 19l13 56q45 -21 95 -21q80 0 125 38t45 111q0 65 -43 99t-112 34
h-68z" />
    <glyph glyph-name="Ygrave" unicode="&#x1ef2;" 
d="M539 659l-208 -375v-284h-62v282l-209 374v22h57l149 -269l32 -63h4l33 67l147 265h57v-19zM363 773l-29 -32l-152 106l48 52z" />
    <glyph glyph-name="ygrave" unicode="&#x1ef3;" 
d="M508 473l-182 -545q-34 -103 -164 -103q-34 0 -52 2l4 55q36 -2 45 -2q46 0 70 16.5t36 49.5l20 54h-21l-172 474v20h59l113 -309l41 -127h4l39 128l102 308h58v-21zM340 575l-39 -18l-97 159l66 28z" />
    <glyph glyph-name="endash" unicode="&#x2013;" 
d="M115 227v54h370v-54h-370z" />
    <glyph glyph-name="emdash" unicode="&#x2014;" 
d="M71 226v54h459v-54h-459z" />
    <glyph glyph-name="afii00208" unicode="&#x2015;" 
d="M71 226v54h459v-54h-459z" />
    <glyph glyph-name="quoteleft" unicode="&#x2018;" 
d="M242 554q0 44 26.5 89.5t68.5 69.5l20 -29q-23 -16 -40 -46.5t-18 -54.5q51 0 51 -47q0 -21 -15 -36t-37 -15q-25 0 -40.5 18.5t-15.5 50.5z" />
    <glyph glyph-name="quoteright" unicode="&#x2019;" 
d="M357 642q0 -45 -26.5 -90t-68.5 -68l-20 28q24 16 40 46.5t17 54.5q-26 0 -38.5 13t-12.5 34t15.5 36t37.5 15q25 0 40.5 -18.5t15.5 -50.5z" />
    <glyph glyph-name="quotesinglbase" unicode="&#x201a;" 
d="M357 24q0 -45 -26.5 -90t-68.5 -68l-20 29q24 16 40.5 46t17.5 54q-51 0 -51 47q0 21 15 36t37 15q25 0 40.5 -18.5t15.5 -50.5z" />
    <glyph glyph-name="quotedblleft" unicode="&#x201c;" 
d="M309 556q0 45 26.5 90t68.5 68l20 -28q-23 -16 -40 -46.5t-18 -54.5q26 0 38.5 -13t12.5 -34t-15 -36t-37 -15q-25 0 -40.5 18.5t-15.5 50.5zM177 556q0 45 26.5 90t68.5 68l20 -28q-23 -16 -40 -46.5t-18 -54.5q26 0 38.5 -13t12.5 -34t-15 -36t-37 -15
q-25 0 -40.5 18.5t-15.5 50.5z" />
    <glyph glyph-name="quotedblright" unicode="&#x201d;" 
d="M423 645q0 -45 -26.5 -90t-68.5 -68l-20 28q24 16 40.5 46.5t17.5 54.5q-26 0 -38.5 13t-12.5 34t15 36t37 15q25 0 40.5 -18.5t15.5 -50.5zM291 645q0 -45 -26.5 -90t-68.5 -68l-20 28q24 16 40.5 46.5t17.5 54.5q-26 0 -38.5 13t-12.5 34t15 36t37 15q25 0 40.5 -18.5
t15.5 -50.5z" />
    <glyph glyph-name="quotedblbase" unicode="&#x201e;" 
d="M292 24q0 -45 -26.5 -90t-68.5 -68l-20 29q24 16 40.5 46t17.5 54q-51 0 -51 47q0 21 15 36t37 15q25 0 40.5 -18.5t15.5 -50.5zM423 24q0 -45 -26.5 -90t-68.5 -68l-20 29q24 16 40.5 46t17.5 54q-51 0 -51 47q0 21 15 36t37 15q25 0 40.5 -18.5t15.5 -50.5z" />
    <glyph glyph-name="dagger" unicode="&#x2020;" 
d="M323 453v-493h-64v493h-178v56h178v189h64v-189h194v-56h-194z" />
    <glyph glyph-name="daggerdbl" unicode="&#x2021;" 
d="M81 295h178v163h-178v56h178v184h64v-184h194v-56h-194v-163h194v-56h-194v-279h-64v279h-178v56z" />
    <glyph glyph-name="bullet" unicode="&#x2022;" 
d="M300 139q-46 0 -79.5 33.5t-33.5 79.5t33.5 79.5t79.5 33.5t79.5 -33.5t33.5 -79.5t-33.5 -79.5t-79.5 -33.5z" />
    <glyph glyph-name="ellipsis" unicode="&#x2026;" 
d="M53 43q0 21 14 35.5t34 14.5q22 0 36.5 -14.5t14.5 -35.5t-14 -35.5t-35 -14.5t-35.5 14.5t-14.5 35.5zM253 43q0 21 14 35.5t34 14.5q22 0 36.5 -14.5t14.5 -35.5t-14 -35.5t-35 -14.5t-35.5 14.5t-14.5 35.5zM448 43q0 21 14.5 35.5t34.5 14.5q21 0 35.5 -14.5
t14.5 -35.5t-13.5 -35.5t-35.5 -14.5q-21 0 -35.5 14.5t-14.5 35.5z" />
    <glyph glyph-name="perthousand" unicode="&#x2030;" 
d="M443 -3q-54 0 -85 32t-31 83v49q0 54 30.5 86t85.5 32q57 0 87.5 -31.5t30.5 -86.5v-49q0 -52 -31.5 -83.5t-86.5 -31.5zM516 160q0 77 -73 77q-71 0 -71 -77v-46q0 -36 18 -56t53 -20q73 0 73 76v46zM18 305l545 183h22v-34l-545 -184h-22v35zM179 -3q-54 0 -85 32
t-31 83v49q0 54 30.5 86t85.5 32q57 0 87.5 -31.5t30.5 -86.5v-49q0 -52 -31.5 -83.5t-86.5 -31.5zM252 160q0 77 -73 77q-71 0 -71 -77v-46q0 -36 18 -56t53 -20q73 0 73 76v46zM179 397q-55 0 -85.5 31.5t-30.5 83.5v49q0 54 30.5 85.5t85.5 31.5q57 0 87.5 -31.5
t30.5 -85.5v-49q0 -52 -31.5 -83.5t-86.5 -31.5zM252 560q0 77 -73 77q-71 0 -71 -77v-46q0 -36 18 -56t53 -20q73 0 73 76v46z" />
    <glyph glyph-name="guilsinglleft" unicode="&#x2039;" 
d="M181 245l177 191l37 -27l-135 -171l140 -168l-37 -30l-182 190v15z" />
    <glyph glyph-name="guilsinglright" unicode="&#x203a;" 
d="M204 409l37 27l176 -191v-15l-181 -190l-37 30l140 168z" />
    <glyph glyph-name="fraction" unicode="&#x2044;" 
d="M80 1l398 696h42v-17l-396 -694h-44v15z" />
    <glyph glyph-name="Euro" unicode="&#x20ac;" 
d="M329 -4q-106 0 -161 54.5t-55 151.5v65h-54v49h54v70h-54v50h54v22q0 108 56 166.5t159 58.5q127 0 182 -84l-47 -37q-38 65 -136 65q-75 0 -113.5 -43.5t-38.5 -126.5v-21h238v-50h-238v-70h238v-49h-238v-50q0 -167 154 -167q57 0 90 19t56 56l45 -36q-58 -93 -191 -93
z" />
    <glyph glyph-name="uni20B4" unicode="&#x20b4;" 
d="M83 427h309q24 30 24 71q0 51 -33 83.5t-95 32.5q-97 0 -139 -75l-46 36q49 92 187 92q86 0 135 -45.5t49 -116.5q0 -44 -19 -78h35v-48h-79q-16 -12 -35 -21t-49.5 -20.5t-43.5 -16.5h207v-48h-299q-43 -37 -43 -94q0 -60 40.5 -88.5t107.5 -28.5q115 0 150 86l52 -26
q-42 -115 -204 -115q-93 0 -149 45t-56 124q0 57 30 97h-36v48h91q24 14 71.5 31t67.5 27h-230v48z" />
    <glyph glyph-name="uni20BD" unicode="&#x20bd;" 
d="M361 176h-164v-176h-61v176h-65v49h65v49h-65v51h65v339h171q98 0 157.5 -50.5t59.5 -144.5q0 -92 -61.5 -143.5t-154.5 -51.5h-111v-49h164v-49zM197 325h109q75 0 114.5 39.5t39.5 105.5q0 67 -41.5 103t-109.5 36h-112v-284z" />
    <glyph glyph-name="trademark" unicode="&#x2122;" 
d="M481 391v216h-2l-70 -144h-27l-70 145h-1q-1 -1 -2 -1v-216h-36v290h50l72 -161h2l72 161h50v-290h-38zM162 641v-250h-39v250h-78v40h196v-40h-79z" />
    <glyph glyph-name="partialdiff" unicode="&#x2202;" 
d="M216 673v48h16q141 0 203.5 -88.5t62.5 -263.5v-171q0 -103 -53 -154t-151 -51q-36 0 -68 9t-62.5 29t-48.5 59.5t-18 93.5v91q0 92 56.5 137t133.5 45q105 0 151 -58q-1 68 -12.5 118t-30 79.5t-48 47t-60 23.5t-71.5 6zM438 188v73q0 74 -38 109t-106 35
q-138 0 -138 -147v-70q0 -74 37.5 -108.5t101.5 -34.5q66 0 104.5 35t38.5 108z" />
    <glyph glyph-name="gradient" unicode="&#x2207;" 
d="M471 622h-344l132 -438l37 -127h4l37 125zM50 657v21h498v-22l-206 -656h-86z" />
    <glyph glyph-name="product" unicode="&#x220f;" 
d="M461 -55v677h-323v-677h-61v733h446v-733h-62z" />
    <glyph glyph-name="summation" unicode="&#x2211;" 
d="M332 321v-15l-179 -310h365v-55h-433v59l180 314l-174 301v63h416v-56h-351z" />
    <glyph glyph-name="minus" unicode="&#x2212;" 
d="M514 276h-428v56h428v-56z" />
    <glyph glyph-name="radical" unicode="&#x221a;" 
d="M360 -126h-75l-146 440l-96 -33l-19 51l149 51l148 -443h1l195 762h58z" />
    <glyph glyph-name="infinity" unicode="&#x221e;" 
d="M153 405q73 0 146 -99q76 99 148 99q51 0 85.5 -34.5t34.5 -100.5q0 -65 -36 -100.5t-85 -35.5q-71 0 -147 100q-76 -100 -146 -100q-50 0 -85.5 35.5t-35.5 100.5q0 66 34.5 100.5t86.5 34.5zM155 355q-31 0 -50 -22t-19 -63q0 -42 19.5 -64t50.5 -22q44 0 111 86
q-63 85 -112 85zM443 355q-48 0 -111 -85q66 -86 109 -86q32 0 52 22t20 64q0 41 -19.5 63t-50.5 22z" />
    <glyph glyph-name="logicaland" unicode="&#x2227;" 
d="M456 494h58v-24l-171 -470h-86l-173 471v23h57l104 -282l54 -156h6l52 156z" />
    <glyph glyph-name="logicalor" unicode="&#x2228;" 
d="M514 0h-58l-102 287l-49 150h-6l-51 -150l-107 -287h-57v23l173 471h86l171 -471v-23z" />
    <glyph glyph-name="intersection" unicode="&#x2229;" 
d="M158 290v-290h-60v303q0 105 59 154t141 49q37 0 71 -10.5t65 -33t49.5 -63.5t18.5 -96v-303h-63v290q0 78 -43.5 116.5t-97.5 38.5q-55 0 -97.5 -38.5t-42.5 -116.5z" />
    <glyph glyph-name="union" unicode="&#x222a;" 
d="M158 506v-289q0 -79 42.5 -117.5t97.5 -38.5q54 0 97.5 38.5t43.5 117.5v289h63v-302q0 -55 -18.5 -96t-49.5 -63.5t-65 -33t-71 -10.5q-82 0 -141 49t-59 154v302h60z" />
    <glyph glyph-name="integral" unicode="&#x222b;" 
d="M317 -10q-12 -85 -53 -121.5t-119 -36.5q-17 0 -33 3l9 63q15 -3 24 -3q55 0 78.5 28t30.5 89q10 88 17 284.5t19 306.5q16 156 159 156q20 0 37 -3l-10 -59q-10 3 -24 3q-46 0 -68 -24t-30 -77q-11 -79 -18 -300t-19 -309z" />
    <glyph glyph-name="approxequal" unicode="&#x2248;" 
d="M404 339q-42 0 -110.5 33.5t-105.5 33.5q-41 0 -85 -55l-48 34q66 84 135 84q41 0 109.5 -33t105.5 -33q43 0 84 55l49 -35q-65 -84 -134 -84zM410 138q-42 0 -110.5 34t-105.5 34q-41 0 -85 -55l-48 34q66 84 135 84q41 0 109.5 -33t105.5 -33q43 0 84 55l49 -36
q-34 -41 -64.5 -62.5t-69.5 -21.5z" />
    <glyph glyph-name="notequal" unicode="&#x2260;" 
d="M515 180h-300l-101 -112l-30 31l75 81h-72v56h121l127 138h-248v56h298l99 108l31 -29l-73 -79h73v-56h-123l-127 -138h250v-56z" />
    <glyph glyph-name="lessequal" unicode="&#x2264;" 
d="M514 0h-428v56h428v-56zM85 313v62l400 192l25 -47l-366 -175l367 -178l-25 -53z" />
    <glyph glyph-name="greaterequal" unicode="&#x2265;" 
d="M514 375v-62l-402 -199l-24 53l366 178l-365 175l24 47zM513 0h-428v56h428v-56z" />
    <glyph glyph-name="i.dot" unicode="&#xe096;" 
d="M122 494h214v-439h153v-55h-367v55h154v383h-154v56zM259 664q0 19 13 32t32 13q18 0 31 -13t13 -32t-13 -31.5t-31 -12.5q-19 0 -32 13t-13 31z" />
    <glyph glyph-name="Circumflex" unicode="&#xf6c0;" 
d="M429 738l-130 97l-131 -99l-30 30l137 127h51l136 -123z" />
    <glyph glyph-name="commaaccent" unicode="&#xf6c3;" 
d="M351 -120q0 -40 -22 -75t-61 -56l-18 25q22 16 34.5 38t12.5 41q-46 0 -46 44q0 16 14 31t34 15q22 0 37 -17t15 -46z" />
    <glyph glyph-name="afii10064" unicode="&#xf6c5;" 
d="M297 -7q-91 0 -145 47t-54 144v90q0 76 40.5 129t110.5 71l3 3q-96 42 -96 117q0 56 39 91.5t128 35.5q75 0 140 -12l-6 -56q-74 13 -126 13q-112 0 -112 -67q0 -30 29 -51.5t70.5 -38.5t83.5 -39t71 -65t29 -104v-115q0 -97 -57.5 -145t-147.5 -48zM441 188v89
q0 71 -25.5 107.5t-95.5 60.5q-87 -15 -124 -61t-37 -121v-75q0 -143 140 -143q64 0 103 35t39 108z" />
    <glyph glyph-name="Acute" unicode="&#xf6c9;" 
d="M237 741l-28 32l133 126l48 -52z" />
    <glyph glyph-name="Caron" unicode="&#xf6ca;" 
d="M298 796l131 94l33 -31l-136 -124h-51l-137 128l30 29z" />
    <glyph glyph-name="Dieresis" unicode="&#xf6cb;" 
d="M172 805q0 17 12 28.5t28 11.5q17 0 29 -11.5t12 -28.5t-12 -29t-29 -12q-16 0 -28 12t-12 29zM347 805q0 17 12 28.5t29 11.5q16 0 28 -11.5t12 -28.5t-12 -29t-28 -12q-17 0 -29 12t-12 29z" />
    <glyph glyph-name="Grave" unicode="&#xf6ce;" 
d="M390 773l-29 -32l-152 106l48 52z" />
    <glyph glyph-name="Hungarumlaut" unicode="&#xf6cf;" 
d="M306 742l-28 33l132 126l48 -52zM169 741l-28 32l132 126l49 -52z" />
    <glyph glyph-name="Macron" unicode="&#xf6d0;" 
d="M169 787v53h262v-53h-262z" />
    <glyph glyph-name="cyrBreve" unicode="&#xf6d1;" 
d="M300 789q37 0 63.5 24.5t34.5 63.5l46 -11q-8 -58 -48 -94t-96 -36q-60 0 -99 36t-46 95l47 11q7 -39 33 -64t65 -25z" />
    <glyph glyph-name="cyrbreve" unicode="&#xf6d4;" 
d="M300 625q36 0 62.5 25t35.5 63l46 -10q-8 -58 -48 -94t-96 -36q-60 0 -99 35.5t-46 95.5l47 10q7 -38 33.5 -63.5t64.5 -25.5z" />
  </font>
</defs>
</svg>
