<?xml version="1.0" standalone="no"?>
<!DOCTYPE svg PUBLIC "-//W3C//DTD SVG 1.1//EN" "http://www.w3.org/Graphics/SVG/1.1/DTD/svg11.dtd" >
<svg xmlns="http://www.w3.org/2000/svg" xmlns:xlink="http://www.w3.org/1999/xlink" version="1.1">
<metadata>
Created by FontForge 20170731 at Thu Feb 13 20:55:45 2014
 By Aleksey,,,
Copyright (c) Christian Schwartz, 2007. All rights reserved.
</metadata>
<defs>
<font id="StagSansLG-Semibold" horiz-adv-x="398" >
  <font-face 
    font-family="Stag Sans LG Semibold"
    font-weight="600"
    font-stretch="normal"
    units-per-em="1000"
    panose-1="2 11 6 3 4 0 0 2 0 4"
    ascent="800"
    descent="-200"
    x-height="527"
    cap-height="700"
    bbox="-192 -228 1256 1081"
    underline-thickness="50"
    underline-position="-200"
    unicode-range="U+0020-FB02"
  />
<missing-glyph horiz-adv-x="386" 
 />
    <glyph glyph-name="f_f" unicode="ff" horiz-adv-x="673" 
d="M12 411v116h57v26q0 153 178 153q53 0 92 -14v-101h-29q-32 0 -46.5 -9t-14.5 -34v-21h136v32q0 153 179 153q55 0 96 -15v-100h-34q-33 0 -47.5 -9.5t-14.5 -35.5v-25h91v-116h-91v-411h-179v411h-136v-411h-180v411h-57z" />
    <glyph glyph-name=".notdef" horiz-adv-x="386" 
 />
    <glyph glyph-name=".null" horiz-adv-x="0" 
 />
    <glyph glyph-name="nonmarkingreturn" horiz-adv-x="333" 
 />
    <glyph glyph-name="space" unicode=" " horiz-adv-x="188" 
 />
    <glyph glyph-name="exclam" unicode="!" horiz-adv-x="301" 
d="M91 218l-36 377v105h191v-105l-37 -377h-118zM150 -7q-39 0 -66.5 26.5t-27.5 64.5t27.5 64.5t66.5 26.5t66.5 -26.5t27.5 -64.5t-27.5 -64.5t-66.5 -26.5z" />
    <glyph glyph-name="quotedbl" unicode="&#x22;" horiz-adv-x="405" 
d="M49 458l-25 157v85h158v-85l-25 -157h-108zM248 458l-25 157v85h158v-85l-25 -157h-108z" />
    <glyph glyph-name="numbersign" unicode="#" horiz-adv-x="552" 
d="M54 409v124h88l25 167h117l-25 -167h83l25 167h117l-24 -167h70v-124h-89l-13 -94h70v-124h-88l-28 -191h-117l28 191h-84l-27 -191h-117l27 191h-70v124h88l14 94h-70zM241 409l-13 -94h83l13 94h-83z" />
    <glyph glyph-name="dollar" unicode="$" horiz-adv-x="554" 
d="M320 767v-62q92 -7 170 -49v-125h-71q-45 40 -99 49v-154q118 -32 164.5 -77t46.5 -136q0 -92 -56.5 -148t-163.5 -67v-100h-91v97q-116 6 -195 55v132h72q49 -53 123 -62v162q-104 31 -153 76.5t-49 136.5t56.5 144t154.5 64v64h91zM363 191q0 47 -52 65v-129
q52 18 52 64zM175 513q0 -39 54 -60v122q-54 -15 -54 -62z" />
    <glyph glyph-name="percent" unicode="%" horiz-adv-x="865" 
d="M204 422q54 0 54 96q0 97 -54 97t-54 -97q0 -96 54 -96zM204 329q-78 0 -132.5 49.5t-54.5 141.5t54 140.5t133 48.5t133 -48.5t54 -140.5t-54.5 -141.5t-132.5 -49.5zM125 -34l493 763h119l-493 -763h-119zM662 84q54 0 54 97t-54 97q-55 0 -55 -97t55 -97zM662 -9
q-78 0 -132.5 50t-54.5 142q0 91 54 139.5t133 48.5q78 0 132 -48.5t54 -139.5q0 -92 -54.5 -142t-131.5 -50z" />
    <glyph glyph-name="ampersand" unicode="&#x26;" horiz-adv-x="712" 
d="M517 0l-45 49q-80 -57 -191 -57q-127 0 -194 55.5t-67 152.5q0 68 40 117.5t104 79.5q-32 56 -32 119q0 87 63.5 140t178.5 53q105 0 166 -44v-121h-71q-32 32 -86 32q-31 0 -49.5 -16.5t-18.5 -44.5q0 -23 11 -42t39 -49l127 -144q33 78 38 143h142v-49
q-23 -107 -83 -205l109 -124v-45h-181zM310 118q41 0 77 26l-149 166q-39 -36 -39 -89q0 -46 28.5 -74.5t82.5 -28.5z" />
    <glyph glyph-name="quotesingle" unicode="'" horiz-adv-x="206" 
d="M49 458l-25 157v85h158v-85l-25 -157h-108z" />
    <glyph glyph-name="parenleft" unicode="(" horiz-adv-x="352" 
d="M332 741v-111q-135 -48 -135 -280q0 -240 135 -290v-109h-51q-50 14 -93 42t-80 74t-58.5 118.5t-21.5 164.5q0 90 21.5 161t59 116.5t80.5 73t92 40.5h51z" />
    <glyph glyph-name="parenright" unicode=")" horiz-adv-x="352" 
d="M19 630v111h52q49 -13 91.5 -40.5t80 -73t59.5 -116.5t22 -161q0 -92 -21.5 -164.5t-58.5 -118.5t-80 -74t-93 -42h-52v109q135 50 135 290q0 232 -135 280z" />
    <glyph glyph-name="asterisk" unicode="*" horiz-adv-x="402" 
d="M265 651l-28 -77l63 48l47 15l39 -121l-46 -16l-75 3l65 -44l28 -39l-104 -74l-29 40l-24 78l-25 -78l-29 -40l-104 74l29 39l65 44l-75 -3l-47 16l40 121l47 -15l61 -48l-26 77v49h128v-49z" />
    <glyph glyph-name="plus" unicode="+" horiz-adv-x="534" 
d="M510 276h-168v-180h-149v180h-169v139h169v180h149v-180h168v-139z" />
    <glyph glyph-name="comma" unicode="," horiz-adv-x="235" 
d="M23 -41q67 9 67 40q0 9 -4.5 13.5t-15.5 10t-16 9.5q-31 22 -31 64q0 34 26 56.5t65 22.5q42 0 70.5 -28t28.5 -82q0 -162 -190 -180v74z" />
    <glyph glyph-name="hyphen" unicode="-" horiz-adv-x="306" 
d="M30 224v137h246v-137h-246z" />
    <glyph glyph-name="period" unicode="." horiz-adv-x="235" 
d="M117 -7q-39 0 -66.5 26.5t-27.5 64.5t27.5 64.5t66.5 26.5t66.5 -26.5t27.5 -64.5t-27.5 -64.5t-66.5 -26.5z" />
    <glyph glyph-name="slash" unicode="/" horiz-adv-x="368" 
d="M363 741v-35l-231 -755h-130v35l231 755h130z" />
    <glyph glyph-name="zero" unicode="0" horiz-adv-x="682" 
d="M341 -9q-136 0 -225 93t-89 266q0 172 90 265.5t224 93.5t224 -93.5t90 -265.5t-89 -265.5t-225 -93.5zM341 121q60 0 90.5 53t30.5 172q0 121 -30.5 174t-90.5 53q-61 0 -91 -53t-30 -174q0 -120 30 -172.5t91 -52.5z" />
    <glyph glyph-name="one" unicode="1" 
d="M327 0h-192v512l-77 -41h-40v133l173 96h136v-700z" />
    <glyph glyph-name="two" unicode="2" horiz-adv-x="549" 
d="M519 144v-144h-499v146l193 182q62 57 87 94t25 72q0 34 -22 53t-65 19q-72 0 -129 -47h-69v128q100 62 222 62q257 0 257 -205q0 -69 -39.5 -125.5t-127.5 -133.5l-115 -101h282z" />
    <glyph glyph-name="three" unicode="3" horiz-adv-x="539" 
d="M226 -9q-131 0 -211 50v125h71q44 -42 123 -42q51 0 82.5 22.5t31.5 63.5q0 42 -26.5 61.5t-82.5 19.5h-57v125h50q113 0 113 79q0 76 -88 76q-73 0 -126 -39h-67v119q93 58 217 58q116 0 181.5 -46.5t65.5 -141.5q0 -122 -131 -160v-4q143 -22 143 -158
q1 -99 -78 -153.5t-211 -54.5z" />
    <glyph glyph-name="four" unicode="4" horiz-adv-x="605" 
d="M511 0h-188v146h-303v146l312 408h179v-429h76v-125h-76v-146zM155 275v-4h171v226h-4z" />
    <glyph glyph-name="five" unicode="5" horiz-adv-x="550" 
d="M526 229q0 -111 -81 -174.5t-219 -63.5q-121 0 -204 48v129h70q47 -43 124 -43q55 0 87 26.5t32 75.5q0 48 -24 71.5t-64 23.5q-58 0 -96 -40h-109v418h445v-144h-310v-144h3q46 37 128 37q98 0 158 -55.5t60 -164.5z" />
    <glyph glyph-name="six" unicode="6" horiz-adv-x="622" 
d="M323 -9q-136 0 -216 86.5t-80 257.5q0 179 94.5 276.5t265.5 97.5q98 0 170 -34v-134h-69q-39 29 -104 29q-75 0 -114 -43t-49 -130q60 48 159 48t159 -55.5t60 -157.5q0 -109 -74.5 -175t-201.5 -66zM319 325q-56 0 -101 -28q2 -100 27 -142.5t74 -42.5q93 0 93 112
q0 101 -93 101z" />
    <glyph glyph-name="seven" unicode="7" horiz-adv-x="533" 
d="M93 0v60l263 488v4h-337v148h488v-158l-224 -542h-190z" />
    <glyph glyph-name="eight" unicode="8" horiz-adv-x="614" 
d="M307 -9q-137 0 -211.5 55t-74.5 153q0 130 134 173v4q-106 36 -106 146q0 86 71.5 136.5t186.5 50.5t186.5 -50.5t71.5 -136.5q0 -111 -105 -146v-4q133 -43 133 -173q0 -98 -74.5 -153t-211.5 -55zM307 112q50 0 76 28t26 73q0 44 -26 72.5t-76 28.5t-76.5 -28.5
t-26.5 -72.5q0 -45 26.5 -73t76.5 -28zM307 427q38 0 60 21t22 58t-22 58.5t-60 21.5q-39 0 -60.5 -21t-21.5 -59t21.5 -58.5t60.5 -20.5z" />
    <glyph glyph-name="nine" unicode="9" horiz-adv-x="622" 
d="M233 -9q-100 0 -175 31v134h70q36 -29 107 -29q84 0 121 41.5t45 129.5q-61 -45 -155 -45q-102 0 -162.5 55.5t-60.5 157.5q0 109 75 176t201 67q136 0 216.5 -86.5t80.5 -259.5q0 -179 -92.5 -275.5t-270.5 -96.5zM303 374q56 0 101 27q-3 102 -27.5 143.5t-73.5 41.5
q-93 0 -93 -114q0 -98 93 -98z" />
    <glyph glyph-name="colon" unicode=":" horiz-adv-x="236" 
d="M118 277q-40 0 -67 26t-27 64t27 65t67 27q39 0 66.5 -27t27.5 -65q0 -37 -27.5 -63.5t-66.5 -26.5zM118 -7q-40 0 -67 26.5t-27 64.5t27 64.5t67 26.5q39 0 66.5 -26.5t27.5 -64.5t-27.5 -64.5t-66.5 -26.5z" />
    <glyph glyph-name="semicolon" unicode=";" horiz-adv-x="236" 
d="M22 -41q67 9 67 40q0 9 -4.5 13.5t-15.5 10t-16 9.5q-31 22 -31 64q0 34 26 56.5t65 22.5q43 0 71 -28t28 -82q0 -162 -190 -180v74zM118 277q-40 0 -67 26t-27 64t27 65t67 27q39 0 66.5 -27t27.5 -65q0 -37 -27.5 -63.5t-66.5 -26.5z" />
    <glyph glyph-name="less" unicode="&#x3c;" horiz-adv-x="471" 
d="M25 269v121l381 185h38v-135l-236 -108v-3l236 -109v-136h-38z" />
    <glyph glyph-name="equal" unicode="=" horiz-adv-x="504" 
d="M477 350h-450v133h450v-133zM477 140h-450v133h450v-133z" />
    <glyph glyph-name="greater" unicode="&#x3e;" horiz-adv-x="471" 
d="M447 390v-121l-382 -185h-38v135l236 108v3l-236 108v137h38z" />
    <glyph glyph-name="question" unicode="?" horiz-adv-x="464" 
d="M115 218q-10 59 3 97.5t58 82.5q27 25 40.5 39t25.5 36t12 43q0 27 -18 42t-49 15q-61 0 -103 -40h-68v123q83 53 193 53q112 0 171.5 -48t59.5 -138q0 -57 -27.5 -97t-82.5 -80q-36 -27 -50 -40t-25.5 -36t-9.5 -52h-130zM184 -7q-39 0 -66.5 26.5t-27.5 64.5t27.5 64.5
t66.5 26.5t66.5 -26.5t27.5 -64.5t-27.5 -64.5t-66.5 -26.5z" />
    <glyph glyph-name="at" unicode="@" horiz-adv-x="882" 
d="M442 -134q-66 0 -126.5 13.5t-114.5 43t-94 72.5t-63 106t-23 139q0 100 40 183t104.5 135t142 80.5t156.5 28.5q170 0 283.5 -88.5t113.5 -242.5q0 -132 -74.5 -201t-184.5 -69q-107 0 -132 63q-56 -62 -131 -62q-57 0 -90 37t-33 106q0 96 61.5 171.5t158.5 75.5
q61 0 101 -42q27 36 72 36h68l-54 -238q-12 -54 25 -54q46 0 76.5 45t30.5 132q0 113 -78 176.5t-213 63.5q-64 0 -122.5 -21t-105.5 -61t-75 -106t-28 -148q0 -143 85 -213t224 -70q151 0 252 66h36v-86q-47 -32 -124.5 -51.5t-163.5 -19.5zM404 169q35 0 61 28l35 151
q-18 6 -38 6q-42 0 -69 -41t-27 -96q0 -48 38 -48z" />
    <glyph glyph-name="A" unicode="A" horiz-adv-x="694" 
d="M19 0v45l223 655h208l226 -655v-45h-186l-49 158h-223l-47 -158h-152zM328 524l-71 -236h145l-72 236h-2z" />
    <glyph glyph-name="B" unicode="B" horiz-adv-x="627" 
d="M56 0v700h262q131 0 195.5 -45t64.5 -138q0 -118 -126 -147v-4q152 -28 152 -163q0 -99 -73 -151t-208 -52h-267zM244 124h71q96 0 96 90q0 89 -96 89h-71v-179zM244 420h65q86 0 86 78q0 77 -85 77h-66v-155z" />
    <glyph glyph-name="C" unicode="C" horiz-adv-x="635" 
d="M371 -9q-159 0 -251.5 93.5t-92.5 261.5q0 170 98 266.5t262 96.5q123 0 210 -50v-133h-74q-50 46 -131 46t-125 -55t-44 -164q0 -118 40 -173t120 -55q89 0 152 61h68v-127q-92 -68 -232 -68z" />
    <glyph glyph-name="D" unicode="D" horiz-adv-x="701" 
d="M56 0v700h248q371 0 371 -346q0 -354 -377 -354h-242zM248 129h47q95 0 139.5 51t44.5 169t-43.5 168t-140.5 50h-47v-438z" />
    <glyph glyph-name="E" unicode="E" horiz-adv-x="581" 
d="M56 0v700h482v-134h-291v-149h205v-126h-205v-161h301v-130h-492z" />
    <glyph glyph-name="F" unicode="F" horiz-adv-x="571" 
d="M248 0h-192v700h485v-134h-293v-167h225v-128h-225v-271z" />
    <glyph glyph-name="G" unicode="G" horiz-adv-x="681" 
d="M371 -9q-170 0 -257.5 91.5t-87.5 263.5q0 174 96.5 268.5t270.5 94.5q116 0 210 -44v-138h-71q-57 44 -137 44q-85 0 -128 -52t-43 -170q0 -121 35.5 -175.5t110.5 -54.5q47 0 80 10v128h-83v116h265v-329q-107 -53 -261 -53z" />
    <glyph glyph-name="H" unicode="H" horiz-adv-x="711" 
d="M248 0h-192v700h192v-276h215v276h192v-700h-192v289h-215v-289z" />
    <glyph glyph-name="I" unicode="I" horiz-adv-x="311" 
d="M252 0h-193v700h193v-700z" />
    <glyph glyph-name="J" unicode="J" horiz-adv-x="490" 
d="M187 -9q-104 0 -171 42v129h66q35 -33 90 -33q74 0 74 72v499h192v-499q0 -210 -251 -210z" />
    <glyph glyph-name="K" unicode="K" horiz-adv-x="693" 
d="M56 0v700h192v-285l237 285h165v-43l-203 -234l224 -380v-43h-187l-172 291l-64 -70v-221h-192z" />
    <glyph glyph-name="L" unicode="L" horiz-adv-x="552" 
d="M523 0h-467v700h192v-568h275v-132z" />
    <glyph glyph-name="M" unicode="M" horiz-adv-x="881" 
d="M56 0v700h251l133 -416h3l133 416h249v-700h-188v483h-3l-157 -483h-110l-155 483h-3v-483h-153z" />
    <glyph glyph-name="N" unicode="N" horiz-adv-x="707" 
d="M56 0v700h205l229 -405h3v405h158v-700h-174l-261 459h-3v-459h-157z" />
    <glyph glyph-name="O" unicode="O" horiz-adv-x="742" 
d="M371 -9q-149 0 -247 95.5t-98 262.5t99 263.5t246 96.5t246.5 -96.5t99.5 -263.5t-98.5 -262.5t-247.5 -95.5zM371 122q69 0 109.5 56t40.5 169q0 114 -40.5 170.5t-109.5 56.5t-109.5 -56.5t-40.5 -170.5q0 -113 40.5 -169t109.5 -56z" />
    <glyph glyph-name="P" unicode="P" horiz-adv-x="619" 
d="M56 0v700h257q144 0 215 -56t71 -172q0 -226 -293 -226h-58v-246h-192zM247 571v-205h58q56 0 80 27t24 78q0 52 -23 76t-81 24h-58z" />
    <glyph glyph-name="Q" unicode="Q" horiz-adv-x="742" 
d="M678 -119l-326 88q-162 44 -244 133.5t-82 249.5q0 165 99 261t246 96q148 0 247 -96t99 -263q0 -109 -49 -183t-135 -107v-3l207 -31v-145h-62zM371 119q69 0 109.5 56t40.5 172q0 114 -40.5 170.5t-109.5 56.5t-109.5 -56.5t-40.5 -170.5q0 -116 40.5 -172t109.5 -56z
" />
    <glyph glyph-name="R" unicode="R" horiz-adv-x="658" 
d="M456 0l-135 257h-73v-257h-192v700h263q280 0 280 -214q0 -128 -104 -187l139 -254v-45h-178zM246 570v-188h61q102 0 102 94t-102 94h-61z" />
    <glyph glyph-name="S" unicode="S" horiz-adv-x="554" 
d="M251 -9q-135 0 -229 56v133h71q52 -56 151 -56q109 0 109 69q0 13 -2.5 22.5t-11 17.5t-14 12.5t-21.5 10.5t-23.5 8l-30 8t-31.5 8q-102 26 -149 73.5t-47 142.5q0 104 71.5 158.5t191.5 54.5q127 0 208 -47v-129h-69q-57 43 -132 43q-102 0 -102 -65q0 -32 25.5 -47
t89.5 -30q125 -29 174.5 -77t49.5 -145q0 -106 -71.5 -163.5t-207.5 -57.5z" />
    <glyph glyph-name="T" unicode="T" horiz-adv-x="603" 
d="M397 0h-192v567h-180v133h553v-133h-181v-567z" />
    <glyph glyph-name="U" unicode="U" horiz-adv-x="693" 
d="M366 131q59 0 86.5 30t27.5 106v433h159v-434q0 -274 -285 -274q-148 0 -224.5 70.5t-76.5 203.5v434h192v-433q0 -76 29.5 -106t91.5 -30z" />
    <glyph glyph-name="V" unicode="V" horiz-adv-x="685" 
d="M239 0l-222 655v45h187l149 -480h2l151 480h161v-45l-222 -655h-206z" />
    <glyph glyph-name="W" unicode="W" horiz-adv-x="944" 
d="M175 0l-156 655v45h186l94 -461h2l107 461h152l110 -461h2l91 461h162v-45l-157 -655h-202l-95 411h-2l-95 -411h-199z" />
    <glyph glyph-name="X" unicode="X" horiz-adv-x="681" 
d="M25 0v47l186 315l-181 291v47h190l137 -229l123 229h157v-47l-171 -293l190 -313v-47h-189l-148 251l-136 -251h-158z" />
    <glyph glyph-name="Y" unicode="Y" horiz-adv-x="637" 
d="M420 0h-192v260l-214 393v47h180l140 -273h2l135 273h152v-47l-203 -388v-265z" />
    <glyph glyph-name="Z" unicode="Z" horiz-adv-x="572" 
d="M26 0v139l311 424v4h-289v133h495v-144l-311 -421v-4h311v-131h-517z" />
    <glyph glyph-name="bracketleft" unicode="[" horiz-adv-x="343" 
d="M61 -49v790h256v-115h-93v-560h93v-115h-256z" />
    <glyph glyph-name="backslash" unicode="\" horiz-adv-x="368" 
d="M5 706v35h129l232 -755v-35h-130z" />
    <glyph glyph-name="bracketright" unicode="]" horiz-adv-x="343" 
d="M282 741v-790h-255v115h92v560h-92v115h255z" />
    <glyph glyph-name="asciicircum" unicode="^" horiz-adv-x="442" 
d="M15 451v38l140 211h131l141 -211v-38h-128l-77 110h-3l-76 -110h-128z" />
    <glyph glyph-name="underscore" unicode="_" horiz-adv-x="380" 
d="M383 -162h-386v110h386v-110z" />
    <glyph glyph-name="grave" unicode="`" 
d="M257 561h-105l-102 99v43h173l34 -109v-33z" />
    <glyph glyph-name="a" unicode="a" horiz-adv-x="553" 
d="M410 0q-58 0 -72 50q-51 -57 -151 -57q-73 0 -120 41t-47 116q0 81 56 122.5t151 41.5q51 0 101 -10v36q0 35 -20.5 51t-68.5 16q-73 0 -125 -35h-54v121q98 42 214 42q120 0 177 -43t57 -139v-353h-98zM258 98q36 0 70 29v93q-30 5 -59 5q-78 0 -78 -63q0 -64 67 -64z
" />
    <glyph glyph-name="b" unicode="b" horiz-adv-x="607" 
d="M228 606v-132q66 61 157 61q85 0 142 -62t57 -199q0 -142 -62.5 -212t-160.5 -70q-100 0 -157 60q-28 -52 -63 -52h-93v700h114q42 0 54 -17t12 -77zM303 401q-34 0 -75 -17v-252q31 -22 73 -22q46 0 73.5 32t27.5 116q0 82 -26 112.5t-73 30.5z" />
    <glyph glyph-name="c" unicode="c" horiz-adv-x="508" 
d="M301 -8q-133 0 -207 70t-74 200q0 126 80.5 199.5t211.5 73.5q99 0 167 -37v-123h-65q-37 33 -94 33q-54 0 -85.5 -37.5t-31.5 -110.5q0 -144 113 -144q62 0 105 37h60v-113q-74 -48 -180 -48z" />
    <glyph glyph-name="d" unicode="d" horiz-adv-x="607" 
d="M432 0q-19 0 -30 12t-17 43q-59 -64 -152 -64q-94 0 -152 67.5t-58 197.5q0 75 19 131t51.5 87t69.5 46t79 15q85 0 137 -50v215h114q42 0 54 -17.5t12 -76.5v-606h-127zM296 110q44 0 83 32v241q-29 18 -71 18q-103 0 -103 -141q0 -80 22.5 -115t68.5 -35z" />
    <glyph glyph-name="e" unicode="e" horiz-adv-x="557" 
d="M535 224h-333q6 -64 36 -88t88 -24q79 0 134 39h56v-107q-92 -52 -218 -52q-135 0 -206.5 71t-71.5 197t74.5 200.5t194.5 74.5q248 0 248 -265q0 -12 -1 -28.5t-1 -17.5zM289 425q-74 0 -86 -107h164q-2 59 -21 83t-57 24z" />
    <glyph glyph-name="f" unicode="f" horiz-adv-x="358" 
d="M12 411v116h57v32q0 153 180 153q55 0 96 -15v-100h-35q-32 0 -46.5 -9.5t-14.5 -35.5v-25h90v-116h-90v-411h-180v411h-57z" />
    <glyph glyph-name="g" unicode="g" horiz-adv-x="607" 
d="M559 527v-487q0 -103 -76.5 -156.5t-214.5 -53.5q-135 0 -218 40v122h56q56 -37 139 -37q69 0 101.5 21.5t32.5 68.5v26q-55 -45 -141 -45q-96 0 -155.5 59t-59.5 185q0 137 65.5 201t160.5 64q88 0 145 -59q18 51 68 51h97zM300 140q40 0 79 27v214q-31 20 -73 20
q-46 0 -73.5 -27t-27.5 -99q0 -78 22.5 -106.5t72.5 -28.5z" />
    <glyph glyph-name="h" unicode="h" horiz-adv-x="602" 
d="M228 606v-140q84 69 186 69q143 0 143 -149v-386h-180v339q0 33 -14 45.5t-48 12.5t-87 -17v-380h-180v700h114q42 0 54 -17t12 -77z" />
    <glyph glyph-name="i" unicode="i" horiz-adv-x="278" 
d="M228 0h-179v527h116q40 0 51.5 -19t11.5 -82v-426zM139 559q-40 0 -66.5 23.5t-26.5 60.5t26.5 61t66.5 24t66.5 -24t26.5 -61t-26 -60.5t-67 -23.5z" />
    <glyph glyph-name="j" unicode="j" horiz-adv-x="278" 
d="M-39 -156v98h28q33 0 46.5 13.5t13.5 46.5v525h116q40 0 51.5 -19.5t11.5 -81.5v-433q0 -85 -43.5 -123.5t-131.5 -38.5q-51 0 -92 13zM139 559q-40 0 -66.5 23.5t-26.5 60.5t26.5 61t66.5 24t66.5 -24t26.5 -61t-26 -60.5t-67 -23.5z" />
    <glyph glyph-name="k" unicode="k" horiz-adv-x="578" 
d="M228 606v-275l164 196h150v-43l-145 -165l165 -276v-43h-169l-122 205l-43 -47v-158h-180v700h114q42 0 54 -17t12 -77z" />
    <glyph glyph-name="l" unicode="l" horiz-adv-x="280" 
d="M230 0h-180v700h114q42 0 54 -17t12 -77v-606z" />
    <glyph glyph-name="m" unicode="m" horiz-adv-x="909" 
d="M173 527q23 0 35 -13.5t16 -51.5q82 73 182 73q101 0 129 -75q83 75 189 75q140 0 140 -149v-386h-180v339q0 32 -13.5 45t-45.5 13q-35 0 -79 -16v-381h-180v339q0 32 -13.5 45t-45.5 13q-30 0 -79 -15v-382h-180v527h125z" />
    <glyph glyph-name="n" unicode="n" horiz-adv-x="602" 
d="M173 527q23 0 34.5 -13t16.5 -51q87 72 190 72q143 0 143 -149v-386h-180v339q0 33 -14 45.5t-48 12.5t-87 -17v-380h-180v527h125z" />
    <glyph glyph-name="o" unicode="o" horiz-adv-x="601" 
d="M301 -8q-122 0 -201.5 73t-79.5 196q0 124 79.5 199t201.5 75q121 0 200.5 -75t79.5 -199q0 -123 -79 -196t-201 -73zM301 110q45 0 71.5 37t26.5 112q0 76 -26.5 114.5t-71.5 38.5q-46 0 -72.5 -38.5t-26.5 -114.5q0 -75 26.5 -112t72.5 -37z" />
    <glyph glyph-name="p" unicode="p" horiz-adv-x="607" 
d="M357 5q-81 0 -129 37v-204h-180v689h125q22 0 33.5 -12t16.5 -45q69 65 162 65q40 0 74 -13.5t63 -42.5t45.5 -80.5t16.5 -120.5q0 -73 -18.5 -127t-51.5 -85t-72 -46t-85 -15zM304 401q-35 0 -76 -17v-242q30 -21 73 -21q47 0 74 30.5t27 110.5q0 78 -26 108.5t-72 30.5
z" />
    <glyph glyph-name="q" unicode="q" horiz-adv-x="607" 
d="M379 -162v213q-54 -46 -141 -46q-94 0 -154.5 64t-60.5 192q0 74 19 129t52 85.5t72 45t83 14.5q88 0 145 -62q21 54 68 54h97v-689h-180zM300 122q40 0 79 27v232q-31 20 -73 20q-101 0 -101 -134q0 -82 22 -113.5t73 -31.5z" />
    <glyph glyph-name="r" unicode="r" horiz-adv-x="415" 
d="M377 383q-89 0 -149 -25v-358h-180v527h125q23 0 35 -15t16 -57q60 76 145 76q12 0 32 -4v-144h-24z" />
    <glyph glyph-name="s" unicode="s" horiz-adv-x="469" 
d="M215 -7q-108 0 -190 42v118h61q43 -39 122 -39q78 0 78 38q0 21 -18 30t-73 17q-89 11 -132 47.5t-43 115.5q0 84 60 128t162 44q103 0 178 -35v-116h-57q-48 32 -116 32q-69 0 -69 -38q0 -17 20 -26t70 -15q97 -12 139.5 -47.5t42.5 -116.5q0 -86 -58.5 -132.5
t-176.5 -46.5z" />
    <glyph glyph-name="t" unicode="t" horiz-adv-x="368" 
d="M12 411v116h57v134h180v-134h98v-116h-98v-240q0 -35 14.5 -48.5t50.5 -13.5h35v-104q-48 -14 -103 -14q-86 0 -131.5 35.5t-45.5 117.5v267h-57z" />
    <glyph glyph-name="u" unicode="u" horiz-adv-x="610" 
d="M297 124q31 0 82 17v386h179v-527h-125q-23 0 -34 11.5t-16 47.5q-87 -67 -180 -67q-154 0 -154 151v384h180v-343q0 -35 16.5 -47.5t51.5 -12.5z" />
    <glyph glyph-name="v" unicode="v" horiz-adv-x="574" 
d="M201 0l-186 486v41h172l113 -329h2l104 329h153v-41l-180 -486h-178z" />
    <glyph glyph-name="w" unicode="w" horiz-adv-x="818" 
d="M160 0l-143 485v42h173l76 -304h2l89 304h132l84 -304h2l81 304h145v-42l-147 -485h-160l-85 290h-2l-89 -290h-158z" />
    <glyph glyph-name="x" unicode="x" horiz-adv-x="571" 
d="M19 0v42l147 227l-137 216v42h176l95 -162l88 162h147v-42l-126 -206l143 -237v-42h-175l-102 178l-102 -178h-154z" />
    <glyph glyph-name="y" unicode="y" horiz-adv-x="569" 
d="M136 -162v41l69 146l-190 461v41h171l110 -299h3l102 299h154v-41l-256 -648h-163z" />
    <glyph glyph-name="z" unicode="z" horiz-adv-x="508" 
d="M25 0v121l247 282h-234v124h441v-124l-248 -281h243v-122h-449z" />
    <glyph glyph-name="braceleft" unicode="{" horiz-adv-x="376" 
d="M97 88v150q0 23 -14 39t-42 16h-22v116h22q28 0 42 16t14 39v141q0 65 39 100.5t116 35.5h97v-115h-61q-11 0 -19.5 -9.5t-8.5 -20.5v-134q0 -43 -21 -69.5t-72 -39.5v-3q51 -13 72 -39.5t21 -69.5v-145q0 -11 8.5 -20.5t19.5 -9.5h61v-115h-99q-75 0 -114 36t-39 101z
" />
    <glyph glyph-name="bar" unicode="|" horiz-adv-x="198" 
d="M166 741v-790h-134v790h134z" />
    <glyph glyph-name="braceright" unicode="}" horiz-adv-x="376" 
d="M278 238v-150q0 -65 -39 -101t-114 -36h-98v115h60q12 0 20.5 9.5t8.5 20.5v145q0 43 21 69.5t71 39.5v3q-50 13 -71 39.5t-21 69.5v134q0 11 -8.5 20.5t-20.5 9.5h-60v115h97q77 0 115.5 -35.5t38.5 -100.5v-141q0 -23 14 -39t42 -16h23v-116h-23q-28 0 -42 -16t-14 -39
z" />
    <glyph glyph-name="asciitilde" unicode="~" horiz-adv-x="406" 
d="M16 206v53q10 53 42 85t80 32q29 0 69.5 -12.5t49.5 -12.5q26 0 35 28h97v-53q-9 -52 -41 -84.5t-80 -32.5q-26 0 -67.5 12.5t-51.5 12.5q-26 0 -35 -28h-98z" />
    <glyph glyph-name="uni00A0" unicode="&#xa0;" horiz-adv-x="188" 
 />
    <glyph glyph-name="exclamdown" unicode="&#xa1;" horiz-adv-x="301" 
d="M209 413l37 -376v-105h-191v105l36 376h118zM150 638q40 0 67 -26t27 -64t-27 -65t-67 -27q-38 0 -66 27t-28 65q0 37 28 63.5t66 26.5z" />
    <glyph glyph-name="cent" unicode="&#xa2;" horiz-adv-x="520" 
d="M488 40q-53 -35 -128 -44v-99h-91v97q-118 9 -183.5 78.5t-65.5 189.5q0 115 68.5 186.5t182.5 83.5v63h91v-63q73 -7 124 -34v-123h-65q-24 21 -59 29v-286q35 8 66 35h60v-113zM202 260q0 -112 69 -138v277q-69 -28 -69 -139z" />
    <glyph glyph-name="sterling" unicode="&#xa3;" horiz-adv-x="540" 
d="M19 0v120q77 29 77 119q0 17 -4 49h-68v118h41q-12 50 -12 91q0 101 72 156.5t190 55.5q115 0 196 -50v-133h-69q-49 40 -110 40q-40 0 -66 -19.5t-26 -60.5q0 -39 6 -80h162v-118h-147q2 -28 2 -41q0 -61 -38 -103h295v-144h-501z" />
    <glyph glyph-name="yen" unicode="&#xa5;" horiz-adv-x="606" 
d="M49 292v95h115l-145 266v47h176l122 -250h3l116 250h151v-47l-139 -266h120v-95h-165v-47h165v-94h-165v-151h-189v151h-165v94h165v47h-165z" />
    <glyph glyph-name="brokenbar" unicode="&#xa6;" horiz-adv-x="198" 
d="M32 -49v357h135l-1 -357h-134zM32 390v351h134l1 -351h-135z" />
    <glyph glyph-name="section" unicode="&#xa7;" horiz-adv-x="550" 
d="M19 274q0 96 93 135q-49 39 -49 123q0 81 60 129t162 48q107 0 183 -36v-116h-57q-46 34 -120 34q-77 0 -77 -43q0 -19 21.5 -33t77.5 -28q115 -29 165 -67.5t50 -119.5q0 -95 -92 -135q52 -41 52 -116q0 -84 -60 -133.5t-178 -49.5q-110 0 -196 41v118h58
q16 -15 56 -27.5t78 -12.5q79 0 79 44q0 22 -21.5 33.5t-87.5 29.5q-106 29 -151.5 69t-45.5 113zM257 239q46 -13 80 -24q40 17 40 53q0 27 -22 42.5t-76 29.5q-52 14 -70 20q-44 -13 -44 -50q0 -25 19.5 -40.5t72.5 -30.5z" />
    <glyph glyph-name="dieresis" unicode="&#xa8;" 
d="M97 560q-37 0 -61 22.5t-24 56.5q0 35 24 57.5t61 22.5t60.5 -22.5t23.5 -57.5t-23.5 -57t-60.5 -22zM301 560q-37 0 -60.5 22t-23.5 57t23.5 57.5t60.5 22.5t61 -22.5t24 -57.5q0 -34 -24 -56.5t-61 -22.5z" />
    <glyph glyph-name="copyright" unicode="&#xa9;" horiz-adv-x="781" 
d="M391 -8q-151 0 -257 96t-106 262t106 262t257 96t256.5 -96t105.5 -262t-105.5 -262t-256.5 -96zM391 48q125 0 209.5 81.5t84.5 220.5t-84.5 220.5t-209.5 81.5q-126 0 -210.5 -81.5t-84.5 -220.5t84.5 -220.5t210.5 -81.5zM402 151q-97 0 -151.5 52t-54.5 147
q0 93 59 147.5t155 54.5q69 0 125 -27v-95h-52q-28 24 -67 24q-38 0 -59.5 -26.5t-21.5 -78.5q0 -102 79 -102q44 0 74 26h48v-86q-56 -36 -134 -36z" />
    <glyph glyph-name="ordfeminine" unicode="&#xaa;" horiz-adv-x="466" 
d="M344 258q-47 0 -60 43q-43 -49 -125 -49q-61 0 -100.5 34.5t-39.5 97.5q0 68 46.5 103t126.5 35q52 0 84 -8v27q0 27 -17 40t-56 13q-57 0 -102 -28h-49v105q88 37 183 37q104 0 152 -36.5t48 -120.5v-293h-91zM222 345q26 0 54 22v74q-28 4 -46 4q-61 0 -61 -51
q0 -49 53 -49z" />
    <glyph glyph-name="guillemotleft" unicode="&#xab;" horiz-adv-x="532" 
d="M144 40l-113 188v63l113 189h134v-36l-105 -182v-2l105 -184v-36h-134zM367 40l-113 188v63l113 189h134v-36l-105 -182v-2l105 -184v-36h-134z" />
    <glyph glyph-name="registered" unicode="&#xae;" horiz-adv-x="384" 
d="M192 350q-76 0 -130.5 48.5t-54.5 130.5t54 130.5t131 48.5q76 0 130.5 -48.5t54.5 -130.5q0 -81 -54.5 -130t-130.5 -49zM192 389q61 0 100 36.5t39 103.5t-39 103.5t-100 36.5t-100 -36.5t-39 -103.5t39 -103.5t100 -36.5zM221 441l-29 60h-14v-60h-62v183h82
q77 0 77 -62q0 -31 -26 -47l30 -55v-19h-58zM192 540q22 0 22 23q0 21 -22 21h-15v-44h15z" />
    <glyph glyph-name="macron" unicode="&#xaf;" 
d="M334 687v-108h-270v108h270z" />
    <glyph glyph-name="degree" unicode="&#xb0;" horiz-adv-x="350" 
d="M175 417q-63 0 -107 40.5t-44 104.5t44 104t107 40t107.5 -40t44.5 -104t-44.5 -104.5t-107.5 -40.5zM175 493q29 0 46.5 19t17.5 50t-17.5 49.5t-46.5 18.5q-28 0 -45 -18.5t-17 -49.5t17 -50t45 -19z" />
    <glyph glyph-name="twosuperior" unicode="&#xb2;" horiz-adv-x="350" 
d="M318 406v-98h-295v98l109 96q52 46 52 72q0 32 -40 32q-38 0 -62 -22h-52v88q57 35 137 35q156 0 156 -118q0 -40 -21 -68.5t-70 -68.5l-56 -46h142z" />
    <glyph glyph-name="threesuperior" unicode="&#xb3;" horiz-adv-x="345" 
d="M148 301q-72 0 -128 30v82h48q28 -21 65 -21q55 0 55 37q0 36 -51 36h-40v79h36q54 0 54 35q0 33 -45 33q-34 0 -63 -18h-48v80q53 33 134 33q68 0 108.5 -27t40.5 -80q0 -70 -80 -89v-3q87 -12 87 -90q0 -56 -45.5 -86.5t-127.5 -30.5z" />
    <glyph glyph-name="acute" unicode="&#xb4;" 
d="M247 561h-105v33l33 109h173v-43z" />
    <glyph glyph-name="mu" unicode="&#xb5;" horiz-adv-x="613" 
d="M230 526v-343q0 -35 16.5 -47.5t52.5 -12.5q33 0 81 18v385h180v-526h-125q-23 0 -35 12t-16 48q-56 -51 -131 -51q-16 0 -23 1v-172h-179v688h179z" />
    <glyph glyph-name="paragraph" unicode="&#xb6;" horiz-adv-x="590" 
d="M242 -91v391h-3q-101 0 -159.5 49t-58.5 150q0 201 254 201h259v-791h-114v677h-64v-677h-114z" />
    <glyph glyph-name="periodcentered" unicode="&#xb7;" horiz-adv-x="235" 
d="M117 204q-39 0 -66.5 26t-27.5 64t27.5 64.5t66.5 26.5t66.5 -26.5t27.5 -64.5t-27.5 -64t-66.5 -26z" />
    <glyph glyph-name="cedilla" unicode="&#xb8;" 
d="M153 0h76v-24q81 -4 81 -73q0 -36 -28.5 -57t-83.5 -21q-47 0 -82 16v62h31q13 -11 33 -11q26 0 26 16t-31 16h-22v76z" />
    <glyph glyph-name="onesuperior" unicode="&#xb9;" horiz-adv-x="277" 
d="M231 308h-139v266l-49 -25h-24v97l109 54h103v-392z" />
    <glyph glyph-name="ordmasculine" unicode="&#xba;" horiz-adv-x="522" 
d="M261 251q-105 0 -171.5 61t-66.5 165q0 105 67 168t171 63t171 -63t67 -168q0 -104 -66.5 -165t-171.5 -61zM261 355q77 0 77 121q0 124 -77 124t-77 -124q0 -121 77 -121z" />
    <glyph glyph-name="guillemotright" unicode="&#xbb;" horiz-adv-x="532" 
d="M254 40v36l105 184v2l-105 182v36h134l113 -189v-63l-113 -188h-134zM31 40v36l105 184v2l-105 182v36h134l113 -189v-63l-113 -188h-134z" />
    <glyph glyph-name="onequarter" unicode="&#xbc;" horiz-adv-x="773" 
d="M237 308h-139v266l-49 -25h-23v97l109 54h102v-392zM680 729l-493 -763h-116l493 763h116zM721 0h-132v79h-171v94l176 219h127v-231h39v-82h-39v-79zM510 162v-2h83v104h-2z" />
    <glyph glyph-name="onehalf" unicode="&#xbd;" horiz-adv-x="814" 
d="M237 308h-139v266l-49 -25h-23v97l109 54h102v-392zM679 729l-493 -763h-116l493 763h116zM789 98v-98h-295v98l109 96q52 46 52 72q0 32 -40 32q-38 0 -62 -22h-52v88q57 35 137 35q156 0 156 -118q0 -40 -21 -68.5t-70 -68.5l-56 -46h142z" />
    <glyph glyph-name="threequarters" unicode="&#xbe;" horiz-adv-x="811" 
d="M157 301q-72 0 -128 30v82h48q28 -21 65 -21q55 0 55 37q0 36 -51 36h-40v79h36q54 0 54 35q0 33 -45 33q-34 0 -63 -18h-48v80q53 33 134 33q68 0 108.5 -27t40.5 -80q0 -70 -80 -89v-3q87 -12 87 -90q0 -56 -45.5 -86.5t-127.5 -30.5zM728 729l-493 -763h-116l493 763
h116zM759 0h-132v79h-171v94l176 219h127v-231h39v-82h-39v-79zM548 162v-2h83v104h-2z" />
    <glyph glyph-name="questiondown" unicode="&#xbf;" horiz-adv-x="464" 
d="M349 413q10 -58 -3 -97t-58 -82q-28 -27 -40.5 -40t-25 -35t-12.5 -43q0 -28 18 -42.5t49 -14.5q61 0 103 40h68v-124q-86 -53 -193 -53q-112 0 -171.5 48.5t-59.5 138.5q0 57 27.5 96.5t82.5 80.5q36 28 50 40t25.5 35t9.5 52h130zM280 638q40 0 67 -26t27 -64t-27 -65
t-67 -27q-39 0 -66.5 27t-27.5 65q0 37 27.5 63.5t66.5 26.5z" />
    <glyph glyph-name="Agrave" unicode="&#xc0;" horiz-adv-x="694" 
d="M19 0v45l223 655h208l226 -655v-45h-186l-49 158h-223l-47 -158h-152zM328 524l-71 -236h145l-72 236h-2zM404 723h-105l-102 93v42h173l34 -102v-33z" />
    <glyph glyph-name="Aacute" unicode="&#xc1;" horiz-adv-x="694" 
d="M19 0v45l223 655h208l226 -655v-45h-186l-49 158h-223l-47 -158h-152zM328 524l-71 -236h145l-72 236h-2zM284 723v33l33 102h173v-42l-101 -93h-105z" />
    <glyph glyph-name="Acircumflex" unicode="&#xc2;" horiz-adv-x="694" 
d="M27 0v45l223 655h208l226 -655v-45h-186l-49 158h-223l-47 -158h-152zM336 524l-71 -236h145l-72 236h-2zM201 723v38l91 100h121l89 -100v-38h-97l-56 38l-55 -38h-93z" />
    <glyph glyph-name="Atilde" unicode="&#xc3;" horiz-adv-x="694" 
d="M19 0v45l223 655h208l226 -655v-45h-186l-49 158h-223l-47 -158h-152zM328 524l-71 -236h145l-72 236h-2zM172 723v40q8 50 35.5 76.5t70.5 26.5q27 0 64 -12t46 -12q23 0 31 24h90v-40q-8 -49 -35.5 -76t-69.5 -27q-28 0 -64.5 13t-45.5 13q-26 0 -32 -26h-90z" />
    <glyph glyph-name="Adieresis" unicode="&#xc4;" horiz-adv-x="694" 
d="M19 0v45l223 655h208l226 -655v-45h-186l-49 158h-223l-47 -158h-152zM328 524l-71 -236h145l-72 236h-2zM242 723q-37 0 -61 22.5t-24 56.5t24 56.5t61 22.5t60.5 -22t23.5 -57t-23.5 -57t-60.5 -22zM446 723q-37 0 -60.5 22t-23.5 57t23.5 57t60.5 22t61 -22.5
t24 -56.5t-24 -56.5t-61 -22.5z" />
    <glyph glyph-name="Aring" unicode="&#xc5;" horiz-adv-x="694" 
d="M19 0v45l223 655h208l226 -655v-45h-186l-49 158h-223l-47 -158h-152zM328 524l-71 -236h145l-72 236h-2zM343 723q-45 0 -76 28t-31 74q0 45 31 73.5t76 28.5t76 -28.5t31 -73.5q0 -46 -31 -74t-76 -28zM343 789q15 0 24.5 10t9.5 26t-9.5 26t-24.5 10t-24 -10t-9 -26
t9 -26t24 -10z" />
    <glyph glyph-name="AE" unicode="&#xc6;" horiz-adv-x="963" 
d="M438 0v165h-204l-76 -165h-149v45l318 655h593v-134h-291v-149h204v-126h-204v-161h301v-130h-492zM418 566l-125 -272h145v272h-20z" />
    <glyph glyph-name="Ccedilla" unicode="&#xc7;" horiz-adv-x="631" 
d="M603 59q-88 -64 -218 -68v-15q81 -4 81 -73q0 -36 -28.5 -57t-83.5 -21q-47 0 -82 16v62h31q13 -11 33 -11q26 0 26 16t-31 16h-22v71q-132 17 -207 108.5t-75 242.5q0 170 98 266.5t262 96.5q123 0 210 -50v-133h-74q-50 46 -131 46t-125 -55t-44 -164q0 -118 40 -173
t120 -55q89 0 152 61h68v-127z" />
    <glyph glyph-name="Egrave" unicode="&#xc8;" horiz-adv-x="581" 
d="M56 0v700h482v-134h-291v-149h205v-126h-205v-161h301v-130h-492zM369 723h-105l-102 93v42h173l34 -102v-33z" />
    <glyph glyph-name="Eacute" unicode="&#xc9;" horiz-adv-x="581" 
d="M56 0v700h482v-134h-291v-149h205v-126h-205v-161h301v-130h-492zM252 723v33l33 102h173v-42l-101 -93h-105z" />
    <glyph glyph-name="Ecircumflex" unicode="&#xca;" horiz-adv-x="581" 
d="M56 0v700h482v-134h-291v-149h205v-126h-205v-161h301v-130h-492zM158 723v38l91 100h121l89 -100v-38h-97l-56 38l-55 -38h-93z" />
    <glyph glyph-name="Edieresis" unicode="&#xcb;" horiz-adv-x="581" 
d="M56 0v700h482v-134h-291v-149h205v-126h-205v-161h301v-130h-492zM207 723q-37 0 -61 22.5t-24 56.5t24 56.5t61 22.5t60.5 -22t23.5 -57t-23.5 -57t-60.5 -22zM411 723q-37 0 -60.5 22t-23.5 57t23.5 57t60.5 22t61 -22.5t24 -56.5t-24 -56.5t-61 -22.5z" />
    <glyph glyph-name="Igrave" unicode="&#xcc;" horiz-adv-x="311" 
d="M252 0h-193v700h193v-700zM216 723h-105l-102 93v42h173l34 -102v-33z" />
    <glyph glyph-name="Iacute" unicode="&#xcd;" horiz-adv-x="311" 
d="M252 0h-193v700h193v-700zM99 723v33l33 102h173v-42l-101 -93h-105z" />
    <glyph glyph-name="Icircumflex" unicode="&#xce;" horiz-adv-x="311" 
d="M252 0h-193v700h193v-700zM5 723v38l91 100h121l89 -100v-38h-97l-56 38l-55 -38h-93z" />
    <glyph glyph-name="Idieresis" unicode="&#xcf;" horiz-adv-x="311" 
d="M252 0h-193v700h193v-700zM53 723q-37 0 -61 22.5t-24 56.5t24 56.5t61 22.5t60.5 -22t23.5 -57t-23.5 -57t-60.5 -22zM257 723q-37 0 -60.5 22t-23.5 57t23.5 57t60.5 22t61 -22.5t24 -56.5t-24 -56.5t-61 -22.5z" />
    <glyph glyph-name="Eth" unicode="&#xd0;" horiz-adv-x="705" 
d="M5 287v124h55v289h248q371 0 371 -346q0 -354 -377 -354h-242v287h-55zM252 129h47q95 0 139.5 51t44.5 169t-43.5 168t-140.5 50h-47v-156h126v-124h-126v-158z" />
    <glyph glyph-name="Ntilde" unicode="&#xd1;" horiz-adv-x="707" 
d="M56 0v700h205l229 -405h3v405h158v-700h-174l-261 459h-3v-459h-157zM201 723v40q8 50 35.5 76.5t70.5 26.5q27 0 64 -12t46 -12q23 0 31 24h90v-40q-8 -49 -35.5 -76t-69.5 -27q-28 0 -64.5 13t-45.5 13q-26 0 -32 -26h-90z" />
    <glyph glyph-name="Ograve" unicode="&#xd2;" horiz-adv-x="742" 
d="M371 -9q-149 0 -247 95.5t-98 262.5t99 263.5t246 96.5t246.5 -96.5t99.5 -263.5t-98.5 -262.5t-247.5 -95.5zM371 122q69 0 109.5 56t40.5 169q0 114 -40.5 170.5t-109.5 56.5t-109.5 -56.5t-40.5 -170.5q0 -113 40.5 -169t109.5 -56zM431 723h-105l-102 93v42h173
l34 -102v-33z" />
    <glyph glyph-name="Oacute" unicode="&#xd3;" horiz-adv-x="742" 
d="M371 -9q-149 0 -247 95.5t-98 262.5t99 263.5t246 96.5t246.5 -96.5t99.5 -263.5t-98.5 -262.5t-247.5 -95.5zM371 122q69 0 109.5 56t40.5 169q0 114 -40.5 170.5t-109.5 56.5t-109.5 -56.5t-40.5 -170.5q0 -113 40.5 -169t109.5 -56zM314 723v33l33 102h173v-42
l-101 -93h-105z" />
    <glyph glyph-name="Ocircumflex" unicode="&#xd4;" horiz-adv-x="742" 
d="M371 -9q-149 0 -247 95.5t-98 262.5t99 263.5t246 96.5t246.5 -96.5t99.5 -263.5t-98.5 -262.5t-247.5 -95.5zM371 122q69 0 109.5 56t40.5 169q0 114 -40.5 170.5t-109.5 56.5t-109.5 -56.5t-40.5 -170.5q0 -113 40.5 -169t109.5 -56zM220 723v38l91 100h121l89 -100
v-38h-97l-56 38l-55 -38h-93z" />
    <glyph glyph-name="Otilde" unicode="&#xd5;" horiz-adv-x="742" 
d="M371 -9q-149 0 -247 95.5t-98 262.5t99 263.5t246 96.5t246.5 -96.5t99.5 -263.5t-98.5 -262.5t-247.5 -95.5zM371 122q69 0 109.5 56t40.5 169q0 114 -40.5 170.5t-109.5 56.5t-109.5 -56.5t-40.5 -170.5q0 -113 40.5 -169t109.5 -56zM202 723v40q8 50 35.5 76.5
t70.5 26.5q27 0 64 -12t46 -12q23 0 31 24h90v-40q-8 -49 -35.5 -76t-69.5 -27q-28 0 -64.5 13t-45.5 13q-26 0 -32 -26h-90z" />
    <glyph glyph-name="Odieresis" unicode="&#xd6;" horiz-adv-x="742" 
d="M371 -9q-149 0 -247 95.5t-98 262.5t99 263.5t246 96.5t246.5 -96.5t99.5 -263.5t-98.5 -262.5t-247.5 -95.5zM371 122q69 0 109.5 56t40.5 169q0 114 -40.5 170.5t-109.5 56.5t-109.5 -56.5t-40.5 -170.5q0 -113 40.5 -169t109.5 -56zM269 723q-37 0 -61 22.5t-24 56.5
t24 56.5t61 22.5t60.5 -22t23.5 -57t-23.5 -57t-60.5 -22zM473 723q-37 0 -60.5 22t-23.5 57t23.5 57t60.5 22t61 -22.5t24 -56.5t-24 -56.5t-61 -22.5z" />
    <glyph glyph-name="multiply" unicode="&#xd7;" horiz-adv-x="525" 
d="M403 107l-140 139l-139 -139l-95 95l139 138l-139 138l95 95l139 -139l140 139l94 -95l-139 -138l139 -138z" />
    <glyph glyph-name="Oslash" unicode="&#xd8;" horiz-adv-x="742" 
d="M371 -9q-105 0 -186 48l-49 -61h-97v28l74 91q-87 97 -87 252q0 167 99 263.5t246 96.5q108 0 194 -54l48 59h96v-28l-75 -92q83 -98 83 -245q0 -167 -98.5 -262.5t-247.5 -95.5zM218 347q0 -60 11 -106l240 296q-37 39 -98 39q-71 0 -112 -57t-41 -172zM371 120
q70 0 112 56.5t42 170.5q0 52 -10 99l-238 -293q36 -33 94 -33z" />
    <glyph glyph-name="Ugrave" unicode="&#xd9;" horiz-adv-x="693" 
d="M366 131q59 0 86.5 30t27.5 106v433h159v-434q0 -274 -285 -274q-148 0 -224.5 70.5t-76.5 203.5v434h192v-433q0 -76 29.5 -106t91.5 -30zM422 723h-105l-102 93v42h173l34 -102v-33z" />
    <glyph glyph-name="Uacute" unicode="&#xda;" horiz-adv-x="693" 
d="M366 131q59 0 86.5 30t27.5 106v433h159v-434q0 -274 -285 -274q-148 0 -224.5 70.5t-76.5 203.5v434h192v-433q0 -76 29.5 -106t91.5 -30zM305 723v33l33 102h173v-42l-101 -93h-105z" />
    <glyph glyph-name="Ucircumflex" unicode="&#xdb;" horiz-adv-x="693" 
d="M366 131q59 0 86.5 30t27.5 106v433h159v-434q0 -274 -285 -274q-148 0 -224.5 70.5t-76.5 203.5v434h192v-433q0 -76 29.5 -106t91.5 -30zM211 723v38l91 100h121l89 -100v-38h-97l-56 38l-55 -38h-93z" />
    <glyph glyph-name="Udieresis" unicode="&#xdc;" horiz-adv-x="693" 
d="M366 131q59 0 86.5 30t27.5 106v433h159v-434q0 -274 -285 -274q-148 0 -224.5 70.5t-76.5 203.5v434h192v-433q0 -76 29.5 -106t91.5 -30zM259 723q-37 0 -61 22.5t-24 56.5t24 56.5t61 22.5t60.5 -22t23.5 -57t-23.5 -57t-60.5 -22zM463 723q-37 0 -60.5 22t-23.5 57
t23.5 57t60.5 22t61 -22.5t24 -56.5t-24 -56.5t-61 -22.5z" />
    <glyph glyph-name="Yacute" unicode="&#xdd;" horiz-adv-x="637" 
d="M420 0h-192v260l-214 393v47h180l140 -273h2l135 273h152v-47l-203 -388v-265zM271 723v33l33 102h173v-42l-101 -93h-105z" />
    <glyph glyph-name="Thorn" unicode="&#xde;" horiz-adv-x="619" 
d="M56 0v700h192v-122h65q286 0 286 -223q0 -222 -293 -222h-58v-133h-192zM247 448v-194h58q56 0 80 25t24 75t-22.5 72t-81.5 22h-58z" />
    <glyph glyph-name="germandbls" unicode="&#xdf;" horiz-adv-x="652" 
d="M48 0v498q0 102 71 157.5t210 55.5q117 0 180 -39t63 -116q0 -63 -80 -123q-32 -24 -42.5 -36t-10.5 -25q0 -12 12 -21t48 -24q71 -29 103 -65.5t32 -103.5q0 -76 -54.5 -121t-159.5 -45q-91 0 -143 34v117h57q35 -31 80 -31q26 0 41.5 9t15.5 23q0 16 -15 25t-64 28
q-112 41 -112 138q0 27 10 51t21.5 38t35.5 40q3 3 11.5 12.5t11 12t8 9.5t7.5 10.5t4.5 9t3.5 10.5t1 11q0 22 -18.5 35.5t-51.5 13.5q-96 0 -96 -94v-494h-180z" />
    <glyph glyph-name="agrave" unicode="&#xe0;" horiz-adv-x="553" 
d="M410 0q-58 0 -72 50q-51 -57 -151 -57q-73 0 -120 41t-47 116q0 81 56 122.5t151 41.5q51 0 101 -10v36q0 35 -20.5 51t-68.5 16q-73 0 -125 -35h-54v121q98 42 214 42q120 0 177 -43t57 -139v-353h-98zM258 98q36 0 70 29v93q-30 5 -59 5q-78 0 -78 -63q0 -64 67 -64z
M326 561h-105l-102 99v43h173l34 -109v-33z" />
    <glyph glyph-name="aacute" unicode="&#xe1;" horiz-adv-x="553" 
d="M410 0q-58 0 -72 50q-51 -57 -151 -57q-73 0 -120 41t-47 116q0 81 56 122.5t151 41.5q51 0 101 -10v36q0 35 -20.5 51t-68.5 16q-73 0 -125 -35h-54v121q98 42 214 42q120 0 177 -43t57 -139v-353h-98zM258 98q36 0 70 29v93q-30 5 -59 5q-78 0 -78 -63q0 -64 67 -64z
M326 561h-105v33l33 109h173v-43z" />
    <glyph glyph-name="acircumflex" unicode="&#xe2;" horiz-adv-x="553" 
d="M410 0q-58 0 -72 50q-51 -57 -151 -57q-73 0 -120 41t-47 116q0 81 56 122.5t151 41.5q51 0 101 -10v36q0 35 -20.5 51t-68.5 16q-73 0 -125 -35h-54v121q98 42 214 42q120 0 177 -43t57 -139v-353h-98zM258 98q36 0 70 29v93q-30 5 -59 5q-78 0 -78 -63q0 -64 67 -64z
M122 561v38l91 104h121l89 -104v-38h-97l-56 42l-55 -42h-93z" />
    <glyph glyph-name="atilde" unicode="&#xe3;" horiz-adv-x="553" 
d="M410 0q-58 0 -72 50q-51 -57 -151 -57q-73 0 -120 41t-47 116q0 81 56 122.5t151 41.5q51 0 101 -10v36q0 35 -20.5 51t-68.5 16q-73 0 -125 -35h-54v121q98 42 214 42q120 0 177 -43t57 -139v-353h-98zM258 98q36 0 70 29v93q-30 5 -59 5q-78 0 -78 -63q0 -64 67 -64z
M104 562v40q8 50 35.5 77t70.5 27q27 0 64 -12t46 -12q23 0 31 24h90v-40q-8 -50 -35.5 -77t-69.5 -27q-28 0 -64.5 13t-45.5 13q-26 0 -32 -26h-90z" />
    <glyph glyph-name="adieresis" unicode="&#xe4;" horiz-adv-x="553" 
d="M410 0q-58 0 -72 50q-51 -57 -151 -57q-73 0 -120 41t-47 116q0 81 56 122.5t151 41.5q51 0 101 -10v36q0 35 -20.5 51t-68.5 16q-73 0 -125 -35h-54v121q98 42 214 42q120 0 177 -43t57 -139v-353h-98zM258 98q36 0 70 29v93q-30 5 -59 5q-78 0 -78 -63q0 -64 67 -64z
M170 560q-37 0 -61 22.5t-24 56.5q0 35 24 57.5t61 22.5t60.5 -22.5t23.5 -57.5t-23.5 -57t-60.5 -22zM374 560q-37 0 -60.5 22t-23.5 57t23.5 57.5t60.5 22.5t61 -22.5t24 -57.5q0 -34 -24 -56.5t-61 -22.5z" />
    <glyph glyph-name="aring" unicode="&#xe5;" horiz-adv-x="553" 
d="M410 0q-58 0 -72 50q-51 -57 -151 -57q-73 0 -120 41t-47 116q0 81 56 122.5t151 41.5q51 0 101 -10v36q0 35 -20.5 51t-68.5 16q-73 0 -125 -35h-54v121q98 42 214 42q120 0 177 -43t57 -139v-353h-98zM258 98q36 0 70 29v93q-30 5 -59 5q-78 0 -78 -63q0 -64 67 -64z
M272 562q-45 0 -76 28t-31 74q0 45 31 73.5t76 28.5t76 -28.5t31 -73.5q0 -46 -31 -74t-76 -28zM272 628q15 0 24.5 10t9.5 26t-9.5 26t-24.5 10t-24 -10t-9 -26t9 -26t24 -10z" />
    <glyph glyph-name="ae" unicode="&#xe6;" horiz-adv-x="863" 
d="M202 -7q-84 0 -133 40t-49 119q0 80 57.5 122t159.5 42h91v25q0 34 -20.5 50t-68.5 16q-73 0 -125 -35h-54v121q98 42 211 42q117 0 163 -49q71 49 162 49q247 0 247 -265q0 -12 -1 -28.5t-1 -17.5h-333q6 -64 36 -88t87 -24q78 0 135 39h56v-107q-92 -52 -218 -52
q-144 0 -216 80q-69 -79 -186 -79zM255 98q53 0 91 42q-14 36 -19 84h-60q-76 0 -76 -62q0 -32 17.5 -48t46.5 -16zM595 425q-35 0 -57.5 -23.5t-28.5 -84.5h164q-2 59 -21 83.5t-57 24.5z" />
    <glyph glyph-name="ccedilla" unicode="&#xe7;" horiz-adv-x="508" 
d="M481 40q-74 -48 -179 -48v-16q81 -4 81 -73q0 -36 -28.5 -57t-83.5 -21q-47 0 -82 16v62h31q13 -11 33 -11q26 0 26 16t-31 16h-22v75q-99 18 -152.5 85.5t-53.5 177.5q0 126 80.5 199.5t211.5 73.5q99 0 167 -37v-123h-65q-37 33 -94 33q-54 0 -85.5 -37.5t-31.5 -110.5
q0 -144 113 -144q62 0 105 37h60v-113z" />
    <glyph glyph-name="egrave" unicode="&#xe8;" horiz-adv-x="557" 
d="M535 224h-333q6 -64 36 -88t88 -24q79 0 134 39h56v-107q-92 -52 -218 -52q-135 0 -206.5 71t-71.5 197t74.5 200.5t194.5 74.5q248 0 248 -265q0 -12 -1 -28.5t-1 -17.5zM289 425q-74 0 -86 -107h164q-2 59 -21 83t-57 24zM338 561h-105l-102 99v43h173l34 -109v-33z
" />
    <glyph glyph-name="eacute" unicode="&#xe9;" horiz-adv-x="557" 
d="M535 224h-333q6 -64 36 -88t88 -24q79 0 134 39h56v-107q-92 -52 -218 -52q-135 0 -206.5 71t-71.5 197t74.5 200.5t194.5 74.5q248 0 248 -265q0 -12 -1 -28.5t-1 -17.5zM289 425q-74 0 -86 -107h164q-2 59 -21 83t-57 24zM338 561h-105v33l33 109h173v-43z" />
    <glyph glyph-name="ecircumflex" unicode="&#xea;" horiz-adv-x="557" 
d="M535 224h-333q6 -64 36 -88t88 -24q79 0 134 39h56v-107q-92 -52 -218 -52q-135 0 -206.5 71t-71.5 197t74.5 200.5t194.5 74.5q248 0 248 -265q0 -12 -1 -28.5t-1 -17.5zM289 425q-74 0 -86 -107h164q-2 59 -21 83t-57 24zM134 561v38l91 104h121l89 -104v-38h-97
l-56 42l-55 -42h-93z" />
    <glyph glyph-name="edieresis" unicode="&#xeb;" horiz-adv-x="557" 
d="M535 224h-333q6 -64 36 -88t88 -24q79 0 134 39h56v-107q-92 -52 -218 -52q-135 0 -206.5 71t-71.5 197t74.5 200.5t194.5 74.5q248 0 248 -265q0 -12 -1 -28.5t-1 -17.5zM289 425q-74 0 -86 -107h164q-2 59 -21 83t-57 24zM182 560q-37 0 -61 22.5t-24 56.5
q0 35 24 57.5t61 22.5t60.5 -22.5t23.5 -57.5t-23.5 -57t-60.5 -22zM386 560q-37 0 -60.5 22t-23.5 57t23.5 57.5t60.5 22.5t61 -22.5t24 -57.5q0 -34 -24 -56.5t-61 -22.5z" />
    <glyph glyph-name="igrave" unicode="&#xec;" horiz-adv-x="278" 
d="M228 0h-179v527h116q40 0 51.5 -19t11.5 -82v-426zM200 561h-105l-102 99v43h173l34 -109v-33z" />
    <glyph glyph-name="iacute" unicode="&#xed;" horiz-adv-x="278" 
d="M228 0h-179v527h116q40 0 51.5 -19t11.5 -82v-426zM181 561h-105v33l33 109h173v-43z" />
    <glyph glyph-name="icircumflex" unicode="&#xee;" horiz-adv-x="278" 
d="M228 0h-179v527h116q40 0 51.5 -19t11.5 -82v-426zM-11 561v38l91 104h121l89 -104v-38h-97l-56 42l-55 -42h-93z" />
    <glyph glyph-name="idieresis" unicode="&#xef;" horiz-adv-x="278" 
d="M228 0h-179v527h116q40 0 51.5 -19t11.5 -82v-426zM37 560q-37 0 -61 22.5t-24 56.5q0 35 24 57.5t61 22.5t60.5 -22.5t23.5 -57.5t-23.5 -57t-60.5 -22zM241 560q-37 0 -60.5 22t-23.5 57t23.5 57.5t60.5 22.5t61 -22.5t24 -57.5q0 -34 -24 -56.5t-61 -22.5z" />
    <glyph glyph-name="eth" unicode="&#xf0;" horiz-adv-x="601" 
d="M163 522v28l40 34q-21 6 -55 13v103h70q50 -7 97 -23l26 22h101v-27l-40 -34q179 -107 179 -351q0 -147 -78 -221t-207 -74q-123 0 -199.5 69.5t-76.5 189.5q0 117 66.5 184t162.5 67q46 0 73 -12t53 -37q-22 57 -82 94l-29 -25h-101zM304 110q95 0 95 139q0 141 -95 141
q-47 0 -74.5 -35.5t-27.5 -105.5q0 -69 27.5 -104t74.5 -35z" />
    <glyph glyph-name="ntilde" unicode="&#xf1;" horiz-adv-x="602" 
d="M173 527q23 0 34.5 -13t16.5 -51q87 72 190 72q143 0 143 -149v-386h-180v339q0 33 -14 45.5t-48 12.5t-87 -17v-380h-180v527h125zM136 562v40q8 50 35.5 77t70.5 27q27 0 64 -12t46 -12q23 0 31 24h90v-40q-8 -50 -35.5 -77t-69.5 -27q-28 0 -64.5 13t-45.5 13
q-26 0 -32 -26h-90z" />
    <glyph glyph-name="ograve" unicode="&#xf2;" horiz-adv-x="601" 
d="M301 -8q-122 0 -201.5 73t-79.5 196q0 124 79.5 199t201.5 75q121 0 200.5 -75t79.5 -199q0 -123 -79 -196t-201 -73zM301 110q45 0 71.5 37t26.5 112q0 76 -26.5 114.5t-71.5 38.5q-46 0 -72.5 -38.5t-26.5 -114.5q0 -75 26.5 -112t72.5 -37zM354 561h-105l-102 99v43
h173l34 -109v-33z" />
    <glyph glyph-name="oacute" unicode="&#xf3;" horiz-adv-x="601" 
d="M301 -8q-122 0 -201.5 73t-79.5 196q0 124 79.5 199t201.5 75q121 0 200.5 -75t79.5 -199q0 -123 -79 -196t-201 -73zM301 110q45 0 71.5 37t26.5 112q0 76 -26.5 114.5t-71.5 38.5q-46 0 -72.5 -38.5t-26.5 -114.5q0 -75 26.5 -112t72.5 -37zM354 561h-105v33l33 109
h173v-43z" />
    <glyph glyph-name="ocircumflex" unicode="&#xf4;" horiz-adv-x="601" 
d="M301 -8q-122 0 -201.5 73t-79.5 196q0 124 79.5 199t201.5 75q121 0 200.5 -75t79.5 -199q0 -123 -79 -196t-201 -73zM301 110q45 0 71.5 37t26.5 112q0 76 -26.5 114.5t-71.5 38.5q-46 0 -72.5 -38.5t-26.5 -114.5q0 -75 26.5 -112t72.5 -37zM150 561v38l91 104h121
l89 -104v-38h-97l-56 42l-55 -42h-93z" />
    <glyph glyph-name="otilde" unicode="&#xf5;" horiz-adv-x="601" 
d="M301 -8q-122 0 -201.5 73t-79.5 196q0 124 79.5 199t201.5 75q121 0 200.5 -75t79.5 -199q0 -123 -79 -196t-201 -73zM301 110q45 0 71.5 37t26.5 112q0 76 -26.5 114.5t-71.5 38.5q-46 0 -72.5 -38.5t-26.5 -114.5q0 -75 26.5 -112t72.5 -37zM132 562v40q8 50 35.5 77
t70.5 27q27 0 64 -12t46 -12q23 0 31 24h90v-40q-8 -50 -35.5 -77t-69.5 -27q-28 0 -64.5 13t-45.5 13q-26 0 -32 -26h-90z" />
    <glyph glyph-name="odieresis" unicode="&#xf6;" horiz-adv-x="601" 
d="M301 -8q-122 0 -201.5 73t-79.5 196q0 124 79.5 199t201.5 75q121 0 200.5 -75t79.5 -199q0 -123 -79 -196t-201 -73zM301 110q45 0 71.5 37t26.5 112q0 76 -26.5 114.5t-71.5 38.5q-46 0 -72.5 -38.5t-26.5 -114.5q0 -75 26.5 -112t72.5 -37zM198 560q-37 0 -61 22.5
t-24 56.5q0 35 24 57.5t61 22.5t60.5 -22.5t23.5 -57.5t-23.5 -57t-60.5 -22zM402 560q-37 0 -60.5 22t-23.5 57t23.5 57.5t60.5 22.5t61 -22.5t24 -57.5q0 -34 -24 -56.5t-61 -22.5z" />
    <glyph glyph-name="divide" unicode="&#xf7;" horiz-adv-x="534" 
d="M510 276h-486v139h486v-139zM268 243q38 0 65 -26.5t27 -64.5q0 -37 -27 -63t-65 -26q-40 0 -67 25.5t-27 63.5t27 64.5t67 26.5zM268 628q38 0 65 -26.5t27 -63.5q0 -38 -27 -64t-65 -26q-40 0 -67 26t-27 64t27 64t67 26z" />
    <glyph glyph-name="oslash" unicode="&#xf8;" horiz-adv-x="601" 
d="M301 -8q-78 0 -142 31l-40 -49h-82v26l57 70q-74 74 -74 191q0 124 79.5 199t201.5 75q80 0 144 -35l36 45h82v-26l-54 -67q72 -75 72 -191q0 -123 -79 -196t-201 -73zM197 259q0 -36 4 -57l159 194q-23 20 -59 20q-48 0 -76 -39.5t-28 -117.5zM301 104q47 0 74.5 39.5
t27.5 115.5q0 35 -4 58l-159 -194q23 -19 61 -19z" />
    <glyph glyph-name="ugrave" unicode="&#xf9;" horiz-adv-x="610" 
d="M297 124q31 0 82 17v386h179v-527h-125q-23 0 -34 11.5t-16 47.5q-87 -67 -180 -67q-154 0 -154 151v384h180v-343q0 -35 16.5 -47.5t51.5 -12.5zM359 561h-105l-102 99v43h173l34 -109v-33z" />
    <glyph glyph-name="uacute" unicode="&#xfa;" horiz-adv-x="610" 
d="M297 124q31 0 82 17v386h179v-527h-125q-23 0 -34 11.5t-16 47.5q-87 -67 -180 -67q-154 0 -154 151v384h180v-343q0 -35 16.5 -47.5t51.5 -12.5zM359 561h-105v33l33 109h173v-43z" />
    <glyph glyph-name="ucircumflex" unicode="&#xfb;" horiz-adv-x="610" 
d="M297 124q31 0 82 17v386h179v-527h-125q-23 0 -34 11.5t-16 47.5q-87 -67 -180 -67q-154 0 -154 151v384h180v-343q0 -35 16.5 -47.5t51.5 -12.5zM154 561v38l91 104h121l89 -104v-38h-97l-56 42l-55 -42h-93z" />
    <glyph glyph-name="udieresis" unicode="&#xfc;" horiz-adv-x="610" 
d="M297 124q31 0 82 17v386h179v-527h-125q-23 0 -34 11.5t-16 47.5q-87 -67 -180 -67q-154 0 -154 151v384h180v-343q0 -35 16.5 -47.5t51.5 -12.5zM203 560q-37 0 -61 22.5t-24 56.5q0 35 24 57.5t61 22.5t60.5 -22.5t23.5 -57.5t-23.5 -57t-60.5 -22zM407 560
q-37 0 -60.5 22t-23.5 57t23.5 57.5t60.5 22.5t61 -22.5t24 -57.5q0 -34 -24 -56.5t-61 -22.5z" />
    <glyph glyph-name="yacute" unicode="&#xfd;" horiz-adv-x="569" 
d="M136 -162v41l69 146l-190 461v41h171l110 -299h3l102 299h154v-41l-256 -648h-163zM350 561h-105v33l33 109h173v-43z" />
    <glyph glyph-name="thorn" unicode="&#xfe;" horiz-adv-x="605" 
d="M228 606v-131q65 60 157 60q84 0 141.5 -63t57.5 -195q0 -140 -62.5 -208t-161.5 -68q-81 0 -132 39v-202h-180v862h114q42 0 54 -17t12 -77zM304 401q-35 0 -76 -17v-244q30 -21 73 -21q47 0 74 31t27 112q0 78 -26 108.5t-72 30.5z" />
    <glyph glyph-name="ydieresis" unicode="&#xff;" horiz-adv-x="569" 
d="M136 -162v41l69 146l-190 461v41h171l110 -299h3l102 299h154v-41l-256 -648h-163zM194 560q-37 0 -61 22.5t-24 56.5q0 35 24 57.5t61 22.5t60.5 -22.5t23.5 -57.5t-23.5 -57t-60.5 -22zM398 560q-37 0 -60.5 22t-23.5 57t23.5 57.5t60.5 22.5t61 -22.5t24 -57.5
q0 -34 -24 -56.5t-61 -22.5z" />
    <glyph glyph-name="Amacron" unicode="&#x100;" horiz-adv-x="694" 
d="M19 0v45l223 655h208l226 -655v-45h-186l-49 158h-223l-47 -158h-152zM328 524l-71 -236h145l-72 236h-2zM480 842v-109h-276v109h276z" />
    <glyph glyph-name="amacron" unicode="&#x101;" horiz-adv-x="553" 
d="M410 0q-58 0 -72 50q-51 -57 -151 -57q-73 0 -120 41t-47 116q0 81 56 122.5t151 41.5q51 0 101 -10v36q0 35 -20.5 51t-68.5 16q-73 0 -125 -35h-54v121q98 42 214 42q120 0 177 -43t57 -139v-353h-98zM258 98q36 0 70 29v93q-30 5 -59 5q-78 0 -78 -63q0 -64 67 -64z
M407 687v-108h-270v108h270z" />
    <glyph glyph-name="Abreve" unicode="&#x102;" horiz-adv-x="694" 
d="M19 0v45l223 655h208l226 -655v-45h-186l-49 158h-223l-47 -158h-152zM328 524l-71 -236h145l-72 236h-2zM343 723q-60 0 -98 28t-47 71v39h103q4 -31 42 -31q36 0 42 31h103v-39q-10 -42 -48 -70.5t-97 -28.5z" />
    <glyph glyph-name="abreve" unicode="&#x103;" horiz-adv-x="553" 
d="M410 0q-58 0 -72 50q-51 -57 -151 -57q-73 0 -120 41t-47 116q0 81 56 122.5t151 41.5q51 0 101 -10v36q0 35 -20.5 51t-68.5 16q-73 0 -125 -35h-54v121q98 42 214 42q120 0 177 -43t57 -139v-353h-98zM258 98q36 0 70 29v93q-30 5 -59 5q-78 0 -78 -63q0 -64 67 -64z
M272 561q-60 0 -97.5 30t-47.5 76v40h103q3 -38 42 -38q37 0 42 38h103v-40q-10 -46 -47.5 -76t-97.5 -30z" />
    <glyph glyph-name="Aogonek" unicode="&#x104;" horiz-adv-x="694" 
d="M595 -167q-54 0 -82.5 20.5t-28.5 56.5q0 54 68 90h-62l-49 158h-223l-47 -158h-152v45l223 655h208l226 -655v-45h-22q-34 -29 -34 -50q0 -24 37 -24h18v-76q-29 -17 -80 -17zM328 524l-71 -236h145l-72 236h-2z" />
    <glyph glyph-name="aogonek" unicode="&#x105;" horiz-adv-x="553" 
d="M428 -167q-54 0 -82.5 20.5t-28.5 56.5q0 59 71 92q-39 7 -50 48q-51 -57 -151 -57q-73 0 -120 41t-47 116q0 81 56 122.5t151 41.5q51 0 101 -10v36q0 35 -20.5 51t-68.5 16q-73 0 -125 -35h-54v121q98 42 214 42q120 0 177 -43t57 -139v-353h-21q-34 -29 -34 -50
q0 -24 37 -24h18v-76q-29 -17 -80 -17zM258 98q36 0 70 29v93q-30 5 -59 5q-78 0 -78 -63q0 -64 67 -64z" />
    <glyph glyph-name="Cacute" unicode="&#x106;" horiz-adv-x="635" 
d="M371 -9q-159 0 -251.5 93.5t-92.5 261.5q0 170 98 266.5t262 96.5q123 0 210 -50v-133h-74q-50 46 -131 46t-125 -55t-44 -164q0 -118 40 -173t120 -55q89 0 152 61h68v-127q-92 -68 -232 -68zM304 723v33l33 102h173v-42l-101 -93h-105z" />
    <glyph glyph-name="cacute" unicode="&#x107;" horiz-adv-x="508" 
d="M301 -8q-133 0 -207 70t-74 200q0 126 80.5 199.5t211.5 73.5q99 0 167 -37v-123h-65q-37 33 -94 33q-54 0 -85.5 -37.5t-31.5 -110.5q0 -144 113 -144q62 0 105 37h60v-113q-74 -48 -180 -48zM339 561h-105v33l33 109h173v-43z" />
    <glyph glyph-name="Ccircumflex" unicode="&#x108;" horiz-adv-x="635" 
d="M371 -9q-159 0 -251.5 93.5t-92.5 261.5q0 170 98 266.5t262 96.5q123 0 210 -50v-133h-74q-50 46 -131 46t-125 -55t-44 -164q0 -118 40 -173t120 -55q89 0 152 61h68v-127q-92 -68 -232 -68zM211 723v38l91 100h121l89 -100v-38h-97l-56 38l-55 -38h-93z" />
    <glyph glyph-name="ccircumflex" unicode="&#x109;" horiz-adv-x="508" 
d="M301 -8q-133 0 -207 70t-74 200q0 126 80.5 199.5t211.5 73.5q99 0 167 -37v-123h-65q-37 33 -94 33q-54 0 -85.5 -37.5t-31.5 -110.5q0 -144 113 -144q62 0 105 37h60v-113q-74 -48 -180 -48zM134 561v38l91 104h121l89 -104v-38h-97l-56 42l-55 -42h-93z" />
    <glyph glyph-name="Cdotaccent" unicode="&#x10a;" horiz-adv-x="635" 
d="M371 -9q-159 0 -251.5 93.5t-92.5 261.5q0 170 98 266.5t262 96.5q123 0 210 -50v-133h-74q-50 46 -131 46t-125 -55t-44 -164q0 -118 40 -173t120 -55q89 0 152 61h68v-127q-92 -68 -232 -68zM361 723q-40 0 -66.5 23.5t-26.5 60.5t26.5 61t66.5 24t66.5 -24t26.5 -61
t-26.5 -60.5t-66.5 -23.5z" />
    <glyph glyph-name="cdotaccent" unicode="&#x10b;" horiz-adv-x="508" 
d="M301 -8q-133 0 -207 70t-74 200q0 126 80.5 199.5t211.5 73.5q99 0 167 -37v-123h-65q-37 33 -94 33q-54 0 -85.5 -37.5t-31.5 -110.5q0 -144 113 -144q62 0 105 37h60v-113q-74 -48 -180 -48zM285 559q-40 0 -66.5 23.5t-26.5 60.5t26.5 61t66.5 24t66.5 -24t26.5 -61
t-26.5 -60.5t-66.5 -23.5z" />
    <glyph glyph-name="Ccaron" unicode="&#x10c;" horiz-adv-x="635" 
d="M371 -9q-159 0 -251.5 93.5t-92.5 261.5q0 170 98 266.5t262 96.5q123 0 210 -50v-133h-74q-50 46 -131 46t-125 -55t-44 -164q0 -118 40 -173t120 -55q89 0 152 61h68v-127q-92 -68 -232 -68zM512 861v-38l-92 -100h-121l-88 100v38h97l56 -38l55 38h93z" />
    <glyph glyph-name="ccaron" unicode="&#x10d;" horiz-adv-x="508" 
d="M301 -8q-133 0 -207 70t-74 200q0 126 80.5 199.5t211.5 73.5q99 0 167 -37v-123h-65q-37 33 -94 33q-54 0 -85.5 -37.5t-31.5 -110.5q0 -144 113 -144q62 0 105 37h60v-113q-74 -48 -180 -48zM435 703v-38l-92 -104h-121l-88 104v38h97l56 -42l55 42h93z" />
    <glyph glyph-name="Dcaron" unicode="&#x10e;" horiz-adv-x="701" 
d="M56 0v700h248q371 0 371 -346q0 -354 -377 -354h-242zM248 129h47q95 0 139.5 51t44.5 169t-43.5 168t-140.5 50h-47v-438zM470 861v-38l-92 -100h-121l-88 100v38h97l56 -38l55 38h93z" />
    <glyph glyph-name="dcaron" unicode="&#x10f;" horiz-adv-x="607" 
d="M432 0q-19 0 -30 12t-17 43q-59 -64 -152 -64q-94 0 -152 67.5t-58 197.5q0 75 19 131t51.5 87t69.5 46t79 15q85 0 137 -50v215h114q42 0 54 -17.5t12 -76.5v-606h-127zM296 110q44 0 83 32v241q-29 18 -71 18q-103 0 -103 -141q0 -80 22.5 -115t68.5 -35zM590 561v139
h139v-43l-58 -96h-81z" />
    <glyph glyph-name="Dcroat" unicode="&#x110;" horiz-adv-x="705" 
d="M5 287v124h55v289h248q371 0 371 -346q0 -354 -377 -354h-242v287h-55zM252 129h47q95 0 139.5 51t44.5 169t-43.5 168t-140.5 50h-47v-156h126v-124h-126v-158z" />
    <glyph glyph-name="dcroat" unicode="&#x111;" horiz-adv-x="607" 
d="M253 559v90h126v51h114q39 0 52 -11t14 -40h49v-90h-49v-559h-127q-19 0 -30 11.5t-17 43.5q-59 -64 -152 -64q-94 0 -152 67.5t-58 197.5q0 75 19 131t51.5 87t69.5 46t79 15q85 0 137 -50v74h-126zM296 110q44 0 83 32v241q-29 18 -71 18q-103 0 -103 -141
q0 -80 22.5 -115t68.5 -35z" />
    <glyph glyph-name="Emacron" unicode="&#x112;" horiz-adv-x="581" 
d="M56 0v700h482v-134h-291v-149h205v-126h-205v-161h301v-130h-492zM447 842v-109h-276v109h276z" />
    <glyph glyph-name="emacron" unicode="&#x113;" horiz-adv-x="557" 
d="M535 224h-333q6 -64 36 -88t88 -24q79 0 134 39h56v-107q-92 -52 -218 -52q-135 0 -206.5 71t-71.5 197t74.5 200.5t194.5 74.5q248 0 248 -265q0 -12 -1 -28.5t-1 -17.5zM289 425q-74 0 -86 -107h164q-2 59 -21 83t-57 24zM419 687v-108h-270v108h270z" />
    <glyph glyph-name="Ebreve" unicode="&#x114;" horiz-adv-x="581" 
d="M56 0v700h482v-134h-291v-149h205v-126h-205v-161h301v-130h-492zM309 723q-60 0 -98 28t-47 71v39h103q4 -31 42 -31q36 0 42 31h103v-39q-10 -42 -48 -70.5t-97 -28.5z" />
    <glyph glyph-name="ebreve" unicode="&#x115;" horiz-adv-x="557" 
d="M535 224h-333q6 -64 36 -88t88 -24q79 0 134 39h56v-107q-92 -52 -218 -52q-135 0 -206.5 71t-71.5 197t74.5 200.5t194.5 74.5q248 0 248 -265q0 -12 -1 -28.5t-1 -17.5zM289 425q-74 0 -86 -107h164q-2 59 -21 83t-57 24zM284 561q-60 0 -97.5 30t-47.5 76v40h103
q3 -38 42 -38q37 0 42 38h103v-40q-10 -46 -47.5 -76t-97.5 -30z" />
    <glyph glyph-name="Edotaccent" unicode="&#x116;" horiz-adv-x="581" 
d="M56 0v700h482v-134h-291v-149h205v-126h-205v-161h301v-130h-492zM309 723q-40 0 -66.5 23.5t-26.5 60.5t26.5 61t66.5 24t66.5 -24t26.5 -61t-26.5 -60.5t-66.5 -23.5z" />
    <glyph glyph-name="edotaccent" unicode="&#x117;" horiz-adv-x="557" 
d="M535 224h-333q6 -64 36 -88t88 -24q79 0 134 39h56v-107q-92 -52 -218 -52q-135 0 -206.5 71t-71.5 197t74.5 200.5t194.5 74.5q248 0 248 -265q0 -12 -1 -28.5t-1 -17.5zM289 425q-74 0 -86 -107h164q-2 59 -21 83t-57 24zM284 559q-40 0 -66.5 23.5t-26.5 60.5t26.5 61
t66.5 24t66.5 -24t26.5 -61t-26.5 -60.5t-66.5 -23.5z" />
    <glyph glyph-name="Eogonek" unicode="&#x118;" horiz-adv-x="581" 
d="M56 0v700h482v-134h-291v-149h205v-126h-205v-161h301v-130h-43q-34 -29 -34 -50q0 -24 37 -24h18v-76q-29 -17 -80 -17q-54 0 -82.5 20.5t-28.5 56.5q0 54 68 90h-347z" />
    <glyph glyph-name="eogonek" unicode="&#x119;" horiz-adv-x="557" 
d="M454 1q-32 -27 -32 -51t37 -24h18v-76q-29 -17 -80 -17q-54 0 -83 20.5t-29 57.5q0 48 60 84q-19 -3 -47 -3q-135 0 -206.5 71t-71.5 197t74.5 200.5t194.5 74.5q248 0 248 -265q0 -12 -1 -28.5t-1 -17.5h-332q6 -63 36 -87.5t87 -24.5q79 0 134 39h56v-107
q-10 -7 -32 -21.5t-30 -21.5zM289 425q-35 0 -57 -23.5t-29 -83.5h164q-2 59 -21 83t-57 24z" />
    <glyph glyph-name="Ecaron" unicode="&#x11a;" horiz-adv-x="581" 
d="M56 0v700h482v-134h-291v-149h205v-126h-205v-161h301v-130h-492zM459 861v-38l-92 -100h-121l-88 100v38h97l56 -38l55 38h93z" />
    <glyph glyph-name="ecaron" unicode="&#x11b;" horiz-adv-x="557" 
d="M535 224h-333q6 -64 36 -88t88 -24q79 0 134 39h56v-107q-92 -52 -218 -52q-135 0 -206.5 71t-71.5 197t74.5 200.5t194.5 74.5q248 0 248 -265q0 -12 -1 -28.5t-1 -17.5zM289 425q-74 0 -86 -107h164q-2 59 -21 83t-57 24zM435 703v-38l-92 -104h-121l-88 104v38h97
l56 -42l55 42h93z" />
    <glyph glyph-name="Gcircumflex" unicode="&#x11c;" horiz-adv-x="681" 
d="M371 -9q-170 0 -257.5 91.5t-87.5 263.5q0 174 96.5 268.5t270.5 94.5q116 0 210 -44v-138h-71q-57 44 -137 44q-85 0 -128 -52t-43 -170q0 -121 35.5 -175.5t110.5 -54.5q47 0 80 10v128h-83v116h265v-329q-107 -53 -261 -53zM211 723v38l91 100h121l89 -100v-38h-97
l-56 38l-55 -38h-93z" />
    <glyph glyph-name="gcircumflex" unicode="&#x11d;" horiz-adv-x="607" 
d="M559 527v-487q0 -103 -76.5 -156.5t-214.5 -53.5q-135 0 -218 40v122h56q56 -37 139 -37q69 0 101.5 21.5t32.5 68.5v26q-55 -45 -141 -45q-96 0 -155.5 59t-59.5 185q0 137 65.5 201t160.5 64q88 0 145 -59q18 51 68 51h97zM300 140q40 0 79 27v214q-31 20 -73 20
q-46 0 -73.5 -27t-27.5 -99q0 -78 22.5 -106.5t72.5 -28.5zM148 561v38l91 104h121l89 -104v-38h-97l-56 42l-55 -42h-93z" />
    <glyph glyph-name="Gbreve" unicode="&#x11e;" horiz-adv-x="681" 
d="M371 -9q-170 0 -257.5 91.5t-87.5 263.5q0 174 96.5 268.5t270.5 94.5q116 0 210 -44v-138h-71q-57 44 -137 44q-85 0 -128 -52t-43 -170q0 -121 35.5 -175.5t110.5 -54.5q47 0 80 10v128h-83v116h265v-329q-107 -53 -261 -53zM362 723q-60 0 -98 28t-47 71v39h103
q4 -31 42 -31q36 0 42 31h103v-39q-10 -42 -48 -70.5t-97 -28.5z" />
    <glyph glyph-name="gbreve" unicode="&#x11f;" horiz-adv-x="607" 
d="M559 527v-487q0 -103 -76.5 -156.5t-214.5 -53.5q-135 0 -218 40v122h56q56 -37 139 -37q69 0 101.5 21.5t32.5 68.5v26q-55 -45 -141 -45q-96 0 -155.5 59t-59.5 185q0 137 65.5 201t160.5 64q88 0 145 -59q18 51 68 51h97zM300 140q40 0 79 27v214q-31 20 -73 20
q-46 0 -73.5 -27t-27.5 -99q0 -78 22.5 -106.5t72.5 -28.5zM298 561q-60 0 -97.5 30t-47.5 76v40h103q3 -38 42 -38q37 0 42 38h103v-40q-10 -46 -47.5 -76t-97.5 -30z" />
    <glyph glyph-name="Gdotaccent" unicode="&#x120;" horiz-adv-x="681" 
d="M371 -9q-170 0 -257.5 91.5t-87.5 263.5q0 174 96.5 268.5t270.5 94.5q116 0 210 -44v-138h-71q-57 44 -137 44q-85 0 -128 -52t-43 -170q0 -121 35.5 -175.5t110.5 -54.5q47 0 80 10v128h-83v116h265v-329q-107 -53 -261 -53zM362 723q-40 0 -66.5 23.5t-26.5 60.5
t26.5 61t66.5 24t66.5 -24t26.5 -61t-26.5 -60.5t-66.5 -23.5z" />
    <glyph glyph-name="gdotaccent" unicode="&#x121;" horiz-adv-x="607" 
d="M559 527v-487q0 -103 -76.5 -156.5t-214.5 -53.5q-135 0 -218 40v122h56q56 -37 139 -37q69 0 101.5 21.5t32.5 68.5v26q-55 -45 -141 -45q-96 0 -155.5 59t-59.5 185q0 137 65.5 201t160.5 64q88 0 145 -59q18 51 68 51h97zM300 140q40 0 79 27v214q-31 20 -73 20
q-46 0 -73.5 -27t-27.5 -99q0 -78 22.5 -106.5t72.5 -28.5zM298 559q-40 0 -66.5 23.5t-26.5 60.5t26.5 61t66.5 24t66.5 -24t26.5 -61t-26.5 -60.5t-66.5 -23.5z" />
    <glyph glyph-name="uni0122" unicode="&#x122;" horiz-adv-x="681" 
d="M371 -9q-170 0 -257.5 91.5t-87.5 263.5q0 174 96.5 268.5t270.5 94.5q116 0 210 -44v-138h-71q-57 44 -137 44q-85 0 -128 -52t-43 -170q0 -121 35.5 -175.5t110.5 -54.5q47 0 80 10v128h-83v116h265v-329q-107 -53 -261 -53zM289 -228v62q46 4 46 24q0 5 -3 8t-10 6.5
t-9 5.5q-25 15 -25 47q0 25 20 41t51 16q34 0 55.5 -20.5t21.5 -59.5q0 -121 -147 -130z" />
    <glyph glyph-name="uni0123" unicode="&#x123;" horiz-adv-x="607" 
d="M559 527v-487q0 -103 -76.5 -156.5t-214.5 -53.5q-135 0 -218 40v122h56q56 -37 139 -37q69 0 101.5 21.5t32.5 68.5v26q-55 -45 -141 -45q-96 0 -155.5 59t-59.5 185q0 137 65.5 201t160.5 64q88 0 145 -59q18 51 68 51h97zM300 140q40 0 79 27v214q-31 20 -73 20
q-46 0 -73.5 -27t-27.5 -99q0 -78 22.5 -106.5t72.5 -28.5zM370 774v-62q-46 -4 -46 -24q0 -5 3 -8t10 -6.5t9 -5.5q25 -15 25 -47q0 -25 -20 -41t-51 -16q-34 0 -55.5 20.5t-21.5 59.5q0 121 147 130z" />
    <glyph glyph-name="Hcircumflex" unicode="&#x124;" horiz-adv-x="711" 
d="M248 0h-192v700h192v-276h215v276h192v-700h-192v289h-215v-289zM204 723v38l91 100h121l89 -100v-38h-97l-56 38l-55 -38h-93z" />
    <glyph glyph-name="hcircumflex" unicode="&#x125;" horiz-adv-x="602" 
d="M228 606v-140q84 69 186 69q143 0 143 -149v-386h-180v339q0 33 -14 45.5t-48 12.5t-87 -17v-380h-180v700h114q42 0 54 -17t12 -77zM150 721v38l91 104h121l89 -104v-38h-97l-56 42l-55 -42h-93z" />
    <glyph glyph-name="Hbar" unicode="&#x126;" horiz-adv-x="711" 
d="M1 500v108h55v92h192v-92h215v92h192v-92h55v-108h-55v-500h-192v289h-215v-289h-192v500h-55zM248 422h215v78h-215v-78z" />
    <glyph glyph-name="hbar" unicode="&#x127;" horiz-adv-x="602" 
d="M-1 559v90h49v51h114q39 0 52 -11t14 -40h126v-90h-126v-93q84 69 186 69q143 0 143 -149v-386h-180v339q0 33 -14 45.5t-48 12.5t-87 -17v-380h-180v559h-49z" />
    <glyph glyph-name="Itilde" unicode="&#x128;" horiz-adv-x="313" 
d="M252 0h-193v700h193v-700zM-13 723v40q8 50 35.5 76.5t70.5 26.5q27 0 64 -12t46 -12q23 0 31 24h90v-40q-8 -49 -35.5 -76t-69.5 -27q-28 0 -64.5 13t-45.5 13q-26 0 -32 -26h-90z" />
    <glyph glyph-name="itilde" unicode="&#x129;" horiz-adv-x="280" 
d="M228 0h-179v527h116q40 0 51.5 -19t11.5 -82v-426zM-29 562v40q8 50 35.5 77t70.5 27q27 0 64 -12t46 -12q23 0 31 24h90v-40q-8 -50 -35.5 -77t-69.5 -27q-28 0 -64.5 13t-45.5 13q-26 0 -32 -26h-90z" />
    <glyph glyph-name="Imacron" unicode="&#x12a;" horiz-adv-x="311" 
d="M252 0h-193v700h193v-700zM293 842v-109h-276v109h276z" />
    <glyph glyph-name="imacron" unicode="&#x12b;" horiz-adv-x="278" 
d="M228 0h-179v527h116q40 0 51.5 -19t11.5 -82v-426zM267 687v-108h-257v108h257z" />
    <glyph glyph-name="Ibreve" unicode="&#x12c;" horiz-adv-x="313" 
d="M252 0h-193v700h193v-700zM156 723q-60 0 -98 28t-47 71v39h103q4 -31 42 -31q36 0 42 31h103v-39q-10 -42 -48 -70.5t-97 -28.5z" />
    <glyph glyph-name="ibreve" unicode="&#x12d;" horiz-adv-x="280" 
d="M228 0h-179v527h116q40 0 51.5 -19t11.5 -82v-426zM138 561q-60 0 -97.5 30t-47.5 76v40h103q3 -38 42 -38q37 0 42 38h103v-40q-10 -46 -47.5 -76t-97.5 -30z" />
    <glyph glyph-name="Iogonek" unicode="&#x12e;" horiz-adv-x="311" 
d="M174 -167q-54 0 -82.5 20.5t-28.5 56.5q0 54 68 90h-72v700h193v-700h-19q-34 -29 -34 -50q0 -24 37 -24h18v-76q-29 -17 -80 -17z" />
    <glyph glyph-name="iogonek" unicode="&#x12f;" horiz-adv-x="278" 
d="M154 -167q-54 0 -82.5 20.5t-28.5 56.5q0 54 68 90h-62v527h116q40 0 51.5 -19t11.5 -82v-426h-15q-34 -29 -34 -50q0 -24 37 -24h18v-76q-29 -17 -80 -17zM139 559q-40 0 -66.5 23.5t-26.5 60.5t26.5 61t66.5 24t66.5 -24t26.5 -61t-26 -60.5t-67 -23.5z" />
    <glyph glyph-name="Idotaccent" unicode="&#x130;" horiz-adv-x="311" 
d="M252 0h-193v700h193v-700zM155 723q-40 0 -66.5 23.5t-26.5 60.5t26.5 61t66.5 24t66.5 -24t26.5 -61t-26.5 -60.5t-66.5 -23.5z" />
    <glyph glyph-name="dotlessi" unicode="&#x131;" horiz-adv-x="278" 
d="M228 0h-179v527h116q40 0 51.5 -19t11.5 -82v-426z" />
    <glyph glyph-name="IJ" unicode="&#x132;" horiz-adv-x="790" 
d="M252 0h-193v700h193v-700zM485 -9q-104 0 -171 42v129h66q35 -33 90 -33q74 0 74 72v499h192v-499q0 -210 -251 -210z" />
    <glyph glyph-name="ij" unicode="&#x133;" horiz-adv-x="559" 
d="M228 0h-179v527h116q40 0 51.5 -19t11.5 -82v-426zM139 559q-40 0 -66.5 23.5t-26.5 60.5t26.5 61t66.5 24t66.5 -24t26.5 -61t-26 -60.5t-67 -23.5zM241 -156v98h28q33 0 46.5 13.5t13.5 46.5v525h116q40 0 51.5 -19.5t11.5 -81.5v-433q0 -85 -43.5 -123.5t-131.5 -38.5
q-51 0 -92 13zM419 559q-40 0 -66.5 23.5t-26.5 60.5t26.5 61t66.5 24t66.5 -24t26.5 -61t-26 -60.5t-67 -23.5z" />
    <glyph glyph-name="Jcircumflex" unicode="&#x134;" horiz-adv-x="490" 
d="M187 -9q-104 0 -171 42v129h66q35 -33 90 -33q74 0 74 72v499h192v-499q0 -210 -251 -210zM188 723v38l91 100h121l89 -100v-38h-97l-56 38l-55 -38h-93z" />
    <glyph glyph-name="jcircumflex" unicode="&#x135;" horiz-adv-x="278" 
d="M-39 -156v98h28q33 0 46.5 13.5t13.5 46.5v525h116q40 0 51.5 -19.5t11.5 -81.5v-433q0 -85 -43.5 -123.5t-131.5 -38.5q-51 0 -92 13zM-12 561v38l91 104h121l89 -104v-38h-97l-56 42l-55 -42h-93z" />
    <glyph glyph-name="uni0136" unicode="&#x136;" horiz-adv-x="693" 
d="M56 0v700h192v-285l237 285h165v-43l-203 -234l224 -380v-43h-187l-172 291l-64 -70v-221h-192zM282 -228v62q46 4 46 24q0 5 -3 8t-10 6.5t-9 5.5q-25 15 -25 47q0 25 20 41t51 16q34 0 55.5 -20.5t21.5 -59.5q0 -121 -147 -130z" />
    <glyph glyph-name="uni0137" unicode="&#x137;" horiz-adv-x="578" 
d="M228 606v-275l164 196h150v-43l-145 -165l165 -276v-43h-169l-122 205l-43 -47v-158h-180v700h114q42 0 54 -17t12 -77zM231 -228v62q46 4 46 24q0 5 -3 8t-10 6.5t-9 5.5q-25 15 -25 47q0 25 20 41t51 16q34 0 55.5 -20.5t21.5 -59.5q0 -121 -147 -130z" />
    <glyph glyph-name="Lacute" unicode="&#x139;" horiz-adv-x="552" 
d="M523 0h-467v700h192v-568h275v-132zM96 723v33l33 102h173v-42l-101 -93h-105z" />
    <glyph glyph-name="lacute" unicode="&#x13a;" horiz-adv-x="280" 
d="M230 0h-180v700h114q42 0 54 -17t12 -77v-606zM185 721h-105v33l33 109h173v-43z" />
    <glyph glyph-name="uni013B" unicode="&#x13b;" horiz-adv-x="552" 
d="M523 0h-467v700h192v-568h275v-132zM221 -228v62q46 4 46 24q0 5 -3 8t-10 6.5t-9 5.5q-25 15 -25 47q0 25 20 41t51 16q34 0 55.5 -20.5t21.5 -59.5q0 -121 -147 -130z" />
    <glyph glyph-name="uni013C" unicode="&#x13c;" horiz-adv-x="280" 
d="M230 0h-180v700h114q42 0 54 -17t12 -77v-606zM68 -228v62q46 4 46 24q0 5 -3 8t-10 6.5t-9 5.5q-25 15 -25 47q0 25 20 41t51 16q34 0 55.5 -20.5t21.5 -59.5q0 -121 -147 -130z" />
    <glyph glyph-name="Lcaron" unicode="&#x13d;" horiz-adv-x="552" 
d="M523 0h-467v700h192v-568h275v-132zM290 561v139h139v-43l-58 -96h-81z" />
    <glyph glyph-name="lcaron" unicode="&#x13e;" horiz-adv-x="280" 
d="M230 0h-180v700h114q42 0 54 -17t12 -77v-606zM261 561v139h139v-43l-58 -96h-81z" />
    <glyph glyph-name="Ldot" unicode="&#x13f;" horiz-adv-x="554" 
d="M523 0h-467v700h192v-568h275v-132zM443 293q-38 0 -65 25.5t-27 62.5t27 63t65 26t65 -26t27 -63t-27 -62.5t-65 -25.5z" />
    <glyph glyph-name="ldot" unicode="&#x140;" horiz-adv-x="418" 
d="M230 0h-180v700h114q42 0 54 -17t12 -77v-606zM349 300q-37 0 -63 25t-26 61q0 37 26 62t63 25q38 0 64 -25t26 -62t-26 -61.5t-64 -24.5z" />
    <glyph glyph-name="Lslash" unicode="&#x141;" horiz-adv-x="564" 
d="M534 0h-467v222l-61 -22v123l61 22v355h192v-283l178 66v-123l-178 -66v-162h275v-132z" />
    <glyph glyph-name="lslash" unicode="&#x142;" horiz-adv-x="297" 
d="M238 0h-179v278l-56 -29v118l56 29v304h114q41 0 53 -17t12 -77v-115l59 31v-118l-59 -31v-373z" />
    <glyph glyph-name="Nacute" unicode="&#x143;" horiz-adv-x="707" 
d="M56 0v700h205l229 -405h3v405h158v-700h-174l-261 459h-3v-459h-157zM313 723v33l33 102h173v-42l-101 -93h-105z" />
    <glyph glyph-name="nacute" unicode="&#x144;" horiz-adv-x="602" 
d="M173 527q23 0 34.5 -13t16.5 -51q87 72 190 72q143 0 143 -149v-386h-180v339q0 33 -14 45.5t-48 12.5t-87 -17v-380h-180v527h125zM359 561h-105v33l33 109h173v-43z" />
    <glyph glyph-name="uni0145" unicode="&#x145;" horiz-adv-x="707" 
d="M56 0v700h205l229 -405h3v405h158v-700h-174l-261 459h-3v-459h-157zM273 -228v62q46 4 46 24q0 5 -3 8t-10 6.5t-9 5.5q-25 15 -25 47q0 25 20 41t51 16q34 0 55.5 -20.5t21.5 -59.5q0 -121 -147 -130z" />
    <glyph glyph-name="uni0146" unicode="&#x146;" horiz-adv-x="602" 
d="M173 527q23 0 34.5 -13t16.5 -51q87 72 190 72q143 0 143 -149v-386h-180v339q0 33 -14 45.5t-48 12.5t-87 -17v-380h-180v527h125zM232 -228v62q46 4 46 24q0 5 -3 8t-10 6.5t-9 5.5q-25 15 -25 47q0 25 20 41t51 16q34 0 55.5 -20.5t21.5 -59.5q0 -121 -147 -130z" />
    <glyph glyph-name="Ncaron" unicode="&#x147;" horiz-adv-x="707" 
d="M56 0v700h205l229 -405h3v405h158v-700h-174l-261 459h-3v-459h-157zM520 861v-38l-92 -100h-121l-88 100v38h97l56 -38l55 38h93z" />
    <glyph glyph-name="ncaron" unicode="&#x148;" horiz-adv-x="602" 
d="M173 527q23 0 34.5 -13t16.5 -51q87 72 190 72q143 0 143 -149v-386h-180v339q0 33 -14 45.5t-48 12.5t-87 -17v-380h-180v527h125zM455 703v-38l-92 -104h-121l-88 104v38h97l56 -42l55 42h93z" />
    <glyph glyph-name="napostrophe" unicode="&#x149;" horiz-adv-x="696" 
d="M-61 430v73q64 8 64 37q0 9 -4.5 13.5t-14.5 10t-15 9.5q-30 21 -30 60q0 33 24 54t62 21q40 0 67.5 -27t27.5 -78q0 -160 -181 -173zM265 527q23 0 34.5 -13t16.5 -51q87 72 190 72q143 0 143 -149v-386h-180v339q0 33 -14 45.5t-48 12.5t-87 -17v-380h-180v527h125z
" />
    <glyph glyph-name="Eng" unicode="&#x14a;" horiz-adv-x="709" 
d="M652 30q0 -199 -219 -199q-91 0 -155 39v122h60q32 -32 82 -32q49 0 61 38l-2 -1l-262 462h-3v-459h-157v700h205l229 -405h3v405h158v-670z" />
    <glyph glyph-name="eng" unicode="&#x14b;" horiz-adv-x="604" 
d="M558 -7q0 -85 -43.5 -123.5t-131.5 -38.5q-53 0 -92 13v98h28q33 0 46 13.5t13 46.5v337q0 33 -14 45.5t-48 12.5t-87 -17v-380h-180v527h125q23 0 34.5 -13t16.5 -51q87 72 190 72q143 0 143 -149v-393z" />
    <glyph glyph-name="Omacron" unicode="&#x14c;" horiz-adv-x="742" 
d="M371 -9q-149 0 -247 95.5t-98 262.5t99 263.5t246 96.5t246.5 -96.5t99.5 -263.5t-98.5 -262.5t-247.5 -95.5zM371 122q69 0 109.5 56t40.5 169q0 114 -40.5 170.5t-109.5 56.5t-109.5 -56.5t-40.5 -170.5q0 -113 40.5 -169t109.5 -56zM509 842v-109h-276v109h276z" />
    <glyph glyph-name="omacron" unicode="&#x14d;" horiz-adv-x="601" 
d="M301 -8q-122 0 -201.5 73t-79.5 196q0 124 79.5 199t201.5 75q121 0 200.5 -75t79.5 -199q0 -123 -79 -196t-201 -73zM301 110q45 0 71.5 37t26.5 112q0 76 -26.5 114.5t-71.5 38.5q-46 0 -72.5 -38.5t-26.5 -114.5q0 -75 26.5 -112t72.5 -37zM435 687v-108h-270v108h270
z" />
    <glyph glyph-name="Obreve" unicode="&#x14e;" horiz-adv-x="744" 
d="M371 723q-60 0 -98 28t-47 71v39h103q4 -31 42 -31q36 0 42 31h103v-39q-10 -42 -48 -70.5t-97 -28.5zM371 -9q-149 0 -247 95.5t-98 262.5t99 263.5t246 96.5t246.5 -96.5t99.5 -263.5t-98.5 -262.5t-247.5 -95.5zM371 122q69 0 109.5 56t40.5 169q0 114 -40.5 170.5
t-109.5 56.5t-109.5 -56.5t-40.5 -170.5q0 -113 40.5 -169t109.5 -56z" />
    <glyph glyph-name="obreve" unicode="&#x14f;" horiz-adv-x="603" 
d="M301 -8q-122 0 -201.5 73t-79.5 196q0 124 79.5 199t201.5 75q121 0 200.5 -75t79.5 -199q0 -123 -79 -196t-201 -73zM301 110q45 0 71.5 37t26.5 112q0 76 -26.5 114.5t-71.5 38.5q-46 0 -72.5 -38.5t-26.5 -114.5q0 -75 26.5 -112t72.5 -37zM301 561q-60 0 -97.5 30
t-47.5 76v40h103q3 -38 42 -38q37 0 42 38h103v-40q-10 -46 -47.5 -76t-97.5 -30z" />
    <glyph glyph-name="Ohungarumlaut" unicode="&#x150;" horiz-adv-x="742" 
d="M371 -9q-149 0 -247 95.5t-98 262.5t99 263.5t246 96.5t246.5 -96.5t99.5 -263.5t-98.5 -262.5t-247.5 -95.5zM371 122q69 0 109.5 56t40.5 169q0 114 -40.5 170.5t-109.5 56.5t-109.5 -56.5t-40.5 -170.5q0 -113 40.5 -169t109.5 -56zM230 723v29l31 106h141v-42
l-76 -93h-96zM409 723v29l31 106h141v-42l-75 -93h-97z" />
    <glyph glyph-name="ohungarumlaut" unicode="&#x151;" horiz-adv-x="601" 
d="M301 -8q-122 0 -201.5 73t-79.5 196q0 124 79.5 199t201.5 75q121 0 200.5 -75t79.5 -199q0 -123 -79 -196t-201 -73zM301 110q45 0 71.5 37t26.5 112q0 76 -26.5 114.5t-71.5 38.5q-46 0 -72.5 -38.5t-26.5 -114.5q0 -75 26.5 -112t72.5 -37zM162 561v28l32 114h138v-42
l-77 -100h-93zM338 561v28l32 114h138v-42l-76 -100h-94z" />
    <glyph glyph-name="OE" unicode="&#x152;" horiz-adv-x="968" 
d="M397 0q-371 0 -371 346q0 354 376 354h523v-134h-285v-149h199v-126h-199v-161h295v-130h-538zM449 569h-44q-96 0 -140 -50t-44 -168t43.5 -169t140.5 -51h44v438z" />
    <glyph glyph-name="oe" unicode="&#x153;" horiz-adv-x="934" 
d="M298 -8q-121 0 -199.5 73t-78.5 196q0 124 78.5 199t198.5 75q117 0 189 -77q68 77 184 77q244 0 244 -265q0 -12 -1 -28.5t-1 -17.5h-333q6 -64 36 -88t88 -24q77 0 134 39h56v-107q-92 -52 -214 -52q-129 0 -195 72q-70 -72 -186 -72zM301 109q45 0 71.5 37.5
t26.5 112.5q0 76 -26.5 114t-71.5 38q-46 0 -72.5 -38t-26.5 -114q0 -75 26.5 -112.5t72.5 -37.5zM666 425q-74 0 -86 -107h164q-2 59 -21 83t-57 24z" />
    <glyph glyph-name="Racute" unicode="&#x154;" horiz-adv-x="658" 
d="M456 0l-135 257h-73v-257h-192v700h263q280 0 280 -214q0 -128 -104 -187l139 -254v-45h-178zM246 570v-188h61q102 0 102 94t-102 94h-61zM256 723v33l33 102h173v-42l-101 -93h-105z" />
    <glyph glyph-name="racute" unicode="&#x155;" horiz-adv-x="415" 
d="M377 383q-89 0 -149 -25v-358h-180v527h125q23 0 35 -15t16 -57q60 76 145 76q12 0 32 -4v-144h-24zM290 561h-105v33l33 109h173v-43z" />
    <glyph glyph-name="uni0156" unicode="&#x156;" horiz-adv-x="658" 
d="M456 0l-135 257h-73v-257h-192v700h263q280 0 280 -214q0 -128 -104 -187l139 -254v-45h-178zM246 570v-188h61q102 0 102 94t-102 94h-61zM265 -228v62q46 4 46 24q0 5 -3 8t-10 6.5t-9 5.5q-25 15 -25 47q0 25 20 41t51 16q34 0 55.5 -20.5t21.5 -59.5
q0 -121 -147 -130z" />
    <glyph glyph-name="uni0157" unicode="&#x157;" horiz-adv-x="411" 
d="M377 383q-89 0 -149 -25v-358h-180v527h125q23 0 35 -15t16 -57q60 76 145 76q12 0 32 -4v-144h-24zM62 -228v62q46 4 46 24q0 5 -3 8t-10 6.5t-9 5.5q-25 15 -25 47q0 25 20 41t51 16q34 0 55.5 -20.5t21.5 -59.5q0 -121 -147 -130z" />
    <glyph glyph-name="Rcaron" unicode="&#x158;" horiz-adv-x="658" 
d="M456 0l-135 257h-73v-257h-192v700h263q280 0 280 -214q0 -128 -104 -187l139 -254v-45h-178zM246 570v-188h61q102 0 102 94t-102 94h-61zM464 861v-38l-92 -100h-121l-88 100v38h97l56 -38l55 38h93z" />
    <glyph glyph-name="rcaron" unicode="&#x159;" horiz-adv-x="411" 
d="M377 383q-89 0 -149 -25v-358h-180v527h125q23 0 35 -15t16 -57q60 76 145 76q12 0 32 -4v-144h-24zM387 703v-38l-92 -104h-121l-88 104v38h97l56 -42l55 42h93z" />
    <glyph glyph-name="Sacute" unicode="&#x15a;" horiz-adv-x="554" 
d="M253 -9q-135 0 -229 56v133h71q52 -56 151 -56q109 0 109 69q0 13 -2.5 22.5t-11 17.5t-14 12.5t-21.5 10.5t-23.5 8l-30 8t-31.5 8q-102 26 -149 73.5t-47 142.5q0 104 71.5 158.5t191.5 54.5q127 0 208 -47v-129h-69q-57 43 -132 43q-102 0 -102 -65q0 -32 25.5 -47
t89.5 -30q125 -29 174.5 -77t49.5 -145q0 -106 -71.5 -163.5t-207.5 -57.5zM224 723v33l33 102h173v-42l-101 -93h-105z" />
    <glyph glyph-name="sacute" unicode="&#x15b;" horiz-adv-x="469" 
d="M215 -7q-108 0 -190 42v118h61q43 -39 122 -39q78 0 78 38q0 21 -18 30t-73 17q-89 11 -132 47.5t-43 115.5q0 84 60 128t162 44q103 0 178 -35v-116h-57q-48 32 -116 32q-69 0 -69 -38q0 -17 20 -26t70 -15q97 -12 139.5 -47.5t42.5 -116.5q0 -86 -58.5 -132.5
t-176.5 -46.5zM292 561h-105v33l33 109h173v-43z" />
    <glyph glyph-name="Scircumflex" unicode="&#x15c;" horiz-adv-x="554" 
d="M253 -9q-135 0 -229 56v133h71q52 -56 151 -56q109 0 109 69q0 13 -2.5 22.5t-11 17.5t-14 12.5t-21.5 10.5t-23.5 8l-30 8t-31.5 8q-102 26 -149 73.5t-47 142.5q0 104 71.5 158.5t191.5 54.5q127 0 208 -47v-129h-69q-57 43 -132 43q-102 0 -102 -65q0 -32 25.5 -47
t89.5 -30q125 -29 174.5 -77t49.5 -145q0 -106 -71.5 -163.5t-207.5 -57.5zM131 723v38l91 100h121l89 -100v-38h-97l-56 38l-55 -38h-93z" />
    <glyph glyph-name="scircumflex" unicode="&#x15d;" horiz-adv-x="469" 
d="M215 -7q-108 0 -190 42v118h61q43 -39 122 -39q78 0 78 38q0 21 -18 30t-73 17q-89 11 -132 47.5t-43 115.5q0 84 60 128t162 44q103 0 178 -35v-116h-57q-48 32 -116 32q-69 0 -69 -38q0 -17 20 -26t70 -15q97 -12 139.5 -47.5t42.5 -116.5q0 -86 -58.5 -132.5
t-176.5 -46.5zM88 561v38l91 104h121l89 -104v-38h-97l-56 42l-55 -42h-93z" />
    <glyph glyph-name="uni015E" unicode="&#x15e;" horiz-adv-x="556" 
d="M532 212q0 -97 -59.5 -153.5t-173.5 -65.5v-17q81 -4 81 -73q0 -36 -28.5 -57t-83.5 -21q-47 0 -82 16v62h31q13 -11 33 -11q26 0 26 16t-31 16h-22v68q-118 5 -199 55v133h71q52 -56 151 -56q109 0 109 69q0 13 -2.5 22.5t-11 17.5t-14 12.5t-21.5 10.5t-23.5 8l-30 8
t-31.5 8q-102 26 -149 73.5t-47 142.5q0 104 71.5 158.5t191.5 54.5q127 0 208 -47v-129h-69q-57 43 -132 43q-102 0 -102 -65q0 -32 25.5 -47t89.5 -30q125 -29 174.5 -77t49.5 -145z" />
    <glyph glyph-name="uni015F" unicode="&#x15f;" horiz-adv-x="469" 
d="M450 172q0 -159 -187 -177v-19q81 -4 81 -73q0 -36 -28.5 -57t-83.5 -21q-47 0 -82 16v62h31q13 -11 33 -11q26 0 26 16t-31 16h-22v70q-91 4 -162 41v118h61q43 -39 122 -39q78 0 78 38q0 21 -18 30t-73 17q-89 11 -132 47.5t-43 115.5q0 84 60 128t162 44
q103 0 178 -35v-116h-57q-48 32 -116 32q-69 0 -69 -38q0 -17 20 -26t70 -15q97 -12 139.5 -47.5t42.5 -116.5z" />
    <glyph glyph-name="Scaron" unicode="&#x160;" horiz-adv-x="547" 
d="M251 -9q-135 0 -229 56v133h71q52 -56 151 -56q109 0 109 69q0 13 -2.5 22.5t-11 17.5t-14 12.5t-21.5 10.5t-23.5 8l-30 8t-31.5 8q-102 26 -149 73.5t-47 142.5q0 104 71.5 158.5t191.5 54.5q127 0 208 -47v-129h-69q-57 43 -132 43q-102 0 -102 -65q0 -32 25.5 -47
t89.5 -30q125 -29 174.5 -77t49.5 -145q0 -106 -71.5 -163.5t-207.5 -57.5zM427 861v-38l-92 -100h-121l-88 100v38h97l56 -38l55 38h93z" />
    <glyph glyph-name="scaron" unicode="&#x161;" horiz-adv-x="469" 
d="M215 -7q-108 0 -190 42v118h61q43 -39 122 -39q78 0 78 38q0 21 -18 30t-73 17q-89 11 -132 47.5t-43 115.5q0 84 60 128t162 44q103 0 178 -35v-116h-57q-48 32 -116 32q-69 0 -69 -38q0 -17 20 -26t70 -15q97 -12 139.5 -47.5t42.5 -116.5q0 -86 -58.5 -132.5
t-176.5 -46.5zM389 703v-38l-92 -104h-121l-88 104v38h97l56 -42l55 42h93z" />
    <glyph glyph-name="Tcommaaccent" unicode="&#x162;" horiz-adv-x="603" 
d="M397 0h-192v567h-180v133h553v-133h-181v-567zM228 -228v62q46 4 46 24q0 5 -3 8t-10 6.5t-9 5.5q-25 15 -25 47q0 25 20 41t51 16q34 0 55.5 -20.5t21.5 -59.5q0 -121 -147 -130z" />
    <glyph glyph-name="tcommaaccent" unicode="&#x163;" horiz-adv-x="368" 
d="M12 411v116h57v134h180v-134h98v-116h-98v-240q0 -35 14.5 -48.5t50.5 -13.5h35v-104q-48 -14 -103 -14q-86 0 -131.5 35.5t-45.5 117.5v267h-57zM132 -228v62q46 4 46 24q0 5 -3 8t-10 6.5t-9 5.5q-25 15 -25 47q0 25 20 41t51 16q34 0 55.5 -20.5t21.5 -59.5
q0 -121 -147 -130z" />
    <glyph glyph-name="Tcaron" unicode="&#x164;" horiz-adv-x="603" 
d="M397 0h-192v567h-180v133h553v-133h-181v-567zM452 861v-38l-92 -100h-121l-88 100v38h97l56 -38l55 38h93z" />
    <glyph glyph-name="tcaron" unicode="&#x165;" horiz-adv-x="368" 
d="M12 411v116h57v134h180v-134h98v-116h-98v-240q0 -35 14.5 -48.5t50.5 -13.5h35v-104q-48 -14 -103 -14q-86 0 -131.5 35.5t-45.5 117.5v267h-57zM285 561v139h139v-43l-58 -96h-81z" />
    <glyph glyph-name="Tbar" unicode="&#x166;" horiz-adv-x="605" 
d="M80 347v108h125v112h-180v133h553v-133h-181v-112h129v-108h-129v-347h-192v347h-125z" />
    <glyph glyph-name="tbar" unicode="&#x167;" horiz-adv-x="370" 
d="M12 411v116h57v134h180v-134h98v-116h-98v-50h99v-94h-99v-96q0 -35 14.5 -48.5t50.5 -13.5h35v-104q-48 -14 -103 -14q-86 0 -131.5 35.5t-45.5 117.5v123h-56v94h56v50h-57z" />
    <glyph glyph-name="Utilde" unicode="&#x168;" horiz-adv-x="695" 
d="M189 723v40q8 50 35.5 76.5t70.5 26.5q27 0 64 -12t46 -12q23 0 31 24h90v-40q-8 -49 -35.5 -76t-69.5 -27q-28 0 -64.5 13t-45.5 13q-26 0 -32 -26h-90zM366 131q59 0 86.5 30t27.5 106v433h159v-434q0 -274 -285 -274q-148 0 -224.5 70.5t-76.5 203.5v434h192v-433
q0 -76 29.5 -106t91.5 -30z" />
    <glyph glyph-name="utilde" unicode="&#x169;" horiz-adv-x="612" 
d="M297 124q31 0 82 17v386h179v-527h-125q-23 0 -34 11.5t-16 47.5q-87 -67 -180 -67q-154 0 -154 151v384h180v-343q0 -35 16.5 -47.5t51.5 -12.5zM133 562v40q8 50 35.5 77t70.5 27q27 0 64 -12t46 -12q23 0 31 24h90v-40q-8 -50 -35.5 -77t-69.5 -27q-28 0 -64.5 13
t-45.5 13q-26 0 -32 -26h-90z" />
    <glyph glyph-name="Umacron" unicode="&#x16a;" horiz-adv-x="693" 
d="M366 131q59 0 86.5 30t27.5 106v433h159v-434q0 -274 -285 -274q-148 0 -224.5 70.5t-76.5 203.5v434h192v-433q0 -76 29.5 -106t91.5 -30zM499 842v-109h-276v109h276z" />
    <glyph glyph-name="umacron" unicode="&#x16b;" horiz-adv-x="610" 
d="M297 124q31 0 82 17v386h179v-527h-125q-23 0 -34 11.5t-16 47.5q-87 -67 -180 -67q-154 0 -154 151v384h180v-343q0 -35 16.5 -47.5t51.5 -12.5zM440 687v-108h-270v108h270z" />
    <glyph glyph-name="Ubreve" unicode="&#x16c;" horiz-adv-x="693" 
d="M366 131q59 0 86.5 30t27.5 106v433h159v-434q0 -274 -285 -274q-148 0 -224.5 70.5t-76.5 203.5v434h192v-433q0 -76 29.5 -106t91.5 -30zM361 723q-60 0 -98 28t-47 71v39h103q4 -31 42 -31q36 0 42 31h103v-39q-10 -42 -48 -70.5t-97 -28.5z" />
    <glyph glyph-name="ubreve" unicode="&#x16d;" horiz-adv-x="610" 
d="M297 124q31 0 82 17v386h179v-527h-125q-23 0 -34 11.5t-16 47.5q-87 -67 -180 -67q-154 0 -154 151v384h180v-343q0 -35 16.5 -47.5t51.5 -12.5zM305 561q-60 0 -97.5 30t-47.5 76v40h103q3 -38 42 -38q37 0 42 38h103v-40q-10 -46 -47.5 -76t-97.5 -30z" />
    <glyph glyph-name="Uring" unicode="&#x16e;" horiz-adv-x="693" 
d="M369 131q59 0 86.5 30t27.5 106v433h159v-434q0 -274 -285 -274q-148 0 -224.5 70.5t-76.5 203.5v434h192v-433q0 -76 29.5 -106t91.5 -30zM366 696q-45 0 -76 28t-31 74q0 45 31 73.5t76 28.5t76 -28.5t31 -73.5q0 -46 -31 -74t-76 -28zM366 762q15 0 24.5 10t9.5 26
t-9.5 26t-24.5 10t-24 -10t-9 -26t9 -26t24 -10z" />
    <glyph glyph-name="uring" unicode="&#x16f;" horiz-adv-x="610" 
d="M297 124q31 0 82 17v386h179v-527h-125q-23 0 -34 11.5t-16 47.5q-87 -67 -180 -67q-154 0 -154 151v384h180v-343q0 -35 16.5 -47.5t51.5 -12.5zM305 562q-45 0 -76 28t-31 74q0 45 31 73.5t76 28.5t76 -28.5t31 -73.5q0 -46 -31 -74t-76 -28zM305 628q15 0 24.5 10
t9.5 26t-9.5 26t-24.5 10t-24 -10t-9 -26t9 -26t24 -10z" />
    <glyph glyph-name="Uhungarumlaut" unicode="&#x170;" horiz-adv-x="693" 
d="M366 131q59 0 86.5 30t27.5 106v433h159v-434q0 -274 -285 -274q-148 0 -224.5 70.5t-76.5 203.5v434h192v-433q0 -76 29.5 -106t91.5 -30zM220 723v29l31 106h141v-42l-76 -93h-96zM399 723v29l31 106h141v-42l-75 -93h-97z" />
    <glyph glyph-name="uhungarumlaut" unicode="&#x171;" horiz-adv-x="610" 
d="M297 124q31 0 82 17v386h179v-527h-125q-23 0 -34 11.5t-16 47.5q-87 -67 -180 -67q-154 0 -154 151v384h180v-343q0 -35 16.5 -47.5t51.5 -12.5zM167 561v28l32 114h138v-42l-77 -100h-93zM343 561v28l32 114h138v-42l-76 -100h-94z" />
    <glyph glyph-name="Uogonek" unicode="&#x172;" horiz-adv-x="693" 
d="M395 -167q-54 0 -82.5 20.5t-28.5 57.5q0 49 55 82h-1q-135 0 -210 72t-75 201v434h192v-433q0 -76 29.5 -106t91.5 -30q59 0 86.5 30t27.5 106v433h159v-434q0 -181 -123 -242q-7 -4 -36.5 -16t-39.5 -21q-20 -18 -20 -37q0 -24 37 -24h18v-76q-29 -17 -80 -17z" />
    <glyph glyph-name="uogonek" unicode="&#x173;" horiz-adv-x="610" 
d="M479 -167q-54 0 -82.5 20.5t-28.5 56.5q0 54 68 90h-3q-23 0 -34 11.5t-16 47.5q-87 -67 -180 -67q-154 0 -154 151v384h180v-343q0 -35 16.5 -47.5t51.5 -12.5q31 0 82 17v386h179v-527h-20q-34 -29 -34 -50q0 -24 37 -24h18v-76q-29 -17 -80 -17z" />
    <glyph glyph-name="Wcircumflex" unicode="&#x174;" horiz-adv-x="946" 
d="M175 0l-156 655v45h186l94 -461h2l107 461h152l110 -461h2l91 461h162v-45l-157 -655h-202l-95 411h-2l-95 -411h-199zM332 723v38l91 100h121l89 -100v-38h-97l-56 38l-55 -38h-93z" />
    <glyph glyph-name="wcircumflex" unicode="&#x175;" horiz-adv-x="820" 
d="M272 561v38l91 104h121l89 -104v-38h-97l-56 42l-55 -42h-93zM160 0l-143 485v42h173l76 -304h2l89 304h132l84 -304h2l81 304h145v-42l-147 -485h-160l-85 290h-2l-89 -290h-158z" />
    <glyph glyph-name="Ycircumflex" unicode="&#x176;" horiz-adv-x="639" 
d="M420 0h-192v260l-214 393v47h180l140 -273h2l135 273h152v-47l-203 -388v-265zM179 723v38l91 100h121l89 -100v-38h-97l-56 38l-55 -38h-93z" />
    <glyph glyph-name="ycircumflex" unicode="&#x177;" horiz-adv-x="571" 
d="M136 -162v41l69 146l-190 461v41h171l110 -299h3l102 299h154v-41l-256 -648h-163zM142 561v38l91 104h121l89 -104v-38h-97l-56 42l-55 -42h-93z" />
    <glyph glyph-name="Ydieresis" unicode="&#x178;" horiz-adv-x="637" 
d="M420 0h-192v260l-214 393v47h180l140 -273h2l135 273h152v-47l-203 -388v-265zM230 723q-37 0 -61 22.5t-24 56.5t24 56.5t61 22.5t60.5 -22t23.5 -57t-23.5 -57t-60.5 -22zM434 723q-37 0 -60.5 22t-23.5 57t23.5 57t60.5 22t61 -22.5t24 -56.5t-24 -56.5t-61 -22.5z
" />
    <glyph glyph-name="Zacute" unicode="&#x179;" horiz-adv-x="572" 
d="M18 0v139l311 424v4h-289v133h495v-144l-311 -421v-4h311v-131h-517zM236 723v33l33 102h173v-42l-101 -93h-105z" />
    <glyph glyph-name="zacute" unicode="&#x17a;" horiz-adv-x="508" 
d="M25 0v121l247 282h-234v124h441v-124l-248 -281h243v-122h-449zM312 561h-105v33l33 109h173v-43z" />
    <glyph glyph-name="Zdotaccent" unicode="&#x17b;" horiz-adv-x="572" 
d="M18 0v139l311 424v4h-289v133h495v-144l-311 -421v-4h311v-131h-517zM298 723q-40 0 -66.5 23.5t-26.5 60.5t26.5 61t66.5 24t66.5 -24t26.5 -61t-26.5 -60.5t-66.5 -23.5z" />
    <glyph glyph-name="zdotaccent" unicode="&#x17c;" horiz-adv-x="508" 
d="M25 0v121l247 282h-234v124h441v-124l-248 -281h243v-122h-449zM258 559q-40 0 -66.5 23.5t-26.5 60.5t26.5 61t66.5 24t66.5 -24t26.5 -61t-26.5 -60.5t-66.5 -23.5z" />
    <glyph glyph-name="Zcaron" unicode="&#x17d;" horiz-adv-x="572" 
d="M18 0v139l311 424v4h-289v133h495v-144l-311 -421v-4h311v-131h-517zM448 861v-38l-92 -100h-121l-88 100v38h97l56 -38l55 38h93z" />
    <glyph glyph-name="zcaron" unicode="&#x17e;" horiz-adv-x="508" 
d="M25 0v121l247 282h-234v124h441v-124l-248 -281h243v-122h-449zM408 703v-38l-92 -104h-121l-88 104v38h97l56 -42l55 42h93z" />
    <glyph glyph-name="uni0192" unicode="&#x192;" horiz-adv-x="401" 
d="M30 444h69l13 111q18 157 186 157q54 0 92 -15v-103h-33q-31 0 -45.5 -10.5t-18.5 -38.5l-12 -101h83v-116h-97l-52 -428h-180l50 428h-55v116z" />
    <glyph glyph-name="Aringacute" unicode="&#x1fa;" horiz-adv-x="696" 
d="M19 0v45l223 655h208l226 -655v-45h-186l-49 158h-223l-47 -158h-152zM328 524l-71 -236h145l-72 236h-2zM289 946v33l33 102h173v-42l-101 -93h-105zM343 723q-45 0 -76 28t-31 74q0 45 31 73.5t76 28.5t76 -28.5t31 -73.5q0 -46 -31 -74t-76 -28zM343 789q15 0 24.5 10
t9.5 26t-9.5 26t-24.5 10t-24 -10t-9 -26t9 -26t24 -10z" />
    <glyph glyph-name="aringacute" unicode="&#x1fb;" horiz-adv-x="555" 
d="M410 0q-58 0 -72 50q-51 -57 -151 -57q-73 0 -120 41t-47 116q0 81 56 122.5t151 41.5q51 0 101 -10v36q0 35 -20.5 51t-68.5 16q-73 0 -125 -35h-54v121q98 42 214 42q120 0 177 -43t57 -139v-353h-98zM258 98q36 0 70 29v93q-30 5 -59 5q-78 0 -78 -63q0 -64 67 -64z
M273 562q-45 0 -76 28t-31 74q0 45 31 73.5t76 28.5t76 -28.5t31 -73.5q0 -46 -31 -74t-76 -28zM273 628q15 0 24.5 10t9.5 26t-9.5 26t-24.5 10t-24 -10t-9 -26t9 -26t24 -10zM214 785v33l33 102h173v-42l-101 -93h-105z" />
    <glyph glyph-name="AEacute" unicode="&#x1fc;" horiz-adv-x="965" 
d="M548 723v33l33 102h173v-42l-101 -93h-105zM438 0v165h-204l-76 -165h-149v45l318 655h593v-134h-291v-149h204v-126h-204v-161h301v-130h-492zM418 566l-125 -272h145v272h-20z" />
    <glyph glyph-name="aeacute" unicode="&#x1fd;" horiz-adv-x="865" 
d="M484 561h-105v33l33 109h173v-43zM202 -7q-84 0 -133 40t-49 119q0 80 57.5 122t159.5 42h91v25q0 34 -20.5 50t-68.5 16q-73 0 -125 -35h-54v121q98 42 211 42q117 0 163 -49q71 49 162 49q247 0 247 -265q0 -12 -1 -28.5t-1 -17.5h-333q6 -64 36 -88t87 -24
q78 0 135 39h56v-107q-92 -52 -218 -52q-144 0 -216 80q-69 -79 -186 -79zM255 98q53 0 91 42q-14 36 -19 84h-60q-76 0 -76 -62q0 -32 17.5 -48t46.5 -16zM595 425q-35 0 -57.5 -23.5t-28.5 -84.5h164q-2 59 -21 83.5t-57 24.5z" />
    <glyph glyph-name="Oslashacute" unicode="&#x1fe;" horiz-adv-x="744" 
d="M371 -9q-105 0 -186 48l-49 -61h-97v28l74 91q-87 97 -87 252q0 167 99 263.5t246 96.5q108 0 194 -54l48 59h96v-28l-75 -92q83 -98 83 -245q0 -167 -98.5 -262.5t-247.5 -95.5zM218 347q0 -60 11 -106l240 296q-37 39 -98 39q-71 0 -112 -57t-41 -172zM371 120
q70 0 112 56.5t42 170.5q0 52 -10 99l-238 -293q36 -33 94 -33zM314 723v33l33 102h173v-42l-101 -93h-105z" />
    <glyph glyph-name="oslashacute" unicode="&#x1ff;" horiz-adv-x="603" 
d="M301 -8q-78 0 -142 31l-40 -49h-82v26l57 70q-74 74 -74 191q0 124 79.5 199t201.5 75q80 0 144 -35l36 45h82v-26l-54 -67q72 -75 72 -191q0 -123 -79 -196t-201 -73zM197 259q0 -36 4 -57l159 194q-23 20 -59 20q-48 0 -76 -39.5t-28 -117.5zM301 104q47 0 74.5 39.5
t27.5 115.5q0 35 -4 58l-159 -194q23 -19 61 -19zM355 561h-105v33l33 109h173v-43z" />
    <glyph glyph-name="uni0218" unicode="&#x218;" horiz-adv-x="556" 
d="M253 -9q-135 0 -229 56v133h71q52 -56 151 -56q109 0 109 69q0 13 -2.5 22.5t-11 17.5t-14 12.5t-21.5 10.5t-23.5 8l-30 8t-31.5 8q-102 26 -149 73.5t-47 142.5q0 104 71.5 158.5t191.5 54.5q127 0 208 -47v-129h-69q-57 43 -132 43q-102 0 -102 -65q0 -32 25.5 -47
t89.5 -30q125 -29 174.5 -77t49.5 -145q0 -106 -71.5 -163.5t-207.5 -57.5zM201 -228v62q46 4 46 24q0 5 -3 8t-10 6.5t-9 5.5q-25 15 -25 47q0 25 20 41t51 16q34 0 55.5 -20.5t21.5 -59.5q0 -121 -147 -130z" />
    <glyph glyph-name="uni0219" unicode="&#x219;" horiz-adv-x="469" 
d="M215 -7q-108 0 -190 42v118h61q43 -39 122 -39q78 0 78 38q0 21 -18 30t-73 17q-89 11 -132 47.5t-43 115.5q0 84 60 128t162 44q103 0 178 -35v-116h-57q-48 32 -116 32q-69 0 -69 -38q0 -17 20 -26t70 -15q97 -12 139.5 -47.5t42.5 -116.5q0 -86 -58.5 -132.5
t-176.5 -46.5zM165 -228v62q46 4 46 24q0 5 -3 8t-10 6.5t-9 5.5q-25 15 -25 47q0 25 20 41t51 16q34 0 55.5 -20.5t21.5 -59.5q0 -121 -147 -130z" />
    <glyph glyph-name="uni021A" unicode="&#x21a;" horiz-adv-x="603" 
d="M397 0h-192v567h-180v133h553v-133h-181v-567zM228 -228v62q46 4 46 24q0 5 -3 8t-10 6.5t-9 5.5q-25 15 -25 47q0 25 20 41t51 16q34 0 55.5 -20.5t21.5 -59.5q0 -121 -147 -130z" />
    <glyph glyph-name="uni021B" unicode="&#x21b;" horiz-adv-x="368" 
d="M12 411v116h57v134h180v-134h98v-116h-98v-240q0 -35 14.5 -48.5t50.5 -13.5h35v-104q-48 -14 -103 -14q-86 0 -131.5 35.5t-45.5 117.5v267h-57zM132 -228v62q46 4 46 24q0 5 -3 8t-10 6.5t-9 5.5q-25 15 -25 47q0 25 20 41t51 16q34 0 55.5 -20.5t21.5 -59.5
q0 -121 -147 -130z" />
    <glyph glyph-name="uni0237" unicode="&#x237;" horiz-adv-x="278" 
d="M-39 -156v98h28q33 0 46.5 13.5t13.5 46.5v525h116q40 0 51.5 -19.5t11.5 -81.5v-433q0 -85 -43.5 -123.5t-131.5 -38.5q-51 0 -92 13z" />
    <glyph glyph-name="circumflex" unicode="&#x2c6;" 
d="M48 561v38l91 104h121l89 -104v-38h-97l-56 42l-55 -42h-93z" />
    <glyph glyph-name="caron" unicode="&#x2c7;" 
d="M349 703v-38l-92 -104h-121l-88 104v38h97l56 -42l55 42h93z" />
    <glyph glyph-name="breve" unicode="&#x2d8;" 
d="M199 561q-60 0 -97.5 30t-47.5 76v40h103q3 -38 42 -38q37 0 42 38h103v-40q-10 -46 -47.5 -76t-97.5 -30z" />
    <glyph glyph-name="dotaccent" unicode="&#x2d9;" 
d="M199 559q-40 0 -66.5 23.5t-26.5 60.5t26.5 61t66.5 24t66.5 -24t26.5 -61t-26.5 -60.5t-66.5 -23.5z" />
    <glyph glyph-name="ring" unicode="&#x2da;" 
d="M199 562q-45 0 -76 28t-31 74q0 45 31 73.5t76 28.5t76 -28.5t31 -73.5q0 -46 -31 -74t-76 -28zM199 628q15 0 24.5 10t9.5 26t-9.5 26t-24.5 10t-24 -10t-9 -26t9 -26t24 -10z" />
    <glyph glyph-name="ogonek" unicode="&#x2db;" 
d="M217 -167q-54 0 -82.5 20.5t-28.5 56.5q0 54 68 90h102q-34 -29 -34 -50q0 -24 37 -24h18v-76q-29 -17 -80 -17z" />
    <glyph glyph-name="tilde" unicode="&#x2dc;" 
d="M25 562v40q8 50 35.5 77t70.5 27q27 0 64 -12t46 -12q23 0 31 24h90v-40q-8 -50 -35.5 -77t-69.5 -27q-28 0 -64.5 13t-45.5 13q-26 0 -32 -26h-90z" />
    <glyph glyph-name="hungarumlaut" unicode="&#x2dd;" 
d="M62 561v28l32 114h138v-42l-77 -100h-93zM238 561v28l32 114h138v-42l-76 -100h-94z" />
    <glyph glyph-name="uni037E" unicode="&#x37e;" horiz-adv-x="238" 
d="M22 -41q67 9 67 40q0 9 -4.5 13.5t-15.5 10t-16 9.5q-31 22 -31 64q0 34 26 56.5t65 22.5q43 0 71 -28t28 -82q0 -162 -190 -180v74zM118 277q-40 0 -67 26t-27 64t27 65t67 27q39 0 66.5 -27t27.5 -65q0 -37 -27.5 -63.5t-66.5 -26.5z" />
    <glyph glyph-name="tonos" unicode="&#x384;" horiz-adv-x="400" 
d="M237 561h-94v142h168v-43z" />
    <glyph glyph-name="dieresistonos" unicode="&#x385;" horiz-adv-x="400" 
d="M213 560h-68v182h142v-34zM348 555q-29 0 -48.5 18t-19.5 46q0 27 19.5 45.5t48.5 18.5q30 0 49 -18.5t19 -45.5q0 -28 -19 -46t-49 -18zM51 555q-30 0 -48.5 17.5t-18.5 46.5q0 27 18.5 45.5t48.5 18.5q29 0 48.5 -18.5t19.5 -45.5q0 -28 -19.5 -46t-48.5 -18z" />
    <glyph glyph-name="Alphatonos" unicode="&#x386;" horiz-adv-x="696" 
d="M20 0v45l223 655h208l226 -655v-45h-186l-49 158h-223l-47 -158h-152zM77 558h-94v142h168v-43zM329 524l-71 -236h145l-72 236h-2z" />
    <glyph glyph-name="anoteleia" unicode="&#x387;" horiz-adv-x="237" 
d="M117 284q-39 0 -66.5 26t-27.5 64t27.5 64.5t66.5 26.5t66.5 -26.5t27.5 -64.5t-27.5 -64t-66.5 -26z" />
    <glyph glyph-name="Epsilontonos" unicode="&#x388;" horiz-adv-x="583" 
d="M-65 558h-94v142h168v-43zM57 0v700h482v-134h-291v-149h205v-126h-205v-161h301v-130h-492z" />
    <glyph glyph-name="Etatonos" unicode="&#x389;" horiz-adv-x="712" 
d="M249 0h-192v700h192v-276h215v276h192v-700h-192v289h-215v-289zM-65 558h-94v142h168v-43z" />
    <glyph glyph-name="Iotatonos" unicode="&#x38a;" horiz-adv-x="312" 
d="M253 0h-193v700h193v-700zM-65 558h-94v142h168v-43z" />
    <glyph glyph-name="Omicrontonos" unicode="&#x38c;" horiz-adv-x="744" 
d="M-9 558h-94v142h168v-43zM372 -9q-149 0 -247 95.5t-98 262.5t99 263.5t246 96.5t246.5 -96.5t99.5 -263.5t-98.5 -262.5t-247.5 -95.5zM372 122q69 0 109.5 56t40.5 169q0 114 -40.5 170.5t-109.5 56.5t-109.5 -56.5t-40.5 -170.5q0 -113 40.5 -169t109.5 -56z" />
    <glyph glyph-name="Upsilontonos" unicode="&#x38e;" horiz-adv-x="639" 
d="M-83 558h-94v142h168v-43zM421 0h-192v260l-214 393v47h180l140 -273h2l135 273h152v-47l-203 -388v-265z" />
    <glyph glyph-name="Omegatonos" unicode="&#x38f;" horiz-adv-x="736" 
d="M-9 558h-94v142h168v-43zM30 0v135h181v3q-38 19 -64.5 37.5t-57 50.5t-47 78.5t-16.5 105.5q0 139 98.5 219t242.5 80q145 0 243.5 -79.5t98.5 -217.5q0 -60 -17 -107.5t-48.5 -79.5t-57.5 -50t-63 -37v-3h182v-135h-302v182q21 14 36 27t34 37.5t29.5 61t10.5 81.5
q0 92 -40.5 138t-105.5 46t-105 -46t-40 -138q0 -45 10.5 -81.5t29.5 -61t33.5 -37.5t35.5 -27v-182h-301z" />
    <glyph glyph-name="iotadieresistonos" unicode="&#x390;" horiz-adv-x="280" 
d="M50 526h179v-526h-116q-40 0 -51.5 18.5t-11.5 81.5v426zM168 560h-68v182h142v-34zM303 555q-29 0 -48.5 18t-19.5 46q0 27 19.5 45.5t48.5 18.5q30 0 49 -18.5t19 -45.5q0 -28 -19 -46t-49 -18zM6 555q-30 0 -48.5 17.5t-18.5 46.5q0 27 18.5 45.5t48.5 18.5
q29 0 48.5 -18.5t19.5 -45.5q0 -28 -19.5 -46t-48.5 -18z" />
    <glyph glyph-name="Alpha" unicode="&#x391;" horiz-adv-x="696" 
d="M20 0v45l223 655h208l226 -655v-45h-186l-49 158h-223l-47 -158h-152zM329 524l-71 -236h145l-72 236h-2z" />
    <glyph glyph-name="Beta" unicode="&#x392;" horiz-adv-x="629" 
d="M57 0v700h262q131 0 195.5 -45t64.5 -138q0 -118 -126 -147v-4q152 -28 152 -163q0 -99 -73 -151t-208 -52h-267zM245 124h71q96 0 96 90q0 89 -96 89h-71v-179zM245 420h65q86 0 86 78q0 77 -85 77h-66v-155z" />
    <glyph glyph-name="Gamma" unicode="&#x393;" horiz-adv-x="551" 
d="M249 0h-192v700h468v-135h-276v-565z" />
    <glyph glyph-name="uni0394" unicode="&#x394;" horiz-adv-x="719" 
d="M17 0v44l237 656h207l240 -656v-44h-684zM339 532q-21 -67 -64 -201.5t-64 -202.5h261l-131 404h-2z" />
    <glyph glyph-name="Epsilon" unicode="&#x395;" horiz-adv-x="583" 
d="M57 0v700h482v-134h-291v-149h205v-126h-205v-161h301v-130h-492z" />
    <glyph glyph-name="Zeta" unicode="&#x396;" horiz-adv-x="574" 
d="M27 0v139l311 424v4h-289v133h495v-144l-311 -421v-4h311v-131h-517z" />
    <glyph glyph-name="Eta" unicode="&#x397;" horiz-adv-x="713" 
d="M249 0h-192v700h192v-276h215v276h192v-700h-192v289h-215v-289z" />
    <glyph glyph-name="Theta" unicode="&#x398;" horiz-adv-x="754" 
d="M375 -9q-154 0 -255.5 95.5t-101.5 263.5t101.5 263.5t255.5 95.5q155 0 256.5 -95.5t101.5 -263.5t-102 -263.5t-256 -95.5zM375 122q71 0 116.5 54t45.5 170q0 117 -45.5 172.5t-116.5 55.5t-116 -55.5t-45 -172.5q0 -116 45 -170t116 -54zM282 292v121h187v-121h-187z
" />
    <glyph glyph-name="Iota" unicode="&#x399;" horiz-adv-x="313" 
d="M253 0h-193v700h193v-700z" />
    <glyph glyph-name="Kappa" unicode="&#x39a;" horiz-adv-x="695" 
d="M57 0v700h192v-285l237 285h165v-43l-203 -234l224 -380v-43h-187l-172 291l-64 -70v-221h-192z" />
    <glyph glyph-name="Lambda" unicode="&#x39b;" horiz-adv-x="675" 
d="M441 700l214 -655v-45h-186l-146 495h-2l-143 -495h-158v45l212 655h209z" />
    <glyph glyph-name="Mu" unicode="&#x39c;" horiz-adv-x="883" 
d="M57 0v700h251l133 -416h3l133 416h249v-700h-188v483h-3l-157 -483h-110l-155 483h-3v-483h-153z" />
    <glyph glyph-name="Nu" unicode="&#x39d;" horiz-adv-x="709" 
d="M57 0v700h205l229 -405h3v405h158v-700h-174l-261 459h-3v-459h-157z" />
    <glyph glyph-name="Xi" unicode="&#x39e;" horiz-adv-x="614" 
d="M35 0v145h544v-145h-544zM544 285h-474v142h474v-142zM570 551h-526v149h526v-149z" />
    <glyph glyph-name="Omicron" unicode="&#x39f;" horiz-adv-x="744" 
d="M372 -9q-149 0 -247 95.5t-98 262.5t99 263.5t246 96.5t246.5 -96.5t99.5 -263.5t-98.5 -262.5t-247.5 -95.5zM372 122q69 0 109.5 56t40.5 169q0 114 -40.5 170.5t-109.5 56.5t-109.5 -56.5t-40.5 -170.5q0 -113 40.5 -169t109.5 -56z" />
    <glyph glyph-name="Pi" unicode="&#x3a0;" horiz-adv-x="700" 
d="M249 0h-192v700h586v-700h-192v566h-202v-566z" />
    <glyph glyph-name="Rho" unicode="&#x3a1;" horiz-adv-x="621" 
d="M57 0v700h257q144 0 215 -56t71 -172q0 -226 -293 -226h-58v-246h-192zM248 571v-205h58q56 0 80 27t24 78q0 52 -23 76t-81 24h-58z" />
    <glyph glyph-name="Sigma" unicode="&#x3a3;" horiz-adv-x="579" 
d="M27 0v142l207 211l-202 203v144h502v-133h-276v-3l177 -179v-44l-197 -202v-3h307v-136h-518z" />
    <glyph glyph-name="Tau" unicode="&#x3a4;" horiz-adv-x="605" 
d="M398 0h-192v567h-180v133h553v-133h-181v-567z" />
    <glyph glyph-name="Upsilon" unicode="&#x3a5;" horiz-adv-x="639" 
d="M421 0h-192v260l-214 393v47h180l140 -273h2l135 273h152v-47l-203 -388v-265z" />
    <glyph glyph-name="Phi" unicode="&#x3a6;" horiz-adv-x="850" 
d="M210 351q0 -137 124 -167v334q-62 -14 -93 -58t-31 -109zM827 353q0 -128 -81 -202t-232 -88v-73h-180v74q-150 14 -230.5 88t-80.5 201q0 125 80.5 199t230.5 91v68h180v-68q151 -15 232 -89t81 -201zM639 351q0 140 -125 168v-336q125 28 125 168z" />
    <glyph glyph-name="Chi" unicode="&#x3a7;" horiz-adv-x="683" 
d="M26 0v47l186 315l-181 291v47h190l137 -229l123 229h157v-47l-171 -293l190 -313v-47h-189l-148 251l-136 -251h-158z" />
    <glyph glyph-name="Psi" unicode="&#x3a8;" horiz-adv-x="856" 
d="M530 0h-183v146q-157 11 -231 76.5t-74 195.5v282h183v-279q0 -61 30.5 -99t91.5 -48v426h183v-427q126 19 126 148v279h157v-277q0 -126 -68.5 -192.5t-214.5 -82.5v-148z" />
    <glyph glyph-name="uni03A9" unicode="&#x3a9;" horiz-adv-x="736" 
d="M30 0v135h181v3q-38 19 -64.5 37.5t-57 50.5t-47 78.5t-16.5 105.5q0 139 98.5 219t242.5 80q145 0 243.5 -79.5t98.5 -217.5q0 -60 -17 -107.5t-48.5 -79.5t-57.5 -50t-63 -37v-3h182v-135h-302v182q21 14 36 27t34 37.5t29.5 61t10.5 81.5q0 92 -40.5 138t-105.5 46
t-105 -46t-40 -138q0 -45 10.5 -81.5t29.5 -61t33.5 -37.5t35.5 -27v-182h-301z" />
    <glyph glyph-name="Iotadieresis" unicode="&#x3aa;" horiz-adv-x="312" 
d="M253 0h-193v700h193v-700zM53 722q-37 0 -61 22.5t-24 56.5q0 35 24 57.5t61 22.5t60.5 -22.5t23.5 -57.5t-23.5 -57t-60.5 -22zM257 722q-37 0 -60.5 22t-23.5 57t23.5 57.5t60.5 22.5t61 -22.5t24 -57.5q0 -34 -24 -56.5t-61 -22.5z" />
    <glyph glyph-name="Upsilondieresis" unicode="&#x3ab;" horiz-adv-x="639" 
d="M421 0h-192v260l-214 393v47h180l140 -273h2l135 273h152v-47l-203 -388v-265zM230 722q-37 0 -61 22.5t-24 56.5q0 35 24 57.5t61 22.5t60.5 -22.5t23.5 -57.5t-23.5 -57t-60.5 -22zM434 722q-37 0 -60.5 22t-23.5 57t23.5 57.5t60.5 22.5t61 -22.5t24 -57.5
q0 -34 -24 -56.5t-61 -22.5z" />
    <glyph glyph-name="alphatonos" unicode="&#x3ac;" horiz-adv-x="605" 
d="M555 0h-104q-51 0 -66 59q-61 -66 -152 -66q-93 0 -151 67.5t-58 196.5q0 143 65.5 210.5t160.5 67.5q86 0 139 -69q21 60 70 60h96v-526zM296 109q31 0 80 32v234q-38 25 -73 25q-98 0 -98 -137q0 -83 21 -118.5t70 -35.5zM363 561h-94v142h168v-43z" />
    <glyph glyph-name="epsilontonos" unicode="&#x3ad;" horiz-adv-x="523" 
d="M334 561h-94v142h168v-43zM382 320v-100h-104q-31 0 -53 -12.5t-22 -39.5q0 -56 96 -56q84 0 139 39h57v-111q-87 -47 -233 -47q-44 0 -82 6.5t-76 22.5t-60 48.5t-22 78.5q0 93 114 127v4q-99 24 -99 110q0 41 23 71t61 45t77 22t80 7q132 0 211 -37v-115h-58
q-57 39 -128 39q-90 0 -90 -53q0 -25 18 -37t43 -12h108z" />
    <glyph glyph-name="etatonos" unicode="&#x3ae;" horiz-adv-x="604" 
d="M49 526h124q23 0 35 -13t17 -51q86 73 190 73q143 0 143 -150v-547h-180v500q0 33 -14 45.5t-48 12.5q-43 0 -88 -17v-379h-179v526zM349 561h-94v142h168v-43z" />
    <glyph glyph-name="iotatonos" unicode="&#x3af;" horiz-adv-x="280" 
d="M50 526h179v-526h-116q-40 0 -51.5 18.5t-11.5 81.5v426zM186 561h-94v142h168v-43z" />
    <glyph glyph-name="upsilondieresistonos" unicode="&#x3b0;" horiz-adv-x="572" 
d="M293 112q74 0 74 93v321h167v-309q0 -49 -11.5 -87.5t-38.5 -70.5t-77 -49.5t-121 -17.5q-132 0 -190 62.5t-58 159.5v312h181v-321q0 -93 74 -93zM305 560h-68v182h142v-34zM440 555q-29 0 -48.5 18t-19.5 46q0 27 19.5 45.5t48.5 18.5q30 0 49 -18.5t19 -45.5
q0 -28 -19 -46t-49 -18zM143 555q-30 0 -48.5 17.5t-18.5 46.5q0 27 18.5 45.5t48.5 18.5q29 0 48.5 -18.5t19.5 -45.5q0 -28 -19.5 -46t-48.5 -18z" />
    <glyph glyph-name="alpha" unicode="&#x3b1;" horiz-adv-x="605" 
d="M555 0h-104q-51 0 -66 59q-61 -66 -152 -66q-93 0 -151 67.5t-58 196.5q0 143 65.5 210.5t160.5 67.5q86 0 139 -69q21 60 70 60h96v-526zM296 109q31 0 80 32v234q-38 25 -73 25q-98 0 -98 -137q0 -83 21 -118.5t70 -35.5z" />
    <glyph glyph-name="beta" unicode="&#x3b2;" horiz-adv-x="606" 
d="M228 -162h-179v640q0 113 71.5 173t194.5 60q98 0 165 -42.5t67 -131.5q0 -54 -28.5 -92.5t-79.5 -54.5v-4q69 -13 107 -60t38 -118q0 -101 -69 -157t-159 -56q-74 0 -128 33v-190zM278 321v110h18q40 0 61 25t21 61q0 35 -19.5 56t-55.5 21q-37 0 -56 -26.5t-19 -69.5
v-370q33 -22 77 -22q46 0 71.5 26.5t25.5 79.5q0 54 -28 81.5t-76 27.5h-20z" />
    <glyph glyph-name="gamma" unicode="&#x3b3;" horiz-adv-x="555" 
d="M307 -162h-116v172l-175 475v41h171q18 -52 52 -157t52 -157h2q81 272 94 314h152v-41l-168 -475v-71q0 -63 -11.5 -82t-52.5 -19z" />
    <glyph glyph-name="delta" unicode="&#x3b4;" horiz-adv-x="599" 
d="M94 591v109h417v-108h-195v-3q261 -131 261 -332q0 -119 -78.5 -191.5t-200.5 -72.5q-124 0 -200.5 68.5t-76.5 189.5q0 97 54.5 163t152.5 94q-53 37 -134 83zM200 251q0 -66 25 -103.5t73 -37.5q46 0 72 40.5t26 103.5q0 95 -83 180q-65 -28 -89 -73.5t-24 -109.5z" />
    <glyph glyph-name="epsilon" unicode="&#x3b5;" horiz-adv-x="523" 
d="M382 320v-100h-104q-31 0 -53 -12.5t-22 -39.5q0 -56 96 -56q84 0 139 39h57v-111q-87 -47 -233 -47q-44 0 -82 6.5t-76 22.5t-60 48.5t-22 78.5q0 93 114 127v4q-99 24 -99 110q0 41 23 71t61 45t77 22t80 7q132 0 211 -37v-115h-58q-57 39 -128 39q-90 0 -90 -53
q0 -25 18 -37t43 -12h108z" />
    <glyph glyph-name="zeta" unicode="&#x3b6;" horiz-adv-x="465" 
d="M206 237q0 -52 19.5 -76t62.5 -24h44q55 0 92.5 -33t37.5 -89q0 -37 -13.5 -71.5t-28.5 -54t-40 -45.5h-117v55q16 9 25 15t20 19.5t11 28.5q0 38 -46 38h-39q-100 0 -155 49.5t-55 147.5q0 74 33 145t78 121t112 108v4h-190v125h385v-129q-98 -65 -167 -157.5
t-69 -176.5z" />
    <glyph glyph-name="eta" unicode="&#x3b7;" horiz-adv-x="604" 
d="M49 526h124q23 0 35 -13t17 -51q86 73 190 73q143 0 143 -150v-547h-180v500q0 33 -14 45.5t-48 12.5q-43 0 -88 -17v-379h-179v526z" />
    <glyph glyph-name="theta" unicode="&#x3b8;" horiz-adv-x="588" 
d="M555 348q-1 -50 -2.5 -79t-11 -74t-28.5 -79q-33 -60 -90 -91.5t-129 -31.5t-130.5 32t-89.5 94q-41 82 -41 235q0 47 2 77.5t12 74.5t29 81q63 124 218 124q74 0 131.5 -33t89.5 -95q40 -77 40 -235zM294 106q47 0 64 47t18 148h-165q1 -102 17.5 -148.5t65.5 -46.5z
M294 597q-45 0 -63 -45t-20 -140h165q-2 95 -19.5 140t-62.5 45z" />
    <glyph glyph-name="iota" unicode="&#x3b9;" horiz-adv-x="280" 
d="M50 526h179v-526h-116q-40 0 -51.5 18.5t-11.5 81.5v426z" />
    <glyph glyph-name="kappa" unicode="&#x3ba;" horiz-adv-x="580" 
d="M229 432v-98l118 133q31 36 66 51t85 15q22 0 43 -7v-120h-24q-21 0 -38.5 -7.5t-25 -14.5t-21.5 -22l-38 -41l169 -278v-43h-169l-122 200l-43 -47v-153h-180v526h114q42 0 54 -17t12 -77z" />
    <glyph glyph-name="lambda" unicode="&#x3bb;" horiz-adv-x="572" 
d="M278 282l-101 -282h-162v41l197 449l-18 45q-15 39 -47 39q-27 0 -45 -21h-58v127q64 31 146 31q64 0 103.5 -30t63.5 -101l153 -440q13 -37 41 -37h18v-98q-53 -16 -97 -16q-88 0 -120 89l-72 204h-2z" />
    <glyph glyph-name="uni03BC" unicode="&#x3bc;" horiz-adv-x="613" 
d="M230 526v-343q0 -35 16.5 -47.5t52.5 -12.5q33 0 81 18v385h180v-526h-125q-23 0 -35 12t-16 48q-56 -51 -131 -51q-16 0 -23 1v-172h-179v688h179z" />
    <glyph glyph-name="nu" unicode="&#x3bd;" horiz-adv-x="576" 
d="M202 0l-186 486v40h172l113 -329h2l104 329h153v-40l-180 -486h-178z" />
    <glyph glyph-name="xi" unicode="&#x3be;" horiz-adv-x="486" 
d="M287 137h64q55 0 92 -33t37 -90q0 -53 -22 -91.5t-60 -78.5h-116v56q56 29 56 63q0 37 -47 37h-44q-111 0 -168.5 48t-57.5 138q0 134 133 177v4q-41 11 -69.5 40.5t-28.5 71.5q0 70 75 100v4h-90v117h408v-125h-114q-50 0 -80 -18.5t-30 -57.5q0 -41 25.5 -60.5
t67.5 -19.5h115v-117h-135q-39 0 -66.5 -21.5t-27.5 -62.5q0 -81 83 -81z" />
    <glyph glyph-name="omicron" unicode="&#x3bf;" horiz-adv-x="603" 
d="M301 -8q-122 0 -201 73t-79 196q0 124 79.5 199t200.5 75q122 0 201 -75t79 -199q0 -123 -79 -196t-201 -73zM301 110q46 0 72.5 37t26.5 112q0 76 -26.5 114.5t-72.5 38.5t-72 -38.5t-26 -114.5q0 -149 98 -149z" />
    <glyph glyph-name="pi" unicode="&#x3c0;" horiz-adv-x="601" 
d="M552 526v-526h-180v402h-143v-402h-180v526h503z" />
    <glyph glyph-name="rho" unicode="&#x3c1;" horiz-adv-x="596" 
d="M304 535q120 0 194.5 -73.5t74.5 -193.5q0 -135 -65 -199t-161 -64q-81 0 -129 37v-204h-180v431q0 125 74 195.5t192 70.5zM218 273v-131q29 -21 73 -21q47 0 74 31.5t27 112.5q0 144 -89 144q-85 0 -85 -136z" />
    <glyph glyph-name="uni03C2" unicode="&#x3c2;" horiz-adv-x="509" 
d="M270 0q-114 0 -181.5 69.5t-67.5 192.5q0 126 80.5 199.5t210.5 73.5q98 0 168 -37v-123h-65q-37 33 -94 33q-54 0 -85.5 -37.5t-31.5 -110.5q0 -66 27 -94.5t80 -28.5h41q57 0 96.5 -32t39.5 -89q0 -52 -22 -90.5t-60 -78.5h-116v56q56 29 56 62q0 35 -47 35h-29z" />
    <glyph glyph-name="sigma" unicode="&#x3c3;" horiz-adv-x="636" 
d="M402 261q0 84 -30 147h-56q-50 0 -81.5 -37.5t-31.5 -111.5q0 -149 98 -149q46 0 73.5 38t27.5 113zM504 408q67 -60 67 -154q0 -119 -76.5 -190.5t-193.5 -71.5q-122 0 -201 73t-79 196q0 124 79 194.5t207 70.5h312v-118h-115z" />
    <glyph glyph-name="tau" unicode="&#x3c4;" horiz-adv-x="453" 
d="M13 407v119h426v-119h-125v-407h-116q-41 0 -52.5 18.5t-11.5 81.5v307h-121z" />
    <glyph glyph-name="upsilon" unicode="&#x3c5;" horiz-adv-x="572" 
d="M293 112q74 0 74 93v321h167v-309q0 -49 -11.5 -87.5t-38.5 -70.5t-77 -49.5t-121 -17.5q-132 0 -190 62.5t-58 159.5v312h181v-321q0 -93 74 -93z" />
    <glyph glyph-name="phi" unicode="&#x3c6;" horiz-adv-x="820" 
d="M619 261q0 71 -31 106.5t-93 47.5v-311q62 12 93 49t31 108zM273 526v-48q-73 -82 -73 -204q0 -74 28 -113.5t93 -54.5v420h155q149 0 235.5 -69t86.5 -197q0 -123 -82 -191.5t-221 -76.5v-154h-174v154q-140 7 -220 74.5t-80 197.5q0 149 94 262h158z" />
    <glyph glyph-name="chi" unicode="&#x3c7;" horiz-adv-x="567" 
d="M550 484l-157 -294l108 -210q11 -22 21 -29t27 -7h15v-98q-40 -16 -88 -16q-41 0 -71 21t-55 73l-75 152l-97 -238h-157v43l169 315l-94 183q-14 29 -43 29h-36v107q53 20 99 20q45 0 73 -19t49 -63l67 -138l92 211h153v-42z" />
    <glyph glyph-name="psi" unicode="&#x3c8;" horiz-adv-x="827" 
d="M499 526v-421q61 13 85.5 45.5t24.5 97.5v278h177v-277q0 -242 -287 -257v-154h-174v154q-287 15 -287 257v277h178v-278q0 -65 24 -97.5t85 -45.5v421h174z" />
    <glyph glyph-name="omega" unicode="&#x3c9;" horiz-adv-x="815" 
d="M793 247q0 -108 -61 -181t-163 -73q-104 0 -160 75h-4q-56 -75 -160 -75q-102 0 -163 73t-61 181q0 158 102 279h163v-47q-50 -58 -68 -105.5t-18 -121.5q0 -56 23.5 -95t68.5 -39q19 0 28 4v267h174v-267q9 -4 29 -4q45 0 68 39t23 95q0 73 -18 120.5t-68 106.5v47h164
q101 -121 101 -279z" />
    <glyph glyph-name="iotadieresis" unicode="&#x3ca;" horiz-adv-x="280" 
d="M50 526h179v-526h-116q-40 0 -51.5 18.5t-11.5 81.5v426zM38 560q-37 0 -61 22.5t-24 56.5q0 35 24 57.5t61 22.5t60.5 -22.5t23.5 -57.5t-23.5 -57t-60.5 -22zM242 560q-37 0 -60.5 22t-23.5 57t23.5 57.5t60.5 22.5t61 -22.5t24 -57.5q0 -34 -24 -56.5t-61 -22.5z" />
    <glyph glyph-name="upsilondieresis" unicode="&#x3cb;" horiz-adv-x="572" 
d="M293 112q74 0 74 93v321h167v-309q0 -49 -11.5 -87.5t-38.5 -70.5t-77 -49.5t-121 -17.5q-132 0 -190 62.5t-58 159.5v312h181v-321q0 -93 74 -93zM185 560q-37 0 -61 22.5t-24 56.5q0 35 24 57.5t61 22.5t60.5 -22.5t23.5 -57.5t-23.5 -57t-60.5 -22zM389 560
q-37 0 -60.5 22t-23.5 57t23.5 57.5t60.5 22.5t61 -22.5t24 -57.5q0 -34 -24 -56.5t-61 -22.5z" />
    <glyph glyph-name="omicrontonos" unicode="&#x3cc;" horiz-adv-x="603" 
d="M345 561h-94v142h168v-43zM301 -8q-122 0 -201 73t-79 196q0 124 79.5 199t200.5 75q122 0 201 -75t79 -199q0 -123 -79 -196t-201 -73zM301 110q46 0 72.5 37t26.5 112q0 76 -26.5 114.5t-72.5 38.5t-72 -38.5t-26 -114.5q0 -149 98 -149z" />
    <glyph glyph-name="upsilontonos" unicode="&#x3cd;" horiz-adv-x="572" 
d="M334 561h-94v142h168v-43zM293 112q74 0 74 93v321h167v-309q0 -49 -11.5 -87.5t-38.5 -70.5t-77 -49.5t-121 -17.5q-132 0 -190 62.5t-58 159.5v312h181v-321q0 -93 74 -93z" />
    <glyph glyph-name="omegatonos" unicode="&#x3ce;" horiz-adv-x="815" 
d="M793 247q0 -108 -61 -181t-163 -73q-104 0 -160 75h-4q-56 -75 -160 -75q-102 0 -163 73t-61 181q0 158 102 279h163v-47q-50 -58 -68 -105.5t-18 -121.5q0 -56 23.5 -95t68.5 -39q19 0 28 4v267h174v-267q9 -4 29 -4q45 0 68 39t23 95q0 73 -18 120.5t-68 106.5v47h164
q101 -121 101 -279zM453 561h-94v142h168v-43z" />
    <glyph glyph-name="Wgrave" unicode="&#x1e80;" horiz-adv-x="946" 
d="M540 723h-105l-102 93v42h173l34 -102v-33zM175 0l-156 655v45h186l94 -461h2l107 461h152l110 -461h2l91 461h162v-45l-157 -655h-202l-95 411h-2l-95 -411h-199z" />
    <glyph glyph-name="wgrave" unicode="&#x1e81;" horiz-adv-x="820" 
d="M160 0l-143 485v42h173l76 -304h2l89 304h132l84 -304h2l81 304h145v-42l-147 -485h-160l-85 290h-2l-89 -290h-158zM477 561h-105l-102 99v43h173l34 -109v-33z" />
    <glyph glyph-name="Wacute" unicode="&#x1e82;" horiz-adv-x="946" 
d="M427 723v33l33 102h173v-42l-101 -93h-105zM175 0l-156 655v45h186l94 -461h2l107 461h152l110 -461h2l91 461h162v-45l-157 -655h-202l-95 411h-2l-95 -411h-199z" />
    <glyph glyph-name="wacute" unicode="&#x1e83;" horiz-adv-x="820" 
d="M473 561h-105v33l33 109h173v-43zM160 0l-143 485v42h173l76 -304h2l89 304h132l84 -304h2l81 304h145v-42l-147 -485h-160l-85 290h-2l-89 -290h-158z" />
    <glyph glyph-name="Wdieresis" unicode="&#x1e84;" horiz-adv-x="946" 
d="M381 723q-37 0 -61 22.5t-24 56.5t24 56.5t61 22.5t60.5 -22t23.5 -57t-23.5 -57t-60.5 -22zM585 723q-37 0 -60.5 22t-23.5 57t23.5 57t60.5 22t61 -22.5t24 -56.5t-24 -56.5t-61 -22.5zM175 0l-156 655v45h186l94 -461h2l107 461h152l110 -461h2l91 461h162v-45
l-157 -655h-202l-95 411h-2l-95 -411h-199z" />
    <glyph glyph-name="wdieresis" unicode="&#x1e85;" horiz-adv-x="820" 
d="M321 560q-37 0 -61 22.5t-24 56.5q0 35 24 57.5t61 22.5t60.5 -22.5t23.5 -57.5t-23.5 -57t-60.5 -22zM525 560q-37 0 -60.5 22t-23.5 57t23.5 57.5t60.5 22.5t61 -22.5t24 -57.5q0 -34 -24 -56.5t-61 -22.5zM160 0l-143 485v42h173l76 -304h2l89 304h132l84 -304h2
l81 304h145v-42l-147 -485h-160l-85 290h-2l-89 -290h-158z" />
    <glyph glyph-name="Ygrave" unicode="&#x1ef2;" horiz-adv-x="639" 
d="M420 0h-192v260l-214 393v47h180l140 -273h2l135 273h152v-47l-203 -388v-265zM385 723h-105l-102 93v42h173l34 -102v-33z" />
    <glyph glyph-name="ygrave" unicode="&#x1ef3;" horiz-adv-x="571" 
d="M136 -162v41l69 146l-190 461v41h171l110 -299h3l102 299h154v-41l-256 -648h-163zM351 561h-105l-102 99v43h173l34 -109v-33z" />
    <glyph glyph-name="uni2009" unicode="&#x2009;" horiz-adv-x="110" 
 />
    <glyph glyph-name="endash" unicode="&#x2013;" horiz-adv-x="447" 
d="M38 216v132h370v-132h-370z" />
    <glyph glyph-name="emdash" unicode="&#x2014;" horiz-adv-x="748" 
d="M38 215v133h671v-133h-671z" />
    <glyph glyph-name="quoteleft" unicode="&#x2018;" horiz-adv-x="231" 
d="M206 629q-64 -8 -64 -38q0 -8 4.5 -13t15 -10.5t15.5 -8.5q29 -24 29 -60q0 -33 -24 -54t-61 -21q-41 0 -68.5 26.5t-27.5 78.5q0 158 181 173v-73z" />
    <glyph glyph-name="quoteright" unicode="&#x2019;" horiz-adv-x="231" 
d="M25 430v73q64 8 64 37q0 9 -4.5 13.5t-14.5 10t-15 9.5q-30 21 -30 60q0 33 24 54t62 21q40 0 67.5 -27t27.5 -78q0 -160 -181 -173z" />
    <glyph glyph-name="quotesinglbase" unicode="&#x201a;" horiz-adv-x="231" 
d="M25 -29q64 6 64 37q0 8 -4.5 13t-14.5 10.5t-15 9.5q-30 21 -30 60q0 33 24 54t62 21q40 0 67.5 -27t27.5 -78q0 -159 -181 -174v74z" />
    <glyph glyph-name="quotedblleft" unicode="&#x201c;" horiz-adv-x="446" 
d="M206 629q-64 -8 -64 -38q0 -8 4.5 -13t15 -10.5t15.5 -8.5q29 -24 29 -60q0 -33 -24 -54t-61 -21q-41 0 -68.5 26.5t-27.5 78.5q0 158 181 173v-73zM420 629q-63 -8 -63 -38q0 -8 4.5 -13t14.5 -10t15 -9q30 -23 30 -60q0 -33 -24 -54t-62 -21q-41 0 -68 26.5t-27 78.5
q0 158 180 173v-73z" />
    <glyph glyph-name="quotedblright" unicode="&#x201d;" horiz-adv-x="446" 
d="M240 430v73q64 8 64 37q0 9 -4.5 13.5t-15 10t-15.5 9.5q-29 22 -29 60q0 33 24 54t61 21q41 0 68.5 -27t27.5 -78q0 -160 -181 -173zM25 430v73q64 8 64 37q0 9 -4.5 13.5t-14.5 10t-15 9.5q-30 21 -30 60q0 33 24 54t62 21q40 0 67.5 -27t27.5 -78q0 -160 -181 -173z
" />
    <glyph glyph-name="quotedblbase" unicode="&#x201e;" horiz-adv-x="446" 
d="M240 -29q64 6 64 37q0 8 -4.5 13t-15 10.5t-15.5 9.5q-29 22 -29 60q0 33 24 54t61 21q41 0 68.5 -27t27.5 -78q0 -159 -181 -174v74zM25 -29q64 6 64 37q0 8 -4.5 13t-14.5 10.5t-15 9.5q-30 21 -30 60q0 33 24 54t62 21q40 0 67.5 -27t27.5 -78q0 -159 -181 -174v74z
" />
    <glyph glyph-name="dagger" unicode="&#x2020;" horiz-adv-x="479" 
d="M178 -49l-28 298v65l38 105l-109 -35h-58v163h58l109 -37l-33 99v91h169v-91l-33 -98l109 36h58v-163h-58l-109 36l38 -104v-66l-28 -299h-123z" />
    <glyph glyph-name="daggerdbl" unicode="&#x2021;" horiz-adv-x="479" 
d="M155 -49v84l33 99l-109 -37h-58v163h58l110 -36l-39 72v57l38 73l-109 -35h-58v163h58l109 -38l-33 100v84h169v-84l-33 -99l109 37h58v-163h-58l-110 36l39 -72v-57l-38 -73l109 35h58v-163h-58l-109 38l33 -100v-84h-169z" />
    <glyph glyph-name="bullet" unicode="&#x2022;" horiz-adv-x="357" 
d="M179 134q-64 0 -106.5 39.5t-42.5 105.5q0 67 43 107t106 40q64 0 106 -40t42 -107t-42 -106t-106 -39z" />
    <glyph glyph-name="ellipsis" unicode="&#x2026;" horiz-adv-x="719" 
d="M117 -7q-39 0 -66.5 26.5t-27.5 64.5t27.5 64.5t66.5 26.5t66.5 -26.5t27.5 -64.5t-27.5 -64.5t-66.5 -26.5zM360 -7q-40 0 -67 26.5t-27 64.5t27 64.5t67 26.5q39 0 66.5 -26.5t27.5 -64.5t-27.5 -64.5t-66.5 -26.5zM602 -7q-39 0 -66.5 26.5t-27.5 64.5t27.5 64.5
t66.5 26.5t66.5 -26.5t27.5 -64.5t-27.5 -64.5t-66.5 -26.5z" />
    <glyph glyph-name="perthousand" unicode="&#x2030;" horiz-adv-x="1273" 
d="M204 422q54 0 54 96q0 97 -54 97t-54 -97q0 -96 54 -96zM204 329q-78 0 -132.5 49.5t-54.5 141.5t54 140.5t133 48.5t133 -48.5t54 -140.5t-54.5 -141.5t-132.5 -49.5zM125 -34l493 763h119l-493 -763h-119zM662 84q54 0 54 97t-54 97q-55 0 -55 -97t55 -97zM662 -9
q-78 0 -132.5 50t-54.5 142q0 91 54 139.5t133 48.5q78 0 132 -48.5t54 -139.5q0 -92 -54.5 -142t-131.5 -50zM1069 84q54 0 54 97t-54 97t-54 -97t54 -97zM1069 -9q-78 0 -132.5 50t-54.5 142q0 91 54 139.5t133 48.5t133 -48.5t54 -139.5q0 -92 -54.5 -142t-132.5 -50z
" />
    <glyph glyph-name="guilsinglleft" unicode="&#x2039;" horiz-adv-x="309" 
d="M144 40l-113 188v63l113 189h134v-36l-105 -182v-2l105 -184v-36h-134z" />
    <glyph glyph-name="guilsinglright" unicode="&#x203a;" horiz-adv-x="309" 
d="M165 480l113 -189v-63l-113 -188h-134v36l105 184v2l-105 182v36h134z" />
    <glyph glyph-name="fraction" unicode="&#x2044;" horiz-adv-x="224" 
d="M417 729l-493 -763h-116l493 763h116z" />
    <glyph glyph-name="Euro" unicode="&#x20ac;" horiz-adv-x="614" 
d="M404 233h-130q12 -56 41.5 -81.5t82.5 -25.5q76 0 128 48h65v-121q-81 -62 -209 -62q-118 0 -198 61.5t-106 180.5h-59v93h48v47h-48v93h61q27 119 110 181t207 62q112 0 189 -43v-129h-74q-45 36 -107 36q-105 0 -131 -107h174l-17 -93h-167v-47h158z" />
    <glyph glyph-name="uni2116" unicode="&#x2116;" horiz-adv-x="1141" 
d="M906 302q-84 0 -138 52.5t-54 149.5t55.5 150t136.5 53t135.5 -53t54.5 -150t-53.5 -149.5t-136.5 -52.5zM906 392q26 0 39.5 24.5t13.5 84.5q0 59 -13.5 83.5t-39.5 24.5q-27 0 -40.5 -24t-13.5 -84t13.5 -84.5t40.5 -24.5zM716 127h377v133h-377v-133zM57 0v700h205
l229 -405h3v405h158v-700h-174l-261 459h-3v-459h-157z" />
    <glyph glyph-name="trademark" unicode="&#x2122;" horiz-adv-x="708" 
d="M200 420h-97v209h-77v71h252v-71h-78v-209zM316 420v280h137l40 -139h1l41 139h138v-280h-95v193h-1l-58 -193h-66l-57 193h-1v-193h-79z" />
    <glyph glyph-name="Omega" unicode="&#x2126;" horiz-adv-x="736" 
d="M30 0v135h181v3q-38 19 -64.5 37.5t-57 50.5t-47 78.5t-16.5 105.5q0 139 98.5 219t242.5 80q145 0 243.5 -79.5t98.5 -217.5q0 -60 -17 -107.5t-48.5 -79.5t-57.5 -50t-63 -37v-3h182v-135h-302v182q21 14 36 27t34 37.5t29.5 61t10.5 81.5q0 92 -40.5 138t-105.5 46
t-105 -46t-40 -138q0 -45 10.5 -81.5t29.5 -61t33.5 -37.5t35.5 -27v-182h-301z" />
    <glyph glyph-name="onethird" unicode="&#x2153;" horiz-adv-x="806" 
d="M237 308h-139v266l-49 -25h-23v97l109 54h102v-392zM669 729l-493 -763h-116l493 763h116zM616 -7q-72 0 -128 30v82h48q28 -21 65 -21q55 0 55 37q0 36 -51 36h-40v79h36q54 0 54 35q0 33 -45 33q-34 0 -63 -18h-48v80q56 33 134 33q68 0 108.5 -27t40.5 -80
q0 -70 -80 -89v-3q87 -12 87 -90q0 -56 -45.5 -86.5t-127.5 -30.5z" />
    <glyph glyph-name="twothirds" unicode="&#x2154;" horiz-adv-x="876" 
d="M323 406v-98h-295v98l109 96q52 46 52 72q0 32 -40 32q-38 0 -62 -22h-52v88q57 35 137 35q156 0 156 -118q0 -40 -21 -68.5t-70 -68.5l-56 -46h142zM750 729l-493 -763h-116l493 763h116zM685 -7q-72 0 -128 30v82h48q28 -21 65 -21q55 0 55 37q0 36 -51 36h-40v79h36
q54 0 54 35q0 33 -45 33q-34 0 -63 -18h-48v80q56 33 134 33q68 0 108.5 -27t40.5 -80q0 -70 -80 -89v-3q87 -12 87 -90q0 -56 -45.5 -86.5t-127.5 -30.5z" />
    <glyph glyph-name="oneeighth" unicode="&#x215b;" horiz-adv-x="827" 
d="M237 308h-139v266l-49 -25h-23v97l109 54h102v-392zM673 729l-493 -763h-116l493 763h116zM638 -7q-85 0 -130.5 31.5t-45.5 86.5q0 75 77 97v2q-62 17 -62 82q0 49 44 78t117 29q71 0 115.5 -29t44.5 -78q0 -65 -61 -82v-2q76 -22 76 -97q0 -55 -45 -86.5t-130 -31.5z
M638 75q46 0 46 48q0 50 -46 50q-24 0 -36 -14t-12 -36q0 -48 48 -48zM638 239q39 0 39 39q0 18 -10.5 29t-28.5 11q-40 0 -40 -40q0 -39 40 -39z" />
    <glyph glyph-name="threeeighths" unicode="&#x215c;" horiz-adv-x="854" 
d="M157 301q-72 0 -128 30v82h48q28 -21 65 -21q55 0 55 37q0 36 -51 36h-40v79h36q54 0 54 35q0 33 -45 33q-34 0 -63 -18h-48v80q53 33 134 33q68 0 108.5 -27t40.5 -80q0 -70 -80 -89v-3q87 -12 87 -90q0 -56 -45.5 -86.5t-127.5 -30.5zM715 729l-493 -763h-116l493 763
h116zM665 -7q-85 0 -130.5 31.5t-45.5 86.5q0 75 77 97v2q-62 17 -62 82q0 49 44 78t117 29q71 0 115.5 -29t44.5 -78q0 -65 -61 -82v-2q76 -22 76 -97q0 -55 -45 -86.5t-130 -31.5zM665 75q46 0 46 48q0 50 -46 50q-24 0 -36 -14t-12 -36q0 -48 48 -48zM665 239q39 0 39 39
q0 18 -10.5 29t-28.5 11q-40 0 -40 -40q0 -39 40 -39z" />
    <glyph glyph-name="fiveeighths" unicode="&#x215d;" horiz-adv-x="861" 
d="M334 435q0 -62 -48 -98t-131 -36q-70 0 -124 28v85h48q29 -21 64 -21q58 0 58 44q0 39 -42 39q-29 0 -44 -19h-74v243h272v-96h-178v-66h2q27 19 77 19q54 0 87 -31t33 -91zM717 729l-493 -763h-116l493 763h116zM672 -7q-85 0 -130.5 31.5t-45.5 86.5q0 75 77 97v2
q-62 17 -62 82q0 49 44 78t117 29q71 0 115.5 -29t44.5 -78q0 -65 -61 -82v-2q76 -22 76 -97q0 -55 -45 -86.5t-130 -31.5zM672 75q46 0 46 48q0 50 -46 50q-24 0 -36 -14t-12 -36q0 -48 48 -48zM672 239q39 0 39 39q0 18 -10.5 29t-28.5 11q-40 0 -40 -40q0 -39 40 -39z
" />
    <glyph glyph-name="seveneighths" unicode="&#x215e;" horiz-adv-x="840" 
d="M67 308v35l137 251v2h-176v104h292v-108l-116 -284h-137zM677 729l-493 -763h-116l493 763h116zM651 -7q-85 0 -130.5 31.5t-45.5 86.5q0 75 77 97v2q-62 17 -62 82q0 49 44 78t117 29q71 0 115.5 -29t44.5 -78q0 -65 -61 -82v-2q76 -22 76 -97q0 -55 -45 -86.5
t-130 -31.5zM651 75q46 0 46 48q0 50 -46 50q-24 0 -36 -14t-12 -36q0 -48 48 -48zM651 239q39 0 39 39q0 18 -10.5 29t-28.5 11q-40 0 -40 -40q0 -39 40 -39z" />
    <glyph glyph-name="Delta" unicode="&#x2206;" horiz-adv-x="703" 
d="M10 0v44l237 656h207l240 -656v-44h-684zM332 532q-21 -67 -64 -201.5t-64 -202.5h261l-131 404h-2z" />
    <glyph glyph-name="minus" unicode="&#x2212;" horiz-adv-x="534" 
d="M510 276h-486v139h486v-139z" />
    <glyph glyph-name="zero.denominator" unicode="&#xe402;" horiz-adv-x="427" 
d="M214 -7q-84 0 -138 53t-54 150t55.5 150t136.5 53q82 0 136.5 -53t54.5 -150t-54 -150t-137 -53zM214 84q27 0 40.5 24.5t13.5 84.5t-13.5 84t-40.5 24t-40.5 -24t-13.5 -84t13.5 -84.5t40.5 -24.5z" />
    <glyph glyph-name="one.denominator" unicode="&#xe403;" horiz-adv-x="276" 
d="M231 0h-139v266l-49 -25h-23v97l109 54h102v-392z" />
    <glyph glyph-name="two.denominator" unicode="&#xe404;" horiz-adv-x="348" 
d="M317 98v-98h-295v98l109 96q52 46 52 72q0 32 -40 32q-38 0 -62 -22h-52v88q57 35 137 35q156 0 156 -118q0 -40 -21 -68.5t-70 -68.5l-56 -46h142z" />
    <glyph glyph-name="three.denominator" unicode="&#xe405;" horiz-adv-x="343" 
d="M147 -7q-72 0 -128 30v82h48q28 -21 65 -21q55 0 55 37q0 36 -51 36h-40v79h36q54 0 54 35q0 33 -45 33q-34 0 -63 -18h-48v80q56 33 134 33q68 0 108.5 -27t40.5 -80q0 -70 -80 -89v-3q87 -12 87 -90q0 -56 -45.5 -86.5t-127.5 -30.5z" />
    <glyph glyph-name="four.denominator" unicode="&#xe406;" horiz-adv-x="380" 
d="M322 0h-132v79h-171v94l176 219h127v-231h39v-82h-39v-79zM111 162v-2h83v104h-2z" />
    <glyph glyph-name="five.denominator" unicode="&#xe407;" horiz-adv-x="345" 
d="M323 127q0 -62 -48 -98t-131 -36q-70 0 -124 28v85h48q29 -21 64 -21q58 0 58 44q0 19 -12 29t-30 10q-27 0 -44 -19h-74v243h272v-96h-178v-66h2q27 19 77 19q54 0 87 -31t33 -91z" />
    <glyph glyph-name="six.denominator" unicode="&#xe408;" horiz-adv-x="392" 
d="M203 -7q-84 0 -132.5 47.5t-48.5 146.5q0 100 57 156t158 56q70 0 110 -22v-89h-47q-22 13 -57 13q-39 0 -59 -18t-25 -59q33 23 90 23q55 0 88.5 -29t33.5 -86q0 -65 -45.5 -102t-122.5 -37zM199 171q-22 0 -42 -10q1 -48 12 -66t32 -18q41 0 41 48q0 46 -43 46z" />
    <glyph glyph-name="seven.denominator" unicode="&#xe409;" horiz-adv-x="339" 
d="M61 0v35l137 251v2h-176v104h292v-108l-116 -284h-137z" />
    <glyph glyph-name="eight.denominator" unicode="&#xe40a;" horiz-adv-x="391" 
d="M196 -7q-85 0 -130.5 31.5t-45.5 86.5q0 75 77 97v2q-62 17 -62 82q0 49 44 78t117 29q71 0 115.5 -29t44.5 -78q0 -65 -61 -82v-2q76 -22 76 -97q0 -55 -45 -86.5t-130 -31.5zM196 75q46 0 46 48q0 50 -46 50q-24 0 -36 -14t-12 -36q0 -48 48 -48zM196 239q39 0 39 39
q0 18 -10.5 29t-28.5 11q-40 0 -40 -40q0 -39 40 -39z" />
    <glyph glyph-name="nine.denominator" unicode="&#xe40b;" horiz-adv-x="389" 
d="M187 399q84 0 132.5 -48t48.5 -147q0 -101 -54.5 -156t-162.5 -55q-71 0 -113 22v89h48q21 -14 60 -14q42 0 61 17.5t24 57.5q-33 -23 -89 -23q-55 0 -89 30t-34 87q0 65 45.5 102.5t122.5 37.5zM191 219q22 0 42 9q-1 49 -12 68t-32 19q-42 0 -42 -50q0 -46 44 -46z" />
    <glyph glyph-name="zero.numerator" unicode="&#xe416;" horiz-adv-x="427" 
d="M214 301q-84 0 -138 53t-54 150t55.5 150t136.5 53q82 0 136.5 -53t54.5 -150t-54 -150t-137 -53zM214 392q27 0 40.5 24.5t13.5 84.5t-13.5 84t-40.5 24t-40.5 -24t-13.5 -84t13.5 -84.5t40.5 -24.5z" />
    <glyph glyph-name="one.numerator" unicode="&#xe417;" horiz-adv-x="276" 
d="M231 308h-139v266l-49 -25h-23v97l109 54h102v-392z" />
    <glyph glyph-name="two.numerator" unicode="&#xe418;" horiz-adv-x="348" 
d="M317 406v-98h-295v98l109 96q52 46 52 72q0 32 -40 32q-38 0 -62 -22h-52v88q57 35 137 35q156 0 156 -118q0 -40 -21 -68.5t-70 -68.5l-56 -46h142z" />
    <glyph glyph-name="three.numerator" unicode="&#xe419;" horiz-adv-x="343" 
d="M147 301q-72 0 -128 30v82h48q28 -21 65 -21q55 0 55 37q0 36 -51 36h-40v79h36q54 0 54 35q0 33 -45 33q-34 0 -63 -18h-48v80q53 33 134 33q68 0 108.5 -27t40.5 -80q0 -70 -80 -89v-3q87 -12 87 -90q0 -56 -45.5 -86.5t-127.5 -30.5z" />
    <glyph glyph-name="four.numerator" unicode="&#xe41a;" horiz-adv-x="380" 
d="M322 308h-132v79h-171v94l176 219h127v-231h39v-82h-39v-79zM111 471v-2h83v103h-2z" />
    <glyph glyph-name="five.numerator" unicode="&#xe41b;" horiz-adv-x="345" 
d="M323 435q0 -62 -48 -98t-131 -36q-70 0 -124 28v85h48q29 -21 64 -21q58 0 58 44q0 39 -42 39q-29 0 -44 -19h-74v243h272v-96h-178v-66h2q27 19 77 19q54 0 87 -31t33 -91z" />
    <glyph glyph-name="six.numerator" unicode="&#xe41c;" horiz-adv-x="392" 
d="M203 301q-84 0 -132.5 47.5t-48.5 146.5q0 100 57 156t158 56q70 0 110 -22v-89h-47q-22 13 -57 13q-39 0 -59 -18t-25 -59q33 23 90 23q55 0 88.5 -29t33.5 -86q0 -65 -45.5 -102t-122.5 -37zM199 479q-22 0 -42 -10q1 -48 12 -66t32 -18q41 0 41 48q0 46 -43 46z" />
    <glyph glyph-name="seven.numerator" unicode="&#xe41d;" horiz-adv-x="339" 
d="M61 308v35l137 251v2h-176v104h292v-108l-116 -284h-137z" />
    <glyph glyph-name="eight.numerator" unicode="&#xe41e;" horiz-adv-x="391" 
d="M196 301q-85 0 -130.5 31.5t-45.5 86.5q0 75 77 97v2q-62 17 -62 82q0 49 44 78t117 29q71 0 115.5 -29t44.5 -78q0 -65 -61 -82v-2q76 -22 76 -97q0 -55 -45 -86.5t-130 -31.5zM196 383q46 0 46 48q0 50 -46 50q-24 0 -36 -14t-12 -36q0 -48 48 -48zM196 547q39 0 39 39
q0 18 -10.5 29t-28.5 11q-40 0 -40 -40q0 -39 40 -39z" />
    <glyph glyph-name="nine.numerator" unicode="&#xe41f;" horiz-adv-x="389" 
d="M187 707q84 0 132.5 -48t48.5 -147q0 -101 -54.5 -156t-162.5 -55q-71 0 -113 22v89h48q24 -14 60 -14q42 0 61 17.5t24 57.5q-33 -23 -89 -23q-55 0 -89 30t-34 87q0 65 45.5 102.5t122.5 37.5zM191 527q22 0 42 9q-1 49 -12 68t-32 19q-42 0 -42 -50q0 -46 44 -46z" />
    <glyph glyph-name="zero.tab" unicode="&#xe44f;" horiz-adv-x="600" 
d="M300 -10q-123 0 -199 90.5t-76 269.5t77 269.5t198 90.5t198 -90.5t77 -269.5t-76 -269.5t-199 -90.5zM300 119q44 0 64 51.5t20 175.5t-20 176t-64 52t-64 -52t-20 -176t20 -175.5t64 -51.5z" />
    <glyph glyph-name="one.tab" unicode="&#xe450;" horiz-adv-x="600" 
d="M440 0h-192v511l-121 -66h-40v133l217 122h136v-700z" />
    <glyph glyph-name="two.tab" unicode="&#xe451;" horiz-adv-x="600" 
d="M542 144v-144h-493v146l192 182q61 58 86 94.5t25 71.5q0 72 -87 72q-70 0 -129 -47h-67v128q98 62 219 62q254 0 254 -205q0 -69 -39 -125.5t-126 -133.5l-114 -101h279z" />
    <glyph glyph-name="three.tab" unicode="&#xe452;" horiz-adv-x="600" 
d="M257 -9q-129 0 -209 50v125h70q44 -42 123 -42q50 0 81.5 22.5t31.5 63.5q0 42 -26.5 61.5t-82.5 19.5h-56v125h50q112 0 112 79q0 76 -87 76q-73 0 -126 -39h-66v119q93 58 215 58q114 0 179.5 -46.5t65.5 -141.5q0 -123 -131 -159v-4q143 -23 143 -159
q0 -99 -78 -153.5t-209 -54.5z" />
    <glyph glyph-name="four.tab" unicode="&#xe453;" horiz-adv-x="600" 
d="M504 0h-189v146h-278v143l288 411h179v-432h70v-122h-70v-146zM161 272v-4h158v227h-4z" />
    <glyph glyph-name="five.tab" unicode="&#xe454;" horiz-adv-x="600" 
d="M549 229q0 -111 -80.5 -174.5t-216.5 -63.5q-119 0 -202 48v129h69q47 -43 123 -43q54 0 86.5 26.5t32.5 75.5q0 48 -24 71.5t-64 23.5q-58 0 -96 -40h-107v418h440v-144h-307v-143h3q45 36 127 36q97 0 156.5 -55.5t59.5 -164.5z" />
    <glyph glyph-name="six.tab" unicode="&#xe455;" horiz-adv-x="600" 
d="M312 -9q-131 0 -207.5 86t-76.5 257q0 179 91.5 277t254.5 98q96 0 163 -32v-132h-69q-34 28 -91 28q-76 0 -113 -43.5t-47 -132.5q58 48 150 48q97 0 153.5 -55.5t56.5 -157.5q0 -109 -72 -175t-193 -66zM309 326q-53 0 -96 -29q3 -100 26 -143t70 -43q48 0 67.5 29
t19.5 84q0 102 -87 102z" />
    <glyph glyph-name="seven.tab" unicode="&#xe456;" horiz-adv-x="600" 
d="M127 0v60l264 488v4h-339v148h490v-158l-225 -542h-190z" />
    <glyph glyph-name="eight.tab" unicode="&#xe457;" horiz-adv-x="600" 
d="M300 -9q-132 0 -201 54.5t-69 152.5q0 131 127 173v4q-103 36 -103 146q0 87 67.5 137.5t178.5 50.5t179 -50.5t68 -137.5q0 -110 -104 -146v-4q126 -42 126 -173q0 -98 -68.5 -152.5t-200.5 -54.5zM300 111q48 0 71 27.5t23 73.5t-23 74t-71 28t-71.5 -28t-23.5 -74
t23.5 -73.5t71.5 -27.5zM300 425q37 0 57.5 21t20.5 59q0 39 -20.5 60.5t-57.5 21.5q-38 0 -58 -21.5t-20 -60.5q0 -80 78 -80z" />
    <glyph glyph-name="nine.tab" unicode="&#xe458;" horiz-adv-x="600" 
d="M222 -9q-97 0 -167 29v135h69q33 -29 97 -29q81 0 117 41.5t44 129.5q-60 -43 -148 -43q-98 0 -155.5 54.5t-57.5 156.5q0 109 73 176.5t194 67.5q131 0 207.5 -86t76.5 -258q0 -181 -89 -277.5t-261 -96.5zM290 373q51 0 96 28q-3 102 -26 145t-70 43q-88 0 -88 -116
q0 -100 88 -100z" />
    <glyph glyph-name="cent.tab" unicode="&#xe459;" horiz-adv-x="600" 
d="M528 40q-53 -35 -128 -44v-99h-91v97q-118 9 -183.5 78.5t-65.5 189.5q0 115 68.5 186.5t182.5 83.5v63h91v-63q73 -7 124 -34v-123h-65q-24 21 -59 29v-286q35 8 66 35h60v-113zM242 260q0 -112 69 -138v277q-69 -28 -69 -139z" />
    <glyph glyph-name="dollar.tab" unicode="&#xe45a;" horiz-adv-x="600" 
d="M341 767v-62q92 -7 170 -49v-125h-71q-45 40 -99 49v-154q118 -32 164.5 -77t46.5 -136q0 -92 -56.5 -148t-163.5 -67v-100h-91v97q-116 6 -195 55v132h72q49 -53 123 -62v162q-104 31 -153 76.5t-49 136.5t56.5 144t154.5 64v64h91zM384 191q0 47 -52 65v-129
q52 18 52 64zM196 513q0 -39 54 -60v122q-54 -15 -54 -62z" />
    <glyph glyph-name="Euro.tab" unicode="&#xe45b;" horiz-adv-x="600" 
d="M368 -9q-115 0 -190.5 61t-100.5 181h-57v93h45v22q0 18 1 25h-46v93h58q27 119 106 181t199 62q103 0 179 -42v-130h-71q-43 36 -101 36q-52 0 -81 -26t-43 -81h166l-17 -93h-160v-47h151l-17 -93h-124q12 -57 39 -82t79 -25q71 0 121 48h63v-121q-80 -62 -199 -62z" />
    <glyph glyph-name="Q.alt" unicode="&#xe490;" horiz-adv-x="742" 
d="M589 -121q-28 43 -81 69t-154 41q-130 20 -210 84q-118 93 -118 279q0 165 99 261t246 96q148 0 247 -96t99 -263q0 -218 -170 -281v-3q78 -13 131.5 -47t77.5 -73v-67h-167zM371 120q69 0 109.5 56t40.5 171q0 114 -40.5 170.5t-109.5 56.5t-109.5 -56.5t-40.5 -170.5
q0 -115 40.5 -171t109.5 -56z" />
    <glyph glyph-name="Q.alt1" unicode="&#xe4b0;" horiz-adv-x="742" 
d="M371 -9q-149 0 -247 95.5t-98 262.5t99 263.5t246 96.5t246.5 -96.5t99.5 -263.5q0 -131 -74 -226l79 -66v-57h-138l-42 36q-79 -45 -171 -45zM371 118q38 0 67 9l-81 71v54h131l24 -20q9 45 9 115q0 114 -40.5 170.5t-109.5 56.5t-109.5 -56.5t-40.5 -170.5
q0 -115 40.5 -172t109.5 -57z" />
    <glyph glyph-name="fi" unicode="&#xfb01;" horiz-adv-x="617" 
d="M12 411v116h57v32q0 153 178 153q54 0 91 -14v-101h-28q-32 0 -46.5 -9.5t-14.5 -35.5v-25h89v-116h-89v-411h-180v411h-57zM567 0h-179v527h116q40 0 51.5 -19t11.5 -82v-426zM478 559q-40 0 -66.5 23.5t-26.5 60.5t26.5 61t66.5 24t66.5 -24t26.5 -61t-26 -60.5
t-67 -23.5z" />
    <glyph glyph-name="fl" unicode="&#xfb02;" horiz-adv-x="616" 
d="M12 411v116h57v32q0 153 178 153q54 0 91 -14v-101h-28q-32 0 -46.5 -9.5t-14.5 -35.5v-25h89v-116h-89v-411h-180v411h-57zM567 0h-180v700h114q42 0 54 -17t12 -77v-606z" />
    <glyph glyph-name="space_uni0326" 
d="M128 -228v62q46 4 46 24q0 5 -3 8t-10 6.5t-9 5.5q-25 15 -25 47q0 25 20 41t51 16q34 0 55.5 -20.5t21.5 -59.5q0 -121 -147 -130z" />
    <glyph glyph-name="space.tab" horiz-adv-x="300" 
 />
    <glyph glyph-name="sterling.tab" horiz-adv-x="600" 
d="M50 0v120q77 29 77 119q0 17 -4 49h-68v118h41q-12 50 -12 91q0 101 72 156.5t190 55.5q115 0 196 -50v-133h-69q-49 40 -110 40q-40 0 -66 -19.5t-26 -60.5q0 -39 6 -80h162v-118h-147q2 -28 2 -41q0 -61 -38 -103h295v-144h-501z" />
    <glyph glyph-name="yen.tab" horiz-adv-x="600" 
d="M52 292v95h117l-138 266v47h173l110 -244h3l105 244h147v-47l-131 -266h121v-95h-159v-47h159v-94h-159v-151h-189v151h-159v94h159v47h-159z" />
    <glyph glyph-name="florin.tab" horiz-adv-x="600" 
d="M134 -100l50 428h-69v116h83l14 111q18 157 186 157q53 0 92 -15v-103h-33q-31 0 -45.5 -10.5t-18.5 -38.5l-12 -101h96v-116h-110l-52 -428h-181z" />
    <glyph glyph-name="percent.tab" horiz-adv-x="800" 
d="M191 424q50 0 50 96t-50 96t-50 -96t50 -96zM191 333q-71 0 -121 49t-50 140t49.5 139t121.5 48t121.5 -48t49.5 -139t-50 -140t-121 -49zM94 -34l493 763h116l-493 -763h-116zM609 83q50 0 50 96t-50 96t-50 -96t50 -96zM609 -9q-71 0 -121 49.5t-50 140.5t49.5 139
t121.5 48t122 -48t50 -139t-50.5 -140.5t-121.5 -49.5z" />
    <glyph glyph-name="perthousand.tab" horiz-adv-x="1200" 
d="M198 424q50 0 50 96t-50 96t-50 -96t50 -96zM198 333q-71 0 -121 49t-50 140t49.5 139t121.5 48t121.5 -48t49.5 -139t-50 -140t-121 -49zM104 -34l493 763h116l-493 -763h-116zM622 83q50 0 50 96t-50 96t-50 -96t50 -96zM622 -9q-71 0 -121 49.5t-50 140.5t49.5 139
t121.5 48t121.5 -48t49.5 -139t-50 -140.5t-121 -49.5zM1002 83q50 0 50 96t-50 96t-50 -96t50 -96zM1002 -9q-71 0 -121 49.5t-50 140.5t49.5 139t121.5 48t121.5 -48t49.5 -139t-50 -140.5t-121 -49.5z" />
    <glyph glyph-name="plus.tab" horiz-adv-x="600" 
d="M544 276h-168v-180h-149v180h-169v139h169v180h149v-180h168v-139z" />
    <glyph glyph-name="minus.tab" horiz-adv-x="600" 
d="M544 276h-486v139h486v-139z" />
    <glyph glyph-name="multiply.tab" horiz-adv-x="600" 
d="M161 108l-94 94l139 138l-139 138l95 95l139 -139l139 139l95 -95l-140 -138l140 -138l-94 -94l-140 138z" />
    <glyph glyph-name="divide.tab" horiz-adv-x="600" 
d="M301 63q-39 0 -66 26t-27 63q0 38 27 64.5t66 26.5q38 0 65.5 -26.5t27.5 -64.5q0 -37 -27.5 -63t-65.5 -26zM58 276v139h486v-139h-486zM301 448q-39 0 -66 26t-27 64t27 64t66 26q38 0 65.5 -26.5t27.5 -63.5q0 -38 -27 -64t-66 -26z" />
    <glyph glyph-name="equal.tab" horiz-adv-x="600" 
d="M526 350h-450v133h450v-133zM526 140h-450v133h450v-133z" />
    <glyph glyph-name="less.tab" horiz-adv-x="600" 
d="M88 269v121l385 188h37v-135l-239 -111v-3l239 -112v-136h-37z" />
    <glyph glyph-name="greater.tab" horiz-adv-x="600" 
d="M513 390v-121l-385 -188h-37v135l238 111v3l-238 111v137h37z" />
    <glyph glyph-name="period.tab" horiz-adv-x="300" 
d="M150 -7q-39 0 -66.5 26.5t-27.5 64.5t27.5 64.5t66.5 26.5t66.5 -26.5t27.5 -64.5t-27.5 -64.5t-66.5 -26.5z" />
    <glyph glyph-name="comma.tab" horiz-adv-x="300" 
d="M56 -41q67 9 67 40q0 9 -4.5 13.5t-15.5 10t-16 9.5q-31 22 -31 64q0 34 26 56.5t65 22.5q42 0 70.5 -28t28.5 -82q0 -162 -190 -180v74z" />
    <glyph glyph-name="colon.tab" horiz-adv-x="300" 
d="M150 277q-40 0 -67 26t-27 64t27 65t67 27q39 0 66.5 -27t27.5 -65q0 -37 -27.5 -63.5t-66.5 -26.5zM150 -7q-40 0 -67 26.5t-27 64.5t27 64.5t67 26.5q39 0 66.5 -26.5t27.5 -64.5t-27.5 -64.5t-66.5 -26.5z" />
    <glyph glyph-name="semicolon.tab" horiz-adv-x="300" 
d="M54 -41q67 9 67 40q0 9 -4.5 13.5t-15.5 10t-16 9.5q-31 22 -31 64q0 34 26 56.5t65 22.5q43 0 71 -28t28 -82q0 -162 -190 -180v74zM150 277q-40 0 -67 26t-27 64t27 65t67 27q39 0 66.5 -27t27.5 -65q0 -37 -27.5 -63.5t-66.5 -26.5z" />
    <glyph glyph-name="numbersign.tab" horiz-adv-x="600" 
d="M77 409v124h89l25 167h117l-25 -167h84l25 167h117l-25 -167h72v-124h-90l-13 -94h71v-124h-89l-28 -191h-117l28 191h-84l-28 -191h-117l28 191h-72v124h90l13 94h-71zM265 409l-13 -94h84l13 94h-84z" />
    <glyph glyph-name="space_uni0326.alt" horiz-adv-x="400" 
d="M273 774v-62q-46 -4 -46 -24q0 -5 3 -8t10 -6.5t9 -5.5q25 -15 25 -47q0 -25 -20 -41t-51 -16q-34 0 -55.5 20.5t-21.5 59.5q0 121 147 130z" />
    <glyph glyph-name="caron.alt" horiz-adv-x="400" 
d="M130 561v139h139v-43l-58 -96h-81z" />
    <glyph glyph-name="less.cap" horiz-adv-x="444" 
d="M248 0l-219 307v85l219 308h165v-46l-208 -304v-2l208 -302v-46h-165z" />
    <glyph glyph-name="greater.cap" horiz-adv-x="444" 
d="M31 0v46l207 304v2l-207 302v46h164l219 -307v-85l-219 -308h-164z" />
    <glyph glyph-name="questiondown.cap" horiz-adv-x="464" 
d="M349 482q10 -59 -3 -97.5t-58 -82.5q-27 -25 -40.5 -39t-25.5 -36t-12 -43q0 -27 18 -42t49 -15q61 0 103 40h68v-123q-83 -53 -193 -53q-112 0 -171.5 48t-59.5 138q0 57 27.5 97t82.5 80q36 27 50 40t25.5 36t9.5 52h130zM280 707q40 0 67 -26.5t27 -64.5t-27 -64.5
t-67 -26.5q-39 0 -66.5 26.5t-27.5 64.5t27.5 64.5t66.5 26.5z" />
    <glyph glyph-name="exclamdown.cap" horiz-adv-x="301" 
d="M209 482l37 -377v-105h-191v105l36 377h118zM150 707q40 0 67 -26.5t27 -64.5t-27 -64.5t-67 -26.5q-39 0 -66.5 26.5t-27.5 64.5t27.5 64.5t66.5 26.5z" />
    <glyph glyph-name="bullet.cap" horiz-adv-x="357" 
d="M179 182q-64 0 -106.5 39t-42.5 105q0 67 43 107t106 40q64 0 106 -40t42 -107q0 -66 -42 -105t-106 -39z" />
    <glyph glyph-name="hyphen.cap" horiz-adv-x="312" 
d="M33 259v137h246v-137h-246z" />
    <glyph glyph-name="endash.cap" horiz-adv-x="439" 
d="M34 261v133h370v-133h-370z" />
    <glyph glyph-name="emdash.cap" horiz-adv-x="740" 
d="M34 261v133h671v-133h-671z" />
    <glyph glyph-name="dagger.cap" horiz-adv-x="479" 
d="M178 0l-28 259v65l38 105l-109 -35h-58v163h58l109 -37l-33 98v82h169v-82l-33 -98l109 37h58v-163h-58l-109 36l38 -104v-65l-28 -261h-123z" />
    <glyph glyph-name="daggerdbl.cap" horiz-adv-x="479" 
d="M148 370l41 76l-110 -36h-58v161h58l109 -36l-33 94v71h169v-71l-33 -93l109 35h58v-161h-58l-110 37l41 -75v-42l-41 -76l110 36h58v-161h-58l-109 36l33 -94v-71h-169v71l33 93l-109 -35h-58v161h58l110 -37l-41 75v42z" />
    <glyph glyph-name="quoteleft.cap" horiz-adv-x="533" 
d="M285 -9q-109 0 -183.5 72.5t-74.5 210.5q0 190 118.5 302.5t351.5 124.5v-122q-110 -12 -157.5 -46.5t-47.5 -81.5q0 -26 17 -41t56.5 -32t59.5 -29q82 -54 82 -160q0 -88 -62 -143t-160 -55z" />
    <glyph glyph-name="quoteright.cap" horiz-adv-x="533" 
d="M248 709q110 0 184.5 -72.5t74.5 -210.5q0 -190 -119 -302.5t-352 -123.5v121q110 12 157.5 47t47.5 81q0 26 -17.5 41t-56 32t-58.5 30q-82 51 -82 159q0 88 61.5 143t159.5 55z" />
    <glyph glyph-name="quotedblleft.cap" horiz-adv-x="1056" 
d="M285 -9q-109 0 -183.5 72.5t-74.5 210.5q0 190 118.5 302.5t351.5 124.5v-122q-110 -12 -157.5 -46.5t-47.5 -81.5q0 -26 17 -41t56.5 -32t59.5 -29q82 -54 82 -160q0 -88 -62 -143t-160 -55zM808 -9q-109 0 -183.5 72.5t-74.5 210.5q0 190 118.5 302.5t351.5 124.5v-122
q-204 -22 -204 -128q0 -26 17 -41t56.5 -32t58.5 -29q82 -53 82 -160q0 -88 -62 -143t-160 -55z" />
    <glyph glyph-name="quotedblright.cap" horiz-adv-x="1056" 
d="M771 709q110 0 184.5 -72.5t74.5 -210.5q0 -190 -119 -302.5t-352 -123.5v121q110 12 157.5 47t47.5 81q0 26 -17.5 41t-56 32t-58.5 30q-82 51 -82 159q0 88 61.5 143t159.5 55zM248 709q110 0 184.5 -72.5t74.5 -210.5q0 -190 -119 -302.5t-352 -123.5v121
q110 12 157.5 47t47.5 81q0 26 -17.5 41t-56 32t-58.5 30q-82 51 -82 159q0 88 61.5 143t159.5 55z" />
    <glyph glyph-name="guillemotleft.cap" horiz-adv-x="738" 
d="M707 700v-46l-208 -304v-2l208 -302v-46h-165l-219 307v85l219 308h165zM413 700v-46l-208 -304v-2l208 -302v-46h-165l-219 307v85l219 308h165z" />
    <glyph glyph-name="guillemotright.cap" horiz-adv-x="738" 
d="M31 0v46l207 304v2l-207 302v46h164l219 -307v-85l-219 -308h-164zM325 0v46l207 304v2l-207 302v46h164l219 -307v-85l-219 -308h-164z" />
    <glyph glyph-name="at.cap" horiz-adv-x="861" 
d="M432 -34q-79 0 -149.5 21t-128.5 63t-91.5 112t-33.5 160q0 95 38 174t99.5 128.5t136 76.5t150.5 27q162 0 270.5 -84t108.5 -230q0 -127 -70.5 -193t-174.5 -66q-102 0 -128 63q-50 -61 -123 -61q-54 0 -87.5 36t-33.5 102q0 95 58 165t154 70q58 0 95 -39q26 34 70 34
h67l-50 -228q-13 -50 22 -50q42 0 70 41.5t28 125.5q0 106 -74 165.5t-202 59.5q-61 0 -116.5 -20t-100 -58t-71 -100t-26.5 -139q0 -135 80.5 -201t212.5 -66q142 0 241 63h35v-84q-45 -31 -118.5 -49.5t-157.5 -18.5zM398 261q30 0 56 26l30 134q-21 7 -35 7
q-38 0 -62 -37.5t-24 -88.5q0 -41 35 -41z" />
    <glyph glyph-name="paragraph.cap" horiz-adv-x="590" 
d="M242 0v300h-3q-101 0 -159.5 49t-58.5 150q0 201 254 201h259v-700h-114v586h-64v-586h-114z" />
    <glyph glyph-name="grave.cap" 
d="M257 723h-105l-102 93v42h173l34 -102v-33z" />
    <glyph glyph-name="dieresis.cap" 
d="M97 723q-37 0 -61 22.5t-24 56.5t24 56.5t61 22.5t60.5 -22t23.5 -57t-23.5 -57t-60.5 -22zM301 723q-37 0 -60.5 22t-23.5 57t23.5 57t60.5 22t61 -22.5t24 -56.5t-24 -56.5t-61 -22.5z" />
    <glyph glyph-name="macron.cap" 
d="M337 842v-109h-276v109h276z" />
    <glyph glyph-name="acute.cap" 
d="M142 723v33l33 102h173v-42l-101 -93h-105z" />
    <glyph glyph-name="circumflex.cap" 
d="M48 723v38l91 100h121l89 -100v-38h-97l-56 38l-55 -38h-93z" />
    <glyph glyph-name="caron.cap" 
d="M349 861v-38l-92 -100h-121l-88 100v38h97l56 -38l55 38h93z" />
    <glyph glyph-name="breve.cap" 
d="M199 723q-60 0 -98 28t-47 71v39h103q4 -31 42 -31q36 0 42 31h103v-39q-10 -42 -48 -70.5t-97 -28.5z" />
    <glyph glyph-name="dotaccent.cap" 
d="M199 723q-40 0 -66.5 23.5t-26.5 60.5t26.5 61t66.5 24t66.5 -24t26.5 -61t-26.5 -60.5t-66.5 -23.5z" />
    <glyph glyph-name="ring.cap" 
d="M199 723q-45 0 -76 28t-31 74q0 45 31 73.5t76 28.5t76 -28.5t31 -73.5q0 -46 -31 -74t-76 -28zM199 789q15 0 24.5 10t9.5 26t-9.5 26t-24.5 10t-24 -10t-9 -26t9 -26t24 -10z" />
    <glyph glyph-name="tilde.cap" 
d="M25 723v40q8 50 35.5 76.5t70.5 26.5q27 0 64 -12t46 -12q23 0 31 24h90v-40q-8 -49 -35.5 -76t-69.5 -27q-28 0 -64.5 13t-45.5 13q-26 0 -32 -26h-90z" />
    <glyph glyph-name="hungarumlaut.cap" 
d="M59 723v29l31 106h141v-42l-76 -93h-96zM238 723v29l31 106h141v-42l-75 -93h-97z" />
    <glyph glyph-name="f.short" horiz-adv-x="337" 
d="M12 411v116h57v32q0 153 178 153q54 0 91 -14v-101h-28q-32 0 -46.5 -9.5t-14.5 -35.5v-25h89v-116h-89v-411h-180v411h-57z" />
    <glyph glyph-name="f_f.short" horiz-adv-x="652" 
d="M249 411v-411h-180v411h-57v116h57v26q0 153 178 153q53 0 92 -14v-101h-29q-32 0 -46.5 -9t-14.5 -34v-21h136v32q0 153 178 153q53 0 90 -14v-101h-27q-33 0 -47.5 -9.5t-14.5 -35.5v-25h89v-116h-89v-411h-179v411h-136z" />
    <glyph glyph-name="uni2116.bgr" horiz-adv-x="278" 
d="M228 0h-179v527h116q40 0 51.5 -19t11.5 -82v-426zM139 559q-40 0 -66.5 23.5t-26.5 60.5t26.5 61t66.5 24t66.5 -24t26.5 -61t-26 -60.5t-67 -23.5z" />
    </font>
</defs>
</svg>
