<svg id="Isolation_Mode" xmlns="http://www.w3.org/2000/svg" xmlns:xlink="http://www.w3.org/1999/xlink" viewBox="0 0 312 39.3"><style>.st0{fill:#406680}.st3{clip-path:url(#SVGID_2_)}</style><path class="st0" d="M237.5 11.5h3.7v16h-3.7v6.1H252v-6.1h-3.7v-16h26.1c2 0 2.1 3.6 0 3.6h-19.1v18.5h7.1V20.5h16.4c2.3 0 4.1-1.4 4.1-3.4v-8c0-2.3-1.9-3.5-4.1-3.5h-41.3v5.9zm28.3 22.1h42.8c1.1 0 1.9-.4 2.5-1.1.6-.8.9-1.6.9-2.7V19.3c0-1.3-.4-2.3-1.1-3.1-.7-.8-1.9-1.2-3.4-1.2h-14.2c-2.3 0-2.2-3.5 0-3.5H312V5.7h-22.5c-2.7 0-4.2 1.3-4.2 3.5v8c0 2.3 1.6 3.4 4.2 3.4h14.2c.9 0 1.9 1 1.9 1.8v3.3c0 .9-1.1 1.8-1.9 1.8h-37.9v6.1z"/><path d="M49.1 36.6c-.7-3.6-1.7-11.2-1.9-12.1C47 23.4 44.7 8.3 44.3 4c-.2-1.8-.2-2.4-.3-2.9-.1-.3-.3-.4-.3-.4H42.8h-.3l-10-.5s-.4-.1-.6.3c-.3.5-.5 1.8-.8 3-.6 2.1-3.1 10.3-4.9 16.5-.3 1-.5 1.9-.8 2.8-.7-3.2-1.5-6.3-2.1-8.7C20.8 4.8 20 1.7 19.4.8c-.2-.4-.4-.4-.6-.4 0 0-.5 0-1.2.1-2.9.1-9.9.4-10 .4-.3.1-.4-.2-1.1 4.5-.1 1-1.5 9.2-2.1 12.1-.4 2.1-2.2 12.4-3.2 17.8-.4 2-1.2 3.3-1.2 3.3l10.9.2s.6-.2 1.2-3.3c.4-2.2 1.1-5.8 2.2-11.8.3 1.3.6 2.3.8 3.1 1.1 4.7 2.3 12.4 4.3 12.4h11.5c1.5 0 1.6-2.5 5-13.7.2-.6.3-1.2.5-1.7.9 5.6 1.7 10.7 1.8 12 .1.4.1.8.2 1.1.3 1.8 1.1 1.7 1.1 1.7l10.5-.1c-.1-.1-.7-.8-.9-1.9" fill="#c3e0f6"/><g opacity=".7"><defs><path id="SVGID_1_" d="M0 0h50v39.3H0z"/></defs><clipPath id="SVGID_2_"><use xlink:href="#SVGID_1_" overflow="visible"/></clipPath><g class="st3"><defs><path id="SVGID_3_" d="M32.5.2s.2 0 .4 1.1c.2 1.3.6 3.5.8 5 .3 2.5 4.1 26.6 4.5 29.5 0 .4.1.8.2 1.1.3 1.8 1.1 1.7 1.1 1.7l10.5-.1c-.1-.1-.7-.8-.9-1.9-.7-3.6-1.7-11.2-1.9-12.1C47 23.4 44.7 8.3 44.3 4c-.2-1.8-.2-2.4-.3-2.9-.1-.3-.3-.4-.3-.4L32.5.2z"/></defs><clipPath id="SVGID_4_"><use xlink:href="#SVGID_3_" overflow="visible"/></clipPath><linearGradient id="SVGID_5_" gradientUnits="userSpaceOnUse" x1="-319.999" y1="6299.68" x2="-318.999" y2="6299.68" gradientTransform="rotate(-90 -139448.055 126001.383) scale(42.1435)"><stop offset="0" stop-color="#b5b4b4"/><stop offset=".13" stop-color="#b5b4b4"/><stop offset=".148" stop-color="#b0afaf"/><stop offset=".503" stop-color="#525252"/><stop offset=".751" stop-color="#171717"/><stop offset=".869"/><stop offset="1"/></linearGradient><path clip-path="url(#SVGID_4_)" fill="url(#SVGID_5_)" d="M32.5.2H50v38.5H32.5z"/></g><g class="st3"><defs><path id="SVGID_6_" d="M7.6.8c-.3.2-.4-.1-1.1 4.6-.1 1-1.5 9.2-2.1 12.1-.4 2.1-2.2 12.4-3.2 17.8-.4 2-1.2 3.3-1.2 3.3l10.9.2s.6-.2 1.2-3.3c.5-2.7 1.4-7.5 3-16.2 1.7-9.2 2.6-13.7 3.1-16.1.2-1.1.3-2 .4-2.4.1-.3.3-.3.3-.3C18.7.4 7.7.8 7.6.8"/></defs><clipPath id="SVGID_7_"><use xlink:href="#SVGID_6_" overflow="visible"/></clipPath><linearGradient id="SVGID_8_" gradientUnits="userSpaceOnUse" x1="-319.999" y1="6299.68" x2="-318.999" y2="6299.68" gradientTransform="rotate(-90 -131990.362 119268.544) scale(39.8859)"><stop offset="0" stop-color="#b1b1b1"/><stop offset=".216" stop-color="#b1b1b1"/><stop offset=".291" stop-color="#a7a7a7"/><stop offset=".417" stop-color="#8d8d8d"/><stop offset=".579" stop-color="#636363"/><stop offset=".767" stop-color="#292929"/><stop offset=".887"/><stop offset="1"/></linearGradient><path clip-path="url(#SVGID_7_)" fill="url(#SVGID_8_)" d="M0 .4h18.8v38.3H0z"/></g><g class="st3"><defs><path id="SVGID_9_" d="M32.300000000000004.09999999999999998c-.1 0-.3.1-.4.3-.3.5-.5 1.8-.8 3-.6 2.2-3.1 10.4-4.9 16.6-1.9 6.9-4 13.4-5.1 15.9-.4 1-1 2.4-1.3 2.8-.3.4-.5.4-.5.4s10.8 0 11.5.1h.1c1.5 0 1.6-2.5 4.9-13.7 3.5-11.6 7.1-23.3 7.4-24.3.1-.5.5-.5.5-.5-.1 0-.5-.1-.9-.1-.5 0-10.3-.5-10.3-.5h-.2z"/></defs><clipPath id="SVGID_10_"><use xlink:href="#SVGID_9_" overflow="visible"/></clipPath><linearGradient id="SVGID_11_" gradientUnits="userSpaceOnUse" x1="-319.999" y1="6299.68" x2="-318.999" y2="6299.68" gradientTransform="rotate(90 129381.184 143225.098) scale(43.268)"><stop offset="0" stop-color="#fff"/><stop offset=".063" stop-color="#fff"/><stop offset=".077" stop-color="#ededed"/><stop offset=".124" stop-color="#b6b6b6"/><stop offset=".173" stop-color="#868686"/><stop offset=".223" stop-color="#5c5c5c"/><stop offset=".273" stop-color="#3b3b3b"/><stop offset=".324" stop-color="#212121"/><stop offset=".377" stop-color="#0f0f0f"/><stop offset=".431" stop-color="#040404"/><stop offset=".492"/><stop offset=".54" stop-color="#090909"/><stop offset=".617" stop-color="#212121"/><stop offset=".713" stop-color="#474747"/><stop offset=".825" stop-color="#7d7d7d"/><stop offset=".949" stop-color="#c1c1c1"/><stop offset="1" stop-color="#dfdfdf"/></linearGradient><path clip-path="url(#SVGID_10_)" fill="url(#SVGID_11_)" d="M19.3.1h24.4v39.1H19.3z"/></g><g class="st3"><defs><path id="SVGID_12_" d="M18.8.4C18.6.4 7.6.9 7.6.9s.2 0 .4.2c.4.4.8 1.6 1.5 4.4C11 11.1 14 22.7 15 26.7c1.1 4.7 2.3 12.4 4.3 12.4l11.6.1s-.3 0-.5-.2c-.4-.3-1-.7-1.6-2.5-.8-2.2-3.5-15.3-5.4-22.3C20.8 4.8 20 1.7 19.4.8c-.2-.4-.4-.4-.6-.4"/></defs><clipPath id="SVGID_13_"><use xlink:href="#SVGID_12_" overflow="visible"/></clipPath><linearGradient id="SVGID_14_" gradientUnits="userSpaceOnUse" x1="-319.999" y1="6299.68" x2="-318.999" y2="6299.68" gradientTransform="rotate(90 122376.864 135473.183) scale(40.9276)"><stop offset="0"/><stop offset=".041" stop-color="#313131"/><stop offset=".105" stop-color="#757575"/><stop offset=".158" stop-color="#a7a7a7"/><stop offset=".198" stop-color="#c6c6c6"/><stop offset=".22" stop-color="#d2d2d2"/><stop offset=".312" stop-color="#b2b2b2"/><stop offset=".487" stop-color="#6d6d6c"/><stop offset=".621" stop-color="#6a6a69"/><stop offset=".715" stop-color="#616160"/><stop offset=".796" stop-color="#525251"/><stop offset=".87" stop-color="#3c3c3b"/><stop offset=".939" stop-color="#20201f"/><stop offset="1"/></linearGradient><path clip-path="url(#SVGID_13_)" fill="url(#SVGID_14_)" d="M7.6.4h23.2v38.9H7.6z"/></g></g><path class="st0" d="M58 .2h.5v39H58zM225.6.3h.5v39h-.5zM94.4 5.8h4.8c.5 0 .9.4.9.9v26.2c0 .5-.4.9-.9.9H94c-.5 0-.9-.4-.9-.9V18.7c0-.8-1-1.2-1.6-.6l-6 6.9h-1.1l-6-6.9c-.4-.6-1.4-.2-1.4.6v14.2c0 .5-.4.9-.9.9h-5.2c-.5 0-.9-.4-.9-.9V6.7c0-.5.4-.9.9-.9h4.8c.3 0 .5.1.7.3l8 9.3c.4.4 1 .4 1.3 0l8-9.3c.2-.2.5-.3.7-.3M126.4 33.8h-18.8c-.5 0-.9-.4-.9-.9V6.7c0-.5.4-.9.9-.9h18.5c.5 0 .9.4.9.9V10c0 .5-.4.9-.9.9h-11.6c-.5 0-.9.4-.9.9v4.1c0 .5.4.9.9.9h11c.5 0 .9.4.9.9V21c0 .5-.4.9-.9.9h-11c-.5 0-.9.4-.9.9v4.9c0 .5.4.9.9.9h11.9c.5 0 .9.4.9.9v3.3c0 .6-.4 1-.9 1M155.6 10.9h-7.5c-.5 0-.9.4-.9.9v21c0 .5-.4.9-.9.9h-5.2c-.5 0-.9-.4-.9-.9v-21c0-.5-.4-.9-.9-.9h-7.5c-.5 0-.9-.4-.9-.9V6.7c0-.5.4-.9.9-.9h23.8c.5 0 .9.4.9.9V10c0 .5-.4.9-.9.9M175.2 19.5l10.7 12.8c.5.6.1 1.5-.7 1.5h-6.4c-.3 0-.5-.1-.7-.3l-9.2-10.9c-.5-.6-1.6-.3-1.6.6V33c0 .5-.4.9-.9.9h-5.2c-.5 0-.9-.4-.9-.9V6.7c0-.5.4-.9.9-.9h5.2c.5 0 .9.4.9.9v11.8h.1l8.5-12.3c.2-.2.4-.4.7-.4h5.5c.7 0 1.1.8.7 1.4l-7.7 11.2c-.2.3-.2.7.1 1.1M216.7 33.8h-5.5c-.4 0-.7-.2-.8-.5l-1.8-4.4c-.1-.3-.5-.6-.8-.6h-11.3c-.4 0-.7.2-.8.6l-1.7 4.4c-.1.3-.5.6-.8.6h-5.4c-.6 0-1.1-.6-.8-1.2l10.5-26.2c.1-.3.5-.6.8-.6h6.9c.4 0 .7.2.8.5l11.6 26.2c.2.5-.3 1.2-.9 1.2m-15.8-19.2l-2.8 7.5c-.2.6.2 1.2.8 1.2h6c.6 0 1.1-.6.8-1.2l-3.1-7.5c-.3-.8-1.4-.7-1.7 0"/></svg>